#VRML V2.0 utf8
# 3D model generated by easyeda2kicad.py (https://github.com/uPesy/easyeda2kicad.py)

Shape{
    appearance Appearance {
        material  Material 	{
            diffuseColor 0.6470588235294118 0.6196078431372549 0.5882352941176471
            specularColor 0.45098039215686275 0.43529411764705883 0.4117647058823529
            ambientIntensity 0.2
            transparency 0
            shininess 0.5
        }
    }
    geometry IndexedFaceSet {
        ccw TRUE
        solid FALSE
        coord DEF co Coordinate {
            point [
                2.0571 -0.8543 -0.0039, 2.1752 -0.8543 -0.0039, 2.0571 -1.4232 -0.0039, 2.1752 -1.4232 -0.0039, 2.1752 -2.4291 -0.0039, 2.0571 -2.4291 -0.0039, 2.1752 -1.9232 -0.0039, 2.0571 -1.9232 -0.0039, -0.876 -2.4291 -0.0039, -0.9941 -2.4291 -0.0039, -0.876 -1.9232 -0.0039, -0.9941 -1.9232 -0.0039, -0.9941 -0.8543 -0.0039, -0.876 -0.8543 -0.0039, -0.9941 -1.4232 -0.0039, -0.876 -1.4232 -0.0039, -0.876 -1.4232 -0.0039
            ]
        }
        coordIndex [
            0,1,2,-1,2,1,3,-1,4,5,6,-1,6,5,7,-1,8,9,10,-1,10,9,11,-1,12,13,14,-1,14,13,15,-1,
        ]
    }
}
Shape{
    appearance Appearance {
        material  Material 	{
            diffuseColor 1.0 1.0 1.0
            specularColor 0.8784313725490196 0.8784313725490196 0.8784313725490196
            ambientIntensity 0.2
            transparency 0
            shininess 0.5
        }
    }
    geometry IndexedFaceSet {
        ccw TRUE
        solid FALSE
        coord DEF co Coordinate {
            point [
                1.8996 -1.3661 1.1535, 1.8996 -1.3661 0.9961, 2.0571 -1.3661 1.1535, 2.0571 -1.3661 0.9961, 2.0571 -1.3661 0.9961
            ]
        }
        coordIndex [
            0,1,2,-1,2,1,3,-1,
        ]
    }
}
Shape{
    appearance Appearance {
        material  Material 	{
            diffuseColor 0.2235294117647059 0.2235294117647059 0.2235294117647059
            specularColor 0.11372549019607843 0.11372549019607843 0.11372549019607843
            ambientIntensity 0.2
            transparency 0
            shininess 0.5
        }
    }
    geometry IndexedFaceSet {
        ccw TRUE
        solid FALSE
        coord DEF co Coordinate {
            point [
                1.8996 -1.3661 0.5236, 1.8996 -1.3661 0.3661, 2.0571 -1.3661 0.5236, 2.0571 -1.3661 0.3661, -0.9941 -1.3661 1.1535, -1.3091 -1.3661 1.1535, -0.9941 -1.3661 0.9961, -1.3091 -1.3661 0.9961, -0.9941 -1.3661 0.5236, -1.3091 -1.3661 0.5236, -0.9941 -1.3661 0.3661, -1.3091 -1.3661 0.3661, -0.1152 -3.2222 0.0, 0.0296 -3.2222 0.0, -0.1152 -3.335 0.0, 0.0672 -3.3326 0.0, 0.1392 -3.335 0.0, 0.1248 -3.3326 0.0, 0.1392 -2.9365 0.0, -0.024 -2.9389 0.0, -0.1152 -2.9365 0.0, -0.0768 -2.9389 0.0, -0.1152 -3.0374 0.0, -0.9941 -2.9365 0.0, -0.133 -3.2222 0.0, -0.1728 -3.3326 0.0, -0.2305 -3.3326 0.0, -0.8953 -3.335 0.0, -0.9941 -3.2362 0.0, 0.7874 -0.3819 0.0, 0.7874 -2.9213 0.0, 0.773 -2.9277 0.0, 0.773 0.4055 0.0, 0.8114 0.4055 0.0, 0.8114 -0.3819 0.0, 0.8465 0.4055 0.0, 0.9857 0.3479 0.0, 1.0169 0.3071 0.0, 0.9449 0.3791 0.0, 1.0366 0.2596 0.0, 0.8974 0.3988 0.0, 1.1811 -2.9213 0.0, 1.1811 -0.3819 0.0, 2.0571 -2.4291 0.0, 2.0571 -0.8543 0.0, 1.0433 0.2087 0.0, 1.0433 -0.185 0.0, 1.1451 -0.3819 0.0, 1.1451 -0.185 0.0, 1.3189 -0.185 0.0, 2.1752 -0.8543 0.0, 2.1752 -0.3819 0.0, 2.1752 0.4055 0.0, 1.3189 0.2087 0.0, 1.5157 0.4055 0.0, 1.3256 0.2596 0.0, 1.3453 0.3071 0.0, 1.4648 0.3988 0.0, 1.3766 0.3479 0.0, 1.4173 0.3791 0.0, 0.8114 -2.9277 0.0, 0.8114 -2.9213 0.0, 1.1451 -2.9277 0.0, 1.1451 -2.9213 0.0, 0.5089 -2.9277 0.0, 0.1392 -2.9277 0.0, 0.3937 -2.9213 0.0, 0.1392 -2.9213 0.0, 0.2837 0.3988 0.0, 0.3346 0.4055 0.0, 0.1392 0.2196 0.0, 0.1642 0.3071 0.0, 0.1955 0.3479 0.0, 0.2362 0.3791 0.0, 0.1445 0.2596 0.0, -0.0 -2.9213 0.0, -0.1152 -2.9277 0.0, -0.0 -0.3819 0.0, -0.1152 -0.185 0.0, 0.1378 -0.185 0.0, 0.1392 -0.3819 0.0, 0.5089 0.4055 0.0, 0.3937 -0.3819 0.0, 0.1378 0.2087 0.0, -0.9941 -2.9277 0.0, -0.9941 -2.4291 0.0, -0.876 -2.4291 0.0, -0.876 -0.8543 0.0, -0.1378 -0.185 0.0, -0.9941 -0.8543 0.0, -0.9941 -0.3819 0.0, -0.1378 0.2087 0.0, -0.9941 0.4055 0.0, -0.3346 0.4055 0.0, -0.2837 0.3988 0.0, -0.2362 0.3791 0.0, -0.1955 0.3479 0.0, -0.1642 0.3071 0.0, -0.1445 0.2596 0.0, 1.1619 -3.2894 0.0, 1.1619 -3.3326 0.0, 1.1451 -3.335 0.0, 1.3635 -3.3326 0.0, 1.3635 -2.9389 0.0, 2.1752 -2.9365 0.0, 2.1752 -3.2362 0.0, 2.0764 -3.335 0.0, 1.8996 -3.5118 0.0, 1.1451 -3.5118 0.0, 0.8354 -3.269 0.0, 0.8354 -3.3122 0.0, 0.8114 -3.335 0.0, 0.8774 -3.3295 0.0, 0.8933 -2.9365 0.0, 0.8809 -2.9374 0.0, 0.8114 -2.9365 0.0, 0.8354 -2.9497 0.0, 0.8354 -3.0025 0.0, 0.8798 -2.9836 0.0, 0.8425 -3.2729 0.0, 0.9276 -2.9773 0.0, 0.9664 -2.9817 0.0, 0.9958 -2.9923 0.0, 1.0231 -3.0106 0.0, 1.0469 -3.0368 0.0, 1.0755 -3.14 0.0, 1.0715 -3.1826 0.0, 1.0608 -3.2165 0.0, 0.9732 -3.2901 0.0, 0.9365 -3.2942 0.0, 1.0019 -3.2795 0.0, 1.026 -3.2633 0.0, 1.0445 -3.2438 0.0, 0.8842 -3.2884 0.0, 1.0631 -3.0672 0.0, 1.0736 -3.1094 0.0, 1.0304 -3.3193 0.0, 1.0621 -3.299 0.0, 1.0844 -3.0058 0.0, 1.0489 -2.9716 0.0, 1.1451 -2.9365 0.0, 1.0115 -2.9501 0.0, 1.1283 -3.1432 0.0, 1.1226 -3.0872 0.0, 1.1075 -3.0426 0.0, 0.9676 -2.9374 0.0, 0.9575 -2.9365 0.0, 0.9281 -2.9341 0.0, 1.0917 -3.2679 0.0, 1.1126 -3.2305 0.0, 1.1245 -3.1888 0.0, 1.3107 -2.9389 0.0, 1.3107 -3.2894 0.0, 0.9172 -3.335 0.0, 0.933 -3.3373 0.0, 0.8114 -3.5118 0.0, 0.9437 -3.3374 0.0, 0.9669 -3.335 0.0, 0.9923 -3.3324 0.0, -0.7185 -3.5118 0.0, -0.1152 -3.5118 0.0, 0.1392 -3.5118 0.0, 0.5089 -3.5118 0.0, 0.5089 -3.335 0.0, 0.773 -3.5118 0.0, 0.773 -3.335 0.0, 0.773 -2.9365 0.0, 0.5569 -2.9389 0.0, 0.5089 -2.9365 0.0, 0.5569 -2.9821 0.0, 0.5473 -3.2894 0.0, 0.5473 -3.3326 0.0, 0.7586 -3.3326 0.0, 0.7586 -2.9389 0.0, 0.7058 -3.155 0.0, 0.7058 -3.2894 0.0, 0.5665 -3.155 0.0, 0.5665 -3.1118 0.0, 0.7058 -3.1118 0.0, 0.7058 -2.9821 0.0, 0.3594 -2.9389 0.0, 0.3025 -2.945 0.0, 0.2565 -2.9612 0.0, 0.2136 -2.9899 0.0, 0.1733 -3.2247 0.0, 0.1959 -3.2599 0.0, 0.2283 -3.291 0.0, 0.2694 -3.3149 0.0, 0.2132 -2.9903 0.0, 0.1854 -3.0211 0.0, 0.1671 -3.055 0.0, 0.1565 -3.0938 0.0, 0.1536 -3.1308 0.0, 0.1592 -3.1835 0.0, 0.3148 -3.3284 0.0, 0.3635 -3.3326 0.0, 0.4705 -3.3326 0.0, 0.4705 -2.9389 0.0, 2.1752 -2.4291 0.0, 2.1752 -2.9277 0.0, 0.748 -0.185 1.008, 0.689 -0.185 1.008, 0.689 -0.185 1.3228, 2.1949 -0.185 1.3228, 2.1949 -0.185 0.9961, 1.3189 -0.185 1.3228, 1.8996 -0.185 0.9961, 0.689 -0.185 0.1969, 0.689 -0.185 0.5117, 1.0433 -0.185 0.1969, 0.748 -0.185 0.5117, 1.3071 -0.185 0.627, 2.1949 -0.185 0.1969, 1.0551 -0.185 0.627, 1.3189 -0.185 0.1969, 1.0551 -0.185 0.884, 1.3071 -0.185 0.884, 1.0433 -0.185 1.3228, 2.1949 -0.185 0.5236, 1.8996 -0.185 0.5236, 1.3189 -0.185 1.5197, 1.0433 -0.185 1.5197, 1.0551 -0.5591 0.8858, 0.6811 -0.5591 1.2598, 1.0551 -0.5591 0.6339, 0.6811 -0.5591 0.2598, 1.3071 -0.5591 0.6339, 1.6811 -0.5591 0.2598, 1.3071 -0.5591 0.8858, 1.6811 -0.5591 1.2598, 1.5157 0.4055 1.3228, 1.5157 0.4055 1.5197, 2.1949 0.4055 1.3228, 2.4902 0.4055 1.5197, 2.1949 0.4055 1.126, 2.4902 0.4055 1.126, 1.5157 0.4055 0.1969, 2.4902 0.4055 0.1969, 2.1752 0.4055 -0.1969, 2.4902 0.4055 -0.1969, 2.1949 0.1693 0.1969, 2.4902 0.1693 0.1969, 1.3189 0.2087 0.1969, 1.3256 0.2596 0.1969, 1.4648 0.3988 0.1969, 1.4173 0.3791 0.1969, 1.3766 0.3479 0.1969, 1.3453 0.3071 0.1969, 1.3189 0.2087 1.3228, 1.3256 0.2596 1.3228, 1.3453 0.3071 1.3228, 1.3766 0.3479 1.3228, 1.4173 0.3791 1.3228, 1.4648 0.3988 1.3228, -0.7185 -0.185 0.9961, -1.0138 -0.185 0.9961, -1.0138 -0.185 1.3228, -0.126 -0.185 0.884, -0.126 -0.185 0.627, -0.7185 -0.185 0.5236, -0.1378 -0.185 0.1969, -1.0138 -0.185 0.5236, -1.0138 -0.185 0.1969, 0.4331 -0.185 0.5117, 0.4921 -0.185 0.5117, 0.4921 -0.185 0.1969, 0.4921 -0.185 1.3228, 0.4921 -0.185 1.008, 0.4331 -0.185 1.008, 0.1378 -0.185 0.1969, 0.126 -0.185 0.884, -0.1378 -0.185 1.3228, 0.1378 -0.185 1.3228, -0.1378 -0.185 1.5197, 0.1378 -0.185 1.5197, 0.126 -0.185 0.627, -0.126 -0.5591 0.8858, -0.5 -0.5591 1.2598, -0.126 -0.5591 0.6339, -0.5 -0.5591 0.2598, 0.126 -0.5591 0.6339, 0.5 -0.5591 0.2598, 0.126 -0.5591 0.8858, 0.5 -0.5591 1.2598, 0.8465 0.4055 1.3228, 0.3346 0.4055 1.3228, 0.8465 0.4055 1.5197, 0.3346 0.4055 1.5197, 0.8465 0.4055 0.1969, 0.3346 0.4055 0.1969, 0.4921 -0.3819 0.1969, 0.689 -0.3819 0.1969, 0.9449 0.3791 0.1969, 0.8974 0.3988 0.1969, 0.1378 0.2087 0.1969, 1.0433 0.2087 0.1969, 1.0366 0.2596 0.1969, 1.0169 0.3071 0.1969, 0.9857 0.3479 0.1969, 0.2837 0.3988 0.1969, 0.2362 0.3791 0.1969, 0.1955 0.3479 0.1969, 0.1642 0.3071 0.1969, 0.1445 0.2596 0.1969, 1.0433 0.2087 1.3228, 0.2837 0.3988 1.3228, 0.689 -0.3819 1.3228, 0.4921 -0.3819 1.3228, 0.2362 0.3791 1.3228, 1.0366 0.2596 1.3228, 0.1378 0.2087 1.3228, 0.1445 0.2596 1.3228, 0.1642 0.3071 1.3228, 0.1955 0.3479 1.3228, 0.8974 0.3988 1.3228, 0.9449 0.3791 1.3228, 0.9857 0.3479 1.3228, 1.0169 0.3071 1.3228, -1.0138 0.4055 1.126, -1.3091 0.4055 1.126, -1.0138 0.4055 1.3228, -1.3091 0.4055 1.5197, -0.3346 0.4055 1.3228, -0.3346 0.4055 1.5197, -0.9941 0.4055 -0.1969, -1.3091 0.4055 -0.1969, -1.3091 0.4055 0.1969, -0.3346 0.4055 0.1969, 2.4902 0.1693 1.126, 2.4902 -2.9213 1.5197, 2.4902 -2.9213 1.1535, 2.4902 -1.3661 1.1535, 2.4902 -2.9213 1.2835, 2.4902 -1.3661 0.9961, 2.4902 -0.3819 0.9961, 2.4902 -0.3819 0.5236, 2.4902 -1.3661 0.5236, 2.4902 -1.3661 0.3661, 2.4902 -2.9213 0.3661, 2.4902 -2.9213 0.1575, 2.4902 -0.3819 0.1575, 2.4902 -0.3819 -0.1969, 2.1949 -0.3819 0.5236, 2.1949 -0.3819 0.9961, 2.1949 0.1693 1.126, 1.8996 -2.9213 1.2835, 1.8996 -2.9213 1.1535, 1.8996 -3.5118 1.2835, 1.8996 -3.5118 1.5197, 2.4902 -2.9213 0.3937, 1.8996 -3.5118 0.3937, -0.7185 -3.5118 0.3937, -1.3091 -2.9213 0.3937, -1.3091 -2.9213 0.3661, -1.3091 -2.9213 0.1575, -1.3091 -2.9213 1.5197, 0.1969 -2.3399 1.5197, 0.9843 -2.3399 1.5197, 1.3256 0.2596 1.5197, 1.3189 0.2087 1.5197, 0.1445 0.2596 1.5197, 0.1378 0.2087 1.5197, 0.9843 -3.2362 1.5197, 0.1969 -3.2362 1.5197, -0.7185 -3.5118 1.5197, 1.4648 0.3988 1.5197, 1.4173 0.3791 1.5197, 1.3453 0.3071 1.5197, 1.3766 0.3479 1.5197, 0.9857 0.3479 1.5197, 0.9449 0.3791 1.5197, 0.8974 0.3988 1.5197, 0.2362 0.3791 1.5197, 0.1955 0.3479 1.5197, 0.1642 0.3071 1.5197, -0.1642 0.3071 1.5197, -0.1955 0.3479 1.5197, -0.2362 0.3791 1.5197, -0.1378 0.2087 1.5197, 1.0433 0.2087 1.5197, 1.0366 0.2596 1.5197, 1.0169 0.3071 1.5197, 0.2837 0.3988 1.5197, -0.1445 0.2596 1.5197, -0.2837 0.3988 1.5197, -1.3091 0.1693 0.1969, -1.3091 -0.3819 -0.1969, -1.3091 0.1693 1.126, -1.3091 -0.3819 0.1575, -1.3091 -0.3819 0.9961, -1.3091 -0.3819 0.5236, -1.3091 -2.9213 1.1535, -1.3091 -2.9213 1.2835, 1.6811 -3.5118 1.2598, 1.6811 -3.5118 0.2598, -0.5 -3.5118 0.2598, 0.5 -3.5118 0.2598, -0.7185 -3.5118 1.2835, -0.5 -3.5118 1.2598, 0.5 -3.5118 1.2598, 0.6811 -3.5118 1.2598, 0.6811 -3.5118 0.2598, 0.9843 -2.3787 1.5246, 0.9843 -2.4152 1.5389, 0.9843 -2.447 1.5617, 0.9843 -2.4722 1.5917, 0.9843 -2.4892 1.627, 0.9843 -2.4443 1.9921, 0.9843 -2.7638 1.9921, 0.9843 -2.495 1.7045, 0.9843 -2.4969 1.6654, 0.1969 -2.495 1.7045, 0.1969 -2.4443 1.9921, 0.1969 -2.4969 1.6654, 0.1969 -2.4892 1.627, 0.1969 -2.4722 1.5917, 0.1969 -2.447 1.5617, 0.1969 -2.4152 1.5389, 0.1969 -2.3787 1.5246, 0.1969 -2.7638 1.9921, -0.9941 -0.3819 -0.1969, -0.0 -0.3819 -0.1969, -0.0 -2.9213 -0.1969, 0.3937 -0.3819 -0.1969, 0.3937 -2.9213 -0.1969, -0.7185 -2.9213 1.1535, -0.7185 -1.3661 1.1535, -0.7185 -1.3661 0.9961, -0.7185 -1.3661 0.5236, -0.7185 -2.9213 1.2835, -0.7185 -2.9213 0.3937, -0.7185 -2.9213 0.3661, -0.7185 -1.3661 0.3661, -0.876 -1.3661 0.9961, -0.876 -1.3661 1.1535, -1.0138 -0.3819 0.9961, -0.876 -0.8543 0.9961, -0.9941 -0.8543 0.9961, -1.0138 -0.3819 0.5236, -0.876 -1.3661 0.5236, -0.876 -0.8543 0.5236, -0.9941 -0.8543 0.5236, -0.876 -1.3661 0.3661, -0.876 -2.4291 0.3661, -0.9941 -2.4291 0.3661, -0.876 -2.4291 1.1535, -0.9941 -2.4291 1.1535, -1.0138 0.1693 1.126, -1.0138 0.1693 0.1969, -0.1378 0.2087 0.1969, -0.1955 0.3479 0.1969, -0.1642 0.3071 0.1969, -0.1445 0.2596 0.1969, -0.2837 0.3988 0.1969, -0.2362 0.3791 0.1969, 2.1752 -0.3819 -0.1969, 1.1811 -2.9213 -0.1969, 1.1811 -0.3819 -0.1969, 0.7874 -2.9213 -0.1969, 0.7874 -0.3819 -0.1969, 1.8996 -1.3661 0.9961, 1.8996 -2.9213 0.3661, 1.8996 -2.9213 0.3937, 1.8996 -1.3661 1.1535, 2.0571 -1.3661 1.1535, 2.0571 -2.4291 1.1535, 2.1752 -1.3661 1.1535, 2.1752 -2.4291 1.1535, 2.1752 -2.4291 1.1535
            ]
        }
        coordIndex [
            0,1,2,-1,2,1,3,-1,4,5,6,-1,6,5,7,-1,8,9,10,-1,10,9,11,-1,12,13,14,-1,14,13,15,-1,14,15,16,-1,16,15,17,-1,16,17,18,-1,18,17,19,-1,18,19,20,-1,19,21,20,-1,20,21,22,-1,20,22,23,-1,24,12,25,-1,25,12,14,-1,25,14,26,-1,26,14,27,-1,26,27,22,-1,22,27,28,-1,22,28,23,-1,29,30,31,-1,32,33,34,-1,34,33,35,-1,36,37,38,-1,38,37,39,-1,38,39,40,-1,41,42,43,-1,43,42,44,-1,40,39,35,-1,35,39,45,-1,35,45,34,-1,34,45,46,-1,34,46,47,-1,47,46,48,-1,47,48,42,-1,42,48,49,-1,42,49,44,-1,50,44,51,-1,51,44,49,-1,51,49,52,-1,52,49,53,-1,52,53,54,-1,53,55,54,-1,54,55,56,-1,54,56,57,-1,57,56,58,-1,57,58,59,-1,31,30,60,-1,60,30,61,-1,60,61,62,-1,62,61,63,-1,62,63,41,-1,64,65,66,-1,66,65,67,-1,68,69,70,-1,71,72,73,-1,68,70,73,-1,73,70,74,-1,73,74,71,-1,67,65,75,-1,75,65,76,-1,75,76,77,-1,78,79,80,-1,81,82,69,-1,69,82,80,-1,69,80,70,-1,70,80,79,-1,70,79,83,-1,84,85,76,-1,76,85,86,-1,76,86,87,-1,80,77,78,-1,78,77,76,-1,78,76,88,-1,88,76,87,-1,87,89,88,-1,88,89,90,-1,88,90,91,-1,91,90,92,-1,92,93,91,-1,91,93,94,-1,91,94,95,-1,95,96,91,-1,91,96,97,-1,91,97,98,-1,99,100,101,-1,101,100,102,-1,102,103,104,-1,104,105,102,-1,102,105,106,-1,102,106,101,-1,101,106,107,-1,101,107,108,-1,109,110,111,-1,111,110,112,-1,113,114,115,-1,115,114,116,-1,115,116,117,-1,109,118,119,-1,119,118,120,-1,119,120,121,-1,121,122,119,-1,119,122,123,-1,119,123,124,-1,125,126,119,-1,119,126,127,-1,128,129,130,-1,130,129,131,-1,127,132,119,-1,119,132,131,-1,119,131,133,-1,133,131,129,-1,124,134,119,-1,119,134,135,-1,119,135,125,-1,136,137,101,-1,138,139,140,-1,140,139,141,-1,142,143,140,-1,140,143,144,-1,140,144,138,-1,141,145,140,-1,140,145,146,-1,140,146,62,-1,62,146,147,-1,62,147,60,-1,137,148,101,-1,101,148,149,-1,101,149,150,-1,150,142,101,-1,101,142,140,-1,101,140,99,-1,99,140,151,-1,99,151,152,-1,153,154,155,-1,155,154,156,-1,155,156,108,-1,108,156,157,-1,108,157,101,-1,101,157,158,-1,101,158,136,-1,159,27,160,-1,160,27,14,-1,160,14,161,-1,161,14,16,-1,161,16,162,-1,162,16,163,-1,162,163,164,-1,164,163,165,-1,164,165,155,-1,155,165,111,-1,155,111,153,-1,153,111,112,-1,165,166,111,-1,111,166,115,-1,111,115,109,-1,109,115,117,-1,109,117,118,-1,167,168,166,-1,167,169,168,-1,168,169,170,-1,168,170,163,-1,163,170,171,-1,163,171,165,-1,165,171,172,-1,165,172,166,-1,166,172,173,-1,166,173,167,-1,174,175,176,-1,176,175,170,-1,176,170,177,-1,177,170,169,-1,177,169,178,-1,178,169,179,-1,180,18,168,-1,180,181,18,-1,18,181,182,-1,18,182,183,-1,184,185,16,-1,16,185,186,-1,16,186,187,-1,183,188,18,-1,18,188,189,-1,18,189,190,-1,190,191,18,-1,18,191,192,-1,18,192,16,-1,16,192,193,-1,16,193,184,-1,187,194,16,-1,16,194,195,-1,16,195,163,-1,163,195,196,-1,163,196,168,-1,168,196,197,-1,168,197,180,-1,43,198,41,-1,41,198,199,-1,41,199,62,-1,62,199,104,-1,62,104,140,-1,140,104,103,-1,140,103,151,-1,23,84,20,-1,20,84,76,-1,20,76,18,-1,18,76,65,-1,18,65,168,-1,168,65,64,-1,168,64,166,-1,166,64,31,-1,166,31,115,-1,115,31,60,-1,115,60,113,-1,113,60,147,-1,66,82,64,-1,64,82,81,-1,64,81,31,-1,31,81,32,-1,31,32,29,-1,29,32,34,-1,200,201,202,-1,203,204,205,-1,205,204,206,-1,207,208,209,-1,209,208,210,-1,211,212,213,-1,213,212,214,-1,48,46,209,-1,49,48,214,-1,214,48,209,-1,214,209,213,-1,213,209,210,-1,213,210,215,-1,210,200,215,-1,215,200,202,-1,215,202,216,-1,216,202,217,-1,218,212,219,-1,219,212,211,-1,219,211,206,-1,206,211,216,-1,206,216,205,-1,205,216,217,-1,205,217,220,-1,220,217,221,-1,222,223,224,-1,224,223,225,-1,224,225,226,-1,226,225,227,-1,226,227,228,-1,228,227,229,-1,228,229,222,-1,222,229,223,-1,230,231,232,-1,232,231,233,-1,232,233,234,-1,234,233,235,-1,54,236,52,-1,52,236,237,-1,52,237,238,-1,238,237,239,-1,240,241,237,-1,214,212,242,-1,242,212,240,-1,242,240,243,-1,237,236,240,-1,240,236,244,-1,240,244,245,-1,245,246,240,-1,240,246,247,-1,240,247,243,-1,203,205,232,-1,232,205,248,-1,232,248,230,-1,230,248,249,-1,230,249,250,-1,251,252,250,-1,250,252,253,-1,250,253,230,-1,254,255,256,-1,257,258,259,-1,259,258,260,-1,259,260,261,-1,261,260,262,-1,263,264,265,-1,266,267,268,-1,269,79,78,-1,259,254,257,-1,257,254,256,-1,257,256,270,-1,270,256,271,-1,270,271,272,-1,272,271,273,-1,272,273,274,-1,272,266,270,-1,270,266,268,-1,270,268,275,-1,268,263,275,-1,275,263,265,-1,275,265,258,-1,258,265,269,-1,258,269,260,-1,260,269,78,-1,260,78,88,-1,276,277,278,-1,278,277,279,-1,278,279,280,-1,280,279,281,-1,280,281,282,-1,282,281,283,-1,282,283,276,-1,276,283,277,-1,284,285,286,-1,286,285,287,-1,35,33,288,-1,288,33,32,-1,288,32,289,-1,289,32,81,-1,289,81,69,-1,290,291,265,-1,265,291,207,-1,265,292,293,-1,293,288,265,-1,265,288,294,-1,265,294,269,-1,207,209,295,-1,295,296,207,-1,207,296,297,-1,207,297,265,-1,265,297,298,-1,265,298,292,-1,288,289,294,-1,294,289,299,-1,294,299,300,-1,300,301,294,-1,294,301,302,-1,294,302,303,-1,304,217,202,-1,305,285,202,-1,306,307,202,-1,202,307,266,-1,305,202,308,-1,304,202,309,-1,266,272,310,-1,310,311,266,-1,266,311,312,-1,266,312,202,-1,202,312,313,-1,202,313,308,-1,285,284,202,-1,202,284,314,-1,202,314,315,-1,315,316,202,-1,202,316,317,-1,202,317,309,-1,318,319,320,-1,320,319,321,-1,320,321,322,-1,322,321,323,-1,324,325,92,-1,92,325,326,-1,92,326,93,-1,93,326,327,-1,235,233,328,-1,328,233,329,-1,330,331,332,-1,332,331,329,-1,331,333,334,-1,329,331,328,-1,328,331,334,-1,328,334,241,-1,334,335,241,-1,241,335,336,-1,241,336,337,-1,338,339,337,-1,337,339,340,-1,337,340,241,-1,241,340,341,-1,241,341,237,-1,237,341,239,-1,342,343,218,-1,218,343,204,-1,212,218,240,-1,240,218,204,-1,240,204,344,-1,344,204,203,-1,344,203,234,-1,234,203,232,-1,342,335,343,-1,343,335,334,-1,332,345,330,-1,330,345,346,-1,332,329,347,-1,347,329,348,-1,338,349,350,-1,339,338,105,-1,105,338,350,-1,105,350,106,-1,106,350,107,-1,27,159,351,-1,351,352,353,-1,27,351,28,-1,28,351,353,-1,28,353,354,-1,323,321,355,-1,220,356,357,-1,358,359,231,-1,231,359,220,-1,231,220,233,-1,233,220,357,-1,233,357,329,-1,360,361,287,-1,329,357,348,-1,348,357,362,-1,348,362,363,-1,220,221,356,-1,356,221,355,-1,356,355,363,-1,363,355,364,-1,363,364,348,-1,231,365,358,-1,358,365,366,-1,358,366,367,-1,367,366,368,-1,369,370,371,-1,287,361,286,-1,372,373,374,-1,375,376,377,-1,378,323,273,-1,273,323,355,-1,273,355,274,-1,274,355,221,-1,274,221,361,-1,361,221,379,-1,361,379,286,-1,286,379,380,-1,286,380,371,-1,371,380,381,-1,371,381,369,-1,360,287,374,-1,374,287,382,-1,374,382,372,-1,378,383,323,-1,323,383,375,-1,323,375,384,-1,384,375,377,-1,326,325,385,-1,385,325,386,-1,385,386,387,-1,387,386,388,-1,388,354,11,-1,11,354,353,-1,7,5,389,-1,389,5,387,-1,389,387,390,-1,390,387,388,-1,390,388,9,-1,9,388,11,-1,391,392,5,-1,5,392,355,-1,5,355,387,-1,387,355,321,-1,387,321,319,-1,393,394,350,-1,351,159,395,-1,395,159,160,-1,395,160,396,-1,396,160,161,-1,396,161,162,-1,351,395,397,-1,397,395,398,-1,397,398,364,-1,364,398,399,-1,364,399,348,-1,350,347,393,-1,393,347,348,-1,393,348,400,-1,400,348,399,-1,400,399,401,-1,401,399,396,-1,401,396,164,-1,164,396,162,-1,164,155,401,-1,401,155,108,-1,401,108,394,-1,394,108,107,-1,394,107,350,-1,357,402,362,-1,362,402,403,-1,403,404,362,-1,362,404,405,-1,362,405,406,-1,407,408,409,-1,409,408,362,-1,409,362,410,-1,410,362,406,-1,411,412,409,-1,409,412,407,-1,413,414,363,-1,363,414,415,-1,363,415,416,-1,416,417,363,-1,363,417,418,-1,363,418,356,-1,419,412,363,-1,363,412,411,-1,363,411,413,-1,408,407,419,-1,419,407,412,-1,362,408,363,-1,363,408,419,-1,411,409,413,-1,413,409,410,-1,413,410,414,-1,414,410,406,-1,414,406,415,-1,415,406,405,-1,415,405,416,-1,416,405,404,-1,416,404,417,-1,417,404,403,-1,417,403,418,-1,418,403,402,-1,418,402,356,-1,356,402,357,-1,364,355,397,-1,397,355,392,-1,420,324,90,-1,90,324,92,-1,388,386,90,-1,90,386,420,-1,324,420,325,-1,325,420,386,-1,421,422,77,-1,77,422,75,-1,82,423,80,-1,80,423,421,-1,80,421,77,-1,424,423,66,-1,66,423,82,-1,424,66,422,-1,422,66,67,-1,422,67,75,-1,423,424,421,-1,421,424,422,-1,425,426,427,-1,254,259,427,-1,427,259,428,-1,427,428,425,-1,397,429,351,-1,351,429,425,-1,351,425,430,-1,430,425,428,-1,430,428,431,-1,431,428,432,-1,351,430,352,-1,392,429,397,-1,425,429,391,-1,391,429,392,-1,353,352,431,-1,431,352,430,-1,433,427,434,-1,434,427,426,-1,435,255,254,-1,427,433,436,-1,6,7,437,-1,437,7,389,-1,437,389,436,-1,436,389,435,-1,436,435,427,-1,427,435,254,-1,435,389,438,-1,438,389,390,-1,428,259,438,-1,438,259,261,-1,439,428,440,-1,440,428,438,-1,440,438,441,-1,441,438,390,-1,441,390,8,-1,8,390,9,-1,442,432,439,-1,439,432,428,-1,432,442,443,-1,10,11,444,-1,444,11,353,-1,444,353,443,-1,443,353,431,-1,443,431,432,-1,434,426,445,-1,445,426,425,-1,445,425,446,-1,446,425,391,-1,446,391,4,-1,4,391,5,-1,255,435,438,-1,447,318,320,-1,262,448,261,-1,261,448,447,-1,438,261,255,-1,255,261,447,-1,255,447,256,-1,256,447,320,-1,387,319,447,-1,447,319,318,-1,448,385,447,-1,447,385,387,-1,262,260,448,-1,448,260,449,-1,450,449,451,-1,451,449,452,-1,326,385,327,-1,327,385,448,-1,327,448,453,-1,453,448,449,-1,453,449,454,-1,454,449,450,-1,455,341,51,-1,51,341,340,-1,238,455,52,-1,52,455,51,-1,455,238,341,-1,341,238,239,-1,456,457,41,-1,41,457,42,-1,30,458,61,-1,61,458,456,-1,61,456,63,-1,63,456,41,-1,459,458,29,-1,29,458,30,-1,42,457,47,-1,47,457,459,-1,47,459,34,-1,34,459,29,-1,458,459,456,-1,456,459,457,-1,219,206,0,-1,0,206,460,-1,1,0,461,-1,461,0,460,-1,461,460,462,-1,462,460,463,-1,462,463,350,-1,350,463,346,-1,350,346,347,-1,347,346,345,-1,345,332,347,-1,462,350,349,-1,463,464,465,-1,466,331,467,-1,467,331,330,-1,467,330,465,-1,465,330,346,-1,465,346,463,-1,
        ]
    }
}
Shape{
    appearance Appearance {
        material  Material 	{
            diffuseColor 1.0 1.0 1.0
            specularColor 0.8784313725490196 0.8784313725490196 0.8784313725490196
            ambientIntensity 0.2
            transparency 0
            shininess 0.5
        }
    }
    geometry IndexedFaceSet {
        ccw TRUE
        solid FALSE
        coord DEF co Coordinate {
            point [
                2.4902 -1.3661 0.9961, 2.4902 -1.3661 1.1535, 2.1752 -1.3661 0.9961, 2.1752 -1.3661 1.1535, 2.1752 -1.3661 1.1535
            ]
        }
        coordIndex [
            0,1,2,-1,2,1,3,-1,
        ]
    }
}
Shape{
    appearance Appearance {
        material  Material 	{
            diffuseColor 0.2235294117647059 0.2235294117647059 0.2235294117647059
            specularColor 0.11372549019607843 0.11372549019607843 0.11372549019607843
            ambientIntensity 0.2
            transparency 0
            shininess 0.5
        }
    }
    geometry IndexedFaceSet {
        ccw TRUE
        solid FALSE
        coord DEF co Coordinate {
            point [
                1.8996 -1.3661 0.9961, 1.8996 -0.185 0.9961, 2.1949 -0.3819 0.9961, 2.1949 -0.185 0.9961, 2.0571 -1.3661 0.9961, 2.0571 -0.8543 0.9961, 2.1752 -0.8543 0.9961, 2.4902 -0.3819 0.9961, 2.1752 -1.3661 0.9961, 2.4902 -1.3661 0.9961, 2.1949 -0.3819 0.5236, 2.1949 -0.185 0.5236, 1.8996 -0.185 0.5236, 1.8996 -1.3661 0.5236, 2.0571 -1.3661 0.5236, 2.0571 -0.8543 0.5236, 2.1752 -1.3661 0.5236, 2.4902 -1.3661 0.5236, 2.1752 -0.8543 0.5236, 2.4902 -0.3819 0.5236, 2.4902 -1.3661 0.3661, 2.1752 -1.3661 0.3661, 2.0571 -1.3661 0.3661, 1.8996 -1.3661 0.3661, 2.0571 -2.4291 0.3661, 1.8996 -2.9213 0.3661, 2.1752 -2.4291 0.3661, 2.4902 -2.9213 0.3661, 1.8996 -2.9213 0.3937, 2.4902 -2.9213 0.3937, 2.4902 0.1693 0.1969, 2.1949 0.1693 0.1969, 2.4902 0.1693 1.126, 2.1949 0.1693 1.126, 2.4902 0.4055 1.126, 2.1949 0.4055 1.126, 2.4902 -2.9213 0.1575, 2.1752 -3.2362 0.0, 2.1752 -2.9365 0.0, 2.1752 -2.9277 0.0, 2.1752 -2.4291 0.0, 2.4902 -0.3819 0.1575, 2.1752 -0.8543 0.0, 2.1752 -0.3819 0.0, -0.9941 -2.4291 0.0, -1.3091 -2.9213 0.1575, -0.9941 -0.8543 0.0, -1.3091 -0.3819 0.1575, -0.9941 -0.3819 0.0, -0.9941 -2.9277 0.0, -0.9941 -2.9365 0.0, -0.9941 -3.2362 0.0, -1.0138 -0.185 1.3228, -1.0138 0.4055 1.3228, -0.1378 -0.185 1.3228, -0.3346 0.4055 1.3228, -0.1378 0.2087 1.3228, -0.1445 0.2596 1.3228, -0.2837 0.3988 1.3228, -0.2362 0.3791 1.3228, -0.1955 0.3479 1.3228, -0.1642 0.3071 1.3228, 0.4921 -0.3819 0.1969, 0.4921 -0.185 0.1969, 0.4921 -0.3819 0.5117, 0.4921 -0.185 0.5117, 0.689 -0.3819 0.5117, 0.689 -0.185 0.5117, 0.689 -0.3819 0.1969, 0.689 -0.185 0.1969, 0.748 -0.3819 0.5117, 0.748 -0.185 0.5117, 0.748 -0.3819 1.008, 0.748 -0.185 1.008, 0.689 -0.3819 1.008, 0.689 -0.185 1.008, 0.4331 -0.3819 1.008, 0.4331 -0.185 1.008, 0.4921 -0.3819 1.008, 0.4921 -0.185 1.008, 0.4331 -0.3819 0.5117, 0.4331 -0.185 0.5117, 0.689 -0.3819 1.3228, 0.689 -0.185 1.3228, 0.4921 -0.3819 1.3228, 0.4921 -0.185 1.3228, 0.1378 0.2087 1.3228, 0.1378 -0.185 1.3228, 0.1378 0.2087 1.5197, 0.1378 -0.185 1.5197, -0.1378 0.2087 1.5197, -0.1378 -0.185 1.5197, 0.1378 0.2087 0.0, 0.1378 -0.185 0.0, 0.1378 0.2087 0.1969, 0.1378 -0.185 0.1969, -0.1378 0.2087 0.1969, -0.1378 -0.185 0.1969, -0.1378 0.2087 0.0, -0.1378 -0.185 0.0, 0.3346 0.4055 1.5197, 0.3346 0.4055 1.3228, 0.2837 0.3988 1.3228, 0.2837 0.3988 1.5197, 0.2362 0.3791 1.3228, 0.2362 0.3791 1.5197, 0.1955 0.3479 1.3228, 0.1955 0.3479 1.5197, 0.1642 0.3071 1.3228, 0.1642 0.3071 1.5197, 0.1445 0.2596 1.3228, 0.1445 0.2596 1.5197, -0.3346 0.4055 1.5197, -0.2837 0.3988 1.5197, -0.2362 0.3791 1.5197, -0.1955 0.3479 1.5197, -0.1642 0.3071 1.5197, -0.1445 0.2596 1.5197, -0.3346 0.4055 0.0, -0.3346 0.4055 0.1969, -0.2837 0.3988 0.1969, -0.2837 0.3988 0.0, -0.2362 0.3791 0.1969, -0.2362 0.3791 0.0, -0.1955 0.3479 0.1969, -0.1955 0.3479 0.0, -0.1642 0.3071 0.1969, -0.1642 0.3071 0.0, -0.1445 0.2596 0.1969, -0.1445 0.2596 0.0, 0.1392 0.2196 0.0, 0.1445 0.2596 0.1969, 0.1445 0.2596 0.0, 0.1642 0.3071 0.1969, 0.1642 0.3071 0.0, 0.1955 0.3479 0.1969, 0.1955 0.3479 0.0, 0.2362 0.3791 0.1969, 0.2362 0.3791 0.0, 0.2837 0.3988 0.1969, 0.2837 0.3988 0.0, 0.3346 0.4055 0.1969, 0.3346 0.4055 0.0, 0.5 -0.5591 1.2598, 0.5 -0.5591 0.2598, 0.5 -3.5118 1.2598, 0.5 -3.5118 0.2598, -0.5 -0.5591 0.2598, -0.5 -3.5118 0.2598, -0.5 -0.5591 1.2598, -0.5 -3.5118 1.2598, -0.5 -3.5118 1.2598
            ]
        }
        coordIndex [
            0,1,2,-1,2,1,3,-1,4,0,5,-1,5,0,2,-1,5,2,6,-1,6,2,7,-1,6,7,8,-1,8,7,9,-1,10,11,12,-1,13,14,15,-1,16,17,18,-1,18,17,19,-1,18,19,15,-1,15,19,10,-1,15,10,13,-1,13,10,12,-1,20,17,21,-1,21,17,16,-1,22,23,24,-1,24,23,25,-1,24,25,26,-1,26,25,27,-1,26,27,21,-1,21,27,20,-1,25,28,27,-1,27,28,29,-1,30,31,32,-1,32,31,33,-1,32,33,34,-1,34,33,35,-1,36,37,38,-1,38,39,36,-1,36,39,40,-1,36,40,41,-1,41,40,42,-1,41,42,43,-1,44,45,46,-1,46,45,47,-1,46,47,48,-1,44,49,45,-1,45,49,50,-1,45,50,51,-1,52,53,54,-1,54,53,55,-1,54,55,56,-1,56,55,57,-1,58,59,60,-1,58,60,55,-1,55,60,61,-1,55,61,57,-1,62,63,64,-1,64,63,65,-1,66,67,68,-1,68,67,69,-1,70,71,66,-1,66,71,67,-1,72,73,70,-1,70,73,71,-1,74,75,72,-1,72,75,73,-1,76,77,78,-1,78,77,79,-1,80,81,76,-1,76,81,77,-1,64,65,80,-1,80,65,81,-1,82,83,74,-1,74,83,75,-1,78,79,84,-1,84,79,85,-1,68,62,66,-1,66,62,64,-1,80,76,64,-1,64,76,78,-1,84,82,78,-1,78,82,74,-1,78,74,64,-1,64,74,72,-1,64,72,66,-1,66,72,70,-1,86,87,88,-1,88,87,89,-1,90,91,56,-1,56,91,54,-1,92,93,94,-1,94,93,95,-1,96,97,98,-1,98,97,99,-1,100,101,102,-1,100,102,103,-1,103,102,104,-1,103,104,105,-1,105,104,106,-1,105,106,107,-1,107,106,108,-1,107,108,109,-1,109,108,110,-1,109,110,111,-1,111,110,86,-1,111,86,88,-1,55,112,113,-1,55,113,58,-1,58,113,114,-1,58,114,59,-1,59,114,115,-1,59,115,60,-1,60,115,116,-1,60,116,61,-1,61,116,117,-1,61,117,57,-1,57,117,90,-1,57,90,56,-1,118,119,120,-1,118,120,121,-1,121,120,122,-1,121,122,123,-1,123,122,124,-1,123,124,125,-1,125,124,126,-1,125,126,127,-1,127,126,128,-1,127,128,129,-1,129,128,96,-1,129,96,98,-1,92,94,130,-1,130,94,131,-1,130,131,132,-1,132,131,133,-1,132,133,134,-1,134,133,135,-1,134,135,136,-1,136,135,137,-1,136,137,138,-1,138,137,139,-1,138,139,140,-1,140,139,141,-1,140,141,142,-1,143,144,145,-1,145,144,146,-1,144,147,146,-1,146,147,148,-1,147,149,148,-1,148,149,150,-1,149,143,150,-1,150,143,145,-1,
        ]
    }
}
Shape{
    appearance Appearance {
        material  Material 	{
            diffuseColor 0.6470588235294118 0.6196078431372549 0.5882352941176471
            specularColor 0.45098039215686275 0.43529411764705883 0.4117647058823529
            ambientIntensity 0.2
            transparency 0
            shininess 0.5
        }
    }
    geometry IndexedFaceSet {
        ccw TRUE
        solid FALSE
        coord DEF co Coordinate {
            point [
                0.0866 -2.9213 0.6732, 0.0866 -2.9213 0.8465, -0.0866 -2.9213 0.6732, -0.0866 -2.9213 0.8465, 0.126 -2.698 0.8858, 0.126 -0.5591 0.8858, -0.126 -2.698 0.8858, -0.126 -0.5591 0.8858, -0.126 -2.698 0.6339, -0.126 -0.5591 0.6339, 0.126 -2.698 0.6339, 0.126 -0.5591 0.6339, 0.126 -0.185 0.884, 0.126 -0.185 0.627, 0.126 -0.1026 0.8652, 0.126 -0.1654 0.6162, 0.126 -0.126 0.5395, 0.126 0.126 0.5395, 0.126 -0.1286 0.5617, 0.126 0.1157 0.6234, 0.126 -0.1364 0.5826, 0.126 0.0853 0.7024, 0.126 -0.1489 0.6012, 0.126 0.0367 0.7716, 0.126 -0.0272 0.8269, -0.126 -0.126 0.5395, -0.126 -0.1286 0.5617, -0.126 -0.1364 0.5826, -0.126 -0.1489 0.6012, -0.126 -0.1654 0.6162, -0.126 -0.185 0.627, -0.126 0.126 0.5395, -0.126 0.1157 0.6234, -0.126 0.0853 0.7024, -0.126 0.0367 0.7716, -0.126 -0.0272 0.8269, -0.126 -0.1026 0.8652, -0.126 -0.185 0.884, 0.0866 0.9567 0.0157, 0.0866 0.9567 -0.1575, -0.0866 0.9567 0.0157, -0.0866 0.9567 -0.1575, 0.126 0.7334 0.0551, 0.126 0.2108 0.0551, 0.126 0.7334 -0.1969, 0.126 0.2108 -0.1969, -0.126 0.7334 -0.1969, -0.126 0.2108 -0.1969, -0.126 0.7334 0.0551, -0.126 0.2108 0.0551, 0.126 0.126 0.1399, 0.126 -0.126 0.1399, 0.126 0.1289 0.118, 0.126 -0.1145 0.0528, 0.126 0.1373 0.0975, 0.126 -0.0809 -0.0285, 0.126 0.1508 0.08, 0.126 -0.0273 -0.0982, 0.126 0.1684 0.0665, 0.126 0.0424 -0.1517, 0.126 0.1888 0.058, 0.126 0.1236 -0.1854, -0.126 -0.126 0.1399, -0.126 -0.1145 0.0528, -0.126 -0.0809 -0.0285, -0.126 -0.0273 -0.0982, -0.126 0.0424 -0.1517, -0.126 0.1236 -0.1854, -0.126 0.1888 0.058, -0.126 0.1684 0.0665, -0.126 0.1508 0.08, -0.126 0.1373 0.0975, -0.126 0.1289 0.118, -0.126 0.126 0.1399, -0.126 0.126 0.1399
            ]
        }
        coordIndex [
            0,1,2,-1,2,1,3,-1,4,5,6,-1,6,5,7,-1,6,7,8,-1,8,7,9,-1,8,9,10,-1,10,9,11,-1,10,11,4,-1,4,11,5,-1,12,13,14,-1,14,13,15,-1,16,17,18,-1,18,17,19,-1,18,19,20,-1,20,19,21,-1,20,21,22,-1,22,21,23,-1,22,23,15,-1,15,23,24,-1,15,24,14,-1,25,16,26,-1,26,16,18,-1,26,18,27,-1,27,18,20,-1,27,20,28,-1,28,20,22,-1,28,22,29,-1,29,22,15,-1,29,15,30,-1,30,15,13,-1,31,25,32,-1,32,25,26,-1,32,26,33,-1,33,26,27,-1,33,27,34,-1,34,27,28,-1,34,28,35,-1,35,28,29,-1,35,29,36,-1,36,29,30,-1,36,30,37,-1,37,12,14,-1,37,14,36,-1,36,14,24,-1,36,24,35,-1,35,24,23,-1,35,23,34,-1,34,23,21,-1,34,21,33,-1,33,21,19,-1,33,19,32,-1,32,19,17,-1,32,17,31,-1,38,39,40,-1,40,39,41,-1,42,43,44,-1,44,43,45,-1,44,45,46,-1,46,45,47,-1,46,47,48,-1,48,47,49,-1,48,49,42,-1,42,49,43,-1,50,51,52,-1,52,51,53,-1,52,53,54,-1,54,53,55,-1,54,55,56,-1,56,55,57,-1,56,57,58,-1,58,57,59,-1,58,59,60,-1,60,59,61,-1,60,61,43,-1,43,61,45,-1,51,62,63,-1,51,63,53,-1,53,63,64,-1,53,64,55,-1,55,64,65,-1,55,65,57,-1,57,65,66,-1,57,66,59,-1,59,66,67,-1,59,67,61,-1,61,67,47,-1,61,47,45,-1,49,47,68,-1,68,47,67,-1,68,67,69,-1,69,67,66,-1,69,66,70,-1,70,66,65,-1,70,65,71,-1,71,65,64,-1,71,64,72,-1,72,64,63,-1,72,63,73,-1,73,63,62,-1,43,49,60,-1,60,49,68,-1,60,68,58,-1,58,68,69,-1,58,69,56,-1,56,69,70,-1,56,70,54,-1,54,70,71,-1,54,71,52,-1,52,71,72,-1,52,72,50,-1,50,72,73,-1,50,17,51,-1,51,17,16,-1,51,16,62,-1,62,16,25,-1,62,25,73,-1,73,25,31,-1,50,73,17,-1,17,73,31,-1,46,41,44,-1,44,41,39,-1,48,40,46,-1,46,40,41,-1,38,42,39,-1,39,42,44,-1,42,38,48,-1,48,38,40,-1,1,4,3,-1,3,4,6,-1,0,10,1,-1,1,10,4,-1,8,2,6,-1,6,2,3,-1,2,8,0,-1,0,8,10,-1,
        ]
    }
}
Shape{
    appearance Appearance {
        material  Material 	{
            diffuseColor 0.2235294117647059 0.2235294117647059 0.2235294117647059
            specularColor 0.11372549019607843 0.11372549019607843 0.11372549019607843
            ambientIntensity 0.2
            transparency 0
            shininess 0.5
        }
    }
    geometry IndexedFaceSet {
        ccw TRUE
        solid FALSE
        coord DEF co Coordinate {
            point [
                1.3189 0.2087 1.3228, 1.3189 -0.185 1.3228, 1.3189 0.2087 1.5197, 1.3189 -0.185 1.5197, 1.0433 0.2087 1.5197, 1.0433 -0.185 1.5197, 1.0433 0.2087 1.3228, 1.0433 -0.185 1.3228, 1.3189 0.2087 0.0, 1.3189 -0.185 0.0, 1.3189 0.2087 0.1969, 1.3189 -0.185 0.1969, 1.0433 0.2087 0.1969, 1.0433 -0.185 0.1969, 1.0433 0.2087 0.0, 1.0433 -0.185 0.0, 1.5157 0.4055 1.5197, 1.5157 0.4055 1.3228, 1.4648 0.3988 1.3228, 1.4648 0.3988 1.5197, 1.4173 0.3791 1.3228, 1.4173 0.3791 1.5197, 1.3766 0.3479 1.3228, 1.3766 0.3479 1.5197, 1.3453 0.3071 1.3228, 1.3453 0.3071 1.5197, 1.3256 0.2596 1.3228, 1.3256 0.2596 1.5197, 0.8465 0.4055 1.3228, 0.8465 0.4055 1.5197, 0.8974 0.3988 1.5197, 0.8974 0.3988 1.3228, 0.9449 0.3791 1.5197, 0.9449 0.3791 1.3228, 0.9857 0.3479 1.5197, 0.9857 0.3479 1.3228, 1.0169 0.3071 1.5197, 1.0169 0.3071 1.3228, 1.0366 0.2596 1.5197, 1.0366 0.2596 1.3228, 0.8465 0.4055 0.0, 0.8465 0.4055 0.1969, 0.8974 0.3988 0.1969, 0.8974 0.3988 0.0, 0.9449 0.3791 0.1969, 0.9449 0.3791 0.0, 0.9857 0.3479 0.1969, 0.9857 0.3479 0.0, 1.0169 0.3071 0.1969, 1.0169 0.3071 0.0, 1.0366 0.2596 0.1969, 1.0366 0.2596 0.0, 1.5157 0.4055 0.1969, 1.5157 0.4055 0.0, 1.4648 0.3988 0.0, 1.4648 0.3988 0.1969, 1.4173 0.3791 0.0, 1.4173 0.3791 0.1969, 1.3766 0.3479 0.0, 1.3766 0.3479 0.1969, 1.3453 0.3071 0.0, 1.3453 0.3071 0.1969, 1.3256 0.2596 0.0, 1.3256 0.2596 0.1969, 1.6811 -0.5591 1.2598, 1.6811 -0.5591 0.2598, 1.6811 -3.5118 1.2598, 1.6811 -3.5118 0.2598, 0.6811 -0.5591 0.2598, 0.6811 -3.5118 0.2598, 0.6811 -0.5591 1.2598, 0.6811 -3.5118 1.2598, 0.6811 -3.5118 1.2598
            ]
        }
        coordIndex [
            0,1,2,-1,2,1,3,-1,4,5,6,-1,6,5,7,-1,8,9,10,-1,10,9,11,-1,12,13,14,-1,14,13,15,-1,16,17,18,-1,16,18,19,-1,19,18,20,-1,19,20,21,-1,21,20,22,-1,21,22,23,-1,23,22,24,-1,23,24,25,-1,25,24,26,-1,25,26,27,-1,27,26,0,-1,27,0,2,-1,28,29,30,-1,28,30,31,-1,31,30,32,-1,31,32,33,-1,33,32,34,-1,33,34,35,-1,35,34,36,-1,35,36,37,-1,37,36,38,-1,37,38,39,-1,39,38,4,-1,39,4,6,-1,40,41,42,-1,40,42,43,-1,43,42,44,-1,43,44,45,-1,45,44,46,-1,45,46,47,-1,47,46,48,-1,47,48,49,-1,49,48,50,-1,49,50,51,-1,51,50,12,-1,51,12,14,-1,52,53,54,-1,52,54,55,-1,55,54,56,-1,55,56,57,-1,57,56,58,-1,57,58,59,-1,59,58,60,-1,59,60,61,-1,61,60,62,-1,61,62,63,-1,63,62,8,-1,63,8,10,-1,64,65,66,-1,66,65,67,-1,65,68,67,-1,67,68,69,-1,68,70,69,-1,69,70,71,-1,70,64,71,-1,71,64,66,-1,
        ]
    }
}
Shape{
    appearance Appearance {
        material  Material 	{
            diffuseColor 0.6470588235294118 0.6196078431372549 0.5882352941176471
            specularColor 0.45098039215686275 0.43529411764705883 0.4117647058823529
            ambientIntensity 0.2
            transparency 0
            shininess 0.5
        }
    }
    geometry IndexedFaceSet {
        ccw TRUE
        solid FALSE
        coord DEF co Coordinate {
            point [
                1.2677 -2.9213 0.6732, 1.2677 -2.9213 0.8465, 1.0945 -2.9213 0.6732, 1.0945 -2.9213 0.8465, 1.3071 -2.698 0.8858, 1.3071 -0.5591 0.8858, 1.0551 -2.698 0.8858, 1.0551 -0.5591 0.8858, 1.0551 -2.698 0.6339, 1.0551 -0.5591 0.6339, 1.3071 -2.698 0.6339, 1.3071 -0.5591 0.6339, 1.3071 -0.185 0.884, 1.3071 -0.185 0.627, 1.3071 -0.1026 0.8652, 1.3071 -0.1654 0.6162, 1.3071 -0.126 0.5395, 1.3071 0.126 0.5395, 1.3071 -0.1286 0.5617, 1.3071 0.1157 0.6234, 1.3071 -0.1364 0.5826, 1.3071 0.0853 0.7024, 1.3071 -0.1489 0.6012, 1.3071 0.0367 0.7716, 1.3071 -0.0272 0.8269, 1.0551 -0.126 0.5395, 1.0551 -0.1286 0.5617, 1.0551 -0.1364 0.5826, 1.0551 -0.1489 0.6012, 1.0551 -0.1654 0.6162, 1.0551 -0.185 0.627, 1.0551 0.126 0.5395, 1.0551 0.1157 0.6234, 1.0551 0.0853 0.7024, 1.0551 0.0367 0.7716, 1.0551 -0.0272 0.8269, 1.0551 -0.1026 0.8652, 1.0551 -0.185 0.884, 1.2677 0.9567 0.0157, 1.2677 0.9567 -0.1575, 1.0945 0.9567 0.0157, 1.0945 0.9567 -0.1575, 1.3071 0.7334 0.0551, 1.3071 0.2108 0.0551, 1.3071 0.7334 -0.1969, 1.3071 0.2108 -0.1969, 1.0551 0.7334 -0.1969, 1.0551 0.2108 -0.1969, 1.0551 0.7334 0.0551, 1.0551 0.2108 0.0551, 1.3071 0.126 0.1399, 1.3071 -0.126 0.1399, 1.3071 0.1289 0.118, 1.3071 -0.1145 0.0528, 1.3071 0.1373 0.0975, 1.3071 -0.0809 -0.0285, 1.3071 0.1508 0.08, 1.3071 -0.0273 -0.0982, 1.3071 0.1684 0.0665, 1.3071 0.0424 -0.1517, 1.3071 0.1888 0.058, 1.3071 0.1236 -0.1854, 1.0551 -0.126 0.1399, 1.0551 -0.1145 0.0528, 1.0551 -0.0809 -0.0285, 1.0551 -0.0273 -0.0982, 1.0551 0.0424 -0.1517, 1.0551 0.1236 -0.1854, 1.0551 0.1888 0.058, 1.0551 0.1684 0.0665, 1.0551 0.1508 0.08, 1.0551 0.1373 0.0975, 1.0551 0.1289 0.118, 1.0551 0.126 0.1399, 1.0551 0.126 0.1399
            ]
        }
        coordIndex [
            0,1,2,-1,2,1,3,-1,4,5,6,-1,6,5,7,-1,6,7,8,-1,8,7,9,-1,8,9,10,-1,10,9,11,-1,10,11,4,-1,4,11,5,-1,12,13,14,-1,14,13,15,-1,16,17,18,-1,18,17,19,-1,18,19,20,-1,20,19,21,-1,20,21,22,-1,22,21,23,-1,22,23,15,-1,15,23,24,-1,15,24,14,-1,25,16,26,-1,26,16,18,-1,26,18,27,-1,27,18,20,-1,27,20,28,-1,28,20,22,-1,28,22,29,-1,29,22,15,-1,29,15,30,-1,30,15,13,-1,31,25,32,-1,32,25,26,-1,32,26,33,-1,33,26,27,-1,33,27,34,-1,34,27,28,-1,34,28,35,-1,35,28,29,-1,35,29,36,-1,36,29,30,-1,36,30,37,-1,37,12,14,-1,37,14,36,-1,36,14,24,-1,36,24,35,-1,35,24,23,-1,35,23,34,-1,34,23,21,-1,34,21,33,-1,33,21,19,-1,33,19,32,-1,32,19,17,-1,32,17,31,-1,38,39,40,-1,40,39,41,-1,42,43,44,-1,44,43,45,-1,44,45,46,-1,46,45,47,-1,46,47,48,-1,48,47,49,-1,48,49,42,-1,42,49,43,-1,50,51,52,-1,52,51,53,-1,52,53,54,-1,54,53,55,-1,54,55,56,-1,56,55,57,-1,56,57,58,-1,58,57,59,-1,58,59,60,-1,60,59,61,-1,60,61,43,-1,43,61,45,-1,51,62,63,-1,51,63,53,-1,53,63,64,-1,53,64,55,-1,55,64,65,-1,55,65,57,-1,57,65,66,-1,57,66,59,-1,59,66,67,-1,59,67,61,-1,61,67,47,-1,61,47,45,-1,49,47,68,-1,68,47,67,-1,68,67,69,-1,69,67,66,-1,69,66,70,-1,70,66,65,-1,70,65,71,-1,71,65,64,-1,71,64,72,-1,72,64,63,-1,72,63,73,-1,73,63,62,-1,43,49,60,-1,60,49,68,-1,60,68,58,-1,58,68,69,-1,58,69,56,-1,56,69,70,-1,56,70,54,-1,54,70,71,-1,54,71,52,-1,52,71,72,-1,52,72,50,-1,50,72,73,-1,50,17,51,-1,51,17,16,-1,51,16,62,-1,62,16,25,-1,62,25,73,-1,73,25,31,-1,50,73,17,-1,17,73,31,-1,46,41,44,-1,44,41,39,-1,48,40,46,-1,46,40,41,-1,38,42,39,-1,39,42,44,-1,42,38,48,-1,48,38,40,-1,1,4,3,-1,3,4,6,-1,0,10,1,-1,1,10,4,-1,8,2,6,-1,6,2,3,-1,2,8,0,-1,0,8,10,-1,
        ]
    }
}
Shape{
    appearance Appearance {
        material  Material 	{
            diffuseColor 1.0 1.0 1.0
            specularColor 0.8784313725490196 0.8784313725490196 0.8784313725490196
            ambientIntensity 0.2
            transparency 0
            shininess 0.5
        }
    }
    geometry IndexedFaceSet {
        ccw TRUE
        solid FALSE
        coord DEF co Coordinate {
            point [
                -0.0768 -2.9389 0.0, -0.0768 -2.9389 0.0039, -0.1152 -3.0374 0.0, -0.2305 -3.3326 0.0039, -0.2305 -3.3326 0.0, -0.1728 -3.3326 0.0039, -0.1728 -3.3326 0.0, -0.133 -3.2222 0.0039, -0.133 -3.2222 0.0, -0.1152 -3.2222 0.0, 0.0296 -3.2222 0.0039, 0.0296 -3.2222 0.0, 0.0672 -3.3326 0.0039, 0.0672 -3.3326 0.0, 0.1248 -3.3326 0.0039, 0.1248 -3.3326 0.0, -0.024 -2.9389 0.0039, -0.024 -2.9389 0.0, 0.0164 -3.179 0.0039, -0.1153 -3.179 0.0039, -0.0424 -3.0146 0.0039, -0.0462 -3.0009 0.0039, -0.0487 -2.9869 0.0039, -0.05 -2.9869 0.0039, -0.0525 -3.0009 0.0039, -0.056 -3.0146 0.0039, 0.0164 -3.179 0.0, -0.1153 -3.179 0.0, -0.0424 -3.0146 0.0, -0.0462 -3.0009 0.0, -0.0487 -2.9869 0.0, -0.05 -2.9869 0.0, -0.0525 -3.0009 0.0, -0.056 -3.0146 0.0, 0.3635 -3.3326 0.0039, 0.4705 -3.3326 0.0039, 0.3635 -3.3326 0.0, 0.4705 -3.3326 0.0, 0.4705 -2.9389 0.0039, 0.4705 -2.9389 0.0, 0.3594 -2.9389 0.0039, 0.3594 -2.9389 0.0, 0.1536 -3.1308 0.0039, 0.1536 -3.1308 0.0, 0.1565 -3.0938 0.0, 0.1565 -3.0938 0.0039, 0.1671 -3.055 0.0, 0.1671 -3.055 0.0039, 0.1854 -3.0211 0.0, 0.1854 -3.0211 0.0039, 0.2132 -2.9903 0.0, 0.2132 -2.9903 0.0039, 0.2136 -2.9899 0.0, 0.2136 -2.9899 0.0039, 0.2565 -2.9612 0.0, 0.2565 -2.9612 0.0039, 0.3025 -2.945 0.0, 0.3025 -2.945 0.0039, 0.3148 -3.3284 0.0, 0.3148 -3.3284 0.0039, 0.2694 -3.3149 0.0, 0.2694 -3.3149 0.0039, 0.2283 -3.291 0.0, 0.2283 -3.291 0.0039, 0.1959 -3.2599 0.0, 0.1959 -3.2599 0.0039, 0.1733 -3.2247 0.0, 0.1733 -3.2247 0.0039, 0.1592 -3.1835 0.0, 0.1592 -3.1835 0.0039, 0.2327 -3.0374 0.0039, 0.2518 -3.017 0.0039, 0.2805 -2.9985 0.0039, 0.313 -2.9871 0.0039, 0.3596 -2.9821 0.0039, 0.4177 -2.9821 0.0039, 0.4177 -3.2894 0.0039, 0.3618 -3.2894 0.0039, 0.3203 -3.2856 0.0039, 0.2872 -3.2752 0.0039, 0.2603 -3.2593 0.0039, 0.2382 -3.2375 0.0039, 0.2216 -3.2103 0.0039, 0.2101 -3.1733 0.0039, 0.2065 -3.132 0.0039, 0.2098 -3.0928 0.0039, 0.219 -3.0616 0.0039, 0.3596 -2.9821 0.0, 0.4177 -2.9821 0.0, 0.313 -2.9871 0.0, 0.2805 -2.9985 0.0, 0.2518 -3.017 0.0, 0.2327 -3.0374 0.0, 0.219 -3.0616 0.0, 0.2098 -3.0928 0.0, 0.2065 -3.132 0.0, 0.2101 -3.1733 0.0, 0.2216 -3.2103 0.0, 0.2382 -3.2375 0.0, 0.2603 -3.2593 0.0, 0.2872 -3.2752 0.0, 0.3203 -3.2856 0.0, 0.3618 -3.2894 0.0, 0.4177 -3.2894 0.0, 0.5473 -3.2894 0.0039, 0.5473 -3.3326 0.0039, 0.5473 -3.2894 0.0, 0.5473 -3.3326 0.0, 0.7586 -3.3326 0.0039, 0.7586 -3.3326 0.0, 0.7586 -2.9389 0.0039, 0.7586 -2.9389 0.0, 0.5569 -2.9389 0.0039, 0.5569 -2.9389 0.0, 0.5569 -2.9821 0.0039, 0.5569 -2.9821 0.0, 0.7058 -2.9821 0.0039, 0.7058 -2.9821 0.0, 0.7058 -3.1118 0.0039, 0.7058 -3.1118 0.0, 0.5665 -3.1118 0.0039, 0.5665 -3.1118 0.0, 0.5665 -3.155 0.0039, 0.5665 -3.155 0.0, 0.7058 -3.155 0.0039, 0.7058 -3.155 0.0, 0.7058 -3.2894 0.0039, 0.7058 -3.2894 0.0, 0.8354 -3.269 0.0039, 0.8354 -3.3122 0.0039, 0.8354 -3.269 0.0, 0.8354 -3.3122 0.0, 0.8774 -3.3295 0.0039, 0.9437 -3.3374 0.0039, 0.9437 -3.3374 0.0, 0.933 -3.3373 0.0, 0.933 -3.3373 0.0039, 0.9172 -3.335 0.0, 0.8774 -3.3295 0.0, 0.9669 -3.335 0.0, 0.9923 -3.3324 0.0039, 0.9923 -3.3324 0.0, 1.0304 -3.3193 0.0039, 1.0304 -3.3193 0.0, 1.0621 -3.299 0.0039, 1.0621 -3.299 0.0, 1.0917 -3.2679 0.0039, 1.0917 -3.2679 0.0, 1.1126 -3.2305 0.0039, 1.1126 -3.2305 0.0, 1.1245 -3.1888 0.0039, 1.1245 -3.1888 0.0, 1.1283 -3.1432 0.0039, 1.1283 -3.1432 0.0, 0.9281 -2.9341 0.0039, 0.9281 -2.9341 0.0, 0.9676 -2.9374 0.0039, 0.9575 -2.9365 0.0, 0.9676 -2.9374 0.0, 1.0115 -2.9501 0.0, 1.0115 -2.9501 0.0039, 1.0489 -2.9716 0.0, 1.0489 -2.9716 0.0039, 1.0844 -3.0058 0.0, 1.0844 -3.0058 0.0039, 1.1075 -3.0426 0.0, 1.1075 -3.0426 0.0039, 1.1226 -3.0872 0.0, 1.1226 -3.0872 0.0039, 0.8933 -2.9365 0.0, 0.8809 -2.9374 0.0039, 0.8809 -2.9374 0.0, 0.8354 -2.9497 0.0039, 0.8354 -2.9497 0.0, 0.8354 -3.0025 0.0039, 0.8354 -3.0025 0.0, 0.9276 -2.9773 0.0039, 0.9276 -2.9773 0.0, 0.8798 -2.9836 0.0, 0.8798 -2.9836 0.0039, 1.0755 -3.14 0.0039, 1.0755 -3.14 0.0, 1.0736 -3.1094 0.0, 1.0736 -3.1094 0.0039, 1.0631 -3.0672 0.0, 1.0631 -3.0672 0.0039, 1.0469 -3.0368 0.0, 1.0469 -3.0368 0.0039, 1.0231 -3.0106 0.0, 1.0231 -3.0106 0.0039, 0.9958 -2.9923 0.0, 0.9958 -2.9923 0.0039, 0.9664 -2.9817 0.0, 0.9664 -2.9817 0.0039, 0.9365 -3.2942 0.0039, 0.9365 -3.2942 0.0, 0.9732 -3.2901 0.0, 0.9732 -3.2901 0.0039, 1.0019 -3.2795 0.0, 1.0019 -3.2795 0.0039, 1.026 -3.2633 0.0, 1.026 -3.2633 0.0039, 1.0445 -3.2438 0.0, 1.0445 -3.2438 0.0039, 1.0608 -3.2165 0.0, 1.0608 -3.2165 0.0039, 1.0715 -3.1826 0.0, 1.0715 -3.1826 0.0039, 0.8425 -3.2729 0.0, 0.8425 -3.2729 0.0039, 0.8842 -3.2884 0.0, 0.8842 -3.2884 0.0039, 1.1619 -3.2894 0.0039, 1.1619 -3.3326 0.0039, 1.1619 -3.2894 0.0, 1.1619 -3.3326 0.0, 1.3635 -3.3326 0.0039, 1.3635 -3.3326 0.0, 1.3635 -2.9389 0.0039, 1.3635 -2.9389 0.0, 1.3107 -2.9389 0.0039, 1.3107 -2.9389 0.0, 1.3107 -3.2894 0.0039, 1.3107 -3.2894 0.0, 1.3107 -3.2894 0.0
            ]
        }
        coordIndex [
            0,1,2,-1,2,1,3,-1,2,3,4,-1,3,5,4,-1,4,5,6,-1,5,7,6,-1,6,7,8,-1,8,7,9,-1,9,7,10,-1,9,10,11,-1,10,12,11,-1,11,12,13,-1,12,14,13,-1,13,14,15,-1,14,16,15,-1,15,16,17,-1,16,1,17,-1,17,1,0,-1,18,10,19,-1,19,10,7,-1,20,16,18,-1,18,16,14,-1,18,14,10,-1,10,14,12,-1,20,21,16,-1,16,21,22,-1,16,22,1,-1,1,22,23,-1,1,23,24,-1,24,25,1,-1,1,25,19,-1,1,19,3,-1,3,19,7,-1,3,7,5,-1,18,19,26,-1,26,19,27,-1,20,18,28,-1,28,18,26,-1,20,28,29,-1,20,29,21,-1,21,29,30,-1,21,30,22,-1,23,22,31,-1,31,22,30,-1,23,31,32,-1,23,32,24,-1,24,32,33,-1,24,33,25,-1,19,25,27,-1,27,25,33,-1,34,35,36,-1,36,35,37,-1,35,38,37,-1,37,38,39,-1,38,40,39,-1,39,40,41,-1,42,43,44,-1,42,44,45,-1,45,44,46,-1,45,46,47,-1,47,46,48,-1,47,48,49,-1,49,48,50,-1,49,50,51,-1,51,50,52,-1,51,52,53,-1,53,52,54,-1,53,54,55,-1,55,54,56,-1,55,56,57,-1,57,56,41,-1,57,41,40,-1,34,36,58,-1,34,58,59,-1,59,58,60,-1,59,60,61,-1,61,60,62,-1,61,62,63,-1,63,62,64,-1,63,64,65,-1,65,64,66,-1,65,66,67,-1,67,66,68,-1,67,68,69,-1,69,68,43,-1,69,43,42,-1,47,49,70,-1,70,49,51,-1,70,51,71,-1,71,51,53,-1,71,53,72,-1,72,53,55,-1,72,55,73,-1,73,55,57,-1,73,57,74,-1,74,57,40,-1,74,40,75,-1,75,40,38,-1,75,38,76,-1,76,38,35,-1,76,35,77,-1,77,35,34,-1,77,34,78,-1,78,34,59,-1,78,59,79,-1,79,59,61,-1,79,61,80,-1,80,61,63,-1,80,63,81,-1,81,63,65,-1,81,65,82,-1,82,65,67,-1,82,67,83,-1,83,67,69,-1,83,69,84,-1,84,69,42,-1,84,42,85,-1,85,42,45,-1,85,45,86,-1,86,45,47,-1,86,47,70,-1,74,75,87,-1,87,75,88,-1,74,87,89,-1,74,89,73,-1,73,89,90,-1,73,90,72,-1,72,90,91,-1,72,91,71,-1,71,91,92,-1,71,92,70,-1,70,92,93,-1,70,93,86,-1,86,93,94,-1,86,94,85,-1,85,94,95,-1,85,95,84,-1,84,95,96,-1,84,96,83,-1,83,96,97,-1,83,97,82,-1,82,97,98,-1,82,98,81,-1,81,98,99,-1,81,99,80,-1,80,99,100,-1,80,100,79,-1,79,100,101,-1,79,101,78,-1,78,101,102,-1,78,102,77,-1,76,77,103,-1,103,77,102,-1,75,76,88,-1,88,76,103,-1,104,105,106,-1,106,105,107,-1,105,108,107,-1,107,108,109,-1,108,110,109,-1,109,110,111,-1,110,112,111,-1,111,112,113,-1,112,114,113,-1,113,114,115,-1,114,116,115,-1,115,116,117,-1,116,118,117,-1,117,118,119,-1,118,120,119,-1,119,120,121,-1,120,122,121,-1,121,122,123,-1,122,124,123,-1,123,124,125,-1,124,126,125,-1,125,126,127,-1,126,104,127,-1,127,104,106,-1,108,105,104,-1,104,126,108,-1,108,126,124,-1,108,124,110,-1,114,112,116,-1,116,112,110,-1,116,110,118,-1,118,110,124,-1,118,124,120,-1,120,124,122,-1,128,129,130,-1,130,129,131,-1,131,129,132,-1,133,134,135,-1,133,135,136,-1,136,135,137,-1,136,137,132,-1,132,137,138,-1,132,138,131,-1,134,133,139,-1,139,133,140,-1,139,140,141,-1,141,140,142,-1,141,142,143,-1,143,142,144,-1,143,144,145,-1,145,144,146,-1,145,146,147,-1,147,146,148,-1,147,148,149,-1,149,148,150,-1,149,150,151,-1,151,150,152,-1,151,152,153,-1,154,155,156,-1,156,155,157,-1,157,158,156,-1,156,158,159,-1,156,159,160,-1,160,159,161,-1,160,161,162,-1,162,161,163,-1,162,163,164,-1,164,163,165,-1,164,165,166,-1,166,165,167,-1,166,167,168,-1,168,167,153,-1,168,153,152,-1,155,154,169,-1,169,154,170,-1,169,170,171,-1,171,170,172,-1,171,172,173,-1,172,174,173,-1,173,174,175,-1,176,177,178,-1,176,178,179,-1,179,178,175,-1,179,175,174,-1,180,181,182,-1,180,182,183,-1,183,182,184,-1,183,184,185,-1,185,184,186,-1,185,186,187,-1,187,186,188,-1,187,188,189,-1,189,188,190,-1,189,190,191,-1,191,190,192,-1,191,192,193,-1,193,192,177,-1,193,177,176,-1,194,195,196,-1,194,196,197,-1,197,196,198,-1,197,198,199,-1,199,198,200,-1,199,200,201,-1,201,200,202,-1,201,202,203,-1,203,202,204,-1,203,204,205,-1,205,204,206,-1,205,206,207,-1,207,206,181,-1,207,181,180,-1,128,130,208,-1,128,208,209,-1,209,208,210,-1,209,210,211,-1,211,210,195,-1,211,195,194,-1,197,133,194,-1,194,133,136,-1,194,136,211,-1,211,136,132,-1,211,132,209,-1,209,132,129,-1,209,129,128,-1,174,172,179,-1,179,172,170,-1,179,170,176,-1,176,170,154,-1,176,154,193,-1,193,154,156,-1,193,156,191,-1,191,156,160,-1,191,160,189,-1,189,160,162,-1,189,162,187,-1,187,162,164,-1,187,164,185,-1,185,164,166,-1,185,166,183,-1,183,166,168,-1,183,168,180,-1,180,168,152,-1,180,152,207,-1,207,152,150,-1,207,150,205,-1,205,150,148,-1,205,148,203,-1,203,148,146,-1,203,146,201,-1,201,146,144,-1,201,144,199,-1,199,144,142,-1,199,142,197,-1,197,142,140,-1,197,140,133,-1,212,213,214,-1,214,213,215,-1,213,216,215,-1,215,216,217,-1,216,218,217,-1,217,218,219,-1,218,220,219,-1,219,220,221,-1,220,222,221,-1,221,222,223,-1,222,212,223,-1,223,212,214,-1,220,218,222,-1,222,218,216,-1,222,216,212,-1,212,216,213,-1,
        ]
    }
}
Shape{
    appearance Appearance {
        material  Material 	{
            diffuseColor 0.2235294117647059 0.2235294117647059 0.2235294117647059
            specularColor 0.11372549019607843 0.11372549019607843 0.11372549019607843
            ambientIntensity 0.2
            transparency 0
            shininess 0.5
        }
    }
    geometry IndexedFaceSet {
        ccw TRUE
        solid FALSE
        coord DEF co Coordinate {
            point [
                0.0164 -3.179 0.0, -0.1153 -3.179 0.0, -0.0424 -3.0146 0.0, -0.056 -3.0146 0.0, -0.0462 -3.0009 0.0, -0.0525 -3.0009 0.0, -0.0487 -2.9869 0.0, -0.05 -2.9869 0.0, 0.4177 -2.9821 0.0, 0.4177 -3.2894 0.0, 0.3596 -2.9821 0.0, 0.3618 -3.2894 0.0, 0.3203 -3.2856 0.0, 0.2065 -3.132 0.0, 0.2098 -3.0928 0.0, 0.219 -3.0616 0.0, 0.313 -2.9871 0.0, 0.2872 -3.2752 0.0, 0.2603 -3.2593 0.0, 0.2382 -3.2375 0.0, 0.2216 -3.2103 0.0, 0.2101 -3.1733 0.0, 0.2327 -3.0374 0.0, 0.2518 -3.017 0.0, 0.2805 -2.9985 0.0, 0.2805 -2.9985 0.0
            ]
        }
        coordIndex [
            0,1,2,-1,2,1,3,-1,2,3,4,-1,4,3,5,-1,4,5,6,-1,6,5,7,-1,8,9,10,-1,10,9,11,-1,10,11,12,-1,13,14,10,-1,10,14,15,-1,10,15,16,-1,12,17,10,-1,10,17,18,-1,10,18,19,-1,19,20,10,-1,10,20,21,-1,10,21,13,-1,22,23,15,-1,15,23,24,-1,15,24,16,-1,
        ]
    }
}
Shape{
    appearance Appearance {
        material  Material 	{
            diffuseColor 0.6470588235294118 0.6196078431372549 0.5882352941176471
            specularColor 0.45098039215686275 0.43529411764705883 0.4117647058823529
            ambientIntensity 0.2
            transparency 0
            shininess 0.5
        }
    }
    geometry IndexedFaceSet {
        ccw TRUE
        solid FALSE
        coord DEF co Coordinate {
            point [
                -0.9941 -1.9232 -0.0039, -0.9941 -2.4291 -0.0039, -0.9941 -2.4291 0.0, -0.9941 -1.4232 -0.0388, -0.9941 -1.9232 -0.0388, -0.9941 -1.4232 -0.0039, -0.9941 -0.8543 0.0, -0.9941 -0.8543 -0.0039, -0.876 -0.8543 -0.0039, -0.876 -0.8543 0.0, -0.876 -2.4291 0.0, -0.876 -2.4291 -0.0039, -0.876 -1.9232 -0.0039, -0.876 -1.4232 -0.0039, -0.876 -1.4232 -0.0388, -0.876 -1.9232 -0.0388, -0.876 -0.8543 0.5236, -0.9941 -0.8543 0.5236, -0.876 -0.8543 0.9961, -0.9941 -0.8543 0.9961, -0.876 -2.4291 1.1535, -0.9941 -2.4291 1.1535, -0.876 -2.4291 0.3661, -0.9941 -2.4291 0.3661, -0.876 -1.3661 0.9961, -0.876 -1.3661 1.1535, -0.876 -1.3661 0.3661, -0.876 -1.3661 0.5236, -0.9941 -1.3661 0.5236, -0.9941 -1.3661 0.3661, -0.9941 -1.3661 1.1535, -0.9941 -1.3661 0.9961, 2.1752 -2.4291 0.0, 2.1752 -2.4291 -0.0039, 2.1752 -1.9232 -0.0039, 2.1752 -1.4232 -0.0039, 2.1752 -0.8543 -0.0039, 2.1752 -0.8543 0.0, 2.1752 -1.4232 -0.0388, 2.1752 -1.9232 -0.0388, 2.0571 -2.4291 -0.0039, 2.0571 -2.4291 0.0, 2.0571 -1.9232 -0.0039, 2.0571 -1.4232 -0.0388, 2.0571 -1.9232 -0.0388, 2.0571 -1.4232 -0.0039, 2.0571 -0.8543 0.0, 2.0571 -0.8543 -0.0039, 2.1752 -2.4291 0.3661, 2.1752 -1.3661 0.3661, 2.1752 -2.4291 1.1535, 2.1752 -1.3661 0.5236, 2.1752 -1.3661 1.1535, 2.1752 -1.3661 0.9961, 2.1752 -0.8543 0.9961, 2.1752 -0.8543 0.5236, 2.0571 -0.8543 0.9961, 2.0571 -0.8543 0.5236, 2.0571 -2.4291 1.1535, 2.0571 -1.3661 1.1535, 2.0571 -2.4291 0.3661, 2.0571 -1.3661 0.9961, 2.0571 -1.3661 0.3661, 2.0571 -1.3661 0.5236, -1.8209 -1.4232 -0.1969, -1.8209 -1.9232 -0.1969, -1.8209 -1.4232 -0.0787, -1.8209 -1.9232 -0.0787, -0.9955 -1.9232 -0.0492, -0.9955 -1.4232 -0.0492, -0.9994 -1.9232 -0.0588, -0.9994 -1.4232 -0.0588, -1.0058 -1.9232 -0.0671, -1.0058 -1.4232 -0.0671, -1.014 -1.9232 -0.0734, -1.014 -1.4232 -0.0734, -1.0237 -1.9232 -0.0774, -1.0237 -1.4232 -0.0774, -1.034 -1.9232 -0.0787, -1.034 -1.4232 -0.0787, -0.8814 -1.4232 -0.0797, -0.8972 -1.4232 -0.1178, -0.9223 -1.4232 -0.1506, -0.955 -1.4232 -0.1757, -0.9931 -1.4232 -0.1915, -1.034 -1.4232 -0.1969, -1.034 -1.9232 -0.1969, -0.9931 -1.9232 -0.1915, -0.955 -1.9232 -0.1757, -0.9223 -1.9232 -0.1506, -0.8972 -1.9232 -0.1178, -0.8814 -1.9232 -0.0797, 3.002 -1.9232 -0.1969, 3.002 -1.4232 -0.1969, 3.002 -1.9232 -0.0787, 3.002 -1.4232 -0.0787, 2.2151 -1.4232 -0.1969, 2.2151 -1.9232 -0.1969, 2.1742 -1.9232 -0.1915, 2.1742 -1.4232 -0.1915, 2.1361 -1.9232 -0.1757, 2.1361 -1.4232 -0.1757, 2.1034 -1.9232 -0.1506, 2.1034 -1.4232 -0.1506, 2.0783 -1.9232 -0.1178, 2.0783 -1.4232 -0.1178, 2.0625 -1.9232 -0.0797, 2.0625 -1.4232 -0.0797, 2.2151 -1.4232 -0.0787, 2.2048 -1.4232 -0.0774, 2.1952 -1.4232 -0.0734, 2.1869 -1.4232 -0.0671, 2.1805 -1.4232 -0.0588, 2.1766 -1.4232 -0.0492, 2.1766 -1.9232 -0.0492, 2.1805 -1.9232 -0.0588, 2.1869 -1.9232 -0.0671, 2.1952 -1.9232 -0.0734, 2.2048 -1.9232 -0.0774, 2.2151 -1.9232 -0.0787, 2.2151 -1.9232 -0.0787
            ]
        }
        coordIndex [
            0,1,2,-1,3,4,5,-1,5,4,0,-1,0,2,5,-1,5,2,6,-1,5,6,7,-1,8,7,9,-1,9,7,6,-1,10,11,12,-1,13,8,9,-1,9,10,13,-1,13,10,12,-1,13,12,14,-1,14,12,15,-1,1,11,2,-1,2,11,10,-1,16,17,18,-1,18,17,19,-1,20,21,22,-1,22,21,23,-1,24,25,20,-1,22,26,27,-1,16,18,27,-1,27,18,24,-1,27,24,22,-1,22,24,20,-1,28,29,23,-1,21,30,31,-1,19,17,31,-1,31,17,28,-1,31,28,21,-1,21,28,23,-1,32,33,34,-1,35,36,37,-1,37,32,35,-1,35,32,34,-1,35,34,38,-1,38,34,39,-1,40,33,41,-1,41,33,32,-1,42,40,41,-1,43,44,45,-1,45,44,42,-1,42,41,45,-1,45,41,46,-1,45,46,47,-1,36,47,37,-1,37,47,46,-1,48,49,50,-1,50,49,51,-1,52,50,53,-1,53,50,51,-1,53,51,54,-1,54,51,55,-1,54,55,56,-1,56,55,57,-1,58,59,60,-1,60,59,61,-1,62,60,63,-1,63,60,61,-1,63,61,57,-1,57,61,56,-1,58,60,50,-1,50,60,48,-1,64,65,66,-1,66,65,67,-1,3,5,14,-1,14,5,13,-1,12,0,15,-1,15,0,4,-1,4,3,68,-1,68,3,69,-1,68,69,70,-1,70,69,71,-1,70,71,72,-1,72,71,73,-1,72,73,74,-1,74,73,75,-1,74,75,76,-1,76,75,77,-1,76,77,78,-1,78,77,79,-1,3,14,69,-1,69,14,80,-1,69,80,71,-1,71,80,81,-1,71,81,73,-1,73,81,82,-1,73,82,75,-1,75,82,83,-1,75,83,77,-1,77,83,84,-1,77,84,79,-1,79,84,85,-1,86,85,84,-1,86,84,87,-1,87,84,83,-1,87,83,88,-1,88,83,82,-1,88,82,89,-1,89,82,81,-1,89,81,90,-1,90,81,80,-1,90,80,91,-1,91,80,14,-1,91,14,15,-1,78,86,76,-1,76,86,87,-1,76,87,74,-1,74,87,88,-1,74,88,72,-1,72,88,89,-1,72,89,70,-1,70,89,90,-1,70,90,68,-1,68,90,91,-1,68,91,4,-1,4,91,15,-1,67,78,66,-1,66,78,79,-1,66,79,64,-1,64,79,85,-1,64,85,65,-1,65,85,86,-1,86,78,65,-1,65,78,67,-1,92,93,94,-1,94,93,95,-1,43,45,38,-1,38,45,35,-1,34,42,39,-1,39,42,44,-1,96,97,98,-1,96,98,99,-1,99,98,100,-1,99,100,101,-1,101,100,102,-1,101,102,103,-1,103,102,104,-1,103,104,105,-1,105,104,106,-1,105,106,107,-1,107,106,44,-1,107,44,43,-1,108,96,109,-1,109,96,99,-1,109,99,110,-1,110,99,101,-1,110,101,111,-1,111,101,103,-1,111,103,112,-1,112,103,105,-1,112,105,113,-1,113,105,107,-1,113,107,38,-1,38,107,43,-1,38,39,113,-1,113,39,114,-1,113,114,112,-1,112,114,115,-1,112,115,111,-1,111,115,116,-1,111,116,110,-1,110,116,117,-1,110,117,109,-1,109,117,118,-1,109,118,108,-1,108,118,119,-1,39,44,114,-1,114,44,106,-1,114,106,115,-1,115,106,104,-1,115,104,116,-1,116,104,102,-1,116,102,117,-1,117,102,100,-1,117,100,118,-1,118,100,98,-1,118,98,119,-1,119,98,97,-1,92,97,93,-1,93,97,96,-1,93,96,95,-1,95,96,108,-1,95,108,94,-1,94,108,119,-1,119,97,94,-1,94,97,92,-1,
        ]
    }
}