#VRML V2.0 utf8
# 3D model generated by easyeda2kicad.py (https://github.com/uPesy/easyeda2kicad.py)

Shape{
    appearance Appearance {
        material  Material 	{
            diffuseColor 0.5882352941176471 0.5725490196078431 0.5254901960784314
            specularColor 0.043137254901960784 0.0392156862745098 0.0392156862745098
            ambientIntensity 0.2
            transparency 0
            shininess 0.5
        }
    }
    geometry IndexedFaceSet {
        ccw TRUE
        solid FALSE
        coord DEF co Coordinate {
            point [
                1.5748 0.1969 1.7717, 1.7717 0.1969 1.7717, 1.5748 0.4921 1.7717, 1.7717 0.689 1.7717, -1.5748 0.4921 1.7717, -1.7717 0.689 1.7717, -1.5748 0.1969 1.7717, -1.7717 0.1969 1.7717, 1.7717 -0.4823 0.0, 1.7717 -0.1443 0.9312, 1.7717 -0.689 0.0, 1.7717 -0.187 0.9489, 1.7717 -0.2237 0.9771, 1.7717 -0.2756 1.6535, 1.7717 -0.3937 1.7717, 1.7717 -0.2756 1.1024, 1.7717 -0.689 1.7717, 1.7717 -0.2696 1.0565, 1.7717 -0.2519 1.0138, 1.7717 0.055 1.0138, 1.7717 0.0268 0.9771, 1.7717 0.689 0.0, 1.7717 0.0787 1.6535, 1.7717 0.0787 1.1024, 1.7717 0.0727 1.0565, 1.7717 -0.0098 0.9489, 1.7717 -0.0526 0.9312, 1.7717 -0.0984 0.9252, -1.7717 0.689 0.0, 0.2953 0.689 0.0, -1.7717 -0.3937 1.7717, -1.7717 -0.2756 1.6535, -1.7717 -0.689 1.7717, -1.7717 -0.2756 1.1024, -1.7717 -0.689 0.0, -1.7717 -0.2696 1.0565, -1.7717 -0.2519 1.0138, -1.7717 -0.2237 0.9771, -1.7717 -0.187 0.9489, -1.7717 -0.4823 0.0, -1.7717 -0.0098 0.9489, -1.7717 0.0268 0.9771, -1.7717 -0.1443 0.9312, -1.7717 -0.0984 0.9252, -1.7717 -0.0526 0.9312, -1.7717 0.0787 1.6535, -1.7717 0.0787 1.1024, -1.7717 0.0727 1.0565, -1.7717 0.055 1.0138, 0.2953 -0.689 0.0, -1.5748 -0.3937 1.7717, -1.5748 -0.4921 1.7717, 1.5748 -0.4921 1.7717, 1.5748 -0.3937 1.7717, -1.2795 -0.1772 0.0, -1.2762 -0.2026 0.0, -1.0959 -0.2264 0.0, -0.6398 -0.0919 0.0, -0.6601 -0.1076 0.0, -0.521 -0.2468 0.0, -0.0984 -0.1772 0.0, -0.5413 -0.2624 0.0, -0.5651 -0.2722 0.0, -0.689 -0.1772 0.0, -1.1115 -0.2468 0.0, -0.6856 -0.1517 0.0, -0.6758 -0.128 0.0, -0.616 -0.0821 0.0, -1.086 -0.2026 0.0, -1.0827 -0.1772 0.0, -0.0255 -0.0821 0.0, -0.0492 -0.0919 0.0, -0.4921 -0.1772 0.0, -0.0696 -0.1076 0.0, -1.2762 -0.1517 0.0, -1.2663 -0.128 0.0, -0.0852 -0.128 0.0, -0.0951 -0.1517 0.0, -0.4955 -0.2026 0.0, -0.5053 -0.2264 0.0, -1.2663 -0.2264 0.0, -1.2507 -0.2468 0.0, -1.2303 -0.2624 0.0, -0.6758 -0.2264 0.0, -0.6601 -0.2468 0.0, -0.6398 -0.2624 0.0, -0.616 -0.2722 0.0, 0.0984 -0.1772 0.0, 0.0951 -0.1517 0.0, -0.0951 -0.2026 0.0, -0.0852 -0.2264 0.0, -0.5906 -0.2756 0.0, -0.0696 -0.2468 0.0, -0.0492 -0.2624 0.0, -0.0255 -0.2722 0.0, 0.2953 -0.4823 0.0, 0.0 -0.2756 0.0, 0.0255 -0.2722 0.0, 0.0492 -0.2624 0.0, 0.0951 -0.2026 0.0, -1.1319 -0.0919 0.0, -1.1556 -0.0821 0.0, -1.2066 -0.2722 0.0, -1.1811 -0.2756 0.0, -1.1556 -0.2722 0.0, 0.0696 -0.2468 0.0, 0.0852 -0.2264 0.0, -0.6856 -0.2026 0.0, -1.1319 -0.2624 0.0, 0.0852 -0.128 0.0, 0.0696 -0.1076 0.0, 0.0492 -0.0919 0.0, -1.2066 -0.0821 0.0, -1.2303 -0.0919 0.0, -1.2507 -0.1076 0.0, -1.1811 -0.0787 0.0, -0.5413 -0.0919 0.0, -0.5651 -0.0821 0.0, -0.5906 -0.0787 0.0, 0.0255 -0.0821 0.0, 0.0 -0.0787 0.0, -1.086 -0.1517 0.0, -1.0959 -0.128 0.0, -1.1115 -0.1076 0.0, -0.4955 -0.1517 0.0, -0.5053 -0.128 0.0, -0.521 -0.1076 0.0, 0.5651 -0.2722 0.0, 0.5906 -0.2756 0.0, 0.616 -0.2722 0.0, 1.1811 -0.2756 0.0, 1.2066 -0.2722 0.0, 1.0959 -0.2264 0.0, 1.086 -0.2026 0.0, 1.0827 -0.1772 0.0, 0.6398 -0.2624 0.0, 0.6601 -0.2468 0.0, 0.6758 -0.2264 0.0, 1.1115 -0.1076 0.0, 1.0959 -0.128 0.0, 0.5053 -0.2264 0.0, 0.4955 -0.2026 0.0, 0.4921 -0.1772 0.0, 0.521 -0.2468 0.0, 0.5413 -0.2624 0.0, 1.1115 -0.2468 0.0, 1.1319 -0.2624 0.0, 1.1556 -0.2722 0.0, 1.2303 -0.2624 0.0, 1.2507 -0.2468 0.0, 1.2663 -0.2264 0.0, 1.2507 -0.1076 0.0, 1.2303 -0.0919 0.0, 0.4955 -0.1517 0.0, 1.2663 -0.128 0.0, 1.1319 -0.0919 0.0, 1.2762 -0.2026 0.0, 1.2795 -0.1772 0.0, 1.2762 -0.1517 0.0, 0.616 -0.0821 0.0, 0.5906 -0.0787 0.0, 0.5651 -0.0821 0.0, 0.5413 -0.0919 0.0, 0.6856 -0.2026 0.0, 0.689 -0.1772 0.0, 1.086 -0.1517 0.0, 0.521 -0.1076 0.0, 0.5053 -0.128 0.0, 0.6856 -0.1517 0.0, 0.6758 -0.128 0.0, 0.6601 -0.1076 0.0, 0.6398 -0.0919 0.0, 1.2066 -0.0821 0.0, 1.1811 -0.0787 0.0, 1.1556 -0.0821 0.0, 1.5748 -0.4921 0.5906, -0.2953 -0.4921 0.5906, -1.5748 -0.4921 0.5906, -1.5748 -0.2756 1.1024, -1.5748 -0.2756 1.6535, -1.5748 -0.2237 0.9771, -1.5748 -0.2519 1.0138, -1.5748 -0.187 0.9489, -1.5748 -0.3839 0.5906, -1.5748 -0.1443 0.9312, -1.5748 0.055 1.0138, -1.5748 0.0268 0.9771, -1.5748 0.4921 0.5906, -1.5748 -0.2696 1.0565, -1.5748 -0.0098 0.9489, -1.5748 -0.0526 0.9312, -1.5748 -0.0984 0.9252, -1.5748 0.0787 1.6535, -1.5748 0.0787 1.1024, -1.5748 0.0727 1.0565, 1.5748 0.4921 0.5906, -0.2953 0.4921 0.5906, 1.5748 0.0787 1.1024, 1.5748 0.0787 1.6535, 1.5748 -0.187 0.9489, 1.5748 -0.3839 0.5906, 1.5748 -0.2237 0.9771, 1.5748 -0.2519 1.0138, 1.5748 -0.2756 1.6535, 1.5748 -0.2756 1.1024, 1.5748 -0.2696 1.0565, 1.5748 -0.1443 0.9312, 1.5748 -0.0984 0.9252, 1.5748 -0.0526 0.9312, 1.5748 -0.0098 0.9489, 1.5748 0.0268 0.9771, 1.5748 0.055 1.0138, 1.5748 0.0727 1.0565, 1.2762 -0.2026 0.5906, 1.2663 -0.2264 0.5906, 1.2507 -0.2468 0.5906, 1.2303 -0.2624 0.5906, 0.689 -0.1772 0.5906, 1.1115 -0.2468 0.5906, 1.0959 -0.2264 0.5906, 0.0951 -0.1517 0.5906, 0.0984 -0.1772 0.5906, 0.5651 -0.2722 0.5906, 1.2066 -0.2722 0.5906, 1.1811 -0.2756 0.5906, 1.1556 -0.2722 0.5906, 0.6758 -0.2264 0.5906, 0.6601 -0.2468 0.5906, 0.6398 -0.2624 0.5906, 0.616 -0.2722 0.5906, 0.0852 -0.128 0.5906, 0.5413 -0.0919 0.5906, 0.5651 -0.0821 0.5906, 0.6856 -0.2026 0.5906, 1.1319 -0.2624 0.5906, 0.0951 -0.2026 0.5906, 0.0852 -0.2264 0.5906, 0.5906 -0.2756 0.5906, 0.0696 -0.2468 0.5906, 0.521 -0.2468 0.5906, 0.5053 -0.2264 0.5906, 0.0255 -0.0821 0.5906, 0.4955 -0.2026 0.5906, 0.4921 -0.1772 0.5906, 0.6398 -0.0919 0.5906, 1.0959 -0.128 0.5906, 0.616 -0.0821 0.5906, 0.5906 -0.0787 0.5906, 1.1811 -0.0787 0.5906, 1.2066 -0.0821 0.5906, 1.2303 -0.0919 0.5906, 1.2507 -0.1076 0.5906, 1.2663 -0.128 0.5906, 1.2762 -0.1517 0.5906, 1.2795 -0.1772 0.5906, 0.5413 -0.2624 0.5906, 0.0492 -0.0919 0.5906, 0.0696 -0.1076 0.5906, 0.0492 -0.2624 0.5906, 0.0255 -0.2722 0.5906, -0.2953 -0.3839 0.5906, 0.0 -0.2756 0.5906, -0.0255 -0.2722 0.5906, 1.1115 -0.1076 0.5906, 1.1319 -0.0919 0.5906, 1.1556 -0.0821 0.5906, 0.6601 -0.1076 0.5906, 0.6758 -0.128 0.5906, 1.086 -0.1517 0.5906, 0.6856 -0.1517 0.5906, 1.0827 -0.1772 0.5906, 1.086 -0.2026 0.5906, -0.0492 -0.2624 0.5906, -0.0696 -0.2468 0.5906, -0.0852 -0.2264 0.5906, 0.0 -0.0787 0.5906, -0.0951 -0.2026 0.5906, -0.0984 -0.1772 0.5906, -0.0951 -0.1517 0.5906, -0.0852 -0.128 0.5906, -0.0696 -0.1076 0.5906, 0.4955 -0.1517 0.5906, 0.5053 -0.128 0.5906, 0.521 -0.1076 0.5906, -0.0492 -0.0919 0.5906, -0.0255 -0.0821 0.5906, -0.5906 -0.2756 0.5906, -0.616 -0.2722 0.5906, -0.521 -0.2468 0.5906, -0.5053 -0.2264 0.5906, -0.4955 -0.2026 0.5906, -0.5413 -0.2624 0.5906, -0.5651 -0.2722 0.5906, -1.0959 -0.2264 0.5906, -1.1115 -0.2468 0.5906, -1.1319 -0.2624 0.5906, -1.1556 -0.2722 0.5906, -1.1811 -0.2756 0.5906, -1.2066 -0.2722 0.5906, -0.6601 -0.2468 0.5906, -0.6758 -0.2264 0.5906, -1.0827 -0.1772 0.5906, -1.086 -0.1517 0.5906, -0.6758 -0.128 0.5906, -0.6601 -0.1076 0.5906, -1.086 -0.2026 0.5906, -0.6398 -0.2624 0.5906, -1.2303 -0.2624 0.5906, -1.2507 -0.2468 0.5906, -1.2663 -0.2264 0.5906, -1.2762 -0.1517 0.5906, -1.2795 -0.1772 0.5906, -1.2762 -0.2026 0.5906, -1.2663 -0.128 0.5906, -1.2507 -0.1076 0.5906, -1.2303 -0.0919 0.5906, -1.2066 -0.0821 0.5906, -1.1811 -0.0787 0.5906, -1.1556 -0.0821 0.5906, -1.1319 -0.0919 0.5906, -0.521 -0.1076 0.5906, -0.5413 -0.0919 0.5906, -0.5651 -0.0821 0.5906, -0.6856 -0.2026 0.5906, -0.689 -0.1772 0.5906, -0.6856 -0.1517 0.5906, -1.1115 -0.1076 0.5906, -1.0959 -0.128 0.5906, -0.5053 -0.128 0.5906, -0.4955 -0.1517 0.5906, -0.4921 -0.1772 0.5906, -0.6398 -0.0919 0.5906, -0.616 -0.0821 0.5906, -0.5906 -0.0787 0.5906, -0.5906 -0.0787 0.5906
            ]
        }
        coordIndex [
            0,1,2,-1,2,1,3,-1,2,3,4,-1,4,3,5,-1,4,5,6,-1,6,5,7,-1,8,9,10,-1,10,9,11,-1,10,11,12,-1,13,14,15,-1,15,14,16,-1,15,16,17,-1,17,16,10,-1,17,10,18,-1,18,10,12,-1,19,20,21,-1,1,22,3,-1,3,22,23,-1,3,23,21,-1,21,23,24,-1,21,24,19,-1,20,25,21,-1,21,25,26,-1,21,26,8,-1,8,26,27,-1,8,27,9,-1,28,5,29,-1,29,5,3,-1,29,3,21,-1,30,31,32,-1,32,31,33,-1,32,33,34,-1,34,33,35,-1,34,35,36,-1,36,37,34,-1,34,37,38,-1,34,38,39,-1,28,40,41,-1,38,42,39,-1,39,42,43,-1,39,43,28,-1,28,43,44,-1,28,44,40,-1,45,7,46,-1,46,7,5,-1,46,5,47,-1,47,5,28,-1,47,28,48,-1,48,28,41,-1,32,34,16,-1,16,34,49,-1,16,49,10,-1,50,30,51,-1,51,30,32,-1,51,32,52,-1,52,32,16,-1,52,16,53,-1,53,16,14,-1,39,54,55,-1,56,57,58,-1,59,60,61,-1,61,60,62,-1,63,64,65,-1,65,64,56,-1,65,56,66,-1,66,56,58,-1,57,56,67,-1,67,56,68,-1,67,68,69,-1,70,71,72,-1,72,71,73,-1,54,39,74,-1,74,39,28,-1,74,28,75,-1,73,76,72,-1,72,76,77,-1,72,77,78,-1,78,77,60,-1,78,60,79,-1,79,60,59,-1,55,80,39,-1,39,80,81,-1,39,81,82,-1,83,84,39,-1,39,84,85,-1,39,85,86,-1,87,88,29,-1,60,89,62,-1,62,89,90,-1,62,90,91,-1,91,90,92,-1,92,93,91,-1,91,93,94,-1,91,94,95,-1,94,96,95,-1,95,96,97,-1,95,97,98,-1,95,99,87,-1,29,100,101,-1,82,102,39,-1,39,102,103,-1,39,103,104,-1,98,105,95,-1,95,105,106,-1,95,106,99,-1,83,39,107,-1,107,39,104,-1,107,104,63,-1,63,104,108,-1,63,108,64,-1,88,109,29,-1,29,109,110,-1,29,110,111,-1,112,113,28,-1,28,113,114,-1,28,114,75,-1,29,101,28,-1,28,101,115,-1,28,115,112,-1,116,117,29,-1,29,117,118,-1,29,118,67,-1,111,119,29,-1,29,119,120,-1,29,120,70,-1,69,121,67,-1,67,121,122,-1,67,122,29,-1,29,122,123,-1,29,123,100,-1,72,124,70,-1,70,124,125,-1,70,125,29,-1,29,125,126,-1,29,126,116,-1,127,128,95,-1,95,128,129,-1,130,131,8,-1,132,95,133,-1,133,95,129,-1,133,129,134,-1,129,135,134,-1,134,135,136,-1,134,136,137,-1,138,139,29,-1,140,95,141,-1,141,95,142,-1,140,143,95,-1,95,143,144,-1,95,144,127,-1,132,145,95,-1,95,145,146,-1,95,146,147,-1,131,148,8,-1,8,148,149,-1,8,149,150,-1,151,152,21,-1,87,29,95,-1,95,29,153,-1,95,153,142,-1,151,21,154,-1,138,29,155,-1,150,156,8,-1,8,156,157,-1,8,157,21,-1,21,157,158,-1,21,158,154,-1,159,160,29,-1,29,160,161,-1,29,161,162,-1,137,163,134,-1,134,163,164,-1,134,164,165,-1,162,166,29,-1,29,166,167,-1,29,167,153,-1,164,168,165,-1,165,168,169,-1,165,169,139,-1,139,169,170,-1,139,170,29,-1,29,170,171,-1,29,171,159,-1,152,172,21,-1,21,172,173,-1,21,173,29,-1,29,173,174,-1,29,174,155,-1,86,91,39,-1,39,91,95,-1,39,95,34,-1,34,95,49,-1,147,130,95,-1,95,130,8,-1,95,8,49,-1,49,8,10,-1,52,175,51,-1,51,175,176,-1,51,176,177,-1,178,179,50,-1,177,180,181,-1,180,177,182,-1,182,177,183,-1,182,183,184,-1,185,186,187,-1,181,188,177,-1,177,188,178,-1,177,178,51,-1,51,178,50,-1,186,189,187,-1,187,189,190,-1,187,190,183,-1,183,190,191,-1,183,191,184,-1,6,192,4,-1,4,192,193,-1,4,193,187,-1,187,193,194,-1,187,194,185,-1,195,2,196,-1,196,2,4,-1,196,4,187,-1,197,198,0,-1,199,200,201,-1,201,200,175,-1,201,175,202,-1,53,203,52,-1,52,203,204,-1,52,204,175,-1,175,204,205,-1,175,205,202,-1,199,206,200,-1,200,206,207,-1,200,207,195,-1,195,207,208,-1,208,209,195,-1,195,209,210,-1,195,210,211,-1,211,212,195,-1,195,212,197,-1,195,197,2,-1,2,197,0,-1,213,214,200,-1,200,214,215,-1,200,215,216,-1,217,218,219,-1,220,221,222,-1,216,223,200,-1,200,223,224,-1,200,224,225,-1,226,227,200,-1,200,227,228,-1,200,228,229,-1,220,222,230,-1,196,231,232,-1,226,200,233,-1,233,200,225,-1,233,225,217,-1,217,225,234,-1,217,234,218,-1,221,235,222,-1,222,235,236,-1,222,236,237,-1,237,236,238,-1,239,240,241,-1,241,240,242,-1,241,242,243,-1,244,245,246,-1,246,245,196,-1,246,196,247,-1,247,196,232,-1,248,249,195,-1,195,249,250,-1,195,250,251,-1,251,252,195,-1,195,252,253,-1,195,253,200,-1,200,253,254,-1,200,254,213,-1,239,241,255,-1,255,241,256,-1,255,256,222,-1,222,256,257,-1,222,257,230,-1,238,258,237,-1,237,258,259,-1,237,259,260,-1,260,259,261,-1,260,261,262,-1,245,263,196,-1,196,263,264,-1,196,264,195,-1,195,264,265,-1,195,265,248,-1,244,266,245,-1,245,266,267,-1,245,267,268,-1,268,267,269,-1,268,269,270,-1,270,269,217,-1,270,217,271,-1,271,217,219,-1,262,272,260,-1,260,272,273,-1,260,273,274,-1,196,275,241,-1,274,276,260,-1,260,276,277,-1,260,277,196,-1,277,278,196,-1,196,278,279,-1,196,279,280,-1,243,281,241,-1,241,281,282,-1,241,282,196,-1,196,282,283,-1,196,283,231,-1,280,284,196,-1,196,284,285,-1,196,285,275,-1,260,286,287,-1,288,260,289,-1,289,260,290,-1,288,291,260,-1,260,291,292,-1,260,292,286,-1,293,294,260,-1,260,294,295,-1,260,295,296,-1,183,297,298,-1,299,300,301,-1,302,303,304,-1,293,260,305,-1,305,260,287,-1,305,287,301,-1,301,287,306,-1,301,306,299,-1,298,307,183,-1,183,307,308,-1,183,308,309,-1,310,187,311,-1,311,187,183,-1,311,183,312,-1,312,183,309,-1,310,313,187,-1,187,313,314,-1,187,314,315,-1,315,316,187,-1,187,316,317,-1,187,317,196,-1,196,317,318,-1,196,318,319,-1,320,196,321,-1,321,196,322,-1,300,323,301,-1,301,323,324,-1,301,324,302,-1,302,324,325,-1,302,325,303,-1,319,326,196,-1,196,326,327,-1,196,327,302,-1,320,328,196,-1,196,328,329,-1,196,329,260,-1,260,329,330,-1,260,330,290,-1,304,331,302,-1,302,331,332,-1,302,332,196,-1,196,332,333,-1,196,333,322,-1,229,237,200,-1,200,237,260,-1,200,260,175,-1,175,260,176,-1,296,297,260,-1,260,297,183,-1,260,183,176,-1,176,183,177,-1,13,15,203,-1,203,15,204,-1,204,15,205,-1,205,15,17,-1,205,17,202,-1,202,17,18,-1,202,18,201,-1,201,18,12,-1,201,12,199,-1,199,12,11,-1,199,11,206,-1,206,11,9,-1,206,9,207,-1,207,9,27,-1,207,27,208,-1,208,27,26,-1,208,26,209,-1,209,26,25,-1,209,25,210,-1,210,25,20,-1,210,20,211,-1,211,20,19,-1,211,19,212,-1,212,19,24,-1,212,24,197,-1,197,24,23,-1,198,197,22,-1,22,197,23,-1,45,46,192,-1,192,46,193,-1,33,178,35,-1,35,178,188,-1,35,188,36,-1,36,188,181,-1,36,181,37,-1,37,181,180,-1,37,180,38,-1,38,180,182,-1,38,182,42,-1,42,182,184,-1,42,184,43,-1,43,184,191,-1,43,191,44,-1,44,191,190,-1,44,190,40,-1,40,190,189,-1,40,189,41,-1,41,189,186,-1,41,186,48,-1,48,186,185,-1,48,185,47,-1,47,185,194,-1,47,194,46,-1,46,194,193,-1,179,178,31,-1,31,178,33,-1,31,30,179,-1,179,30,50,-1,192,6,45,-1,45,6,7,-1,203,53,13,-1,13,53,14,-1,22,1,198,-1,198,1,0,-1,
        ]
    }
}
Shape{
    appearance Appearance {
        material  Material 	{
            diffuseColor 0.6666666666666666 0.6666666666666666 0.6666666666666666
            specularColor 0.4666666666666667 0.4666666666666667 0.4666666666666667
            ambientIntensity 0.2
            transparency 0
            shininess 0.5
        }
    }
    geometry IndexedFaceSet {
        ccw TRUE
        solid FALSE
        coord DEF co Coordinate {
            point [
                -0.5565 -0.1969 1.5748, -0.5525 -0.1874 1.5748, -0.5906 -0.1772 1.5748, -0.5512 -0.1772 1.5748, -0.5525 -0.167 1.5748, -0.5804 -0.2152 1.5748, -0.5709 -0.2113 1.5748, -0.5627 -0.205 1.5748, -0.6102 -0.2113 1.5748, -0.6007 -0.2152 1.5748, -0.5906 -0.2165 1.5748, -0.6286 -0.1874 1.5748, -0.6246 -0.1969 1.5748, -0.6184 -0.205 1.5748, -0.6246 -0.1575 1.5748, -0.6286 -0.167 1.5748, -0.6299 -0.1772 1.5748, -0.6007 -0.1391 1.5748, -0.6102 -0.1431 1.5748, -0.6184 -0.1493 1.5748, -0.5709 -0.1431 1.5748, -0.5804 -0.1391 1.5748, -0.5906 -0.1378 1.5748, -0.5565 -0.1575 1.5748, -0.5627 -0.1493 1.5748, -0.4921 -0.1772 1.4725, -0.4955 -0.1517 0.5906, -0.4955 -0.1517 1.4725, -0.5053 -0.128 0.5906, -0.5053 -0.128 1.4725, -0.521 -0.1076 0.5906, -0.521 -0.1076 1.4725, -0.5413 -0.0919 0.5906, -0.5413 -0.0919 1.4725, -0.5651 -0.0821 0.5906, -0.5651 -0.0821 1.4725, -0.5906 -0.0787 0.5906, -0.5906 -0.0787 1.4725, -0.616 -0.0821 0.5906, -0.616 -0.0821 1.4725, -0.6398 -0.0919 0.5906, -0.6398 -0.0919 1.4725, -0.6601 -0.1076 0.5906, -0.6601 -0.1076 1.4725, -0.6758 -0.128 0.5906, -0.6758 -0.128 1.4725, -0.6856 -0.1517 0.5906, -0.6856 -0.1517 1.4725, -0.689 -0.1772 0.5906, -0.689 -0.1772 1.4725, -0.6856 -0.2026 0.5906, -0.6856 -0.2026 1.4725, -0.6758 -0.2264 0.5906, -0.6758 -0.2264 1.4725, -0.6601 -0.2468 0.5906, -0.6601 -0.2468 1.4725, -0.6398 -0.2624 0.5906, -0.6398 -0.2624 1.4725, -0.616 -0.2722 0.5906, -0.616 -0.2722 1.4725, -0.5906 -0.2756 0.5906, -0.5906 -0.2756 1.4725, -0.5651 -0.2722 0.5906, -0.5651 -0.2722 1.4725, -0.5413 -0.2624 0.5906, -0.5413 -0.2624 1.4725, -0.521 -0.2468 0.5906, -0.521 -0.2468 1.4725, -0.5053 -0.2264 0.5906, -0.5053 -0.2264 1.4725, -0.4955 -0.2026 0.5906, -0.4955 -0.2026 1.4725, -0.4921 -0.1772 0.5906, -0.4921 -0.1772 0.0, -0.4955 -0.1517 -0.9607, -0.4955 -0.1517 0.0, -0.5053 -0.128 -0.9607, -0.5053 -0.128 0.0, -0.521 -0.1076 -0.9607, -0.521 -0.1076 0.0, -0.5413 -0.0919 -0.9607, -0.5413 -0.0919 0.0, -0.5651 -0.0821 -0.9607, -0.5651 -0.0821 0.0, -0.5906 -0.0787 -0.9607, -0.5906 -0.0787 0.0, -0.616 -0.0821 -0.9607, -0.616 -0.0821 0.0, -0.6398 -0.0919 -0.9607, -0.6398 -0.0919 0.0, -0.6601 -0.1076 -0.9607, -0.6601 -0.1076 0.0, -0.6758 -0.128 -0.9607, -0.6758 -0.128 0.0, -0.6856 -0.1517 -0.9607, -0.6856 -0.1517 0.0, -0.689 -0.1772 -0.9607, -0.689 -0.1772 0.0, -0.6856 -0.2026 -0.9607, -0.6856 -0.2026 0.0, -0.6758 -0.2264 -0.9607, -0.6758 -0.2264 0.0, -0.6601 -0.2468 -0.9607, -0.6601 -0.2468 0.0, -0.6398 -0.2624 -0.9607, -0.6398 -0.2624 0.0, -0.616 -0.2722 -0.9607, -0.616 -0.2722 0.0, -0.5906 -0.2756 -0.9607, -0.5906 -0.2756 0.0, -0.5651 -0.2722 -0.9607, -0.5651 -0.2722 0.0, -0.5413 -0.2624 -0.9607, -0.5413 -0.2624 0.0, -0.521 -0.2468 -0.9607, -0.521 -0.2468 0.0, -0.5053 -0.2264 -0.9607, -0.5053 -0.2264 0.0, -0.4955 -0.2026 -0.9607, -0.4955 -0.2026 0.0, -0.4921 -0.1772 -0.9607, -0.6246 -0.1969 -1.063, -0.6286 -0.1874 -1.063, -0.5906 -0.1772 -1.063, -0.6299 -0.1772 -1.063, -0.6286 -0.167 -1.063, -0.6007 -0.2152 -1.063, -0.6102 -0.2113 -1.063, -0.6184 -0.205 -1.063, -0.5709 -0.2113 -1.063, -0.5804 -0.2152 -1.063, -0.5906 -0.2165 -1.063, -0.5525 -0.1874 -1.063, -0.5565 -0.1969 -1.063, -0.5627 -0.205 -1.063, -0.5565 -0.1575 -1.063, -0.5525 -0.167 -1.063, -0.5512 -0.1772 -1.063, -0.5804 -0.1391 -1.063, -0.5709 -0.1431 -1.063, -0.5627 -0.1493 -1.063, -0.6102 -0.1431 -1.063, -0.6007 -0.1391 -1.063, -0.5906 -0.1378 -1.063, -0.6246 -0.1575 -1.063, -0.6184 -0.1493 -1.063, -1.147 -0.1969 1.5748, -1.1431 -0.1874 1.5748, -1.1811 -0.1772 1.5748, -1.1417 -0.1772 1.5748, -1.1431 -0.167 1.5748, -1.1709 -0.2152 1.5748, -1.1614 -0.2113 1.5748, -1.1533 -0.205 1.5748, -1.2008 -0.2113 1.5748, -1.1913 -0.2152 1.5748, -1.1811 -0.2165 1.5748, -1.2191 -0.1874 1.5748, -1.2152 -0.1969 1.5748, -1.2089 -0.205 1.5748, -1.2152 -0.1575 1.5748, -1.2191 -0.167 1.5748, -1.2205 -0.1772 1.5748, -1.1913 -0.1391 1.5748, -1.2008 -0.1431 1.5748, -1.2089 -0.1493 1.5748, -1.1614 -0.1431 1.5748, -1.1709 -0.1391 1.5748, -1.1811 -0.1378 1.5748, -1.147 -0.1575 1.5748, -1.1533 -0.1493 1.5748, -1.1811 -0.0787 0.5906, -1.1556 -0.0821 1.4725, -1.1556 -0.0821 0.5906, -1.1319 -0.0919 1.4725, -1.1319 -0.0919 0.5906, -1.1115 -0.1076 1.4725, -1.1115 -0.1076 0.5906, -1.0959 -0.128 1.4725, -1.0959 -0.128 0.5906, -1.086 -0.1517 1.4725, -1.086 -0.1517 0.5906, -1.0827 -0.1772 1.4725, -1.0827 -0.1772 0.5906, -1.086 -0.2026 1.4725, -1.086 -0.2026 0.5906, -1.0959 -0.2264 1.4725, -1.0959 -0.2264 0.5906, -1.1115 -0.2468 1.4725, -1.1115 -0.2468 0.5906, -1.1319 -0.2624 1.4725, -1.1319 -0.2624 0.5906, -1.1556 -0.2722 1.4725, -1.1556 -0.2722 0.5906, -1.1811 -0.2756 1.4725, -1.1811 -0.2756 0.5906, -1.2066 -0.2722 1.4725, -1.2066 -0.2722 0.5906, -1.2303 -0.2624 1.4725, -1.2303 -0.2624 0.5906, -1.2507 -0.2468 1.4725, -1.2507 -0.2468 0.5906, -1.2663 -0.2264 1.4725, -1.2663 -0.2264 0.5906, -1.2762 -0.2026 1.4725, -1.2762 -0.2026 0.5906, -1.2795 -0.1772 1.4725, -1.2795 -0.1772 0.5906, -1.2762 -0.1517 1.4725, -1.2762 -0.1517 0.5906, -1.2663 -0.128 1.4725, -1.2663 -0.128 0.5906, -1.2507 -0.1076 1.4725, -1.2507 -0.1076 0.5906, -1.2303 -0.0919 1.4725, -1.2303 -0.0919 0.5906, -1.2066 -0.0821 1.4725, -1.2066 -0.0821 0.5906, -1.1811 -0.0787 1.4725, -1.1811 -0.0787 -0.1621, -1.1556 -0.0821 0.0, -1.1556 -0.0821 -0.1621, -1.1319 -0.0919 0.0, -1.1319 -0.0919 -0.1621, -1.1115 -0.1076 0.0, -1.1115 -0.1076 -0.1621, -1.0959 -0.128 0.0, -1.0959 -0.128 -0.1621, -1.086 -0.1517 0.0, -1.086 -0.1517 -0.1621, -1.0827 -0.1772 0.0, -1.0827 -0.1772 -0.1621, -1.086 -0.2026 0.0, -1.086 -0.2026 -0.1621, -1.0959 -0.2264 0.0, -1.0959 -0.2264 -0.1621, -1.1115 -0.2468 0.0, -1.1115 -0.2468 -0.1621, -1.1319 -0.2624 0.0, -1.1319 -0.2624 -0.1621, -1.1556 -0.2722 0.0, -1.1556 -0.2722 -0.1621, -1.1811 -0.2756 0.0, -1.1811 -0.2756 -0.1621, -1.2066 -0.2722 0.0, -1.2066 -0.2722 -0.1621, -1.2303 -0.2624 0.0, -1.2303 -0.2624 -0.1621, -1.2507 -0.2468 0.0, -1.2507 -0.2468 -0.1621, -1.2663 -0.2264 0.0, -1.2663 -0.2264 -0.1621, -1.2762 -0.2026 0.0, -1.2762 -0.2026 -0.1621, -1.2795 -0.1772 0.0, -1.2795 -0.1772 -0.1621, -1.2762 -0.1517 0.0, -1.2762 -0.1517 -0.1621, -1.2663 -0.128 0.0, -1.2663 -0.128 -0.1621, -1.2507 -0.1076 0.0, -1.2507 -0.1076 -0.1621, -1.2303 -0.0919 0.0, -1.2303 -0.0919 -0.1621, -1.2066 -0.0821 0.0, -1.2066 -0.0821 -0.1621, -1.1811 -0.0787 0.0, -1.147 -0.1575 -1.063, -1.1431 -0.167 -1.063, -1.1811 -0.1772 -1.063, -1.1417 -0.1772 -1.063, -1.1431 -0.1874 -1.063, -1.1709 -0.1391 -1.063, -1.1614 -0.1431 -1.063, -1.1533 -0.1493 -1.063, -1.2008 -0.1431 -1.063, -1.1913 -0.1391 -1.063, -1.1811 -0.1378 -1.063, -1.2191 -0.167 -1.063, -1.2152 -0.1575 -1.063, -1.2089 -0.1493 -1.063, -1.2152 -0.1969 -1.063, -1.2191 -0.1874 -1.063, -1.2205 -0.1772 -1.063, -1.1913 -0.2152 -1.063, -1.2008 -0.2113 -1.063, -1.2089 -0.205 -1.063, -1.1614 -0.2113 -1.063, -1.1709 -0.2152 -1.063, -1.1811 -0.2165 -1.063, -1.147 -0.1969 -1.063, -1.1533 -0.205 -1.063, -1.1811 -0.0728 -0.1958, -1.1811 -0.0772 -0.1792, -1.1556 -0.076 -0.197, -1.1556 -0.0805 -0.1798, -1.1319 -0.0852 -0.2003, -1.1319 -0.0902 -0.1815, -1.1115 -0.0999 -0.2057, -1.1115 -0.1056 -0.1842, -1.0959 -0.119 -0.2126, -1.0959 -0.1257 -0.1878, -1.086 -0.1414 -0.2208, -1.086 -0.1491 -0.1919, -1.0827 -0.1653 -0.2295, -1.0827 -0.1742 -0.1963, -1.086 -0.1892 -0.2382, -1.086 -0.1993 -0.2007, -1.0959 -0.2115 -0.2463, -1.0959 -0.2226 -0.2049, -1.1115 -0.2307 -0.2533, -1.1115 -0.2427 -0.2084, -1.1319 -0.2454 -0.2586, -1.1319 -0.2581 -0.2111, -1.1556 -0.2546 -0.262, -1.1556 -0.2678 -0.2128, -1.1811 -0.2578 -0.2631, -1.1811 -0.2711 -0.2134, -1.2066 -0.2546 -0.262, -1.2066 -0.2678 -0.2128, -1.2303 -0.2454 -0.2586, -1.2303 -0.2581 -0.2111, -1.2507 -0.2307 -0.2533, -1.2507 -0.2427 -0.2084, -1.2663 -0.2115 -0.2463, -1.2663 -0.2226 -0.2049, -1.2762 -0.1892 -0.2382, -1.2762 -0.1993 -0.2007, -1.2795 -0.1653 -0.2295, -1.2795 -0.1742 -0.1963, -1.2762 -0.1414 -0.2208, -1.2762 -0.1491 -0.1919, -1.2663 -0.119 -0.2126, -1.2663 -0.1257 -0.1878, -1.2507 -0.0999 -0.2057, -1.2507 -0.1056 -0.1842, -1.2303 -0.0852 -0.2003, -1.2303 -0.0902 -0.1815, -1.2066 -0.076 -0.197, -1.2066 -0.0805 -0.1798, -1.1811 -0.0232 -0.3321, -1.1556 -0.0264 -0.3332, -1.1319 -0.0356 -0.3366, -1.1115 -0.0503 -0.3419, -1.0959 -0.0694 -0.3489, -1.086 -0.0918 -0.357, -1.0827 -0.1157 -0.3657, -1.086 -0.1396 -0.3745, -1.0959 -0.1619 -0.3826, -1.1115 -0.1811 -0.3895, -1.1319 -0.1958 -0.3949, -1.1556 -0.205 -0.3983, -1.1811 -0.2082 -0.3994, -1.2066 -0.205 -0.3983, -1.2303 -0.1958 -0.3949, -1.2507 -0.1811 -0.3895, -1.2663 -0.1619 -0.3826, -1.2762 -0.1396 -0.3745, -1.2795 -0.1157 -0.3657, -1.2762 -0.0918 -0.357, -1.2663 -0.0694 -0.3489, -1.2507 -0.0503 -0.3419, -1.2303 -0.0356 -0.3366, -1.2066 -0.0264 -0.3332, -1.1811 -0.2082 -0.4667, -1.1811 -0.2037 -0.4502, -1.2066 -0.205 -0.4679, -1.2066 -0.2004 -0.4507, -1.2303 -0.1958 -0.4712, -1.2303 -0.1908 -0.4525, -1.2507 -0.1811 -0.4766, -1.2507 -0.1754 -0.4552, -1.2663 -0.1619 -0.4836, -1.2663 -0.1553 -0.4587, -1.2762 -0.1396 -0.4917, -1.2762 -0.1319 -0.4628, -1.2795 -0.1157 -0.5004, -1.2795 -0.1068 -0.4673, -1.2762 -0.0918 -0.5091, -1.2762 -0.0817 -0.4717, -1.2663 -0.0694 -0.5172, -1.2663 -0.0583 -0.4758, -1.2507 -0.0503 -0.5242, -1.2507 -0.0383 -0.4793, -1.2303 -0.0356 -0.5296, -1.2303 -0.0229 -0.4821, -1.2066 -0.0264 -0.5329, -1.2066 -0.0132 -0.4838, -1.1811 -0.0232 -0.5341, -1.1811 -0.0099 -0.4843, -1.1556 -0.0264 -0.5329, -1.1556 -0.0132 -0.4838, -1.1319 -0.0356 -0.5296, -1.1319 -0.0229 -0.4821, -1.1115 -0.0503 -0.5242, -1.1115 -0.0383 -0.4793, -1.0959 -0.0694 -0.5172, -1.0959 -0.0583 -0.4758, -1.086 -0.0918 -0.5091, -1.086 -0.0817 -0.4717, -1.0827 -0.1157 -0.5004, -1.0827 -0.1068 -0.4673, -1.086 -0.1396 -0.4917, -1.086 -0.1319 -0.4628, -1.0959 -0.1619 -0.4836, -1.0959 -0.1553 -0.4587, -1.1115 -0.1811 -0.4766, -1.1115 -0.1754 -0.4552, -1.1319 -0.1958 -0.4712, -1.1319 -0.1908 -0.4525, -1.1556 -0.205 -0.4679, -1.1556 -0.2004 -0.4507, -1.1811 -0.2022 -0.4331, -1.2066 -0.1989 -0.4331, -1.2303 -0.1891 -0.4331, -1.2507 -0.1734 -0.4331, -1.2663 -0.153 -0.4331, -1.2762 -0.1293 -0.4331, -1.2795 -0.1038 -0.4331, -1.2762 -0.0783 -0.4331, -1.2663 -0.0546 -0.4331, -1.2507 -0.0342 -0.4331, -1.2303 -0.0186 -0.4331, -1.2066 -0.0088 -0.4331, -1.1811 -0.0054 -0.4331, -1.1556 -0.0088 -0.4331, -1.1319 -0.0186 -0.4331, -1.1115 -0.0342 -0.4331, -1.0959 -0.0546 -0.4331, -1.086 -0.0783 -0.4331, -1.0827 -0.1038 -0.4331, -1.086 -0.1293 -0.4331, -1.0959 -0.153 -0.4331, -1.1115 -0.1734 -0.4331, -1.1319 -0.1891 -0.4331, -1.1556 -0.1989 -0.4331, -1.1811 -0.2037 -0.416, -1.2066 -0.2004 -0.4154, -1.2303 -0.1908 -0.4137, -1.2507 -0.1754 -0.411, -1.2663 -0.1553 -0.4074, -1.2762 -0.1319 -0.4033, -1.2795 -0.1068 -0.3989, -1.2762 -0.0817 -0.3945, -1.2663 -0.0583 -0.3903, -1.2507 -0.0383 -0.3868, -1.2303 -0.0229 -0.3841, -1.2066 -0.0132 -0.3824, -1.1811 -0.0099 -0.3818, -1.1556 -0.0132 -0.3824, -1.1319 -0.0229 -0.3841, -1.1115 -0.0383 -0.3868, -1.0959 -0.0583 -0.3903, -1.086 -0.0817 -0.3945, -1.0827 -0.1068 -0.3989, -1.086 -0.1319 -0.4033, -1.0959 -0.1553 -0.4074, -1.1115 -0.1754 -0.411, -1.1319 -0.1908 -0.4137, -1.1556 -0.2004 -0.4154, -1.1811 -0.0728 -0.6703, -1.1556 -0.076 -0.6692, -1.1319 -0.0852 -0.6658, -1.1115 -0.0999 -0.6605, -1.0959 -0.119 -0.6535, -1.086 -0.1414 -0.6454, -1.0827 -0.1653 -0.6367, -1.086 -0.1892 -0.628, -1.0959 -0.2115 -0.6198, -1.1115 -0.2307 -0.6129, -1.1319 -0.2454 -0.6075, -1.1556 -0.2546 -0.6042, -1.1811 -0.2578 -0.603, -1.2066 -0.2546 -0.6042, -1.2303 -0.2454 -0.6075, -1.2507 -0.2307 -0.6129, -1.2663 -0.2115 -0.6198, -1.2762 -0.1892 -0.628, -1.2795 -0.1653 -0.6367, -1.2762 -0.1414 -0.6454, -1.2663 -0.119 -0.6535, -1.2507 -0.0999 -0.6605, -1.2303 -0.0852 -0.6658, -1.2066 -0.076 -0.6692, -1.1811 -0.0787 -0.704, -1.1811 -0.0772 -0.6869, -1.1556 -0.0821 -0.704, -1.1556 -0.0805 -0.6863, -1.1319 -0.0919 -0.704, -1.1319 -0.0902 -0.6846, -1.1115 -0.1076 -0.704, -1.1115 -0.1056 -0.6819, -1.0959 -0.128 -0.704, -1.0959 -0.1257 -0.6784, -1.086 -0.1517 -0.704, -1.086 -0.1491 -0.6742, -1.0827 -0.1772 -0.704, -1.0827 -0.1742 -0.6698, -1.086 -0.2026 -0.704, -1.086 -0.1993 -0.6654, -1.0959 -0.2264 -0.704, -1.0959 -0.2226 -0.6613, -1.1115 -0.2468 -0.704, -1.1115 -0.2427 -0.6577, -1.1319 -0.2624 -0.704, -1.1319 -0.2581 -0.655, -1.1556 -0.2722 -0.704, -1.1556 -0.2678 -0.6533, -1.1811 -0.2756 -0.704, -1.1811 -0.2711 -0.6527, -1.2066 -0.2722 -0.704, -1.2066 -0.2678 -0.6533, -1.2303 -0.2624 -0.704, -1.2303 -0.2581 -0.655, -1.2507 -0.2468 -0.704, -1.2507 -0.2427 -0.6577, -1.2663 -0.2264 -0.704, -1.2663 -0.2226 -0.6613, -1.2762 -0.2026 -0.704, -1.2762 -0.1993 -0.6654, -1.2795 -0.1772 -0.704, -1.2795 -0.1742 -0.6698, -1.2762 -0.1517 -0.704, -1.2762 -0.1491 -0.6742, -1.2663 -0.128 -0.704, -1.2663 -0.1257 -0.6784, -1.2507 -0.1076 -0.704, -1.2507 -0.1056 -0.6819, -1.2303 -0.0919 -0.704, -1.2303 -0.0902 -0.6846, -1.2066 -0.0821 -0.704, -1.2066 -0.0805 -0.6863, -1.1811 -0.0787 -0.9607, -1.1556 -0.0821 -0.9607, -1.1319 -0.0919 -0.9607, -1.1115 -0.1076 -0.9607, -1.0959 -0.128 -0.9607, -1.086 -0.1517 -0.9607, -1.0827 -0.1772 -0.9607, -1.086 -0.2026 -0.9607, -1.0959 -0.2264 -0.9607, -1.1115 -0.2468 -0.9607, -1.1319 -0.2624 -0.9607, -1.1556 -0.2722 -0.9607, -1.1811 -0.2756 -0.9607, -1.2066 -0.2722 -0.9607, -1.2303 -0.2624 -0.9607, -1.2507 -0.2468 -0.9607, -1.2663 -0.2264 -0.9607, -1.2762 -0.2026 -0.9607, -1.2795 -0.1772 -0.9607, -1.2762 -0.1517 -0.9607, -1.2663 -0.128 -0.9607, -1.2507 -0.1076 -0.9607, -1.2303 -0.0919 -0.9607, -1.2066 -0.0821 -0.9607, 1.147 -0.1969 -1.063, 1.1431 -0.1874 -1.063, 1.1811 -0.1772 -1.063, 1.1417 -0.1772 -1.063, 1.1431 -0.167 -1.063, 1.1709 -0.2152 -1.063, 1.1614 -0.2113 -1.063, 1.1533 -0.205 -1.063, 1.2008 -0.2113 -1.063, 1.1913 -0.2152 -1.063, 1.1811 -0.2165 -1.063, 1.2191 -0.1874 -1.063, 1.2152 -0.1969 -1.063, 1.2089 -0.205 -1.063, 1.2152 -0.1575 -1.063, 1.2191 -0.167 -1.063, 1.2205 -0.1772 -1.063, 1.1913 -0.1391 -1.063, 1.2008 -0.1431 -1.063, 1.2089 -0.1493 -1.063, 1.1614 -0.1431 -1.063, 1.1709 -0.1391 -1.063, 1.1811 -0.1378 -1.063, 1.147 -0.1575 -1.063, 1.1533 -0.1493 -1.063, 1.1811 -0.0787 -0.1621, 1.2066 -0.0821 0.0, 1.2066 -0.0821 -0.1621, 1.2303 -0.0919 0.0, 1.2303 -0.0919 -0.1621, 1.2507 -0.1076 0.0, 1.2507 -0.1076 -0.1621, 1.2663 -0.128 0.0, 1.2663 -0.128 -0.1621, 1.2762 -0.1517 0.0, 1.2762 -0.1517 -0.1621, 1.2795 -0.1772 0.0, 1.2795 -0.1772 -0.1621, 1.2762 -0.2026 0.0, 1.2762 -0.2026 -0.1621, 1.2663 -0.2264 0.0, 1.2663 -0.2264 -0.1621, 1.2507 -0.2468 0.0, 1.2507 -0.2468 -0.1621, 1.2303 -0.2624 0.0, 1.2303 -0.2624 -0.1621, 1.2066 -0.2722 0.0, 1.2066 -0.2722 -0.1621, 1.1811 -0.2756 0.0, 1.1811 -0.2756 -0.1621, 1.1556 -0.2722 0.0, 1.1556 -0.2722 -0.1621, 1.1319 -0.2624 0.0, 1.1319 -0.2624 -0.1621, 1.1115 -0.2468 0.0, 1.1115 -0.2468 -0.1621, 1.0959 -0.2264 0.0, 1.0959 -0.2264 -0.1621, 1.086 -0.2026 0.0, 1.086 -0.2026 -0.1621, 1.0827 -0.1772 0.0, 1.0827 -0.1772 -0.1621, 1.086 -0.1517 0.0, 1.086 -0.1517 -0.1621, 1.0959 -0.128 0.0, 1.0959 -0.128 -0.1621, 1.1115 -0.1076 0.0, 1.1115 -0.1076 -0.1621, 1.1319 -0.0919 0.0, 1.1319 -0.0919 -0.1621, 1.1556 -0.0821 0.0, 1.1556 -0.0821 -0.1621, 1.1811 -0.0787 0.0, 1.1811 -0.0772 -0.1792, 1.1556 -0.0805 -0.1798, 1.1319 -0.0902 -0.1815, 1.1115 -0.1056 -0.1842, 1.0959 -0.1257 -0.1878, 1.086 -0.1491 -0.1919, 1.0827 -0.1742 -0.1963, 1.086 -0.1993 -0.2007, 1.0959 -0.2226 -0.2049, 1.1115 -0.2427 -0.2084, 1.1319 -0.2581 -0.2111, 1.1556 -0.2678 -0.2128, 1.1811 -0.2711 -0.2134, 1.2066 -0.2678 -0.2128, 1.2303 -0.2581 -0.2111, 1.2507 -0.2427 -0.2084, 1.2663 -0.2226 -0.2049, 1.2762 -0.1993 -0.2007, 1.2795 -0.1742 -0.1963, 1.2762 -0.1491 -0.1919, 1.2663 -0.1257 -0.1878, 1.2507 -0.1056 -0.1842, 1.2303 -0.0902 -0.1815, 1.2066 -0.0805 -0.1798, 1.1811 -0.0728 -0.1958, 1.1556 -0.076 -0.197, 1.1319 -0.0852 -0.2003, 1.1115 -0.0999 -0.2057, 1.0959 -0.119 -0.2126, 1.086 -0.1414 -0.2208, 1.0827 -0.1653 -0.2295, 1.086 -0.1892 -0.2382, 1.0959 -0.2115 -0.2463, 1.1115 -0.2307 -0.2533, 1.1319 -0.2454 -0.2586, 1.1556 -0.2546 -0.262, 1.1811 -0.2578 -0.2631, 1.2066 -0.2546 -0.262, 1.2303 -0.2454 -0.2586, 1.2507 -0.2307 -0.2533, 1.2663 -0.2115 -0.2463, 1.2762 -0.1892 -0.2382, 1.2795 -0.1653 -0.2295, 1.2762 -0.1414 -0.2208, 1.2663 -0.119 -0.2126, 1.2507 -0.0999 -0.2057, 1.2303 -0.0852 -0.2003, 1.2066 -0.076 -0.197, 1.1811 -0.0232 -0.3321, 1.2066 -0.0264 -0.3332, 1.2303 -0.0356 -0.3366, 1.2507 -0.0503 -0.3419, 1.2663 -0.0694 -0.3489, 1.2762 -0.0918 -0.357, 1.2795 -0.1157 -0.3657, 1.2762 -0.1396 -0.3745, 1.2663 -0.1619 -0.3826, 1.2507 -0.1811 -0.3895, 1.2303 -0.1958 -0.3949, 1.2066 -0.205 -0.3983, 1.1811 -0.2082 -0.3994, 1.1556 -0.205 -0.3983, 1.1319 -0.1958 -0.3949, 1.1115 -0.1811 -0.3895, 1.0959 -0.1619 -0.3826, 1.086 -0.1396 -0.3745, 1.0827 -0.1157 -0.3657, 1.086 -0.0918 -0.357, 1.0959 -0.0694 -0.3489, 1.1115 -0.0503 -0.3419, 1.1319 -0.0356 -0.3366, 1.1556 -0.0264 -0.3332, 1.1811 -0.2037 -0.416, 1.2066 -0.2004 -0.4154, 1.2303 -0.1908 -0.4137, 1.2507 -0.1754 -0.411, 1.2663 -0.1553 -0.4074, 1.2762 -0.1319 -0.4033, 1.2795 -0.1068 -0.3989, 1.2762 -0.0817 -0.3945, 1.2663 -0.0583 -0.3903, 1.2507 -0.0383 -0.3868, 1.2303 -0.0229 -0.3841, 1.2066 -0.0132 -0.3824, 1.1811 -0.0099 -0.3818, 1.1556 -0.0132 -0.3824, 1.1319 -0.0229 -0.3841, 1.1115 -0.0383 -0.3868, 1.0959 -0.0583 -0.3903, 1.086 -0.0817 -0.3945, 1.0827 -0.1068 -0.3989, 1.086 -0.1319 -0.4033, 1.0959 -0.1553 -0.4074, 1.1115 -0.1754 -0.411, 1.1319 -0.1908 -0.4137, 1.1556 -0.2004 -0.4154, 1.1811 -0.2022 -0.4331, 1.2066 -0.1989 -0.4331, 1.2303 -0.1891 -0.4331, 1.2507 -0.1734 -0.4331, 1.2663 -0.153 -0.4331, 1.2762 -0.1293 -0.4331, 1.2795 -0.1038 -0.4331, 1.2762 -0.0783 -0.4331, 1.2663 -0.0546 -0.4331, 1.2507 -0.0342 -0.4331, 1.2303 -0.0186 -0.4331, 1.2066 -0.0088 -0.4331, 1.1811 -0.0054 -0.4331, 1.1556 -0.0088 -0.4331, 1.1319 -0.0186 -0.4331, 1.1115 -0.0342 -0.4331, 1.0959 -0.0546 -0.4331, 1.086 -0.0783 -0.4331, 1.0827 -0.1038 -0.4331, 1.086 -0.1293 -0.4331, 1.0959 -0.153 -0.4331, 1.1115 -0.1734 -0.4331, 1.1319 -0.1891 -0.4331, 1.1556 -0.1989 -0.4331, 1.1811 -0.2037 -0.4502, 1.2066 -0.2004 -0.4507, 1.2303 -0.1908 -0.4525, 1.2507 -0.1754 -0.4552, 1.2663 -0.1553 -0.4587, 1.2762 -0.1319 -0.4628, 1.2795 -0.1068 -0.4673, 1.2762 -0.0817 -0.4717, 1.2663 -0.0583 -0.4758, 1.2507 -0.0383 -0.4793, 1.2303 -0.0229 -0.4821, 1.2066 -0.0132 -0.4838, 1.1811 -0.0099 -0.4843, 1.1556 -0.0132 -0.4838, 1.1319 -0.0229 -0.4821, 1.1115 -0.0383 -0.4793, 1.0959 -0.0583 -0.4758, 1.086 -0.0817 -0.4717, 1.0827 -0.1068 -0.4673, 1.086 -0.1319 -0.4628, 1.0959 -0.1553 -0.4587, 1.1115 -0.1754 -0.4552, 1.1319 -0.1908 -0.4525, 1.1556 -0.2004 -0.4507, 1.1811 -0.2082 -0.4667, 1.2066 -0.205 -0.4679, 1.2303 -0.1958 -0.4712, 1.2507 -0.1811 -0.4766, 1.2663 -0.1619 -0.4836, 1.2762 -0.1396 -0.4917, 1.2795 -0.1157 -0.5004, 1.2762 -0.0918 -0.5091, 1.2663 -0.0694 -0.5172, 1.2507 -0.0503 -0.5242, 1.2303 -0.0356 -0.5296, 1.2066 -0.0264 -0.5329, 1.1811 -0.0232 -0.5341, 1.1556 -0.0264 -0.5329, 1.1319 -0.0356 -0.5296, 1.1115 -0.0503 -0.5242, 1.0959 -0.0694 -0.5172, 1.086 -0.0918 -0.5091, 1.0827 -0.1157 -0.5004, 1.086 -0.1396 -0.4917, 1.0959 -0.1619 -0.4836, 1.1115 -0.1811 -0.4766, 1.1319 -0.1958 -0.4712, 1.1556 -0.205 -0.4679, 1.1811 -0.0728 -0.6703, 1.2066 -0.076 -0.6692, 1.2303 -0.0852 -0.6658, 1.2507 -0.0999 -0.6605, 1.2663 -0.119 -0.6535, 1.2762 -0.1414 -0.6454, 1.2795 -0.1653 -0.6367, 1.2762 -0.1892 -0.628, 1.2663 -0.2115 -0.6198, 1.2507 -0.2307 -0.6129, 1.2303 -0.2454 -0.6075, 1.2066 -0.2546 -0.6042, 1.1811 -0.2578 -0.603, 1.1556 -0.2546 -0.6042, 1.1319 -0.2454 -0.6075, 1.1115 -0.2307 -0.6129, 1.0959 -0.2115 -0.6198, 1.086 -0.1892 -0.628, 1.0827 -0.1653 -0.6367, 1.086 -0.1414 -0.6454, 1.0959 -0.119 -0.6535, 1.1115 -0.0999 -0.6605, 1.1319 -0.0852 -0.6658, 1.1556 -0.076 -0.6692, 1.1811 -0.0772 -0.6869, 1.1556 -0.0805 -0.6863, 1.1319 -0.0902 -0.6846, 1.1115 -0.1056 -0.6819, 1.0959 -0.1257 -0.6784, 1.086 -0.1491 -0.6742, 1.0827 -0.1742 -0.6698, 1.086 -0.1993 -0.6654, 1.0959 -0.2226 -0.6613, 1.1115 -0.2427 -0.6577, 1.1319 -0.2581 -0.655, 1.1556 -0.2678 -0.6533, 1.1811 -0.2711 -0.6527, 1.2066 -0.2678 -0.6533, 1.2303 -0.2581 -0.655, 1.2507 -0.2427 -0.6577, 1.2663 -0.2226 -0.6613, 1.2762 -0.1993 -0.6654, 1.2795 -0.1742 -0.6698, 1.2762 -0.1491 -0.6742, 1.2663 -0.1257 -0.6784, 1.2507 -0.1056 -0.6819, 1.2303 -0.0902 -0.6846, 1.2066 -0.0805 -0.6863, 1.1811 -0.0787 -0.704, 1.1556 -0.0821 -0.704, 1.1319 -0.0919 -0.704, 1.1115 -0.1076 -0.704, 1.0959 -0.128 -0.704, 1.086 -0.1517 -0.704, 1.0827 -0.1772 -0.704, 1.086 -0.2026 -0.704, 1.0959 -0.2264 -0.704, 1.1115 -0.2468 -0.704, 1.1319 -0.2624 -0.704, 1.1556 -0.2722 -0.704, 1.1811 -0.2756 -0.704, 1.2066 -0.2722 -0.704, 1.2303 -0.2624 -0.704, 1.2507 -0.2468 -0.704, 1.2663 -0.2264 -0.704, 1.2762 -0.2026 -0.704, 1.2795 -0.1772 -0.704, 1.2762 -0.1517 -0.704, 1.2663 -0.128 -0.704, 1.2507 -0.1076 -0.704, 1.2303 -0.0919 -0.704, 1.2066 -0.0821 -0.704, 1.1811 -0.0787 -0.9607, 1.2066 -0.0821 -0.9607, 1.2303 -0.0919 -0.9607, 1.2507 -0.1076 -0.9607, 1.2663 -0.128 -0.9607, 1.2762 -0.1517 -0.9607, 1.2795 -0.1772 -0.9607, 1.2762 -0.2026 -0.9607, 1.2663 -0.2264 -0.9607, 1.2507 -0.2468 -0.9607, 1.2303 -0.2624 -0.9607, 1.2066 -0.2722 -0.9607, 1.1811 -0.2756 -0.9607, 1.1556 -0.2722 -0.9607, 1.1319 -0.2624 -0.9607, 1.1115 -0.2468 -0.9607, 1.0959 -0.2264 -0.9607, 1.086 -0.2026 -0.9607, 1.0827 -0.1772 -0.9607, 1.086 -0.1517 -0.9607, 1.0959 -0.128 -0.9607, 1.1115 -0.1076 -0.9607, 1.1319 -0.0919 -0.9607, 1.1556 -0.0821 -0.9607, 1.147 -0.1575 1.5748, 1.1431 -0.167 1.5748, 1.1811 -0.1772 1.5748, 1.1417 -0.1772 1.5748, 1.1431 -0.1874 1.5748, 1.1709 -0.1391 1.5748, 1.1614 -0.1431 1.5748, 1.1533 -0.1493 1.5748, 1.2008 -0.1431 1.5748, 1.1913 -0.1391 1.5748, 1.1811 -0.1378 1.5748, 1.2191 -0.167 1.5748, 1.2152 -0.1575 1.5748, 1.2089 -0.1493 1.5748, 1.2152 -0.1969 1.5748, 1.2191 -0.1874 1.5748, 1.2205 -0.1772 1.5748, 1.1913 -0.2152 1.5748, 1.2008 -0.2113 1.5748, 1.2089 -0.205 1.5748, 1.1614 -0.2113 1.5748, 1.1709 -0.2152 1.5748, 1.1811 -0.2165 1.5748, 1.147 -0.1969 1.5748, 1.1533 -0.205 1.5748, 1.1811 -0.0787 0.5906, 1.2066 -0.0821 1.4725, 1.2066 -0.0821 0.5906, 1.2303 -0.0919 1.4725, 1.2303 -0.0919 0.5906, 1.2507 -0.1076 1.4725, 1.2507 -0.1076 0.5906, 1.2663 -0.128 1.4725, 1.2663 -0.128 0.5906, 1.2762 -0.1517 1.4725, 1.2762 -0.1517 0.5906, 1.2795 -0.1772 1.4725, 1.2795 -0.1772 0.5906, 1.2762 -0.2026 1.4725, 1.2762 -0.2026 0.5906, 1.2663 -0.2264 1.4725, 1.2663 -0.2264 0.5906, 1.2507 -0.2468 1.4725, 1.2507 -0.2468 0.5906, 1.2303 -0.2624 1.4725, 1.2303 -0.2624 0.5906, 1.2066 -0.2722 1.4725, 1.2066 -0.2722 0.5906, 1.1811 -0.2756 1.4725, 1.1811 -0.2756 0.5906, 1.1556 -0.2722 1.4725, 1.1556 -0.2722 0.5906, 1.1319 -0.2624 1.4725, 1.1319 -0.2624 0.5906, 1.1115 -0.2468 1.4725, 1.1115 -0.2468 0.5906, 1.0959 -0.2264 1.4725, 1.0959 -0.2264 0.5906, 1.086 -0.2026 1.4725, 1.086 -0.2026 0.5906, 1.0827 -0.1772 1.4725, 1.0827 -0.1772 0.5906, 1.086 -0.1517 1.4725, 1.086 -0.1517 0.5906, 1.0959 -0.128 1.4725, 1.0959 -0.128 0.5906, 1.1115 -0.1076 1.4725, 1.1115 -0.1076 0.5906, 1.1319 -0.0919 1.4725, 1.1319 -0.0919 0.5906, 1.1556 -0.0821 1.4725, 1.1556 -0.0821 0.5906, 1.1811 -0.0787 1.4725, 0.0341 -0.1969 1.5748, 0.038 -0.1874 1.5748, 0.0 -0.1772 1.5748, 0.0394 -0.1772 1.5748, 0.038 -0.167 1.5748, 0.0102 -0.2152 1.5748, 0.0197 -0.2113 1.5748, 0.0278 -0.205 1.5748, -0.0197 -0.2113 1.5748, -0.0102 -0.2152 1.5748, 0.0 -0.2165 1.5748, -0.038 -0.1874 1.5748, -0.0341 -0.1969 1.5748, -0.0278 -0.205 1.5748, -0.0341 -0.1575 1.5748, -0.038 -0.167 1.5748, -0.0394 -0.1772 1.5748, -0.0102 -0.1391 1.5748, -0.0197 -0.1431 1.5748, -0.0278 -0.1493 1.5748, 0.0197 -0.1431 1.5748, 0.0102 -0.1391 1.5748, 0.0 -0.1378 1.5748, 0.0341 -0.1575 1.5748, 0.0278 -0.1493 1.5748, 0.0984 -0.1772 1.4725, 0.0951 -0.1517 0.5906, 0.0951 -0.1517 1.4725, 0.0852 -0.128 0.5906, 0.0852 -0.128 1.4725, 0.0696 -0.1076 0.5906, 0.0696 -0.1076 1.4725, 0.0492 -0.0919 0.5906, 0.0492 -0.0919 1.4725, 0.0255 -0.0821 0.5906, 0.0255 -0.0821 1.4725, 0.0 -0.0787 0.5906, 0.0 -0.0787 1.4725, -0.0255 -0.0821 0.5906, -0.0255 -0.0821 1.4725, -0.0492 -0.0919 0.5906, -0.0492 -0.0919 1.4725, -0.0696 -0.1076 0.5906, -0.0696 -0.1076 1.4725, -0.0852 -0.128 0.5906, -0.0852 -0.128 1.4725, -0.0951 -0.1517 0.5906, -0.0951 -0.1517 1.4725, -0.0984 -0.1772 0.5906, -0.0984 -0.1772 1.4725, -0.0951 -0.2026 0.5906, -0.0951 -0.2026 1.4725, -0.0852 -0.2264 0.5906, -0.0852 -0.2264 1.4725, -0.0696 -0.2468 0.5906, -0.0696 -0.2468 1.4725, -0.0492 -0.2624 0.5906, -0.0492 -0.2624 1.4725, -0.0255 -0.2722 0.5906, -0.0255 -0.2722 1.4725, 0.0 -0.2756 0.5906, 0.0 -0.2756 1.4725, 0.0255 -0.2722 0.5906, 0.0255 -0.2722 1.4725, 0.0492 -0.2624 0.5906, 0.0492 -0.2624 1.4725, 0.0696 -0.2468 0.5906, 0.0696 -0.2468 1.4725, 0.0852 -0.2264 0.5906, 0.0852 -0.2264 1.4725, 0.0951 -0.2026 0.5906, 0.0951 -0.2026 1.4725, 0.0984 -0.1772 0.5906, 0.0984 -0.1772 0.0, 0.0951 -0.1517 -0.9607, 0.0951 -0.1517 0.0, 0.0852 -0.128 -0.9607, 0.0852 -0.128 0.0, 0.0696 -0.1076 -0.9607, 0.0696 -0.1076 0.0, 0.0492 -0.0919 -0.9607, 0.0492 -0.0919 0.0, 0.0255 -0.0821 -0.9607, 0.0255 -0.0821 0.0, 0.0 -0.0787 -0.9607, 0.0 -0.0787 0.0, -0.0255 -0.0821 -0.9607, -0.0255 -0.0821 0.0, -0.0492 -0.0919 -0.9607, -0.0492 -0.0919 0.0, -0.0696 -0.1076 -0.9607, -0.0696 -0.1076 0.0, -0.0852 -0.128 -0.9607, -0.0852 -0.128 0.0, -0.0951 -0.1517 -0.9607, -0.0951 -0.1517 0.0, -0.0984 -0.1772 -0.9607, -0.0984 -0.1772 0.0, -0.0951 -0.2026 -0.9607, -0.0951 -0.2026 0.0, -0.0852 -0.2264 -0.9607, -0.0852 -0.2264 0.0, -0.0696 -0.2468 -0.9607, -0.0696 -0.2468 0.0, -0.0492 -0.2624 -0.9607, -0.0492 -0.2624 0.0, -0.0255 -0.2722 -0.9607, -0.0255 -0.2722 0.0, 0.0 -0.2756 -0.9607, 0.0 -0.2756 0.0, 0.0255 -0.2722 -0.9607, 0.0255 -0.2722 0.0, 0.0492 -0.2624 -0.9607, 0.0492 -0.2624 0.0, 0.0696 -0.2468 -0.9607, 0.0696 -0.2468 0.0, 0.0852 -0.2264 -0.9607, 0.0852 -0.2264 0.0, 0.0951 -0.2026 -0.9607, 0.0951 -0.2026 0.0, 0.0984 -0.1772 -0.9607, -0.0341 -0.1969 -1.063, -0.038 -0.1874 -1.063, 0.0 -0.1772 -1.063, -0.0394 -0.1772 -1.063, -0.038 -0.167 -1.063, -0.0102 -0.2152 -1.063, -0.0197 -0.2113 -1.063, -0.0278 -0.205 -1.063, 0.0197 -0.2113 -1.063, 0.0102 -0.2152 -1.063, 0.0 -0.2165 -1.063, 0.038 -0.1874 -1.063, 0.0341 -0.1969 -1.063, 0.0278 -0.205 -1.063, 0.0341 -0.1575 -1.063, 0.038 -0.167 -1.063, 0.0394 -0.1772 -1.063, 0.0102 -0.1391 -1.063, 0.0197 -0.1431 -1.063, 0.0278 -0.1493 -1.063, -0.0197 -0.1431 -1.063, -0.0102 -0.1391 -1.063, 0.0 -0.1378 -1.063, -0.0341 -0.1575 -1.063, -0.0278 -0.1493 -1.063, 0.6246 -0.1969 1.5748, 0.6286 -0.1874 1.5748, 0.5906 -0.1772 1.5748, 0.6299 -0.1772 1.5748, 0.6286 -0.167 1.5748, 0.6007 -0.2152 1.5748, 0.6102 -0.2113 1.5748, 0.6184 -0.205 1.5748, 0.5709 -0.2113 1.5748, 0.5804 -0.2152 1.5748, 0.5906 -0.2165 1.5748, 0.5525 -0.1874 1.5748, 0.5565 -0.1969 1.5748, 0.5627 -0.205 1.5748, 0.5565 -0.1575 1.5748, 0.5525 -0.167 1.5748, 0.5512 -0.1772 1.5748, 0.5804 -0.1391 1.5748, 0.5709 -0.1431 1.5748, 0.5627 -0.1493 1.5748, 0.6102 -0.1431 1.5748, 0.6007 -0.1391 1.5748, 0.5906 -0.1378 1.5748, 0.6246 -0.1575 1.5748, 0.6184 -0.1493 1.5748, 0.689 -0.1772 1.4725, 0.6856 -0.1517 0.5906, 0.6856 -0.1517 1.4725, 0.6758 -0.128 0.5906, 0.6758 -0.128 1.4725, 0.6601 -0.1076 0.5906, 0.6601 -0.1076 1.4725, 0.6398 -0.0919 0.5906, 0.6398 -0.0919 1.4725, 0.616 -0.0821 0.5906, 0.616 -0.0821 1.4725, 0.5906 -0.0787 0.5906, 0.5906 -0.0787 1.4725, 0.5651 -0.0821 0.5906, 0.5651 -0.0821 1.4725, 0.5413 -0.0919 0.5906, 0.5413 -0.0919 1.4725, 0.521 -0.1076 0.5906, 0.521 -0.1076 1.4725, 0.5053 -0.128 0.5906, 0.5053 -0.128 1.4725, 0.4955 -0.1517 0.5906, 0.4955 -0.1517 1.4725, 0.4921 -0.1772 0.5906, 0.4921 -0.1772 1.4725, 0.4955 -0.2026 0.5906, 0.4955 -0.2026 1.4725, 0.5053 -0.2264 0.5906, 0.5053 -0.2264 1.4725, 0.521 -0.2468 0.5906, 0.521 -0.2468 1.4725, 0.5413 -0.2624 0.5906, 0.5413 -0.2624 1.4725, 0.5651 -0.2722 0.5906, 0.5651 -0.2722 1.4725, 0.5906 -0.2756 0.5906, 0.5906 -0.2756 1.4725, 0.616 -0.2722 0.5906, 0.616 -0.2722 1.4725, 0.6398 -0.2624 0.5906, 0.6398 -0.2624 1.4725, 0.6601 -0.2468 0.5906, 0.6601 -0.2468 1.4725, 0.6758 -0.2264 0.5906, 0.6758 -0.2264 1.4725, 0.6856 -0.2026 0.5906, 0.6856 -0.2026 1.4725, 0.689 -0.1772 0.5906, 0.689 -0.1772 0.0, 0.6856 -0.1517 -0.9607, 0.6856 -0.1517 0.0, 0.6758 -0.128 -0.9607, 0.6758 -0.128 0.0, 0.6601 -0.1076 -0.9607, 0.6601 -0.1076 0.0, 0.6398 -0.0919 -0.9607, 0.6398 -0.0919 0.0, 0.616 -0.0821 -0.9607, 0.616 -0.0821 0.0, 0.5906 -0.0787 -0.9607, 0.5906 -0.0787 0.0, 0.5651 -0.0821 -0.9607, 0.5651 -0.0821 0.0, 0.5413 -0.0919 -0.9607, 0.5413 -0.0919 0.0, 0.521 -0.1076 -0.9607, 0.521 -0.1076 0.0, 0.5053 -0.128 -0.9607, 0.5053 -0.128 0.0, 0.4955 -0.1517 -0.9607, 0.4955 -0.1517 0.0, 0.4921 -0.1772 -0.9607, 0.4921 -0.1772 0.0, 0.4955 -0.2026 -0.9607, 0.4955 -0.2026 0.0, 0.5053 -0.2264 -0.9607, 0.5053 -0.2264 0.0, 0.521 -0.2468 -0.9607, 0.521 -0.2468 0.0, 0.5413 -0.2624 -0.9607, 0.5413 -0.2624 0.0, 0.5651 -0.2722 -0.9607, 0.5651 -0.2722 0.0, 0.5906 -0.2756 -0.9607, 0.5906 -0.2756 0.0, 0.616 -0.2722 -0.9607, 0.616 -0.2722 0.0, 0.6398 -0.2624 -0.9607, 0.6398 -0.2624 0.0, 0.6601 -0.2468 -0.9607, 0.6601 -0.2468 0.0, 0.6758 -0.2264 -0.9607, 0.6758 -0.2264 0.0, 0.6856 -0.2026 -0.9607, 0.6856 -0.2026 0.0, 0.689 -0.1772 -0.9607, 0.5565 -0.1969 -1.063, 0.5525 -0.1874 -1.063, 0.5906 -0.1772 -1.063, 0.5512 -0.1772 -1.063, 0.5525 -0.167 -1.063, 0.5804 -0.2152 -1.063, 0.5709 -0.2113 -1.063, 0.5627 -0.205 -1.063, 0.6102 -0.2113 -1.063, 0.6007 -0.2152 -1.063, 0.5906 -0.2165 -1.063, 0.6286 -0.1874 -1.063, 0.6246 -0.1969 -1.063, 0.6184 -0.205 -1.063, 0.6246 -0.1575 -1.063, 0.6286 -0.167 -1.063, 0.6299 -0.1772 -1.063, 0.6007 -0.1391 -1.063, 0.6102 -0.1431 -1.063, 0.6184 -0.1493 -1.063, 0.5709 -0.1431 -1.063, 0.5804 -0.1391 -1.063, 0.5906 -0.1378 -1.063, 0.5565 -0.1575 -1.063, 0.5627 -0.1493 -1.063, 0.5627 -0.1493 -1.063
            ]
        }
        coordIndex [
            0,1,2,-1,2,1,3,-1,2,3,4,-1,5,6,2,-1,2,6,7,-1,2,7,0,-1,8,9,2,-1,2,9,10,-1,2,10,5,-1,11,12,2,-1,2,12,13,-1,2,13,8,-1,14,15,2,-1,2,15,16,-1,2,16,11,-1,17,18,2,-1,2,18,19,-1,2,19,14,-1,20,21,2,-1,2,21,22,-1,2,22,17,-1,4,23,2,-1,2,23,24,-1,2,24,20,-1,25,26,27,-1,27,26,28,-1,27,28,29,-1,29,28,30,-1,29,30,31,-1,31,30,32,-1,31,32,33,-1,33,32,34,-1,33,34,35,-1,35,34,36,-1,35,36,37,-1,37,36,38,-1,37,38,39,-1,39,38,40,-1,39,40,41,-1,41,40,42,-1,41,42,43,-1,43,42,44,-1,43,44,45,-1,45,44,46,-1,45,46,47,-1,47,46,48,-1,47,48,49,-1,49,48,50,-1,49,50,51,-1,51,50,52,-1,51,52,53,-1,53,52,54,-1,53,54,55,-1,55,54,56,-1,55,56,57,-1,57,56,58,-1,57,58,59,-1,59,58,60,-1,59,60,61,-1,61,60,62,-1,61,62,63,-1,63,62,64,-1,63,64,65,-1,65,64,66,-1,65,66,67,-1,67,66,68,-1,67,68,69,-1,69,68,70,-1,69,70,71,-1,71,70,72,-1,71,72,25,-1,25,72,26,-1,73,74,75,-1,75,74,76,-1,75,76,77,-1,77,76,78,-1,77,78,79,-1,79,78,80,-1,79,80,81,-1,81,80,82,-1,81,82,83,-1,83,82,84,-1,83,84,85,-1,85,84,86,-1,85,86,87,-1,87,86,88,-1,87,88,89,-1,89,88,90,-1,89,90,91,-1,91,90,92,-1,91,92,93,-1,93,92,94,-1,93,94,95,-1,95,94,96,-1,95,96,97,-1,97,96,98,-1,97,98,99,-1,99,98,100,-1,99,100,101,-1,101,100,102,-1,101,102,103,-1,103,102,104,-1,103,104,105,-1,105,104,106,-1,105,106,107,-1,107,106,108,-1,107,108,109,-1,109,108,110,-1,109,110,111,-1,111,110,112,-1,111,112,113,-1,113,112,114,-1,113,114,115,-1,115,114,116,-1,115,116,117,-1,117,116,118,-1,117,118,119,-1,119,118,120,-1,119,120,73,-1,73,120,74,-1,121,122,123,-1,123,122,124,-1,123,124,125,-1,126,127,123,-1,123,127,128,-1,123,128,121,-1,129,130,123,-1,123,130,131,-1,123,131,126,-1,132,133,123,-1,123,133,134,-1,123,134,129,-1,135,136,123,-1,123,136,137,-1,123,137,132,-1,138,139,123,-1,123,139,140,-1,123,140,135,-1,141,142,123,-1,123,142,143,-1,123,143,138,-1,125,144,123,-1,123,144,145,-1,123,145,141,-1,49,15,47,-1,47,15,14,-1,47,14,45,-1,45,14,19,-1,45,19,43,-1,43,19,18,-1,43,18,41,-1,41,18,17,-1,41,17,39,-1,39,17,22,-1,39,22,37,-1,37,22,21,-1,37,21,35,-1,35,21,20,-1,35,20,33,-1,33,20,24,-1,33,24,31,-1,31,24,23,-1,31,23,29,-1,29,23,4,-1,29,4,27,-1,27,4,3,-1,27,3,25,-1,25,3,1,-1,25,1,71,-1,71,1,0,-1,71,0,69,-1,69,0,7,-1,69,7,67,-1,67,7,6,-1,67,6,65,-1,65,6,5,-1,65,5,63,-1,63,5,10,-1,63,10,61,-1,61,10,9,-1,61,9,59,-1,59,9,8,-1,59,8,57,-1,57,8,13,-1,57,13,55,-1,55,13,12,-1,55,12,53,-1,53,12,11,-1,53,11,51,-1,51,11,16,-1,51,16,49,-1,49,16,15,-1,120,136,74,-1,74,136,135,-1,74,135,76,-1,76,135,140,-1,76,140,78,-1,78,140,139,-1,78,139,80,-1,80,139,138,-1,80,138,82,-1,82,138,143,-1,82,143,84,-1,84,143,142,-1,84,142,86,-1,86,142,141,-1,86,141,88,-1,88,141,145,-1,88,145,90,-1,90,145,144,-1,90,144,92,-1,92,144,125,-1,92,125,94,-1,94,125,124,-1,94,124,96,-1,96,124,122,-1,96,122,98,-1,98,122,121,-1,98,121,100,-1,100,121,128,-1,100,128,102,-1,102,128,127,-1,102,127,104,-1,104,127,126,-1,104,126,106,-1,106,126,131,-1,106,131,108,-1,108,131,130,-1,108,130,110,-1,110,130,129,-1,110,129,112,-1,112,129,134,-1,112,134,114,-1,114,134,133,-1,114,133,116,-1,116,133,132,-1,116,132,118,-1,118,132,137,-1,118,137,120,-1,120,137,136,-1,146,147,148,-1,148,147,149,-1,148,149,150,-1,151,152,148,-1,148,152,153,-1,148,153,146,-1,154,155,148,-1,148,155,156,-1,148,156,151,-1,157,158,148,-1,148,158,159,-1,148,159,154,-1,160,161,148,-1,148,161,162,-1,148,162,157,-1,163,164,148,-1,148,164,165,-1,148,165,160,-1,166,167,148,-1,148,167,168,-1,148,168,163,-1,150,169,148,-1,148,169,170,-1,148,170,166,-1,171,172,173,-1,173,172,174,-1,173,174,175,-1,175,174,176,-1,175,176,177,-1,177,176,178,-1,177,178,179,-1,179,178,180,-1,179,180,181,-1,181,180,182,-1,181,182,183,-1,183,182,184,-1,183,184,185,-1,185,184,186,-1,185,186,187,-1,187,186,188,-1,187,188,189,-1,189,188,190,-1,189,190,191,-1,191,190,192,-1,191,192,193,-1,193,192,194,-1,193,194,195,-1,195,194,196,-1,195,196,197,-1,197,196,198,-1,197,198,199,-1,199,198,200,-1,199,200,201,-1,201,200,202,-1,201,202,203,-1,203,202,204,-1,203,204,205,-1,205,204,206,-1,205,206,207,-1,207,206,208,-1,207,208,209,-1,209,208,210,-1,209,210,211,-1,211,210,212,-1,211,212,213,-1,213,212,214,-1,213,214,215,-1,215,214,216,-1,215,216,217,-1,217,216,218,-1,217,218,171,-1,171,218,172,-1,219,220,221,-1,221,220,222,-1,221,222,223,-1,223,222,224,-1,223,224,225,-1,225,224,226,-1,225,226,227,-1,227,226,228,-1,227,228,229,-1,229,228,230,-1,229,230,231,-1,231,230,232,-1,231,232,233,-1,233,232,234,-1,233,234,235,-1,235,234,236,-1,235,236,237,-1,237,236,238,-1,237,238,239,-1,239,238,240,-1,239,240,241,-1,241,240,242,-1,241,242,243,-1,243,242,244,-1,243,244,245,-1,245,244,246,-1,245,246,247,-1,247,246,248,-1,247,248,249,-1,249,248,250,-1,249,250,251,-1,251,250,252,-1,251,252,253,-1,253,252,254,-1,253,254,255,-1,255,254,256,-1,255,256,257,-1,257,256,258,-1,257,258,259,-1,259,258,260,-1,259,260,261,-1,261,260,262,-1,261,262,263,-1,263,262,264,-1,263,264,265,-1,265,264,266,-1,265,266,219,-1,219,266,220,-1,267,268,269,-1,269,268,270,-1,269,270,271,-1,272,273,269,-1,269,273,274,-1,269,274,267,-1,275,276,269,-1,269,276,277,-1,269,277,272,-1,278,279,269,-1,269,279,280,-1,269,280,275,-1,281,282,269,-1,269,282,283,-1,269,283,278,-1,284,285,269,-1,269,285,286,-1,269,286,281,-1,287,288,269,-1,269,288,289,-1,269,289,284,-1,271,290,269,-1,269,290,291,-1,269,291,287,-1,292,293,294,-1,294,293,295,-1,294,295,296,-1,296,295,297,-1,296,297,298,-1,298,297,299,-1,298,299,300,-1,300,299,301,-1,300,301,302,-1,302,301,303,-1,302,303,304,-1,304,303,305,-1,304,305,306,-1,306,305,307,-1,306,307,308,-1,308,307,309,-1,308,309,310,-1,310,309,311,-1,310,311,312,-1,312,311,313,-1,312,313,314,-1,314,313,315,-1,314,315,316,-1,316,315,317,-1,316,317,318,-1,318,317,319,-1,318,319,320,-1,320,319,321,-1,320,321,322,-1,322,321,323,-1,322,323,324,-1,324,323,325,-1,324,325,326,-1,326,325,327,-1,326,327,328,-1,328,327,329,-1,328,329,330,-1,330,329,331,-1,330,331,332,-1,332,331,333,-1,332,333,334,-1,334,333,335,-1,334,335,336,-1,336,335,337,-1,336,337,338,-1,338,337,339,-1,338,339,292,-1,292,339,293,-1,293,219,295,-1,295,219,221,-1,295,221,297,-1,297,221,223,-1,297,223,299,-1,299,223,225,-1,299,225,301,-1,301,225,227,-1,301,227,303,-1,303,227,229,-1,303,229,305,-1,305,229,231,-1,305,231,307,-1,307,231,233,-1,307,233,309,-1,309,233,235,-1,309,235,311,-1,311,235,237,-1,311,237,313,-1,313,237,239,-1,313,239,315,-1,315,239,241,-1,315,241,317,-1,317,241,243,-1,317,243,319,-1,319,243,245,-1,319,245,321,-1,321,245,247,-1,321,247,323,-1,323,247,249,-1,323,249,325,-1,325,249,251,-1,325,251,327,-1,327,251,253,-1,327,253,329,-1,329,253,255,-1,329,255,331,-1,331,255,257,-1,331,257,333,-1,333,257,259,-1,333,259,335,-1,335,259,261,-1,335,261,337,-1,337,261,263,-1,337,263,339,-1,339,263,265,-1,339,265,293,-1,293,265,219,-1,340,294,341,-1,341,294,296,-1,341,296,342,-1,342,296,298,-1,342,298,343,-1,343,298,300,-1,343,300,344,-1,344,300,302,-1,344,302,345,-1,345,302,304,-1,345,304,346,-1,346,304,306,-1,346,306,347,-1,347,306,308,-1,347,308,348,-1,348,308,310,-1,348,310,349,-1,349,310,312,-1,349,312,350,-1,350,312,314,-1,350,314,351,-1,351,314,316,-1,351,316,352,-1,352,316,318,-1,352,318,353,-1,353,318,320,-1,353,320,354,-1,354,320,322,-1,354,322,355,-1,355,322,324,-1,355,324,356,-1,356,324,326,-1,356,326,357,-1,357,326,328,-1,357,328,358,-1,358,328,330,-1,358,330,359,-1,359,330,332,-1,359,332,360,-1,360,332,334,-1,360,334,361,-1,361,334,336,-1,361,336,362,-1,362,336,338,-1,362,338,363,-1,363,338,292,-1,363,292,340,-1,340,292,294,-1,364,365,366,-1,366,365,367,-1,366,367,368,-1,368,367,369,-1,368,369,370,-1,370,369,371,-1,370,371,372,-1,372,371,373,-1,372,373,374,-1,374,373,375,-1,374,375,376,-1,376,375,377,-1,376,377,378,-1,378,377,379,-1,378,379,380,-1,380,379,381,-1,380,381,382,-1,382,381,383,-1,382,383,384,-1,384,383,385,-1,384,385,386,-1,386,385,387,-1,386,387,388,-1,388,387,389,-1,388,389,390,-1,390,389,391,-1,390,391,392,-1,392,391,393,-1,392,393,394,-1,394,393,395,-1,394,395,396,-1,396,395,397,-1,396,397,398,-1,398,397,399,-1,398,399,400,-1,400,399,401,-1,400,401,402,-1,402,401,403,-1,402,403,404,-1,404,403,405,-1,404,405,406,-1,406,405,407,-1,406,407,408,-1,408,407,409,-1,408,409,410,-1,410,409,411,-1,410,411,364,-1,364,411,365,-1,365,412,367,-1,367,412,413,-1,367,413,369,-1,369,413,414,-1,369,414,371,-1,371,414,415,-1,371,415,373,-1,373,415,416,-1,373,416,375,-1,375,416,417,-1,375,417,377,-1,377,417,418,-1,377,418,379,-1,379,418,419,-1,379,419,381,-1,381,419,420,-1,381,420,383,-1,383,420,421,-1,383,421,385,-1,385,421,422,-1,385,422,387,-1,387,422,423,-1,387,423,389,-1,389,423,424,-1,389,424,391,-1,391,424,425,-1,391,425,393,-1,393,425,426,-1,393,426,395,-1,395,426,427,-1,395,427,397,-1,397,427,428,-1,397,428,399,-1,399,428,429,-1,399,429,401,-1,401,429,430,-1,401,430,403,-1,403,430,431,-1,403,431,405,-1,405,431,432,-1,405,432,407,-1,407,432,433,-1,407,433,409,-1,409,433,434,-1,409,434,411,-1,411,434,435,-1,411,435,365,-1,365,435,412,-1,412,436,413,-1,413,436,437,-1,413,437,414,-1,414,437,438,-1,414,438,415,-1,415,438,439,-1,415,439,416,-1,416,439,440,-1,416,440,417,-1,417,440,441,-1,417,441,418,-1,418,441,442,-1,418,442,419,-1,419,442,443,-1,419,443,420,-1,420,443,444,-1,420,444,421,-1,421,444,445,-1,421,445,422,-1,422,445,446,-1,422,446,423,-1,423,446,447,-1,423,447,424,-1,424,447,448,-1,424,448,425,-1,425,448,449,-1,425,449,426,-1,426,449,450,-1,426,450,427,-1,427,450,451,-1,427,451,428,-1,428,451,452,-1,428,452,429,-1,429,452,453,-1,429,453,430,-1,430,453,454,-1,430,454,431,-1,431,454,455,-1,431,455,432,-1,432,455,456,-1,432,456,433,-1,433,456,457,-1,433,457,434,-1,434,457,458,-1,434,458,435,-1,435,458,459,-1,435,459,412,-1,412,459,436,-1,436,352,437,-1,437,352,353,-1,437,353,438,-1,438,353,354,-1,438,354,439,-1,439,354,355,-1,439,355,440,-1,440,355,356,-1,440,356,441,-1,441,356,357,-1,441,357,442,-1,442,357,358,-1,442,358,443,-1,443,358,359,-1,443,359,444,-1,444,359,360,-1,444,360,445,-1,445,360,361,-1,445,361,446,-1,446,361,362,-1,446,362,447,-1,447,362,363,-1,447,363,448,-1,448,363,340,-1,448,340,449,-1,449,340,341,-1,449,341,450,-1,450,341,342,-1,450,342,451,-1,451,342,343,-1,451,343,452,-1,452,343,344,-1,452,344,453,-1,453,344,345,-1,453,345,454,-1,454,345,346,-1,454,346,455,-1,455,346,347,-1,455,347,456,-1,456,347,348,-1,456,348,457,-1,457,348,349,-1,457,349,458,-1,458,349,350,-1,458,350,459,-1,459,350,351,-1,459,351,436,-1,436,351,352,-1,460,390,461,-1,461,390,392,-1,461,392,462,-1,462,392,394,-1,462,394,463,-1,463,394,396,-1,463,396,464,-1,464,396,398,-1,464,398,465,-1,465,398,400,-1,465,400,466,-1,466,400,402,-1,466,402,467,-1,467,402,404,-1,467,404,468,-1,468,404,406,-1,468,406,469,-1,469,406,408,-1,469,408,470,-1,470,408,410,-1,470,410,471,-1,471,410,364,-1,471,364,472,-1,472,364,366,-1,472,366,473,-1,473,366,368,-1,473,368,474,-1,474,368,370,-1,474,370,475,-1,475,370,372,-1,475,372,476,-1,476,372,374,-1,476,374,477,-1,477,374,376,-1,477,376,478,-1,478,376,378,-1,478,378,479,-1,479,378,380,-1,479,380,480,-1,480,380,382,-1,480,382,481,-1,481,382,384,-1,481,384,482,-1,482,384,386,-1,482,386,483,-1,483,386,388,-1,483,388,460,-1,460,388,390,-1,484,485,486,-1,486,485,487,-1,486,487,488,-1,488,487,489,-1,488,489,490,-1,490,489,491,-1,490,491,492,-1,492,491,493,-1,492,493,494,-1,494,493,495,-1,494,495,496,-1,496,495,497,-1,496,497,498,-1,498,497,499,-1,498,499,500,-1,500,499,501,-1,500,501,502,-1,502,501,503,-1,502,503,504,-1,504,503,505,-1,504,505,506,-1,506,505,507,-1,506,507,508,-1,508,507,509,-1,508,509,510,-1,510,509,511,-1,510,511,512,-1,512,511,513,-1,512,513,514,-1,514,513,515,-1,514,515,516,-1,516,515,517,-1,516,517,518,-1,518,517,519,-1,518,519,520,-1,520,519,521,-1,520,521,522,-1,522,521,523,-1,522,523,524,-1,524,523,525,-1,524,525,526,-1,526,525,527,-1,526,527,528,-1,528,527,529,-1,528,529,530,-1,530,529,531,-1,530,531,484,-1,484,531,485,-1,485,460,487,-1,487,460,461,-1,487,461,489,-1,489,461,462,-1,489,462,491,-1,491,462,463,-1,491,463,493,-1,493,463,464,-1,493,464,495,-1,495,464,465,-1,495,465,497,-1,497,465,466,-1,497,466,499,-1,499,466,467,-1,499,467,501,-1,501,467,468,-1,501,468,503,-1,503,468,469,-1,503,469,505,-1,505,469,470,-1,505,470,507,-1,507,470,471,-1,507,471,509,-1,509,471,472,-1,509,472,511,-1,511,472,473,-1,511,473,513,-1,513,473,474,-1,513,474,515,-1,515,474,475,-1,515,475,517,-1,517,475,476,-1,517,476,519,-1,519,476,477,-1,519,477,521,-1,521,477,478,-1,521,478,523,-1,523,478,479,-1,523,479,525,-1,525,479,480,-1,525,480,527,-1,527,480,481,-1,527,481,529,-1,529,481,482,-1,529,482,531,-1,531,482,483,-1,531,483,485,-1,485,483,460,-1,532,486,533,-1,533,486,488,-1,533,488,534,-1,534,488,490,-1,534,490,535,-1,535,490,492,-1,535,492,536,-1,536,492,494,-1,536,494,537,-1,537,494,496,-1,537,496,538,-1,538,496,498,-1,538,498,539,-1,539,498,500,-1,539,500,540,-1,540,500,502,-1,540,502,541,-1,541,502,504,-1,541,504,542,-1,542,504,506,-1,542,506,543,-1,543,506,508,-1,543,508,544,-1,544,508,510,-1,544,510,545,-1,545,510,512,-1,545,512,546,-1,546,512,514,-1,546,514,547,-1,547,514,516,-1,547,516,548,-1,548,516,518,-1,548,518,549,-1,549,518,520,-1,549,520,550,-1,550,520,522,-1,550,522,551,-1,551,522,524,-1,551,524,552,-1,552,524,526,-1,552,526,553,-1,553,526,528,-1,553,528,554,-1,554,528,530,-1,554,530,555,-1,555,530,484,-1,555,484,532,-1,532,484,486,-1,218,167,172,-1,172,167,166,-1,172,166,174,-1,174,166,170,-1,174,170,176,-1,176,170,169,-1,176,169,178,-1,178,169,150,-1,178,150,180,-1,180,150,149,-1,180,149,182,-1,182,149,147,-1,182,147,184,-1,184,147,146,-1,184,146,186,-1,186,146,153,-1,186,153,188,-1,188,153,152,-1,188,152,190,-1,190,152,151,-1,190,151,192,-1,192,151,156,-1,192,156,194,-1,194,156,155,-1,194,155,196,-1,196,155,154,-1,196,154,198,-1,198,154,159,-1,198,159,200,-1,200,159,158,-1,200,158,202,-1,202,158,157,-1,202,157,204,-1,204,157,162,-1,204,162,206,-1,206,162,161,-1,206,161,208,-1,208,161,160,-1,208,160,210,-1,210,160,165,-1,210,165,212,-1,212,165,164,-1,212,164,214,-1,214,164,163,-1,214,163,216,-1,216,163,168,-1,216,168,218,-1,218,168,167,-1,544,288,543,-1,543,288,287,-1,543,287,542,-1,542,287,291,-1,542,291,541,-1,541,291,290,-1,541,290,540,-1,540,290,271,-1,540,271,539,-1,539,271,270,-1,539,270,538,-1,538,270,268,-1,538,268,537,-1,537,268,267,-1,537,267,536,-1,536,267,274,-1,536,274,535,-1,535,274,273,-1,535,273,534,-1,534,273,272,-1,534,272,533,-1,533,272,277,-1,533,277,532,-1,532,277,276,-1,532,276,555,-1,555,276,275,-1,555,275,554,-1,554,275,280,-1,554,280,553,-1,553,280,279,-1,553,279,552,-1,552,279,278,-1,552,278,551,-1,551,278,283,-1,551,283,550,-1,550,283,282,-1,550,282,549,-1,549,282,281,-1,549,281,548,-1,548,281,286,-1,548,286,547,-1,547,286,285,-1,547,285,546,-1,546,285,284,-1,546,284,545,-1,545,284,289,-1,545,289,544,-1,544,289,288,-1,556,557,558,-1,558,557,559,-1,558,559,560,-1,561,562,558,-1,558,562,563,-1,558,563,556,-1,564,565,558,-1,558,565,566,-1,558,566,561,-1,567,568,558,-1,558,568,569,-1,558,569,564,-1,570,571,558,-1,558,571,572,-1,558,572,567,-1,573,574,558,-1,558,574,575,-1,558,575,570,-1,576,577,558,-1,558,577,578,-1,558,578,573,-1,560,579,558,-1,558,579,580,-1,558,580,576,-1,581,582,583,-1,583,582,584,-1,583,584,585,-1,585,584,586,-1,585,586,587,-1,587,586,588,-1,587,588,589,-1,589,588,590,-1,589,590,591,-1,591,590,592,-1,591,592,593,-1,593,592,594,-1,593,594,595,-1,595,594,596,-1,595,596,597,-1,597,596,598,-1,597,598,599,-1,599,598,600,-1,599,600,601,-1,601,600,602,-1,601,602,603,-1,603,602,604,-1,603,604,605,-1,605,604,606,-1,605,606,607,-1,607,606,608,-1,607,608,609,-1,609,608,610,-1,609,610,611,-1,611,610,612,-1,611,612,613,-1,613,612,614,-1,613,614,615,-1,615,614,616,-1,615,616,617,-1,617,616,618,-1,617,618,619,-1,619,618,620,-1,619,620,621,-1,621,620,622,-1,621,622,623,-1,623,622,624,-1,623,624,625,-1,625,624,626,-1,625,626,627,-1,627,626,628,-1,627,628,581,-1,581,628,582,-1,581,629,627,-1,627,629,630,-1,627,630,625,-1,625,630,631,-1,625,631,623,-1,623,631,632,-1,623,632,621,-1,621,632,633,-1,621,633,619,-1,619,633,634,-1,619,634,617,-1,617,634,635,-1,617,635,615,-1,615,635,636,-1,615,636,613,-1,613,636,637,-1,613,637,611,-1,611,637,638,-1,611,638,609,-1,609,638,639,-1,609,639,607,-1,607,639,640,-1,607,640,605,-1,605,640,641,-1,605,641,603,-1,603,641,642,-1,603,642,601,-1,601,642,643,-1,601,643,599,-1,599,643,644,-1,599,644,597,-1,597,644,645,-1,597,645,595,-1,595,645,646,-1,595,646,593,-1,593,646,647,-1,593,647,591,-1,591,647,648,-1,591,648,589,-1,589,648,649,-1,589,649,587,-1,587,649,650,-1,587,650,585,-1,585,650,651,-1,585,651,583,-1,583,651,652,-1,583,652,581,-1,581,652,629,-1,629,653,630,-1,630,653,654,-1,630,654,631,-1,631,654,655,-1,631,655,632,-1,632,655,656,-1,632,656,633,-1,633,656,657,-1,633,657,634,-1,634,657,658,-1,634,658,635,-1,635,658,659,-1,635,659,636,-1,636,659,660,-1,636,660,637,-1,637,660,661,-1,637,661,638,-1,638,661,662,-1,638,662,639,-1,639,662,663,-1,639,663,640,-1,640,663,664,-1,640,664,641,-1,641,664,665,-1,641,665,642,-1,642,665,666,-1,642,666,643,-1,643,666,667,-1,643,667,644,-1,644,667,668,-1,644,668,645,-1,645,668,669,-1,645,669,646,-1,646,669,670,-1,646,670,647,-1,647,670,671,-1,647,671,648,-1,648,671,672,-1,648,672,649,-1,649,672,673,-1,649,673,650,-1,650,673,674,-1,650,674,651,-1,651,674,675,-1,651,675,652,-1,652,675,676,-1,652,676,629,-1,629,676,653,-1,677,676,678,-1,678,676,675,-1,678,675,679,-1,679,675,674,-1,679,674,680,-1,680,674,673,-1,680,673,681,-1,681,673,672,-1,681,672,682,-1,682,672,671,-1,682,671,683,-1,683,671,670,-1,683,670,684,-1,684,670,669,-1,684,669,685,-1,685,669,668,-1,685,668,686,-1,686,668,667,-1,686,667,687,-1,687,667,666,-1,687,666,688,-1,688,666,665,-1,688,665,689,-1,689,665,664,-1,689,664,690,-1,690,664,663,-1,690,663,691,-1,691,663,662,-1,691,662,692,-1,692,662,661,-1,692,661,693,-1,693,661,660,-1,693,660,694,-1,694,660,659,-1,694,659,695,-1,695,659,658,-1,695,658,696,-1,696,658,657,-1,696,657,697,-1,697,657,656,-1,697,656,698,-1,698,656,655,-1,698,655,699,-1,699,655,654,-1,699,654,700,-1,700,654,653,-1,700,653,677,-1,677,653,676,-1,689,701,688,-1,688,701,702,-1,688,702,687,-1,687,702,703,-1,687,703,686,-1,686,703,704,-1,686,704,685,-1,685,704,705,-1,685,705,684,-1,684,705,706,-1,684,706,683,-1,683,706,707,-1,683,707,682,-1,682,707,708,-1,682,708,681,-1,681,708,709,-1,681,709,680,-1,680,709,710,-1,680,710,679,-1,679,710,711,-1,679,711,678,-1,678,711,712,-1,678,712,677,-1,677,712,713,-1,677,713,700,-1,700,713,714,-1,700,714,699,-1,699,714,715,-1,699,715,698,-1,698,715,716,-1,698,716,697,-1,697,716,717,-1,697,717,696,-1,696,717,718,-1,696,718,695,-1,695,718,719,-1,695,719,694,-1,694,719,720,-1,694,720,693,-1,693,720,721,-1,693,721,692,-1,692,721,722,-1,692,722,691,-1,691,722,723,-1,691,723,690,-1,690,723,724,-1,690,724,689,-1,689,724,701,-1,701,725,702,-1,702,725,726,-1,702,726,703,-1,703,726,727,-1,703,727,704,-1,704,727,728,-1,704,728,705,-1,705,728,729,-1,705,729,706,-1,706,729,730,-1,706,730,707,-1,707,730,731,-1,707,731,708,-1,708,731,732,-1,708,732,709,-1,709,732,733,-1,709,733,710,-1,710,733,734,-1,710,734,711,-1,711,734,735,-1,711,735,712,-1,712,735,736,-1,712,736,713,-1,713,736,737,-1,713,737,714,-1,714,737,738,-1,714,738,715,-1,715,738,739,-1,715,739,716,-1,716,739,740,-1,716,740,717,-1,717,740,741,-1,717,741,718,-1,718,741,742,-1,718,742,719,-1,719,742,743,-1,719,743,720,-1,720,743,744,-1,720,744,721,-1,721,744,745,-1,721,745,722,-1,722,745,746,-1,722,746,723,-1,723,746,747,-1,723,747,724,-1,724,747,748,-1,724,748,701,-1,701,748,725,-1,725,749,726,-1,726,749,750,-1,726,750,727,-1,727,750,751,-1,727,751,728,-1,728,751,752,-1,728,752,729,-1,729,752,753,-1,729,753,730,-1,730,753,754,-1,730,754,731,-1,731,754,755,-1,731,755,732,-1,732,755,756,-1,732,756,733,-1,733,756,757,-1,733,757,734,-1,734,757,758,-1,734,758,735,-1,735,758,759,-1,735,759,736,-1,736,759,760,-1,736,760,737,-1,737,760,761,-1,737,761,738,-1,738,761,762,-1,738,762,739,-1,739,762,763,-1,739,763,740,-1,740,763,764,-1,740,764,741,-1,741,764,765,-1,741,765,742,-1,742,765,766,-1,742,766,743,-1,743,766,767,-1,743,767,744,-1,744,767,768,-1,744,768,745,-1,745,768,769,-1,745,769,746,-1,746,769,770,-1,746,770,747,-1,747,770,771,-1,747,771,748,-1,748,771,772,-1,748,772,725,-1,725,772,749,-1,749,773,750,-1,750,773,774,-1,750,774,751,-1,751,774,775,-1,751,775,752,-1,752,775,776,-1,752,776,753,-1,753,776,777,-1,753,777,754,-1,754,777,778,-1,754,778,755,-1,755,778,779,-1,755,779,756,-1,756,779,780,-1,756,780,757,-1,757,780,781,-1,757,781,758,-1,758,781,782,-1,758,782,759,-1,759,782,783,-1,759,783,760,-1,760,783,784,-1,760,784,761,-1,761,784,785,-1,761,785,762,-1,762,785,786,-1,762,786,763,-1,763,786,787,-1,763,787,764,-1,764,787,788,-1,764,788,765,-1,765,788,789,-1,765,789,766,-1,766,789,790,-1,766,790,767,-1,767,790,791,-1,767,791,768,-1,768,791,792,-1,768,792,769,-1,769,792,793,-1,769,793,770,-1,770,793,794,-1,770,794,771,-1,771,794,795,-1,771,795,772,-1,772,795,796,-1,772,796,749,-1,749,796,773,-1,797,784,798,-1,798,784,783,-1,798,783,799,-1,799,783,782,-1,799,782,800,-1,800,782,781,-1,800,781,801,-1,801,781,780,-1,801,780,802,-1,802,780,779,-1,802,779,803,-1,803,779,778,-1,803,778,804,-1,804,778,777,-1,804,777,805,-1,805,777,776,-1,805,776,806,-1,806,776,775,-1,806,775,807,-1,807,775,774,-1,807,774,808,-1,808,774,773,-1,808,773,809,-1,809,773,796,-1,809,796,810,-1,810,796,795,-1,810,795,811,-1,811,795,794,-1,811,794,812,-1,812,794,793,-1,812,793,813,-1,813,793,792,-1,813,792,814,-1,814,792,791,-1,814,791,815,-1,815,791,790,-1,815,790,816,-1,816,790,789,-1,816,789,817,-1,817,789,788,-1,817,788,818,-1,818,788,787,-1,818,787,819,-1,819,787,786,-1,819,786,820,-1,820,786,785,-1,820,785,797,-1,797,785,784,-1,797,821,820,-1,820,821,822,-1,820,822,819,-1,819,822,823,-1,819,823,818,-1,818,823,824,-1,818,824,817,-1,817,824,825,-1,817,825,816,-1,816,825,826,-1,816,826,815,-1,815,826,827,-1,815,827,814,-1,814,827,828,-1,814,828,813,-1,813,828,829,-1,813,829,812,-1,812,829,830,-1,812,830,811,-1,811,830,831,-1,811,831,810,-1,810,831,832,-1,810,832,809,-1,809,832,833,-1,809,833,808,-1,808,833,834,-1,808,834,807,-1,807,834,835,-1,807,835,806,-1,806,835,836,-1,806,836,805,-1,805,836,837,-1,805,837,804,-1,804,837,838,-1,804,838,803,-1,803,838,839,-1,803,839,802,-1,802,839,840,-1,802,840,801,-1,801,840,841,-1,801,841,800,-1,800,841,842,-1,800,842,799,-1,799,842,843,-1,799,843,798,-1,798,843,844,-1,798,844,797,-1,797,844,821,-1,821,845,822,-1,822,845,846,-1,822,846,823,-1,823,846,847,-1,823,847,824,-1,824,847,848,-1,824,848,825,-1,825,848,849,-1,825,849,826,-1,826,849,850,-1,826,850,827,-1,827,850,851,-1,827,851,828,-1,828,851,852,-1,828,852,829,-1,829,852,853,-1,829,853,830,-1,830,853,854,-1,830,854,831,-1,831,854,855,-1,831,855,832,-1,832,855,856,-1,832,856,833,-1,833,856,857,-1,833,857,834,-1,834,857,858,-1,834,858,835,-1,835,858,859,-1,835,859,836,-1,836,859,860,-1,836,860,837,-1,837,860,861,-1,837,861,838,-1,838,861,862,-1,838,862,839,-1,839,862,863,-1,839,863,840,-1,840,863,864,-1,840,864,841,-1,841,864,865,-1,841,865,842,-1,842,865,866,-1,842,866,843,-1,843,866,867,-1,843,867,844,-1,844,867,868,-1,844,868,821,-1,821,868,845,-1,869,868,870,-1,870,868,867,-1,870,867,871,-1,871,867,866,-1,871,866,872,-1,872,866,865,-1,872,865,873,-1,873,865,864,-1,873,864,874,-1,874,864,863,-1,874,863,875,-1,875,863,862,-1,875,862,876,-1,876,862,861,-1,876,861,877,-1,877,861,860,-1,877,860,878,-1,878,860,859,-1,878,859,879,-1,879,859,858,-1,879,858,880,-1,880,858,857,-1,880,857,881,-1,881,857,856,-1,881,856,882,-1,882,856,855,-1,882,855,883,-1,883,855,854,-1,883,854,884,-1,884,854,853,-1,884,853,885,-1,885,853,852,-1,885,852,886,-1,886,852,851,-1,886,851,887,-1,887,851,850,-1,887,850,888,-1,888,850,849,-1,888,849,889,-1,889,849,848,-1,889,848,890,-1,890,848,847,-1,890,847,891,-1,891,847,846,-1,891,846,892,-1,892,846,845,-1,892,845,869,-1,869,845,868,-1,881,565,880,-1,880,565,564,-1,880,564,879,-1,879,564,569,-1,879,569,878,-1,878,569,568,-1,878,568,877,-1,877,568,567,-1,877,567,876,-1,876,567,572,-1,876,572,875,-1,875,572,571,-1,875,571,874,-1,874,571,570,-1,874,570,873,-1,873,570,575,-1,873,575,872,-1,872,575,574,-1,872,574,871,-1,871,574,573,-1,871,573,870,-1,870,573,578,-1,870,578,869,-1,869,578,577,-1,869,577,892,-1,892,577,576,-1,892,576,891,-1,891,576,580,-1,891,580,890,-1,890,580,579,-1,890,579,889,-1,889,579,560,-1,889,560,888,-1,888,560,559,-1,888,559,887,-1,887,559,557,-1,887,557,886,-1,886,557,556,-1,886,556,885,-1,885,556,563,-1,885,563,884,-1,884,563,562,-1,884,562,883,-1,883,562,561,-1,883,561,882,-1,882,561,566,-1,882,566,881,-1,881,566,565,-1,893,894,895,-1,895,894,896,-1,895,896,897,-1,898,899,895,-1,895,899,900,-1,895,900,893,-1,901,902,895,-1,895,902,903,-1,895,903,898,-1,904,905,895,-1,895,905,906,-1,895,906,901,-1,907,908,895,-1,895,908,909,-1,895,909,904,-1,910,911,895,-1,895,911,912,-1,895,912,907,-1,913,914,895,-1,895,914,915,-1,895,915,910,-1,897,916,895,-1,895,916,917,-1,895,917,913,-1,918,919,920,-1,920,919,921,-1,920,921,922,-1,922,921,923,-1,922,923,924,-1,924,923,925,-1,924,925,926,-1,926,925,927,-1,926,927,928,-1,928,927,929,-1,928,929,930,-1,930,929,931,-1,930,931,932,-1,932,931,933,-1,932,933,934,-1,934,933,935,-1,934,935,936,-1,936,935,937,-1,936,937,938,-1,938,937,939,-1,938,939,940,-1,940,939,941,-1,940,941,942,-1,942,941,943,-1,942,943,944,-1,944,943,945,-1,944,945,946,-1,946,945,947,-1,946,947,948,-1,948,947,949,-1,948,949,950,-1,950,949,951,-1,950,951,952,-1,952,951,953,-1,952,953,954,-1,954,953,955,-1,954,955,956,-1,956,955,957,-1,956,957,958,-1,958,957,959,-1,958,959,960,-1,960,959,961,-1,960,961,962,-1,962,961,963,-1,962,963,964,-1,964,963,965,-1,964,965,918,-1,918,965,919,-1,965,902,919,-1,919,902,901,-1,919,901,921,-1,921,901,906,-1,921,906,923,-1,923,906,905,-1,923,905,925,-1,925,905,904,-1,925,904,927,-1,927,904,909,-1,927,909,929,-1,929,909,908,-1,929,908,931,-1,931,908,907,-1,931,907,933,-1,933,907,912,-1,933,912,935,-1,935,912,911,-1,935,911,937,-1,937,911,910,-1,937,910,939,-1,939,910,915,-1,939,915,941,-1,941,915,914,-1,941,914,943,-1,943,914,913,-1,943,913,945,-1,945,913,917,-1,945,917,947,-1,947,917,916,-1,947,916,949,-1,949,916,897,-1,949,897,951,-1,951,897,896,-1,951,896,953,-1,953,896,894,-1,953,894,955,-1,955,894,893,-1,955,893,957,-1,957,893,900,-1,957,900,959,-1,959,900,899,-1,959,899,961,-1,961,899,898,-1,961,898,963,-1,963,898,903,-1,963,903,965,-1,965,903,902,-1,966,967,968,-1,968,967,969,-1,968,969,970,-1,971,972,968,-1,968,972,973,-1,968,973,966,-1,974,975,968,-1,968,975,976,-1,968,976,971,-1,977,978,968,-1,968,978,979,-1,968,979,974,-1,980,981,968,-1,968,981,982,-1,968,982,977,-1,983,984,968,-1,968,984,985,-1,968,985,980,-1,986,987,968,-1,968,987,988,-1,968,988,983,-1,970,989,968,-1,968,989,990,-1,968,990,986,-1,991,992,993,-1,993,992,994,-1,993,994,995,-1,995,994,996,-1,995,996,997,-1,997,996,998,-1,997,998,999,-1,999,998,1000,-1,999,1000,1001,-1,1001,1000,1002,-1,1001,1002,1003,-1,1003,1002,1004,-1,1003,1004,1005,-1,1005,1004,1006,-1,1005,1006,1007,-1,1007,1006,1008,-1,1007,1008,1009,-1,1009,1008,1010,-1,1009,1010,1011,-1,1011,1010,1012,-1,1011,1012,1013,-1,1013,1012,1014,-1,1013,1014,1015,-1,1015,1014,1016,-1,1015,1016,1017,-1,1017,1016,1018,-1,1017,1018,1019,-1,1019,1018,1020,-1,1019,1020,1021,-1,1021,1020,1022,-1,1021,1022,1023,-1,1023,1022,1024,-1,1023,1024,1025,-1,1025,1024,1026,-1,1025,1026,1027,-1,1027,1026,1028,-1,1027,1028,1029,-1,1029,1028,1030,-1,1029,1030,1031,-1,1031,1030,1032,-1,1031,1032,1033,-1,1033,1032,1034,-1,1033,1034,1035,-1,1035,1034,1036,-1,1035,1036,1037,-1,1037,1036,1038,-1,1037,1038,991,-1,991,1038,992,-1,1039,1040,1041,-1,1041,1040,1042,-1,1041,1042,1043,-1,1043,1042,1044,-1,1043,1044,1045,-1,1045,1044,1046,-1,1045,1046,1047,-1,1047,1046,1048,-1,1047,1048,1049,-1,1049,1048,1050,-1,1049,1050,1051,-1,1051,1050,1052,-1,1051,1052,1053,-1,1053,1052,1054,-1,1053,1054,1055,-1,1055,1054,1056,-1,1055,1056,1057,-1,1057,1056,1058,-1,1057,1058,1059,-1,1059,1058,1060,-1,1059,1060,1061,-1,1061,1060,1062,-1,1061,1062,1063,-1,1063,1062,1064,-1,1063,1064,1065,-1,1065,1064,1066,-1,1065,1066,1067,-1,1067,1066,1068,-1,1067,1068,1069,-1,1069,1068,1070,-1,1069,1070,1071,-1,1071,1070,1072,-1,1071,1072,1073,-1,1073,1072,1074,-1,1073,1074,1075,-1,1075,1074,1076,-1,1075,1076,1077,-1,1077,1076,1078,-1,1077,1078,1079,-1,1079,1078,1080,-1,1079,1080,1081,-1,1081,1080,1082,-1,1081,1082,1083,-1,1083,1082,1084,-1,1083,1084,1085,-1,1085,1084,1086,-1,1085,1086,1039,-1,1039,1086,1040,-1,1087,1088,1089,-1,1089,1088,1090,-1,1089,1090,1091,-1,1092,1093,1089,-1,1089,1093,1094,-1,1089,1094,1087,-1,1095,1096,1089,-1,1089,1096,1097,-1,1089,1097,1092,-1,1098,1099,1089,-1,1089,1099,1100,-1,1089,1100,1095,-1,1101,1102,1089,-1,1089,1102,1103,-1,1089,1103,1098,-1,1104,1105,1089,-1,1089,1105,1106,-1,1089,1106,1101,-1,1107,1108,1089,-1,1089,1108,1109,-1,1089,1109,1104,-1,1091,1110,1089,-1,1089,1110,1111,-1,1089,1111,1107,-1,1112,1113,1114,-1,1114,1113,1115,-1,1114,1115,1116,-1,1117,1118,1114,-1,1114,1118,1119,-1,1114,1119,1112,-1,1120,1121,1114,-1,1114,1121,1122,-1,1114,1122,1117,-1,1123,1124,1114,-1,1114,1124,1125,-1,1114,1125,1120,-1,1126,1127,1114,-1,1114,1127,1128,-1,1114,1128,1123,-1,1129,1130,1114,-1,1114,1130,1131,-1,1114,1131,1126,-1,1132,1133,1114,-1,1114,1133,1134,-1,1114,1134,1129,-1,1116,1135,1114,-1,1114,1135,1136,-1,1114,1136,1132,-1,1137,1138,1139,-1,1139,1138,1140,-1,1139,1140,1141,-1,1141,1140,1142,-1,1141,1142,1143,-1,1143,1142,1144,-1,1143,1144,1145,-1,1145,1144,1146,-1,1145,1146,1147,-1,1147,1146,1148,-1,1147,1148,1149,-1,1149,1148,1150,-1,1149,1150,1151,-1,1151,1150,1152,-1,1151,1152,1153,-1,1153,1152,1154,-1,1153,1154,1155,-1,1155,1154,1156,-1,1155,1156,1157,-1,1157,1156,1158,-1,1157,1158,1159,-1,1159,1158,1160,-1,1159,1160,1161,-1,1161,1160,1162,-1,1161,1162,1163,-1,1163,1162,1164,-1,1163,1164,1165,-1,1165,1164,1166,-1,1165,1166,1167,-1,1167,1166,1168,-1,1167,1168,1169,-1,1169,1168,1170,-1,1169,1170,1171,-1,1171,1170,1172,-1,1171,1172,1173,-1,1173,1172,1174,-1,1173,1174,1175,-1,1175,1174,1176,-1,1175,1176,1177,-1,1177,1176,1178,-1,1177,1178,1179,-1,1179,1178,1180,-1,1179,1180,1181,-1,1181,1180,1182,-1,1181,1182,1183,-1,1183,1182,1184,-1,1183,1184,1137,-1,1137,1184,1138,-1,1185,1186,1187,-1,1187,1186,1188,-1,1187,1188,1189,-1,1189,1188,1190,-1,1189,1190,1191,-1,1191,1190,1192,-1,1191,1192,1193,-1,1193,1192,1194,-1,1193,1194,1195,-1,1195,1194,1196,-1,1195,1196,1197,-1,1197,1196,1198,-1,1197,1198,1199,-1,1199,1198,1200,-1,1199,1200,1201,-1,1201,1200,1202,-1,1201,1202,1203,-1,1203,1202,1204,-1,1203,1204,1205,-1,1205,1204,1206,-1,1205,1206,1207,-1,1207,1206,1208,-1,1207,1208,1209,-1,1209,1208,1210,-1,1209,1210,1211,-1,1211,1210,1212,-1,1211,1212,1213,-1,1213,1212,1214,-1,1213,1214,1215,-1,1215,1214,1216,-1,1215,1216,1217,-1,1217,1216,1218,-1,1217,1218,1219,-1,1219,1218,1220,-1,1219,1220,1221,-1,1221,1220,1222,-1,1221,1222,1223,-1,1223,1222,1224,-1,1223,1224,1225,-1,1225,1224,1226,-1,1225,1226,1227,-1,1227,1226,1228,-1,1227,1228,1229,-1,1229,1228,1230,-1,1229,1230,1231,-1,1231,1230,1232,-1,1231,1232,1185,-1,1185,1232,1186,-1,1233,1234,1235,-1,1235,1234,1236,-1,1235,1236,1237,-1,1238,1239,1235,-1,1235,1239,1240,-1,1235,1240,1233,-1,1241,1242,1235,-1,1235,1242,1243,-1,1235,1243,1238,-1,1244,1245,1235,-1,1235,1245,1246,-1,1235,1246,1241,-1,1247,1248,1235,-1,1235,1248,1249,-1,1235,1249,1244,-1,1250,1251,1235,-1,1235,1251,1252,-1,1235,1252,1247,-1,1253,1254,1235,-1,1235,1254,1255,-1,1235,1255,1250,-1,1237,1256,1235,-1,1235,1256,1257,-1,1235,1257,1253,-1,1015,981,1013,-1,1013,981,980,-1,1013,980,1011,-1,1011,980,985,-1,1011,985,1009,-1,1009,985,984,-1,1009,984,1007,-1,1007,984,983,-1,1007,983,1005,-1,1005,983,988,-1,1005,988,1003,-1,1003,988,987,-1,1003,987,1001,-1,1001,987,986,-1,1001,986,999,-1,999,986,990,-1,999,990,997,-1,997,990,989,-1,997,989,995,-1,995,989,970,-1,995,970,993,-1,993,970,969,-1,993,969,991,-1,991,969,967,-1,991,967,1037,-1,1037,967,966,-1,1037,966,1035,-1,1035,966,973,-1,1035,973,1033,-1,1033,973,972,-1,1033,972,1031,-1,1031,972,971,-1,1031,971,1029,-1,1029,971,976,-1,1029,976,1027,-1,1027,976,975,-1,1027,975,1025,-1,1025,975,974,-1,1025,974,1023,-1,1023,974,979,-1,1023,979,1021,-1,1021,979,978,-1,1021,978,1019,-1,1019,978,977,-1,1019,977,1017,-1,1017,977,982,-1,1017,982,1015,-1,1015,982,981,-1,1086,1102,1040,-1,1040,1102,1101,-1,1040,1101,1042,-1,1042,1101,1106,-1,1042,1106,1044,-1,1044,1106,1105,-1,1044,1105,1046,-1,1046,1105,1104,-1,1046,1104,1048,-1,1048,1104,1109,-1,1048,1109,1050,-1,1050,1109,1108,-1,1050,1108,1052,-1,1052,1108,1107,-1,1052,1107,1054,-1,1054,1107,1111,-1,1054,1111,1056,-1,1056,1111,1110,-1,1056,1110,1058,-1,1058,1110,1091,-1,1058,1091,1060,-1,1060,1091,1090,-1,1060,1090,1062,-1,1062,1090,1088,-1,1062,1088,1064,-1,1064,1088,1087,-1,1064,1087,1066,-1,1066,1087,1094,-1,1066,1094,1068,-1,1068,1094,1093,-1,1068,1093,1070,-1,1070,1093,1092,-1,1070,1092,1072,-1,1072,1092,1097,-1,1072,1097,1074,-1,1074,1097,1096,-1,1074,1096,1076,-1,1076,1096,1095,-1,1076,1095,1078,-1,1078,1095,1100,-1,1078,1100,1080,-1,1080,1100,1099,-1,1080,1099,1082,-1,1082,1099,1098,-1,1082,1098,1084,-1,1084,1098,1103,-1,1084,1103,1086,-1,1086,1103,1102,-1,1161,1127,1159,-1,1159,1127,1126,-1,1159,1126,1157,-1,1157,1126,1131,-1,1157,1131,1155,-1,1155,1131,1130,-1,1155,1130,1153,-1,1153,1130,1129,-1,1153,1129,1151,-1,1151,1129,1134,-1,1151,1134,1149,-1,1149,1134,1133,-1,1149,1133,1147,-1,1147,1133,1132,-1,1147,1132,1145,-1,1145,1132,1136,-1,1145,1136,1143,-1,1143,1136,1135,-1,1143,1135,1141,-1,1141,1135,1116,-1,1141,1116,1139,-1,1139,1116,1115,-1,1139,1115,1137,-1,1137,1115,1113,-1,1137,1113,1183,-1,1183,1113,1112,-1,1183,1112,1181,-1,1181,1112,1119,-1,1181,1119,1179,-1,1179,1119,1118,-1,1179,1118,1177,-1,1177,1118,1117,-1,1177,1117,1175,-1,1175,1117,1122,-1,1175,1122,1173,-1,1173,1122,1121,-1,1173,1121,1171,-1,1171,1121,1120,-1,1171,1120,1169,-1,1169,1120,1125,-1,1169,1125,1167,-1,1167,1125,1124,-1,1167,1124,1165,-1,1165,1124,1123,-1,1165,1123,1163,-1,1163,1123,1128,-1,1163,1128,1161,-1,1161,1128,1127,-1,1232,1248,1186,-1,1186,1248,1247,-1,1186,1247,1188,-1,1188,1247,1252,-1,1188,1252,1190,-1,1190,1252,1251,-1,1190,1251,1192,-1,1192,1251,1250,-1,1192,1250,1194,-1,1194,1250,1255,-1,1194,1255,1196,-1,1196,1255,1254,-1,1196,1254,1198,-1,1198,1254,1253,-1,1198,1253,1200,-1,1200,1253,1257,-1,1200,1257,1202,-1,1202,1257,1256,-1,1202,1256,1204,-1,1204,1256,1237,-1,1204,1237,1206,-1,1206,1237,1236,-1,1206,1236,1208,-1,1208,1236,1234,-1,1208,1234,1210,-1,1210,1234,1233,-1,1210,1233,1212,-1,1212,1233,1240,-1,1212,1240,1214,-1,1214,1240,1239,-1,1214,1239,1216,-1,1216,1239,1238,-1,1216,1238,1218,-1,1218,1238,1243,-1,1218,1243,1220,-1,1220,1243,1242,-1,1220,1242,1222,-1,1222,1242,1241,-1,1222,1241,1224,-1,1224,1241,1246,-1,1224,1246,1226,-1,1226,1246,1245,-1,1226,1245,1228,-1,1228,1245,1244,-1,1228,1244,1230,-1,1230,1244,1249,-1,1230,1249,1232,-1,1232,1249,1248,-1,
        ]
    }
}