#VRML V2.0 utf8
# 3D model generated by easyeda2kicad.py (https://github.com/uPesy/easyeda2kicad.py)

Shape{
    appearance Appearance {
        material  Material 	{
            diffuseColor 0.8313725490196079 0.8313725490196079 0.8196078431372549
            specularColor 0.6666666666666666 0.6666666666666666 0.6549019607843137
            ambientIntensity 0.2
            transparency 0
            shininess 0.5
        }
    }
    geometry IndexedFaceSet {
        ccw TRUE
        solid FALSE
        coord DEF co Coordinate {
            point [
                0.0591 -0.315 0.0394, -0.0591 -0.315 0.0394, -0.0591 -0.3112 0.001, 0.0591 -0.3112 0.001, -0.0591 -0.3 -0.036, 0.0591 -0.3 -0.036, -0.0591 -0.2818 -0.07, 0.0591 -0.2818 -0.07, -0.0591 -0.2573 -0.0998, 0.0591 -0.2573 -0.0998, -0.0591 -0.2275 -0.1243, 0.0591 -0.2275 -0.1243, -0.0591 -0.1934 -0.1425, 0.0591 -0.1934 -0.1425, -0.0591 -0.1565 -0.1537, 0.0591 -0.1565 -0.1537, -0.0591 -0.1181 -0.1575, 0.0591 -0.1181 -0.1575, 0.0591 0.4528 -0.1575, -0.0591 0.4528 -0.1575, -0.0394 0.5315 -0.1378, -0.0394 0.5315 -0.0591, 0.0394 0.5315 -0.1378, 0.0394 0.5315 -0.0591, -0.0591 0.4528 -0.0394, -0.0591 -0.1181 -0.0394, 0.0591 0.4528 -0.0394, 0.0591 -0.1181 -0.0394, 0.0591 -0.1385 -0.0367, -0.0591 -0.1385 -0.0367, 0.0591 -0.1575 -0.0288, -0.0591 -0.1575 -0.0288, 0.0591 -0.1738 -0.0163, -0.0591 -0.1738 -0.0163, 0.0591 -0.1863 -0.0, -0.0591 -0.1863 -0.0, 0.0591 -0.1942 0.019, -0.0591 -0.1942 0.019, 0.0591 -0.1969 0.0394, -0.0591 -0.1969 0.0394, 0.0591 -0.1969 1.1024, -0.0591 -0.1969 1.1024, -0.0394 -0.2165 1.1811, -0.0394 -0.2953 1.1811, 0.0394 -0.2165 1.1811, 0.0394 -0.2953 1.1811, -0.0591 -0.315 1.1024, 0.0591 -0.315 1.1024, -0.4528 -0.1969 0.0394, -0.3346 -0.1969 0.0394, -0.3346 -0.2006 0.001, -0.4528 -0.2006 0.001, -0.3346 -0.2118 -0.036, -0.4528 -0.2118 -0.036, -0.3346 -0.23 -0.07, -0.4528 -0.23 -0.07, -0.3346 -0.2545 -0.0998, -0.4528 -0.2545 -0.0998, -0.3346 -0.2843 -0.1243, -0.4528 -0.2843 -0.1243, -0.3346 -0.3184 -0.1425, -0.4528 -0.3184 -0.1425, -0.3346 -0.3553 -0.1537, -0.4528 -0.3553 -0.1537, -0.3346 -0.3937 -0.1575, -0.4528 -0.3937 -0.1575, -0.4528 -0.9646 -0.1575, -0.3346 -0.9646 -0.1575, -0.3543 -1.0433 -0.1378, -0.3543 -1.0433 -0.0591, -0.4331 -1.0433 -0.1378, -0.4331 -1.0433 -0.0591, -0.3346 -0.9646 -0.0394, -0.3346 -0.3937 -0.0394, -0.4528 -0.9646 -0.0394, -0.4528 -0.3937 -0.0394, -0.4528 -0.3733 -0.0367, -0.3346 -0.3733 -0.0367, -0.4528 -0.3543 -0.0288, -0.3346 -0.3543 -0.0288, -0.4528 -0.338 -0.0163, -0.3346 -0.338 -0.0163, -0.4528 -0.3255 -0.0, -0.3346 -0.3255 -0.0, -0.4528 -0.3176 0.019, -0.3346 -0.3176 0.019, -0.4528 -0.315 0.0394, -0.3346 -0.315 0.0394, -0.4528 -0.315 1.1024, -0.3346 -0.315 1.1024, -0.3543 -0.2953 1.1811, -0.3543 -0.2165 1.1811, -0.4331 -0.2953 1.1811, -0.4331 -0.2165 1.1811, -0.3346 -0.1969 1.1024, -0.4528 -0.1969 1.1024, -0.4528 -0.1969 1.1024
            ]
        }
        coordIndex [
            0,1,2,-1,0,2,3,-1,3,2,4,-1,3,4,5,-1,5,4,6,-1,5,6,7,-1,7,6,8,-1,7,8,9,-1,9,8,10,-1,9,10,11,-1,11,10,12,-1,11,12,13,-1,13,12,14,-1,13,14,15,-1,15,14,16,-1,15,16,17,-1,18,17,19,-1,19,17,16,-1,20,21,22,-1,22,21,23,-1,24,25,26,-1,26,25,27,-1,27,25,28,-1,28,25,29,-1,28,29,30,-1,30,29,31,-1,30,31,32,-1,32,31,33,-1,32,33,34,-1,34,33,35,-1,34,35,36,-1,36,35,37,-1,36,37,38,-1,38,37,39,-1,40,38,41,-1,41,38,39,-1,42,43,44,-1,44,43,45,-1,46,1,47,-1,47,1,0,-1,40,47,38,-1,38,47,0,-1,38,0,36,-1,18,26,17,-1,17,26,27,-1,17,27,15,-1,15,27,28,-1,15,28,13,-1,13,28,30,-1,0,3,36,-1,36,3,5,-1,36,5,34,-1,34,5,7,-1,34,7,32,-1,32,7,9,-1,32,9,30,-1,30,9,11,-1,30,11,13,-1,24,19,25,-1,25,19,16,-1,25,16,29,-1,35,4,37,-1,37,4,2,-1,37,2,39,-1,39,2,1,-1,39,1,41,-1,41,1,46,-1,16,14,29,-1,29,14,12,-1,29,12,31,-1,31,12,10,-1,31,10,33,-1,33,10,8,-1,33,8,35,-1,35,8,6,-1,35,6,4,-1,47,45,46,-1,46,45,43,-1,40,44,47,-1,47,44,45,-1,42,41,43,-1,43,41,46,-1,41,42,40,-1,40,42,44,-1,26,23,24,-1,24,23,21,-1,18,22,26,-1,26,22,23,-1,20,19,21,-1,21,19,24,-1,19,20,18,-1,18,20,22,-1,48,49,50,-1,48,50,51,-1,51,50,52,-1,51,52,53,-1,53,52,54,-1,53,54,55,-1,55,54,56,-1,55,56,57,-1,57,56,58,-1,57,58,59,-1,59,58,60,-1,59,60,61,-1,61,60,62,-1,61,62,63,-1,63,62,64,-1,63,64,65,-1,66,65,67,-1,67,65,64,-1,68,69,70,-1,70,69,71,-1,72,73,74,-1,74,73,75,-1,75,73,76,-1,76,73,77,-1,76,77,78,-1,78,77,79,-1,78,79,80,-1,80,79,81,-1,80,81,82,-1,82,81,83,-1,82,83,84,-1,84,83,85,-1,84,85,86,-1,86,85,87,-1,88,86,89,-1,89,86,87,-1,90,91,92,-1,92,91,93,-1,94,49,95,-1,95,49,48,-1,78,61,76,-1,76,61,63,-1,76,63,75,-1,75,63,65,-1,75,65,74,-1,74,65,66,-1,88,95,86,-1,86,95,48,-1,86,48,84,-1,48,51,84,-1,84,51,53,-1,84,53,82,-1,82,53,55,-1,82,55,80,-1,80,55,57,-1,80,57,78,-1,78,57,59,-1,78,59,61,-1,72,67,73,-1,73,67,64,-1,73,64,77,-1,94,89,49,-1,49,89,87,-1,49,87,50,-1,50,87,85,-1,50,85,52,-1,52,85,83,-1,64,62,77,-1,77,62,60,-1,77,60,79,-1,79,60,58,-1,79,58,81,-1,81,58,56,-1,81,56,83,-1,83,56,54,-1,83,54,52,-1,95,93,94,-1,94,93,91,-1,88,92,95,-1,95,92,93,-1,90,89,91,-1,91,89,94,-1,89,90,88,-1,88,90,92,-1,74,71,72,-1,72,71,69,-1,66,70,74,-1,74,70,71,-1,68,67,69,-1,69,67,72,-1,67,68,66,-1,66,68,70,-1,
        ]
    }
}
Shape{
    appearance Appearance {
        material  Material 	{
            diffuseColor 0.20784313725490197 0.20784313725490197 0.20784313725490197
            specularColor 0.01568627450980392 0.01568627450980392 0.01568627450980392
            ambientIntensity 0.2
            transparency 0
            shininess 0.5
        }
    }
    geometry IndexedFaceSet {
        ccw TRUE
        solid FALSE
        coord DEF co Coordinate {
            point [
                -0.5906 -0.3901 0.1978, -0.5906 -0.3901 0.2258, -0.5906 -0.347 0.2258, -0.5906 -0.4134 0.3125, -0.5906 -0.4134 0.3937, -0.5906 -0.3901 0.3937, -0.5906 -0.2744 0.2256, -0.5906 -0.276 0.2258, -0.5906 -0.2675 0.2258, -0.5906 -0.2909 0.1703, -0.5906 -0.29 0.1702, -0.5906 -0.2953 0.1702, -0.5906 -0.2069 0.228, -0.5906 -0.2102 0.2258, -0.5906 -0.2457 0.2258, -0.5906 -0.2137 0.2234, -0.5906 -0.2187 0.2177, -0.5906 -0.2357 0.1978, -0.5906 -0.2457 0.1978, -0.5906 -0.2344 0.2011, -0.5906 -0.2313 0.2054, -0.5906 -0.2272 0.2089, -0.5906 -0.2219 0.2115, -0.5906 -0.2227 0.2112, -0.5906 -0.1993 0.2307, -0.5906 -0.2457 0.3125, -0.5906 -0.1785 0.2277, -0.5906 -0.1855 0.2304, -0.5906 -0.0984 0.3125, -0.5906 -0.1931 0.2313, -0.5906 -0.1413 0.2021, -0.5906 -0.0984 0.2258, -0.5906 -0.1405 0.1978, -0.5906 -0.0984 0.1978, -0.5906 -0.1401 0.1961, -0.5906 -0.1754 0.2258, -0.5906 -0.1748 0.2254, -0.5906 -0.1438 0.2075, -0.5906 -0.1472 0.2118, -0.5906 -0.1485 0.2129, -0.5906 -0.1536 0.2164, -0.5906 -0.1592 0.2184, -0.5906 -0.1647 0.219, -0.5906 -0.1713 0.2224, -0.5906 -0.1664 0.2189, -0.5906 -0.1682 0.2187, -0.5906 -0.1586 0.1706, -0.5906 -0.1561 0.1714, -0.5906 -0.0984 0.1702, -0.5906 -0.1507 0.1742, -0.5906 -0.1465 0.1779, -0.5906 -0.146 0.1785, -0.5906 -0.1427 0.1833, -0.5906 -0.1407 0.189, -0.5906 -0.1401 0.1945, -0.5906 -0.1653 0.1623, -0.5906 -0.1624 0.1646, -0.5906 -0.0984 0.1617, -0.5906 -0.1601 0.1674, -0.5906 -0.1588 0.1702, -0.5906 -0.2457 -0.0, -0.5906 -0.1767 0.1607, -0.5906 -0.173 0.1603, -0.5906 -0.0984 -0.0, -0.5906 -0.1724 0.1603, -0.5906 -0.1688 0.1609, -0.5906 -0.1667 0.1617, -0.5906 -0.1872 0.1702, -0.5906 -0.1872 0.1702, -0.5906 -0.2457 0.1617, -0.5906 -0.1854 0.1668, -0.5906 -0.1831 0.1641, -0.5906 -0.1801 0.162, -0.5906 -0.1793 0.1617, -0.5906 -0.2067 0.1792, -0.5906 -0.2077 0.1796, -0.5906 -0.2095 0.1882, -0.5906 -0.1844 0.1856, -0.5906 -0.2047 0.1963, -0.5906 -0.1818 0.1881, -0.5906 -0.1785 0.1898, -0.5906 -0.2343 0.1812, -0.5906 -0.2313 0.1771, -0.5906 -0.2457 0.1702, -0.5906 -0.2274 0.1927, -0.5906 -0.2267 0.1956, -0.5906 -0.2256 0.1978, -0.5906 -0.15 0.1978, -0.5906 -0.2057 0.1785, -0.5906 -0.2363 0.1965, -0.5906 -0.2369 0.1916, -0.5906 -0.2362 0.186, -0.5906 -0.2088 0.1797, -0.5906 -0.209 0.1797, -0.5906 -0.2095 0.1796, -0.5906 -0.1509 0.1887, -0.5906 -0.1527 0.1856, -0.5906 -0.1604 0.1841, -0.5906 -0.1554 0.1828, -0.5906 -0.1588 0.1808, -0.5906 -0.1661 0.1891, -0.5906 -0.1629 0.1869, -0.5906 -0.1496 0.1948, -0.5906 -0.1498 0.1924, -0.5906 -0.2271 0.1736, -0.5906 -0.2225 0.1713, -0.5906 -0.2175 0.1703, -0.5906 -0.1694 0.1904, -0.5906 -0.173 0.1908, -0.5906 -0.1749 0.1907, -0.5906 -0.2085 0.1703, -0.5906 -0.2077 0.1704, -0.5906 -0.2244 0.1834, -0.5906 -0.2261 0.1858, -0.5906 -0.2272 0.1885, -0.5906 -0.2275 0.1914, -0.5906 -0.2067 0.1708, -0.5906 -0.2057 0.1715, -0.5906 -0.2053 0.1719, -0.5906 -0.2041 0.175, -0.5906 -0.2042 0.1755, -0.5906 -0.1882 0.177, -0.5906 -0.2044 0.1767, -0.5906 -0.205 0.1777, -0.5906 -0.2098 0.1796, -0.5906 -0.2166 0.1796, -0.5906 -0.2193 0.1801, -0.5906 -0.2047 0.1729, -0.5906 -0.2043 0.1739, -0.5906 -0.1881 0.1739, -0.5906 -0.1882 0.1755, -0.5906 -0.222 0.1813, -0.5906 -0.2242 0.1832, -0.5906 -0.2081 0.2161, -0.5906 -0.2073 0.2169, -0.5906 -0.1729 0.2077, -0.5906 -0.2114 0.212, -0.5906 -0.1718 0.2083, -0.5906 -0.1684 0.2095, -0.5906 -0.2253 0.1983, -0.5906 -0.2236 0.2002, -0.5906 -0.2157 0.2033, -0.5906 -0.2212 0.2019, -0.5906 -0.2186 0.2029, -0.5906 -0.2145 0.2033, -0.5906 -0.2137 0.207, -0.5906 -0.203 0.2198, -0.5906 -0.1982 0.2216, -0.5906 -0.1751 0.2123, -0.5906 -0.1932 0.2222, -0.5906 -0.1595 0.209, -0.5906 -0.1561 0.2072, -0.5906 -0.1633 0.2099, -0.5906 -0.1535 0.2048, -0.5906 -0.1514 0.2018, -0.5906 -0.1876 0.2215, -0.5906 -0.1827 0.2195, -0.5906 -0.1784 0.2164, -0.5906 -0.1648 0.2099, -0.5906 -0.1501 0.1984, -0.5906 -0.3246 0.1893, -0.5906 -0.325 0.1728, -0.5906 -0.3271 0.1978, -0.5906 -0.3271 0.1702, -0.5906 -0.325 0.1704, -0.5906 -0.3203 0.1702, -0.5906 -0.3203 0.1824, -0.5906 -0.3239 0.1824, -0.5906 -0.3239 0.18, -0.5906 -0.3203 0.1728, -0.5906 -0.3203 0.18, -0.5906 -0.3163 0.18, -0.5906 -0.3163 0.1728, -0.5906 -0.3203 0.1893, -0.5906 -0.3163 0.1893, -0.5906 -0.3163 0.1824, -0.5906 -0.3203 0.1704, -0.5906 -0.3136 0.1704, -0.5906 -0.3046 0.1702, -0.5906 -0.3107 0.1856, -0.5906 -0.303 0.1742, -0.5906 -0.3033 0.1729, -0.5906 -0.3034 0.1729, -0.5906 -0.3003 0.1978, -0.5906 -0.3136 0.1917, -0.5906 -0.3203 0.1978, -0.5906 -0.3203 0.1917, -0.5906 -0.3246 0.1917, -0.5906 -0.3035 0.1734, -0.5906 -0.3037 0.1742, -0.5906 -0.3003 0.1819, -0.5906 -0.3079 0.1856, -0.5906 -0.2816 0.1702, -0.5906 -0.2843 0.1709, -0.5906 -0.2843 0.1737, -0.5906 -0.2844 0.1815, -0.5906 -0.2845 0.1825, -0.5906 -0.2816 0.1978, -0.5906 -0.2848 0.1797, -0.5906 -0.2845 0.1805, -0.5906 -0.2853 0.1731, -0.5906 -0.2856 0.173, -0.5906 -0.2856 0.1786, -0.5906 -0.2851 0.1791, -0.5906 -0.2856 0.1787, -0.5906 -0.2856 0.1705, -0.5906 -0.2856 0.1702, -0.5906 -0.2862 0.1703, -0.5906 -0.2867 0.1702, -0.5906 -0.2885 0.17, -0.5906 -0.2856 0.1617, -0.5906 -0.2939 0.1853, -0.5906 -0.2939 0.1827, -0.5906 -0.2861 0.1848, -0.5906 -0.2867 0.1852, -0.5906 -0.2856 0.1978, -0.5906 -0.2848 0.1833, -0.5906 -0.2853 0.1841, -0.5906 -0.2856 0.1843, -0.5906 -0.2945 0.1735, -0.5906 -0.2942 0.1726, -0.5906 -0.2937 0.1719, -0.5906 -0.2882 0.1857, -0.5906 -0.2903 0.186, -0.5906 -0.2953 0.1978, -0.5906 -0.2922 0.1858, -0.5906 -0.2937 0.1771, -0.5906 -0.2942 0.1763, -0.5906 -0.2945 0.1755, -0.5906 -0.2946 0.1745, -0.5906 -0.2929 0.1712, -0.5906 -0.2923 0.1709, -0.5906 -0.29 0.1838, -0.5906 -0.2892 0.1838, -0.5906 -0.2871 0.1818, -0.5906 -0.2885 0.1836, -0.5906 -0.2879 0.1832, -0.5906 -0.2871 0.1814, -0.5906 -0.2872 0.181, -0.5906 -0.2874 0.1806, -0.5906 -0.2877 0.1803, -0.5906 -0.2886 0.1798, -0.5906 -0.2919 0.1836, -0.5906 -0.2903 0.179, -0.5906 -0.2934 0.183, -0.5906 -0.2913 0.1786, -0.5906 -0.2931 0.1776, -0.5906 -0.2875 0.1829, -0.5906 -0.2873 0.1825, -0.5906 -0.2872 0.1822, -0.5906 -0.287 0.1724, -0.5906 -0.2884 0.1771, -0.5906 -0.2868 0.1778, -0.5906 -0.2887 0.1722, -0.5906 -0.2889 0.1722, -0.5906 -0.2902 0.1764, -0.5906 -0.2902 0.1724, -0.5906 -0.2919 0.1743, -0.5906 -0.2919 0.1746, -0.5906 -0.2909 0.1726, -0.5906 -0.2912 0.1728, -0.5906 -0.2915 0.173, -0.5906 -0.2917 0.1734, -0.5906 -0.2918 0.1738, -0.5906 -0.2917 0.175, -0.5906 -0.2915 0.1754, -0.5906 -0.2912 0.1757, -0.5906 -0.3349 0.2101, -0.5906 -0.3271 0.2101, -0.5906 -0.3371 0.2043, -0.5906 -0.3401 0.2043, -0.5906 -0.347 0.1978, -0.5906 -0.332 0.2256, -0.5906 -0.3209 0.2043, -0.5906 -0.3239 0.2043, -0.5906 -0.326 0.2101, -0.5906 -0.2953 0.2258, -0.5906 -0.2978 0.2256, -0.5906 -0.3003 0.2258, -0.5906 -0.2978 0.2232, -0.5906 -0.2972 0.2163, -0.5906 -0.2972 0.2139, -0.5906 -0.2983 0.2067, -0.5906 -0.2953 0.2067, -0.5906 -0.2953 0.2139, -0.5906 -0.2896 0.2139, -0.5906 -0.2896 0.2067, -0.5906 -0.2953 0.2232, -0.5906 -0.2953 0.2163, -0.5906 -0.2896 0.2232, -0.5906 -0.2896 0.2163, -0.5906 -0.2868 0.2043, -0.5906 -0.2953 0.2043, -0.5906 -0.2983 0.2043, -0.5906 -0.2856 0.2258, -0.5906 -0.2868 0.2256, -0.5906 -0.2953 0.2256, -0.5906 -0.2816 0.2048, -0.5906 -0.2822 0.205, -0.5906 -0.2825 0.2051, -0.5906 -0.2825 0.2078, -0.5906 -0.278 0.2064, -0.5906 -0.2804 0.2068, -0.5906 -0.2816 0.2226, -0.5906 -0.2816 0.2074, -0.5906 -0.2823 0.2223, -0.5906 -0.2825 0.2222, -0.5906 -0.2801 0.2232, -0.5906 -0.2775 0.2235, -0.5906 -0.2694 0.2147, -0.5906 -0.272 0.2082, -0.5906 -0.2734 0.2072, -0.5906 -0.2717 0.2211, -0.5906 -0.2705 0.2195, -0.5906 -0.2731 0.2223, -0.5906 -0.2748 0.2231, -0.5906 -0.2767 0.2235, -0.5906 -0.2698 0.2177, -0.5906 -0.2695 0.2139, -0.5906 -0.2698 0.2118, -0.5906 -0.2749 0.2066, -0.5906 -0.277 0.2064, -0.5906 -0.2705 0.2101, -0.5906 -0.2715 0.2086, -0.5906 -0.2798 0.2258, -0.5906 -0.2803 0.2257, -0.5906 -0.2816 0.2258, -0.5906 -0.2816 0.2254, -0.5906 -0.2825 0.2251, -0.5906 -0.2675 0.3125, -0.5906 -0.2775 0.226, -0.5906 -0.2816 0.3125, -0.5906 -0.2775 0.226, -0.5906 -0.2681 0.2208, -0.5906 -0.2696 0.2228, -0.5906 -0.2702 0.2233, -0.5906 -0.2721 0.2247, -0.5906 -0.2662 0.2258, -0.5906 -0.2671 0.2184, -0.5906 -0.2675 0.2194, -0.5906 -0.2675 0.2097, -0.5906 -0.267 0.211, -0.5906 -0.2662 0.1978, -0.5906 -0.2666 0.2145, -0.5906 -0.2666 0.2156, -0.5906 -0.273 0.2044, -0.5906 -0.271 0.2054, -0.5906 -0.2675 0.1978, -0.5906 -0.2693 0.2068, -0.5906 -0.2679 0.2088, -0.5906 -0.2799 0.2042, -0.5906 -0.2766 0.2039, -0.5906 -0.2753 0.204, -0.5906 -0.2695 0.1776, -0.5906 -0.27 0.182, -0.5906 -0.2689 0.1767, -0.5906 -0.2686 0.1757, -0.5906 -0.2807 0.1704, -0.5906 -0.278 0.1704, -0.5906 -0.2759 0.1837, -0.5906 -0.275 0.1838, -0.5906 -0.2735 0.1794, -0.5906 -0.2805 0.1825, -0.5906 -0.2807 0.1802, -0.5906 -0.2702 0.1783, -0.5906 -0.2713 0.1789, -0.5906 -0.2718 0.1831, -0.5906 -0.2735 0.1837, -0.5906 -0.2707 0.1706, -0.5906 -0.2698 0.1712, -0.5906 -0.2675 0.1702, -0.5906 -0.2695 0.1715, -0.5906 -0.2689 0.1723, -0.5906 -0.278 0.1727, -0.5906 -0.278 0.1727, -0.5906 -0.2776 0.1721, -0.5906 -0.2767 0.1712, -0.5906 -0.2686 0.1732, -0.5906 -0.2685 0.1745, -0.5906 -0.27 0.1846, -0.5906 -0.278 0.1801, -0.5906 -0.278 0.1813, -0.5906 -0.2777 0.1822, -0.5906 -0.2774 0.1828, -0.5906 -0.2705 0.1849, -0.5906 -0.2725 0.1857, -0.5906 -0.2752 0.186, -0.5906 -0.2771 0.1858, -0.5906 -0.2781 0.1854, -0.5906 -0.279 0.1849, -0.5906 -0.2794 0.1844, -0.5906 -0.28 0.1836, -0.5906 -0.277 0.1832, -0.5906 -0.2765 0.1835, -0.5906 -0.2748 0.1702, -0.5906 -0.2747 0.1702, -0.5906 -0.2816 0.1617, -0.5906 -0.2733 0.17, -0.5906 -0.2675 0.1617, -0.5906 -0.2717 0.1702, -0.5906 -0.2717 0.1702, -0.5906 -0.3003 0.1702, -0.5906 -0.3003 0.1747, -0.5906 -0.296 0.1856, -0.5906 -0.299 0.1856, -0.5906 -0.302 0.1704, -0.5906 -0.3019 0.1702, -0.5906 -0.3008 0.1676, -0.5906 -0.2953 0.1617, -0.5906 -0.2966 0.1634, -0.5906 -0.2966 0.1658, -0.5906 -0.2971 0.1656, -0.5906 -0.2981 0.1655, -0.5906 -0.2982 0.1655, -0.5906 -0.2988 0.1656, -0.5906 -0.2994 0.1658, -0.5906 -0.2998 0.1661, -0.5906 -0.3003 0.1667, -0.5906 -0.3003 0.1667, -0.5906 -0.3003 0.1637, -0.5906 -0.2995 0.1634, -0.5906 -0.3003 0.1617, -0.5906 -0.2983 0.1632, -0.5906 -0.2977 0.1632, -0.5906 -0.3203 0.1617, -0.5906 -0.3014 0.1644, -0.5906 -0.3005 0.1638, -0.5906 -0.3037 0.1681, -0.5906 -0.3025 0.1657, -0.5906 -0.4134 0.2258, -0.5906 -0.4134 0.1978, -0.5906 -0.4134 0.1702, -0.5906 -0.3901 0.1702, -0.5906 -0.3507 0.1704, -0.5906 -0.3476 0.1704, -0.5906 -0.347 0.1702, -0.5906 -0.3638 0.1704, -0.5906 -0.3616 0.1762, -0.5906 -0.3527 0.1762, -0.5906 -0.3558 0.1917, -0.5906 -0.3587 0.1917, -0.5906 -0.3669 0.1704, -0.5906 -0.3271 0.2258, -0.5906 -0.329 0.2256, -0.5906 -0.3271 0.2204, -0.5906 -0.3459 0.1775, -0.5906 -0.3448 0.1753, -0.5906 -0.3432 0.1734, -0.5906 -0.341 0.1718, -0.5906 -0.3386 0.1708, -0.5906 -0.3349 0.1704, -0.5906 -0.3291 0.1704, -0.5906 -0.3291 0.1917, -0.5906 -0.3352 0.1917, -0.5906 -0.3384 0.1914, -0.5906 -0.341 0.1904, -0.5906 -0.3432 0.1889, -0.5906 -0.344 0.1882, -0.5906 -0.3453 0.1863, -0.5906 -0.3461 0.1843, -0.5906 -0.3465 0.1813, -0.5906 -0.3464 0.18, -0.5906 -0.3271 0.1617, -0.5906 -0.347 0.1617, -0.5906 -0.3901 0.1617, -0.5906 -0.4134 0.1617, -0.5906 -0.3023 0.2043, -0.5906 -0.3197 0.2139, -0.5906 -0.3191 0.2114, -0.5906 -0.3181 0.2091, -0.5906 -0.3165 0.2073, -0.5906 -0.3186 0.2202, -0.5906 -0.3194 0.2182, -0.5906 -0.3203 0.2258, -0.5906 -0.3197 0.2152, -0.5906 -0.3143 0.2057, -0.5906 -0.3119 0.2047, -0.5906 -0.3082 0.2043, -0.5906 -0.3023 0.2256, -0.5906 -0.3084 0.2256, -0.5906 -0.3117 0.2253, -0.5906 -0.3143 0.2243, -0.5906 -0.3165 0.2228, -0.5906 -0.3172 0.2221, -0.5906 -0.2953 -0.0, -0.5906 -0.3003 -0.0, -0.5906 -0.3203 -0.0, -0.5906 -0.3271 -0.0, -0.5906 -0.347 -0.0, -0.5906 -0.3901 -0.0, -0.5906 -0.4134 -0.0, -0.5906 -0.2816 -0.0, -0.5906 -0.2856 -0.0, -0.5906 -0.2758 0.1706, -0.5906 -0.2856 0.3125, -0.5906 -0.2953 0.3125, -0.5906 -0.3003 0.3125, -0.5906 -0.3203 0.3125, -0.5906 -0.3271 0.3125, -0.5906 -0.347 0.3125, -0.5906 -0.3901 0.3125, -0.5906 -0.2662 0.1617, -0.5906 -0.2662 -0.0, -0.5906 -0.2675 -0.0, -0.5906 -0.2662 0.1702, -0.5906 -0.2654 0.1917, -0.5906 -0.2654 0.1893, -0.5906 -0.2659 0.1728, -0.5906 -0.2659 0.1704, -0.5906 -0.2544 0.1704, -0.5906 -0.2544 0.1917, -0.5906 -0.2572 0.18, -0.5906 -0.2572 0.1728, -0.5906 -0.2648 0.18, -0.5906 -0.2648 0.1824, -0.5906 -0.2572 0.1824, -0.5906 -0.2572 0.1893, -0.5906 -0.2572 0.2256, -0.5906 -0.2572 0.2067, -0.5906 -0.2657 0.2067, -0.5906 -0.2544 0.2043, -0.5906 -0.2544 0.2256, -0.5906 -0.2657 0.2043, -0.5906 -0.2662 0.3125, -0.5906 -0.347 0.3937, -0.5906 -0.3271 0.3937, -0.5906 -0.3203 0.3937, -0.5906 -0.3003 0.3937, -0.5906 -0.2953 0.3937, -0.5906 -0.2856 0.3937, -0.5906 -0.2816 0.3937, -0.5906 -0.2675 0.3937, -0.5906 -0.2662 0.3937, -0.5906 -0.2457 0.3937, -0.5906 -0.0984 0.3937, -0.1969 -0.0984 0.3937, -0.1181 -0.0 0.3937, -0.1969 -0.0984 0.0, -0.1181 -0.0 0.0, -0.1181 -0.5118 0.3937, -0.1969 -0.4134 0.3937, -0.1181 -0.5118 -0.0, -0.1969 -0.4134 -0.0, 0.1181 -0.5118 0.3937, 0.1181 -0.5118 0.0, 0.1969 -0.4134 0.3937, 0.1969 -0.4134 0.0, 0.1969 -0.0984 0.3937, 0.1969 -0.0984 0.0, 0.1181 -0.0 0.3937, 0.1181 -0.0 -0.0, -0.2756 -0.0 0.3937, -0.5118 -0.0 0.3937, -0.5118 -0.5118 0.3937, -0.2756 -0.5118 0.3937, -0.5118 -0.0 0.0, -0.2756 -0.0 0.0, -0.2756 -0.5118 0.0, -0.5118 -0.5118 0.0, -0.5118 -0.5118 0.0
            ]
        }
        coordIndex [
            0,1,2,-1,3,4,5,-1,6,7,8,-1,9,10,11,-1,12,13,14,-1,14,13,15,-1,14,15,16,-1,17,18,19,-1,19,18,14,-1,19,14,20,-1,20,14,21,-1,16,22,14,-1,14,22,23,-1,14,23,21,-1,24,12,25,-1,26,27,28,-1,28,27,25,-1,25,27,29,-1,25,29,24,-1,30,31,32,-1,32,31,33,-1,32,33,34,-1,26,28,35,-1,35,28,31,-1,35,31,36,-1,30,37,31,-1,31,37,38,-1,31,38,39,-1,39,40,31,-1,31,40,41,-1,31,41,36,-1,36,41,42,-1,36,42,43,-1,43,42,44,-1,43,44,45,-1,46,47,48,-1,47,49,48,-1,48,49,50,-1,48,50,51,-1,51,52,48,-1,48,52,53,-1,48,53,33,-1,33,53,54,-1,33,54,34,-1,55,56,57,-1,57,56,58,-1,57,58,48,-1,48,58,59,-1,48,59,46,-1,60,61,62,-1,60,62,63,-1,62,64,63,-1,63,64,65,-1,63,65,57,-1,57,65,66,-1,57,66,55,-1,67,68,69,-1,69,68,70,-1,70,71,69,-1,69,71,72,-1,69,72,73,-1,74,75,76,-1,77,78,79,-1,79,78,80,-1,81,82,83,-1,84,85,78,-1,78,85,86,-1,78,86,87,-1,74,76,88,-1,17,89,18,-1,18,89,90,-1,18,90,83,-1,83,90,91,-1,83,91,81,-1,75,92,76,-1,76,92,93,-1,76,93,94,-1,95,96,97,-1,97,96,98,-1,97,98,99,-1,100,87,101,-1,101,87,102,-1,101,102,97,-1,97,102,103,-1,97,103,95,-1,82,104,83,-1,83,104,105,-1,83,105,106,-1,100,107,87,-1,87,107,108,-1,87,108,78,-1,78,108,109,-1,78,109,80,-1,110,111,67,-1,112,113,76,-1,76,113,114,-1,76,114,78,-1,78,114,115,-1,78,115,84,-1,111,116,67,-1,67,116,117,-1,67,117,118,-1,119,120,121,-1,121,120,122,-1,121,122,76,-1,76,122,123,-1,76,123,88,-1,94,124,76,-1,76,124,125,-1,76,125,126,-1,118,127,67,-1,67,127,128,-1,67,128,129,-1,129,128,119,-1,129,119,130,-1,130,119,121,-1,126,131,76,-1,76,131,132,-1,76,132,112,-1,133,134,135,-1,133,135,136,-1,86,135,87,-1,87,135,137,-1,87,137,138,-1,139,140,141,-1,141,140,142,-1,141,142,143,-1,139,141,86,-1,86,141,144,-1,86,144,135,-1,135,144,145,-1,135,145,136,-1,134,146,135,-1,135,146,147,-1,135,147,148,-1,148,147,149,-1,150,151,152,-1,152,151,153,-1,152,153,154,-1,155,156,149,-1,149,156,157,-1,149,157,148,-1,138,158,87,-1,87,158,152,-1,87,152,159,-1,159,152,154,-1,160,161,162,-1,162,161,163,-1,163,161,164,-1,163,164,165,-1,166,167,160,-1,160,167,161,-1,161,167,168,-1,161,168,169,-1,168,170,169,-1,169,170,171,-1,169,171,172,-1,160,173,166,-1,166,173,174,-1,166,174,175,-1,164,176,165,-1,165,176,177,-1,165,177,178,-1,178,177,179,-1,180,181,182,-1,183,184,185,-1,185,184,186,-1,185,186,162,-1,162,186,187,-1,162,187,160,-1,182,188,180,-1,180,188,189,-1,180,189,190,-1,190,189,191,-1,190,191,183,-1,183,191,179,-1,183,179,184,-1,184,179,177,-1,192,193,194,-1,195,196,197,-1,198,199,194,-1,200,201,202,-1,198,194,203,-1,200,202,194,-1,194,202,204,-1,194,204,203,-1,205,206,207,-1,207,206,208,-1,209,208,210,-1,210,208,206,-1,210,206,192,-1,192,206,205,-1,192,205,193,-1,211,212,11,-1,213,214,215,-1,196,216,197,-1,197,216,217,-1,197,217,215,-1,215,217,218,-1,215,218,213,-1,219,220,11,-1,11,220,221,-1,214,222,215,-1,215,222,223,-1,215,223,224,-1,224,223,225,-1,224,225,211,-1,226,227,212,-1,212,227,228,-1,212,228,11,-1,11,228,229,-1,11,229,219,-1,221,230,11,-1,11,230,231,-1,11,231,9,-1,232,233,234,-1,234,233,235,-1,234,235,236,-1,234,237,232,-1,232,237,238,-1,232,238,239,-1,239,240,232,-1,232,240,241,-1,232,241,242,-1,242,241,243,-1,242,243,244,-1,244,243,245,-1,244,245,212,-1,212,245,246,-1,212,246,226,-1,247,248,236,-1,236,248,249,-1,236,249,234,-1,250,251,201,-1,201,251,252,-1,201,252,202,-1,250,253,251,-1,251,253,254,-1,251,254,255,-1,255,254,256,-1,255,257,258,-1,256,259,255,-1,255,259,260,-1,255,260,261,-1,261,262,255,-1,255,262,263,-1,255,263,257,-1,258,264,255,-1,255,264,265,-1,255,265,266,-1,267,268,269,-1,269,268,162,-1,269,162,270,-1,270,162,271,-1,270,271,272,-1,273,185,274,-1,274,185,162,-1,274,162,275,-1,275,162,268,-1,276,277,278,-1,278,277,279,-1,280,281,282,-1,282,281,283,-1,281,284,283,-1,283,284,285,-1,283,285,286,-1,279,287,288,-1,288,287,289,-1,288,289,290,-1,291,215,292,-1,292,215,224,-1,292,224,293,-1,293,224,183,-1,293,183,282,-1,294,295,276,-1,276,295,296,-1,276,296,277,-1,297,197,298,-1,298,197,215,-1,298,215,299,-1,299,215,300,-1,301,302,303,-1,303,302,304,-1,303,304,305,-1,305,304,300,-1,305,300,306,-1,306,300,215,-1,306,215,294,-1,294,215,291,-1,294,291,295,-1,307,308,309,-1,303,310,311,-1,312,313,314,-1,314,313,315,-1,308,316,309,-1,309,316,315,-1,309,315,317,-1,317,315,313,-1,307,309,303,-1,303,309,318,-1,303,318,319,-1,311,320,303,-1,303,320,321,-1,303,321,301,-1,319,322,303,-1,303,322,323,-1,303,323,310,-1,324,325,326,-1,326,325,327,-1,326,327,294,-1,294,327,328,-1,294,328,306,-1,329,330,331,-1,331,330,332,-1,331,332,324,-1,8,333,334,-1,334,335,8,-1,8,335,336,-1,8,336,6,-1,337,338,8,-1,8,338,339,-1,8,339,333,-1,340,341,342,-1,342,341,343,-1,342,343,337,-1,337,343,344,-1,337,344,338,-1,345,346,347,-1,347,346,348,-1,347,348,349,-1,297,350,197,-1,197,350,351,-1,197,351,347,-1,347,351,352,-1,347,352,345,-1,353,354,355,-1,355,354,356,-1,192,357,358,-1,359,360,361,-1,197,362,363,-1,353,364,354,-1,354,364,365,-1,354,365,366,-1,366,365,361,-1,366,361,367,-1,367,361,360,-1,199,195,194,-1,194,195,197,-1,194,197,192,-1,192,197,363,-1,192,363,357,-1,368,369,370,-1,370,369,371,-1,370,371,372,-1,373,374,358,-1,358,374,375,-1,358,375,376,-1,372,377,370,-1,370,377,378,-1,370,378,347,-1,347,378,356,-1,347,356,379,-1,379,356,354,-1,380,381,361,-1,361,381,382,-1,361,382,383,-1,379,384,347,-1,347,384,385,-1,347,385,197,-1,197,385,386,-1,386,387,197,-1,197,387,388,-1,197,388,389,-1,389,390,197,-1,197,390,391,-1,197,391,362,-1,383,392,361,-1,361,392,393,-1,361,393,359,-1,394,395,396,-1,395,397,398,-1,398,397,399,-1,398,399,370,-1,370,399,400,-1,370,400,368,-1,401,402,11,-1,11,402,403,-1,211,11,224,-1,224,11,403,-1,224,403,183,-1,183,403,404,-1,183,404,190,-1,405,402,406,-1,406,402,401,-1,406,401,407,-1,408,409,410,-1,411,412,11,-1,209,210,10,-1,10,210,408,-1,10,408,11,-1,11,408,410,-1,11,410,411,-1,412,413,11,-1,11,413,414,-1,11,414,415,-1,415,416,11,-1,11,416,417,-1,11,417,401,-1,401,417,418,-1,401,418,407,-1,419,420,421,-1,421,420,422,-1,421,422,408,-1,408,422,423,-1,408,423,409,-1,424,425,421,-1,421,425,426,-1,421,426,419,-1,178,427,424,-1,424,427,428,-1,424,428,425,-1,429,1,430,-1,430,1,0,-1,430,0,431,-1,431,0,432,-1,433,434,435,-1,436,437,438,-1,435,434,271,-1,271,434,439,-1,271,439,440,-1,438,433,436,-1,436,433,435,-1,436,435,441,-1,441,435,432,-1,441,432,440,-1,440,432,0,-1,440,0,271,-1,271,0,2,-1,271,2,272,-1,272,2,442,-1,272,442,443,-1,443,442,444,-1,445,446,435,-1,435,446,447,-1,435,447,448,-1,448,449,435,-1,435,449,450,-1,435,450,163,-1,163,450,451,-1,163,451,162,-1,451,452,162,-1,162,452,453,-1,162,453,271,-1,271,453,454,-1,271,454,455,-1,455,456,271,-1,271,456,457,-1,271,457,458,-1,458,459,271,-1,271,459,460,-1,271,460,435,-1,435,460,461,-1,435,461,445,-1,178,424,165,-1,165,424,462,-1,165,462,163,-1,163,462,463,-1,163,463,435,-1,435,463,464,-1,435,464,432,-1,432,464,465,-1,432,465,431,-1,288,280,279,-1,279,280,282,-1,279,282,278,-1,278,282,183,-1,278,183,466,-1,467,468,185,-1,185,468,469,-1,185,469,470,-1,471,472,473,-1,473,472,474,-1,470,475,185,-1,185,475,476,-1,185,476,183,-1,183,476,477,-1,183,477,466,-1,466,478,278,-1,278,478,479,-1,278,479,473,-1,473,479,480,-1,473,480,481,-1,481,482,473,-1,473,482,483,-1,473,483,471,-1,444,442,273,-1,273,442,473,-1,273,473,185,-1,185,473,474,-1,185,474,467,-1,210,484,408,-1,408,484,485,-1,408,485,421,-1,421,485,486,-1,421,486,424,-1,424,486,487,-1,424,487,462,-1,462,487,488,-1,462,488,463,-1,463,488,489,-1,463,489,464,-1,464,489,490,-1,464,490,465,-1,395,398,396,-1,396,398,491,-1,396,491,492,-1,376,493,358,-1,358,493,394,-1,358,394,192,-1,192,394,396,-1,192,396,210,-1,210,396,492,-1,210,492,484,-1,324,326,331,-1,331,326,294,-1,331,294,494,-1,494,294,276,-1,494,276,495,-1,495,276,278,-1,495,278,496,-1,496,278,473,-1,496,473,497,-1,497,473,442,-1,497,442,498,-1,498,442,2,-1,498,2,499,-1,499,2,1,-1,499,1,500,-1,500,1,429,-1,500,429,3,-1,501,502,503,-1,349,340,347,-1,347,340,342,-1,347,342,370,-1,370,342,504,-1,370,504,398,-1,502,69,60,-1,60,69,73,-1,60,73,61,-1,502,501,69,-1,69,501,83,-1,69,83,67,-1,67,83,106,-1,67,106,110,-1,505,506,342,-1,342,506,507,-1,342,507,504,-1,504,507,508,-1,504,508,509,-1,505,342,510,-1,510,342,18,-1,510,18,509,-1,509,18,83,-1,509,83,504,-1,504,83,501,-1,504,501,398,-1,398,501,503,-1,398,503,491,-1,511,512,513,-1,513,512,507,-1,513,507,514,-1,514,507,506,-1,514,506,515,-1,515,506,516,-1,517,518,519,-1,520,521,14,-1,14,521,517,-1,14,517,337,-1,337,517,519,-1,337,519,342,-1,342,519,522,-1,342,522,18,-1,18,522,520,-1,18,520,14,-1,12,14,25,-1,25,14,337,-1,25,337,523,-1,523,337,8,-1,523,8,329,-1,329,8,7,-1,329,7,330,-1,3,5,500,-1,500,5,524,-1,500,524,499,-1,499,524,525,-1,499,525,498,-1,498,525,526,-1,498,526,497,-1,497,526,527,-1,497,527,496,-1,496,527,528,-1,496,528,495,-1,495,528,529,-1,495,529,494,-1,494,529,530,-1,494,530,331,-1,331,530,531,-1,331,531,329,-1,329,531,532,-1,329,532,523,-1,523,532,533,-1,523,533,25,-1,25,533,534,-1,25,534,28,-1,535,536,537,-1,537,536,538,-1,539,540,541,-1,541,540,542,-1,543,539,544,-1,544,539,541,-1,545,543,546,-1,546,543,544,-1,547,545,548,-1,548,545,546,-1,549,547,550,-1,550,547,548,-1,536,549,538,-1,538,549,550,-1,535,551,552,-1,4,553,554,-1,547,549,536,-1,540,539,543,-1,552,534,535,-1,535,534,4,-1,535,4,540,-1,540,4,554,-1,536,535,547,-1,547,535,540,-1,547,540,545,-1,545,540,543,-1,63,555,556,-1,542,557,558,-1,556,537,63,-1,63,537,542,-1,63,542,490,-1,490,542,558,-1,544,541,546,-1,546,541,542,-1,546,542,548,-1,548,542,537,-1,548,537,550,-1,550,537,538,-1,534,552,63,-1,63,552,555,-1,553,4,558,-1,558,4,490,-1,554,553,557,-1,557,553,558,-1,540,554,542,-1,542,554,557,-1,551,535,556,-1,556,535,537,-1,552,551,555,-1,555,551,556,-1,
        ]
    }
}
Shape{
    appearance Appearance {
        material  Material 	{
            diffuseColor 0.8313725490196079 0.8313725490196079 0.8196078431372549
            specularColor 0.6666666666666666 0.6666666666666666 0.6549019607843137
            ambientIntensity 0.2
            transparency 0
            shininess 0.5
        }
    }
    geometry IndexedFaceSet {
        ccw TRUE
        solid FALSE
        coord DEF co Coordinate {
            point [
                -0.5945 -0.2657 0.2067, -0.5945 -0.2657 0.2043, -0.5906 -0.2657 0.2067, -0.5906 -0.2657 0.2043, -0.5945 -0.2572 0.2067, -0.5906 -0.2572 0.2067, -0.5945 -0.2572 0.2256, -0.5906 -0.2572 0.2256, -0.5945 -0.2544 0.2256, -0.5906 -0.2544 0.2256, -0.5945 -0.2544 0.2043, -0.5906 -0.2544 0.2043, -0.5906 -0.2825 0.2051, -0.5945 -0.2825 0.2051, -0.5945 -0.2822 0.205, -0.5945 -0.2766 0.2039, -0.5906 -0.2766 0.2039, -0.5906 -0.2799 0.2042, -0.5945 -0.2799 0.2042, -0.5906 -0.2816 0.2048, -0.5906 -0.2822 0.205, -0.5945 -0.2825 0.2078, -0.5906 -0.2825 0.2078, -0.5906 -0.2816 0.2074, -0.5945 -0.2804 0.2068, -0.5906 -0.2804 0.2068, -0.5906 -0.278 0.2064, -0.5945 -0.278 0.2064, -0.5906 -0.277 0.2064, -0.5945 -0.277 0.2064, -0.5906 -0.2749 0.2066, -0.5945 -0.2749 0.2066, -0.5906 -0.2734 0.2072, -0.5945 -0.2734 0.2072, -0.5906 -0.272 0.2082, -0.5945 -0.272 0.2082, -0.5906 -0.2715 0.2086, -0.5945 -0.2715 0.2086, -0.5906 -0.2705 0.2101, -0.5945 -0.2705 0.2101, -0.5906 -0.2698 0.2118, -0.5945 -0.2698 0.2118, -0.5906 -0.2695 0.2139, -0.5945 -0.2695 0.2139, -0.5906 -0.2694 0.2147, -0.5945 -0.2694 0.2147, -0.5906 -0.2698 0.2177, -0.5945 -0.2698 0.2177, -0.5906 -0.2705 0.2195, -0.5945 -0.2705 0.2195, -0.5906 -0.2717 0.2211, -0.5945 -0.2717 0.2211, -0.5906 -0.2731 0.2223, -0.5945 -0.2731 0.2223, -0.5906 -0.2748 0.2231, -0.5945 -0.2748 0.2231, -0.5906 -0.2767 0.2235, -0.5945 -0.2767 0.2235, -0.5906 -0.2775 0.2235, -0.5945 -0.2775 0.2235, -0.5906 -0.2825 0.2222, -0.5945 -0.2825 0.2222, -0.5945 -0.2823 0.2223, -0.5906 -0.2801 0.2232, -0.5945 -0.2801 0.2232, -0.5906 -0.2816 0.2226, -0.5906 -0.2823 0.2223, -0.5945 -0.2825 0.2251, -0.5906 -0.2825 0.2251, -0.5906 -0.2775 0.226, -0.5945 -0.2775 0.226, -0.5945 -0.2775 0.226, -0.5906 -0.2816 0.2254, -0.5945 -0.2803 0.2257, -0.5906 -0.2803 0.2257, -0.5906 -0.2798 0.2258, -0.5906 -0.2775 0.226, -0.5906 -0.276 0.2258, -0.5945 -0.2744 0.2256, -0.5906 -0.2744 0.2256, -0.5906 -0.2721 0.2247, -0.5945 -0.2721 0.2247, -0.5906 -0.2702 0.2233, -0.5945 -0.2702 0.2233, -0.5906 -0.2696 0.2228, -0.5945 -0.2696 0.2228, -0.5906 -0.2681 0.2208, -0.5945 -0.2681 0.2208, -0.5906 -0.2675 0.2194, -0.5945 -0.2671 0.2184, -0.5906 -0.2671 0.2184, -0.5906 -0.2666 0.2156, -0.5945 -0.2666 0.2156, -0.5906 -0.2666 0.2145, -0.5945 -0.2666 0.2145, -0.5906 -0.2693 0.2068, -0.5945 -0.2693 0.2068, -0.5945 -0.2679 0.2088, -0.5906 -0.267 0.211, -0.5945 -0.267 0.211, -0.5906 -0.2675 0.2097, -0.5906 -0.2679 0.2088, -0.5906 -0.271 0.2054, -0.5945 -0.271 0.2054, -0.5906 -0.273 0.2044, -0.5945 -0.273 0.2044, -0.5906 -0.2753 0.204, -0.5945 -0.2753 0.204, -0.5945 -0.2983 0.2067, -0.5945 -0.2983 0.2043, -0.5906 -0.2983 0.2067, -0.5906 -0.2983 0.2043, -0.5906 -0.2896 0.2067, -0.5945 -0.2896 0.2067, -0.5906 -0.2953 0.2067, -0.5945 -0.2896 0.2139, -0.5906 -0.2896 0.2139, -0.5906 -0.2972 0.2139, -0.5945 -0.2972 0.2139, -0.5906 -0.2953 0.2139, -0.5945 -0.2972 0.2163, -0.5906 -0.2972 0.2163, -0.5906 -0.2896 0.2163, -0.5945 -0.2896 0.2163, -0.5906 -0.2953 0.2163, -0.5945 -0.2896 0.2232, -0.5906 -0.2896 0.2232, -0.5945 -0.2978 0.2232, -0.5906 -0.2953 0.2232, -0.5906 -0.2978 0.2232, -0.5945 -0.2978 0.2256, -0.5906 -0.2978 0.2256, -0.5906 -0.2868 0.2256, -0.5945 -0.2868 0.2256, -0.5906 -0.2953 0.2256, -0.5945 -0.2868 0.2043, -0.5906 -0.2868 0.2043, -0.5906 -0.2953 0.2043, -0.5945 -0.3165 0.2073, -0.5945 -0.3143 0.2087, -0.5945 -0.3143 0.2057, -0.5945 -0.3129 0.2077, -0.5945 -0.3119 0.2047, -0.5945 -0.3112 0.2071, -0.5945 -0.3082 0.2043, -0.5945 -0.3082 0.2067, -0.5945 -0.3023 0.2043, -0.5945 -0.3051 0.2067, -0.5945 -0.3023 0.2256, -0.5945 -0.3051 0.2232, -0.5945 -0.3084 0.2256, -0.5945 -0.3083 0.2232, -0.5945 -0.3117 0.2253, -0.5945 -0.3111 0.2229, -0.5945 -0.3143 0.2243, -0.5945 -0.3129 0.2222, -0.5945 -0.3165 0.2228, -0.5945 -0.3145 0.2211, -0.5945 -0.3172 0.2221, -0.5945 -0.3151 0.2206, -0.5945 -0.3186 0.2202, -0.5945 -0.3159 0.2194, -0.5945 -0.3194 0.2182, -0.5945 -0.3165 0.2178, -0.5945 -0.3197 0.2152, -0.5945 -0.3168 0.2151, -0.5945 -0.3197 0.2139, -0.5945 -0.3167 0.2134, -0.5945 -0.3191 0.2114, -0.5945 -0.3162 0.2116, -0.5945 -0.3181 0.2091, -0.5945 -0.3155 0.21, -0.5945 -0.3145 0.2089, -0.5906 -0.3082 0.2043, -0.5906 -0.3023 0.2043, -0.5906 -0.3119 0.2047, -0.5906 -0.3143 0.2057, -0.5906 -0.3165 0.2073, -0.5906 -0.3181 0.2091, -0.5906 -0.3191 0.2114, -0.5906 -0.3197 0.2139, -0.5906 -0.3197 0.2152, -0.5906 -0.3194 0.2182, -0.5906 -0.3186 0.2202, -0.5906 -0.3172 0.2221, -0.5906 -0.3165 0.2228, -0.5906 -0.3143 0.2243, -0.5906 -0.3117 0.2253, -0.5906 -0.3084 0.2256, -0.5906 -0.3023 0.2256, -0.5906 -0.3083 0.2232, -0.5906 -0.3051 0.2232, -0.5906 -0.3051 0.2067, -0.5906 -0.3082 0.2067, -0.5906 -0.3145 0.2089, -0.5906 -0.3143 0.2087, -0.5906 -0.3129 0.2077, -0.5906 -0.3112 0.2071, -0.5906 -0.3168 0.2151, -0.5906 -0.3167 0.2134, -0.5906 -0.3162 0.2116, -0.5906 -0.3155 0.21, -0.5906 -0.3145 0.2211, -0.5906 -0.3151 0.2206, -0.5906 -0.3159 0.2194, -0.5906 -0.3165 0.2178, -0.5906 -0.3111 0.2229, -0.5906 -0.3129 0.2222, -0.5906 -0.3129 0.2222
            ]
        }
        coordIndex [
            0,1,2,-1,2,1,3,-1,4,0,5,-1,5,0,2,-1,6,4,7,-1,7,4,5,-1,8,6,9,-1,9,6,7,-1,10,8,11,-1,11,8,9,-1,1,10,3,-1,3,10,11,-1,6,8,4,-1,4,8,10,-1,4,10,0,-1,0,10,1,-1,12,13,14,-1,15,16,17,-1,15,17,18,-1,18,17,19,-1,18,19,14,-1,14,19,20,-1,14,20,12,-1,21,13,22,-1,22,13,12,-1,21,22,23,-1,21,23,24,-1,23,25,24,-1,24,25,26,-1,24,26,27,-1,27,26,28,-1,27,28,29,-1,29,28,30,-1,29,30,31,-1,31,30,32,-1,31,32,33,-1,33,32,34,-1,33,34,35,-1,35,34,36,-1,35,36,37,-1,37,36,38,-1,37,38,39,-1,39,38,40,-1,39,40,41,-1,41,40,42,-1,41,42,43,-1,43,42,44,-1,43,44,45,-1,45,44,46,-1,45,46,47,-1,47,46,48,-1,47,48,49,-1,49,48,50,-1,49,50,51,-1,51,50,52,-1,51,52,53,-1,53,52,54,-1,53,54,55,-1,55,54,56,-1,55,56,57,-1,57,56,58,-1,57,58,59,-1,60,61,62,-1,59,58,63,-1,59,63,64,-1,64,63,65,-1,64,65,62,-1,62,65,66,-1,62,66,60,-1,67,61,68,-1,68,61,60,-1,69,70,71,-1,67,68,72,-1,67,72,73,-1,72,74,73,-1,73,74,75,-1,73,75,71,-1,71,75,76,-1,71,76,69,-1,70,69,77,-1,70,77,78,-1,77,79,78,-1,78,79,80,-1,78,80,81,-1,81,80,82,-1,81,82,83,-1,83,82,84,-1,83,84,85,-1,85,84,86,-1,85,86,87,-1,87,86,88,-1,87,88,89,-1,88,90,89,-1,89,90,91,-1,89,91,92,-1,92,91,93,-1,92,93,94,-1,95,96,97,-1,94,93,98,-1,94,98,99,-1,99,98,100,-1,99,100,97,-1,97,100,101,-1,97,101,95,-1,96,95,102,-1,96,102,103,-1,103,102,104,-1,103,104,105,-1,105,104,106,-1,105,106,107,-1,107,106,16,-1,107,16,15,-1,62,61,67,-1,53,83,51,-1,51,83,85,-1,51,85,49,-1,49,85,87,-1,49,87,47,-1,62,67,64,-1,64,67,73,-1,64,73,59,-1,59,73,71,-1,59,71,57,-1,57,71,70,-1,57,70,55,-1,55,70,78,-1,55,78,53,-1,53,78,81,-1,53,81,83,-1,94,45,92,-1,92,45,47,-1,92,47,89,-1,89,47,87,-1,13,21,14,-1,14,21,24,-1,14,24,18,-1,18,24,27,-1,18,27,15,-1,15,27,29,-1,15,29,107,-1,107,29,31,-1,107,31,105,-1,105,31,33,-1,105,33,103,-1,103,33,35,-1,103,35,96,-1,96,35,37,-1,96,37,97,-1,97,37,39,-1,97,39,99,-1,99,39,41,-1,99,41,94,-1,94,41,43,-1,94,43,45,-1,108,109,110,-1,110,109,111,-1,112,113,114,-1,114,113,108,-1,114,108,110,-1,115,113,116,-1,116,113,112,-1,117,118,119,-1,119,118,115,-1,119,115,116,-1,120,118,121,-1,121,118,117,-1,122,123,124,-1,124,123,120,-1,124,120,121,-1,125,123,126,-1,126,123,122,-1,125,126,127,-1,127,126,128,-1,127,128,129,-1,130,127,131,-1,131,127,129,-1,132,133,134,-1,134,133,130,-1,134,130,131,-1,135,133,136,-1,136,133,132,-1,135,136,109,-1,109,136,137,-1,109,137,111,-1,118,120,115,-1,115,120,123,-1,109,108,135,-1,135,108,113,-1,127,130,125,-1,125,130,133,-1,125,133,123,-1,123,133,135,-1,123,135,115,-1,115,135,113,-1,138,139,140,-1,140,139,141,-1,140,141,142,-1,142,141,143,-1,142,143,144,-1,144,143,145,-1,144,145,146,-1,146,145,147,-1,146,147,148,-1,148,147,149,-1,148,149,150,-1,150,149,151,-1,150,151,152,-1,152,151,153,-1,152,153,154,-1,154,153,155,-1,154,155,156,-1,156,155,157,-1,156,157,158,-1,158,157,159,-1,158,159,160,-1,160,159,161,-1,160,161,162,-1,162,161,163,-1,162,163,164,-1,164,163,165,-1,164,165,166,-1,166,165,167,-1,166,167,168,-1,168,167,169,-1,168,169,170,-1,170,169,171,-1,170,171,138,-1,138,171,172,-1,138,172,139,-1,144,146,173,-1,173,146,174,-1,144,173,175,-1,144,175,142,-1,142,175,176,-1,142,176,140,-1,140,176,177,-1,140,177,138,-1,138,177,178,-1,138,178,170,-1,170,178,179,-1,170,179,168,-1,168,179,180,-1,168,180,166,-1,166,180,181,-1,166,181,164,-1,164,181,182,-1,164,182,162,-1,162,182,183,-1,162,183,160,-1,160,183,184,-1,160,184,158,-1,158,184,185,-1,158,185,156,-1,156,185,186,-1,156,186,154,-1,154,186,187,-1,154,187,152,-1,152,187,188,-1,152,188,150,-1,148,150,189,-1,189,150,188,-1,146,148,174,-1,174,148,189,-1,151,149,190,-1,190,149,191,-1,149,147,191,-1,191,147,192,-1,147,145,192,-1,192,145,193,-1,172,194,195,-1,172,195,139,-1,139,195,196,-1,139,196,141,-1,141,196,197,-1,141,197,143,-1,143,197,193,-1,143,193,145,-1,165,198,199,-1,165,199,167,-1,167,199,200,-1,167,200,169,-1,169,200,201,-1,169,201,171,-1,171,201,194,-1,171,194,172,-1,157,202,203,-1,157,203,159,-1,159,203,204,-1,159,204,161,-1,161,204,205,-1,161,205,163,-1,163,205,198,-1,163,198,165,-1,151,190,206,-1,151,206,153,-1,153,206,207,-1,153,207,155,-1,155,207,202,-1,155,202,157,-1,
        ]
    }
}
Shape{
    appearance Appearance {
        material  Material 	{
            diffuseColor 0.20784313725490197 0.20784313725490197 0.20784313725490197
            specularColor 0.01568627450980392 0.01568627450980392 0.01568627450980392
            ambientIntensity 0.2
            transparency 0
            shininess 0.5
        }
    }
    geometry IndexedFaceSet {
        ccw TRUE
        solid FALSE
        coord DEF co Coordinate {
            point [
                -0.5906 -0.3143 0.2087, -0.5906 -0.3145 0.2089, -0.5906 -0.3083 0.2232, -0.5906 -0.3051 0.2232, -0.5906 -0.3051 0.2067, -0.5906 -0.3082 0.2067, -0.5906 -0.3112 0.2071, -0.5906 -0.3129 0.2077, -0.5906 -0.3155 0.21, -0.5906 -0.3162 0.2116, -0.5906 -0.3167 0.2134, -0.5906 -0.3168 0.2151, -0.5906 -0.3165 0.2178, -0.5906 -0.3159 0.2194, -0.5906 -0.3151 0.2206, -0.5906 -0.3145 0.2211, -0.5906 -0.3111 0.2229, -0.5906 -0.3129 0.2222, -0.5906 -0.3129 0.2222
            ]
        }
        coordIndex [
            0,1,2,-1,3,4,2,-1,2,4,5,-1,5,6,2,-1,2,6,7,-1,2,7,0,-1,1,8,2,-1,2,8,9,-1,2,9,10,-1,10,11,2,-1,2,11,12,-1,2,12,13,-1,13,14,2,-1,2,14,15,-1,2,15,16,-1,16,15,17,-1,
        ]
    }
}
Shape{
    appearance Appearance {
        material  Material 	{
            diffuseColor 0.8313725490196079 0.8313725490196079 0.8196078431372549
            specularColor 0.6666666666666666 0.6666666666666666 0.6549019607843137
            ambientIntensity 0.2
            transparency 0
            shininess 0.5
        }
    }
    geometry IndexedFaceSet {
        ccw TRUE
        solid FALSE
        coord DEF co Coordinate {
            point [
                -0.5945 -0.3269 0.2125, -0.5945 -0.3301 0.2214, -0.5945 -0.329 0.2256, -0.5945 -0.3209 0.2043, -0.5945 -0.3239 0.2043, -0.5945 -0.326 0.2101, -0.5945 -0.3302 0.222, -0.5945 -0.3304 0.2229, -0.5945 -0.332 0.2256, -0.5945 -0.3305 0.2229, -0.5945 -0.3307 0.222, -0.5945 -0.3308 0.2214, -0.5945 -0.334 0.2125, -0.5945 -0.3401 0.2043, -0.5945 -0.3371 0.2043, -0.5945 -0.3349 0.2101, -0.5906 -0.332 0.2256, -0.5906 -0.3401 0.2043, -0.5906 -0.329 0.2256, -0.5906 -0.3209 0.2043, -0.5906 -0.3271 0.2204, -0.5906 -0.3239 0.2043, -0.5906 -0.326 0.2101, -0.5906 -0.3349 0.2101, -0.5906 -0.3271 0.2101, -0.5906 -0.3371 0.2043, -0.5906 -0.3269 0.2125, -0.5906 -0.334 0.2125, -0.5906 -0.3308 0.2214, -0.5906 -0.3305 0.2229, -0.5906 -0.3307 0.222, -0.5906 -0.3304 0.2229, -0.5906 -0.3301 0.2214, -0.5906 -0.3302 0.222, -0.5906 -0.3302 0.222
            ]
        }
        coordIndex [
            0,1,2,-1,3,4,5,-1,1,6,2,-1,2,6,7,-1,2,7,8,-1,8,7,9,-1,8,9,10,-1,10,11,8,-1,8,11,12,-1,8,12,13,-1,14,13,15,-1,15,13,12,-1,15,12,5,-1,5,12,0,-1,5,0,3,-1,3,0,2,-1,8,13,16,-1,16,13,17,-1,2,8,18,-1,18,8,16,-1,19,3,20,-1,20,3,2,-1,20,2,18,-1,4,3,21,-1,21,3,19,-1,5,4,22,-1,22,4,21,-1,23,15,24,-1,24,15,5,-1,24,5,22,-1,14,15,25,-1,25,15,23,-1,13,14,17,-1,17,14,25,-1,0,12,26,-1,26,12,27,-1,12,11,27,-1,27,11,28,-1,9,29,30,-1,9,30,10,-1,10,30,28,-1,10,28,11,-1,9,7,29,-1,29,7,31,-1,1,32,33,-1,1,33,6,-1,6,33,31,-1,6,31,7,-1,1,0,32,-1,32,0,26,-1,
        ]
    }
}
Shape{
    appearance Appearance {
        material  Material 	{
            diffuseColor 0.20784313725490197 0.20784313725490197 0.20784313725490197
            specularColor 0.01568627450980392 0.01568627450980392 0.01568627450980392
            ambientIntensity 0.2
            transparency 0
            shininess 0.5
        }
    }
    geometry IndexedFaceSet {
        ccw TRUE
        solid FALSE
        coord DEF co Coordinate {
            point [
                -0.5906 -0.3305 0.2229, -0.5906 -0.3304 0.2229, -0.5906 -0.3307 0.222, -0.5906 -0.3302 0.222, -0.5906 -0.3308 0.2214, -0.5906 -0.3301 0.2214, -0.5906 -0.334 0.2125, -0.5906 -0.3269 0.2125, -0.5906 -0.3269 0.2125
            ]
        }
        coordIndex [
            0,1,2,-1,2,1,3,-1,2,3,4,-1,4,3,5,-1,4,5,6,-1,6,5,7,-1,
        ]
    }
}
Shape{
    appearance Appearance {
        material  Material 	{
            diffuseColor 0.8313725490196079 0.8313725490196079 0.8196078431372549
            specularColor 0.6666666666666666 0.6666666666666666 0.6549019607843137
            ambientIntensity 0.2
            transparency 0
            shininess 0.5
        }
    }
    geometry IndexedFaceSet {
        ccw TRUE
        solid FALSE
        coord DEF co Coordinate {
            point [
                -0.5945 -0.2659 0.1728, -0.5945 -0.2659 0.1704, -0.5906 -0.2659 0.1728, -0.5906 -0.2659 0.1704, -0.5945 -0.2572 0.1728, -0.5906 -0.2572 0.1728, -0.5945 -0.2572 0.18, -0.5906 -0.2572 0.18, -0.5945 -0.2648 0.18, -0.5906 -0.2648 0.18, -0.5945 -0.2648 0.1824, -0.5906 -0.2648 0.1824, -0.5945 -0.2572 0.1824, -0.5906 -0.2572 0.1824, -0.5945 -0.2572 0.1893, -0.5906 -0.2572 0.1893, -0.5945 -0.2654 0.1893, -0.5906 -0.2654 0.1893, -0.5945 -0.2654 0.1917, -0.5906 -0.2654 0.1917, -0.5945 -0.2544 0.1917, -0.5906 -0.2544 0.1917, -0.5945 -0.2544 0.1704, -0.5906 -0.2544 0.1704, -0.5945 -0.278 0.1704, -0.5945 -0.2807 0.1704, -0.5945 -0.278 0.1727, -0.5945 -0.2807 0.1802, -0.5945 -0.278 0.1801, -0.5945 -0.2722 0.1769, -0.5945 -0.2728 0.1772, -0.5945 -0.278 0.1727, -0.5945 -0.2766 0.1731, -0.5945 -0.2776 0.1721, -0.5945 -0.2758 0.1726, -0.5945 -0.2745 0.1776, -0.5945 -0.278 0.178, -0.5945 -0.278 0.1766, -0.5945 -0.278 0.1764, -0.5945 -0.2779 0.1752, -0.5945 -0.2775 0.1743, -0.5945 -0.2769 0.1735, -0.5945 -0.2771 0.1858, -0.5945 -0.2765 0.1835, -0.5945 -0.2781 0.1854, -0.5945 -0.277 0.1832, -0.5945 -0.278 0.1813, -0.5945 -0.2805 0.1825, -0.5945 -0.2777 0.1822, -0.5945 -0.28 0.1836, -0.5945 -0.2774 0.1828, -0.5945 -0.2794 0.1844, -0.5945 -0.279 0.1849, -0.5945 -0.27 0.1846, -0.5945 -0.27 0.182, -0.5945 -0.2705 0.1849, -0.5945 -0.2718 0.1831, -0.5945 -0.2725 0.1857, -0.5945 -0.2735 0.1837, -0.5945 -0.2752 0.186, -0.5945 -0.275 0.1838, -0.5945 -0.2759 0.1837, -0.5945 -0.2717 0.1731, -0.5945 -0.2698 0.1712, -0.5945 -0.272 0.1729, -0.5945 -0.2707 0.1706, -0.5945 -0.2725 0.1725, -0.5945 -0.2717 0.1702, -0.5945 -0.2731 0.1723, -0.5945 -0.2733 0.17, -0.5945 -0.274 0.1722, -0.5945 -0.2747 0.1702, -0.5945 -0.275 0.1723, -0.5945 -0.2758 0.1706, -0.5945 -0.2767 0.1712, -0.5945 -0.2735 0.1794, -0.5945 -0.2713 0.1789, -0.5945 -0.2719 0.1766, -0.5945 -0.2702 0.1783, -0.5945 -0.2716 0.1762, -0.5945 -0.2695 0.1776, -0.5945 -0.2713 0.1757, -0.5945 -0.2689 0.1767, -0.5945 -0.2712 0.1751, -0.5945 -0.2686 0.1757, -0.5945 -0.2712 0.1747, -0.5945 -0.2685 0.1745, -0.5945 -0.2712 0.1741, -0.5945 -0.2686 0.1732, -0.5945 -0.2714 0.1736, -0.5945 -0.2689 0.1723, -0.5945 -0.2695 0.1715, -0.5906 -0.2752 0.186, -0.5906 -0.2725 0.1857, -0.5906 -0.2705 0.1849, -0.5906 -0.27 0.1846, -0.5906 -0.27 0.182, -0.5906 -0.2718 0.1831, -0.5906 -0.2735 0.1837, -0.5906 -0.275 0.1838, -0.5906 -0.2759 0.1837, -0.5906 -0.2765 0.1835, -0.5906 -0.277 0.1832, -0.5906 -0.2774 0.1828, -0.5906 -0.2777 0.1822, -0.5906 -0.278 0.1813, -0.5906 -0.278 0.1801, -0.5906 -0.2735 0.1794, -0.5906 -0.2713 0.1789, -0.5906 -0.2702 0.1783, -0.5906 -0.2695 0.1776, -0.5906 -0.2689 0.1767, -0.5906 -0.2686 0.1757, -0.5906 -0.2685 0.1745, -0.5906 -0.2686 0.1732, -0.5906 -0.2689 0.1723, -0.5906 -0.2695 0.1715, -0.5906 -0.2698 0.1712, -0.5906 -0.2733 0.17, -0.5906 -0.2717 0.1702, -0.5906 -0.2717 0.1702, -0.5906 -0.2707 0.1706, -0.5906 -0.2747 0.1702, -0.5906 -0.2748 0.1702, -0.5906 -0.2758 0.1706, -0.5906 -0.2767 0.1712, -0.5906 -0.2776 0.1721, -0.5906 -0.278 0.1727, -0.5906 -0.278 0.1727, -0.5906 -0.278 0.1704, -0.5906 -0.2807 0.1704, -0.5906 -0.2807 0.1802, -0.5906 -0.2805 0.1825, -0.5906 -0.28 0.1836, -0.5906 -0.2794 0.1844, -0.5906 -0.279 0.1849, -0.5906 -0.2781 0.1854, -0.5906 -0.2771 0.1858, -0.5906 -0.2719 0.1766, -0.5906 -0.2722 0.1769, -0.5906 -0.2728 0.1772, -0.5906 -0.2745 0.1776, -0.5906 -0.2712 0.1747, -0.5906 -0.2712 0.1751, -0.5906 -0.2713 0.1757, -0.5906 -0.2716 0.1762, -0.5906 -0.272 0.1729, -0.5906 -0.2717 0.1731, -0.5906 -0.2714 0.1736, -0.5906 -0.2712 0.1741, -0.5906 -0.274 0.1722, -0.5906 -0.2731 0.1723, -0.5906 -0.2725 0.1725, -0.5906 -0.2769 0.1735, -0.5906 -0.2766 0.1731, -0.5906 -0.2758 0.1726, -0.5906 -0.275 0.1723, -0.5906 -0.278 0.1766, -0.5906 -0.278 0.1764, -0.5906 -0.2779 0.1752, -0.5906 -0.2775 0.1743, -0.5906 -0.278 0.178, -0.5906 -0.278 0.178
            ]
        }
        coordIndex [
            0,1,2,-1,2,1,3,-1,4,0,5,-1,5,0,2,-1,6,4,7,-1,7,4,5,-1,8,6,9,-1,9,6,7,-1,10,8,11,-1,11,8,9,-1,12,10,13,-1,13,10,11,-1,14,12,15,-1,15,12,13,-1,16,14,17,-1,17,14,15,-1,18,16,19,-1,19,16,17,-1,20,18,21,-1,21,18,19,-1,22,20,23,-1,23,20,21,-1,1,22,3,-1,3,22,23,-1,22,1,0,-1,0,4,22,-1,22,4,6,-1,22,6,20,-1,16,18,14,-1,14,18,20,-1,14,20,12,-1,12,20,6,-1,12,6,10,-1,10,6,8,-1,24,25,26,-1,26,25,27,-1,28,29,30,-1,31,32,33,-1,33,32,34,-1,35,36,27,-1,27,36,37,-1,37,38,27,-1,27,38,39,-1,27,39,26,-1,26,39,40,-1,26,40,31,-1,31,40,41,-1,31,41,32,-1,42,43,44,-1,44,43,45,-1,30,35,28,-1,28,35,27,-1,28,27,46,-1,46,27,47,-1,46,47,48,-1,48,47,49,-1,48,49,50,-1,50,49,51,-1,50,51,45,-1,45,51,52,-1,45,52,44,-1,53,54,55,-1,55,54,56,-1,55,56,57,-1,57,56,58,-1,57,58,59,-1,59,58,60,-1,59,60,42,-1,42,60,61,-1,42,61,43,-1,62,63,64,-1,64,63,65,-1,64,65,66,-1,66,65,67,-1,66,67,68,-1,68,67,69,-1,68,69,70,-1,70,69,71,-1,70,71,72,-1,72,71,73,-1,72,73,34,-1,34,73,74,-1,34,74,33,-1,28,75,29,-1,29,75,76,-1,29,76,77,-1,77,76,78,-1,77,78,79,-1,79,78,80,-1,79,80,81,-1,81,80,82,-1,81,82,83,-1,83,82,84,-1,83,84,85,-1,85,84,86,-1,85,86,87,-1,87,86,88,-1,87,88,89,-1,89,88,90,-1,89,90,62,-1,62,90,91,-1,62,91,63,-1,59,92,93,-1,59,93,57,-1,57,93,94,-1,57,94,55,-1,55,94,95,-1,55,95,53,-1,54,53,96,-1,96,53,95,-1,54,96,97,-1,54,97,56,-1,56,97,98,-1,56,98,58,-1,58,98,99,-1,58,99,60,-1,60,99,100,-1,60,100,61,-1,61,100,101,-1,61,101,43,-1,43,101,102,-1,43,102,45,-1,45,102,103,-1,45,103,50,-1,50,103,104,-1,50,104,48,-1,48,104,105,-1,48,105,46,-1,46,105,106,-1,46,106,28,-1,75,28,107,-1,107,28,106,-1,75,107,108,-1,75,108,76,-1,76,108,109,-1,76,109,78,-1,78,109,110,-1,78,110,80,-1,80,110,111,-1,80,111,82,-1,82,111,112,-1,82,112,84,-1,84,112,113,-1,84,113,86,-1,86,113,114,-1,86,114,88,-1,88,114,115,-1,88,115,90,-1,90,115,116,-1,90,116,91,-1,91,116,117,-1,91,117,63,-1,118,69,119,-1,119,69,67,-1,119,67,120,-1,120,67,65,-1,120,65,121,-1,121,65,63,-1,121,63,117,-1,69,118,122,-1,69,122,71,-1,71,122,123,-1,71,123,73,-1,123,124,73,-1,73,124,125,-1,73,125,74,-1,74,125,126,-1,74,126,33,-1,33,126,127,-1,33,127,31,-1,26,31,128,-1,128,31,127,-1,24,26,129,-1,129,26,128,-1,25,24,130,-1,130,24,129,-1,27,25,131,-1,131,25,130,-1,27,131,132,-1,27,132,47,-1,47,132,133,-1,47,133,49,-1,49,133,134,-1,49,134,51,-1,51,134,135,-1,51,135,52,-1,52,135,136,-1,52,136,44,-1,44,136,137,-1,44,137,42,-1,42,137,92,-1,42,92,59,-1,77,138,139,-1,77,139,29,-1,29,139,140,-1,29,140,30,-1,30,140,141,-1,30,141,35,-1,85,142,143,-1,85,143,83,-1,83,143,144,-1,83,144,81,-1,81,144,145,-1,81,145,79,-1,79,145,138,-1,79,138,77,-1,64,146,147,-1,64,147,62,-1,62,147,148,-1,62,148,89,-1,89,148,149,-1,89,149,87,-1,87,149,142,-1,87,142,85,-1,70,150,151,-1,70,151,68,-1,68,151,152,-1,68,152,66,-1,66,152,146,-1,66,146,64,-1,41,153,154,-1,41,154,32,-1,32,154,155,-1,32,155,34,-1,34,155,156,-1,34,156,72,-1,72,156,150,-1,72,150,70,-1,37,157,158,-1,37,158,38,-1,38,158,159,-1,38,159,39,-1,39,159,160,-1,39,160,40,-1,40,160,153,-1,40,153,41,-1,37,36,157,-1,157,36,161,-1,36,35,161,-1,161,35,141,-1,
        ]
    }
}
Shape{
    appearance Appearance {
        material  Material 	{
            diffuseColor 0.20784313725490197 0.20784313725490197 0.20784313725490197
            specularColor 0.01568627450980392 0.01568627450980392 0.01568627450980392
            ambientIntensity 0.2
            transparency 0
            shininess 0.5
        }
    }
    geometry IndexedFaceSet {
        ccw TRUE
        solid FALSE
        coord DEF co Coordinate {
            point [
                -0.5906 -0.278 0.1764, -0.5906 -0.278 0.1766, -0.5906 -0.2719 0.1766, -0.5906 -0.278 0.178, -0.5906 -0.2745 0.1776, -0.5906 -0.2728 0.1772, -0.5906 -0.2722 0.1769, -0.5906 -0.2779 0.1752, -0.5906 -0.2716 0.1762, -0.5906 -0.2775 0.1743, -0.5906 -0.2717 0.1731, -0.5906 -0.272 0.1729, -0.5906 -0.2766 0.1731, -0.5906 -0.2714 0.1736, -0.5906 -0.2758 0.1726, -0.5906 -0.275 0.1723, -0.5906 -0.274 0.1722, -0.5906 -0.2713 0.1757, -0.5906 -0.2712 0.1751, -0.5906 -0.2769 0.1735, -0.5906 -0.2712 0.1747, -0.5906 -0.2712 0.1741, -0.5906 -0.2725 0.1725, -0.5906 -0.2731 0.1723, -0.5906 -0.2731 0.1723
            ]
        }
        coordIndex [
            0,1,2,-1,1,3,4,-1,4,5,1,-1,1,5,6,-1,1,6,2,-1,0,2,7,-1,7,2,8,-1,7,8,9,-1,10,11,12,-1,10,12,13,-1,14,12,15,-1,15,12,16,-1,8,17,9,-1,9,17,18,-1,9,18,19,-1,19,18,20,-1,19,20,12,-1,12,20,21,-1,12,21,13,-1,11,22,12,-1,12,22,23,-1,12,23,16,-1,
        ]
    }
}
Shape{
    appearance Appearance {
        material  Material 	{
            diffuseColor 0.8313725490196079 0.8313725490196079 0.8196078431372549
            specularColor 0.6666666666666666 0.6666666666666666 0.6549019607843137
            ambientIntensity 0.2
            transparency 0
            shininess 0.5
        }
    }
    geometry IndexedFaceSet {
        ccw TRUE
        solid FALSE
        coord DEF co Coordinate {
            point [
                -0.5906 -0.2843 0.1737, -0.5945 -0.2843 0.1737, -0.5945 -0.2853 0.1731, -0.5945 -0.2887 0.1722, -0.5906 -0.2887 0.1722, -0.5906 -0.287 0.1724, -0.5945 -0.287 0.1724, -0.5906 -0.2856 0.173, -0.5906 -0.2853 0.1731, -0.5945 -0.2843 0.1709, -0.5906 -0.2843 0.1709, -0.5906 -0.2856 0.1705, -0.5945 -0.2862 0.1703, -0.5906 -0.2885 0.17, -0.5945 -0.2885 0.17, -0.5906 -0.2867 0.1702, -0.5906 -0.2862 0.1703, -0.5906 -0.29 0.1702, -0.5945 -0.2909 0.1703, -0.5906 -0.2909 0.1703, -0.5906 -0.2923 0.1709, -0.5945 -0.2923 0.1709, -0.5906 -0.2929 0.1712, -0.5945 -0.2929 0.1712, -0.5906 -0.2937 0.1719, -0.5945 -0.2937 0.1719, -0.5906 -0.2942 0.1726, -0.5945 -0.2942 0.1726, -0.5906 -0.2945 0.1735, -0.5945 -0.2945 0.1735, -0.5906 -0.2946 0.1745, -0.5945 -0.2946 0.1745, -0.5906 -0.2945 0.1755, -0.5945 -0.2945 0.1755, -0.5906 -0.2942 0.1763, -0.5945 -0.2942 0.1763, -0.5906 -0.2937 0.1771, -0.5945 -0.2937 0.1771, -0.5906 -0.2931 0.1776, -0.5945 -0.2931 0.1776, -0.5906 -0.2913 0.1786, -0.5945 -0.2913 0.1786, -0.5906 -0.2903 0.179, -0.5945 -0.2903 0.179, -0.5906 -0.2886 0.1798, -0.5945 -0.2886 0.1798, -0.5906 -0.2877 0.1803, -0.5945 -0.2877 0.1803, -0.5906 -0.2874 0.1806, -0.5945 -0.2874 0.1806, -0.5906 -0.2872 0.181, -0.5945 -0.2872 0.181, -0.5906 -0.2871 0.1814, -0.5945 -0.2871 0.1814, -0.5906 -0.2871 0.1818, -0.5945 -0.2871 0.1818, -0.5906 -0.2872 0.1822, -0.5945 -0.2872 0.1822, -0.5906 -0.2873 0.1825, -0.5945 -0.2873 0.1825, -0.5906 -0.2875 0.1829, -0.5945 -0.2875 0.1829, -0.5906 -0.2879 0.1832, -0.5945 -0.2879 0.1832, -0.5906 -0.2885 0.1836, -0.5945 -0.2885 0.1836, -0.5906 -0.2892 0.1838, -0.5945 -0.2892 0.1838, -0.5906 -0.29 0.1838, -0.5945 -0.29 0.1838, -0.5906 -0.2919 0.1836, -0.5945 -0.2919 0.1836, -0.5906 -0.2934 0.183, -0.5945 -0.2934 0.183, -0.5906 -0.2939 0.1827, -0.5945 -0.2939 0.1827, -0.5945 -0.2939 0.1853, -0.5906 -0.2939 0.1853, -0.5906 -0.2922 0.1858, -0.5945 -0.2922 0.1858, -0.5906 -0.2903 0.186, -0.5945 -0.2903 0.186, -0.5906 -0.2882 0.1857, -0.5945 -0.2882 0.1857, -0.5906 -0.2867 0.1852, -0.5945 -0.2867 0.1852, -0.5906 -0.2861 0.1848, -0.5945 -0.2861 0.1848, -0.5906 -0.2856 0.1843, -0.5945 -0.2853 0.1841, -0.5906 -0.2853 0.1841, -0.5906 -0.2848 0.1833, -0.5945 -0.2848 0.1833, -0.5906 -0.2845 0.1825, -0.5945 -0.2845 0.1825, -0.5906 -0.2844 0.1815, -0.5945 -0.2844 0.1815, -0.5906 -0.2845 0.1805, -0.5945 -0.2845 0.1805, -0.5906 -0.2848 0.1797, -0.5945 -0.2848 0.1797, -0.5906 -0.2851 0.1791, -0.5945 -0.2851 0.1791, -0.5906 -0.2884 0.1771, -0.5945 -0.2884 0.1771, -0.5945 -0.2868 0.1778, -0.5906 -0.2856 0.1787, -0.5945 -0.2856 0.1787, -0.5906 -0.2856 0.1786, -0.5906 -0.2868 0.1778, -0.5906 -0.2902 0.1764, -0.5945 -0.2902 0.1764, -0.5906 -0.2912 0.1757, -0.5945 -0.2912 0.1757, -0.5906 -0.2915 0.1754, -0.5945 -0.2915 0.1754, -0.5906 -0.2917 0.175, -0.5945 -0.2917 0.175, -0.5906 -0.2919 0.1746, -0.5945 -0.2919 0.1746, -0.5906 -0.2919 0.1743, -0.5945 -0.2919 0.1743, -0.5906 -0.2918 0.1738, -0.5945 -0.2918 0.1738, -0.5906 -0.2917 0.1734, -0.5945 -0.2917 0.1734, -0.5906 -0.2915 0.173, -0.5945 -0.2915 0.173, -0.5906 -0.2912 0.1728, -0.5945 -0.2912 0.1728, -0.5906 -0.2909 0.1726, -0.5945 -0.2909 0.1726, -0.5906 -0.2902 0.1724, -0.5945 -0.2902 0.1724, -0.5906 -0.2889 0.1722, -0.5945 -0.2889 0.1722, -0.5945 -0.3079 0.1856, -0.5945 -0.3107 0.1856, -0.5906 -0.3079 0.1856, -0.5906 -0.3107 0.1856, -0.5945 -0.3037 0.1742, -0.5906 -0.3037 0.1742, -0.5906 -0.3035 0.1734, -0.5945 -0.3035 0.1734, -0.5906 -0.3034 0.1729, -0.5945 -0.3034 0.1729, -0.5945 -0.3033 0.1729, -0.5906 -0.3033 0.1729, -0.5945 -0.303 0.1742, -0.5906 -0.303 0.1742, -0.5945 -0.299 0.1856, -0.5906 -0.3003 0.1819, -0.5906 -0.299 0.1856, -0.5945 -0.296 0.1856, -0.5906 -0.296 0.1856, -0.5945 -0.302 0.1704, -0.5906 -0.3003 0.1747, -0.5906 -0.302 0.1704, -0.5906 -0.3008 0.1676, -0.5945 -0.3008 0.1676, -0.5906 -0.3019 0.1702, -0.5906 -0.3003 0.1667, -0.5945 -0.3003 0.1667, -0.5906 -0.3003 0.1667, -0.5906 -0.2998 0.1661, -0.5945 -0.2998 0.1661, -0.5906 -0.2994 0.1658, -0.5945 -0.2994 0.1658, -0.5906 -0.2988 0.1656, -0.5945 -0.2988 0.1656, -0.5906 -0.2982 0.1655, -0.5945 -0.2982 0.1655, -0.5906 -0.2981 0.1655, -0.5945 -0.2981 0.1655, -0.5906 -0.2971 0.1656, -0.5945 -0.2971 0.1656, -0.5906 -0.2966 0.1658, -0.5945 -0.2966 0.1658, -0.5945 -0.2966 0.1634, -0.5906 -0.2966 0.1634, -0.5906 -0.2977 0.1632, -0.5945 -0.2977 0.1632, -0.5906 -0.2983 0.1632, -0.5945 -0.2983 0.1632, -0.5906 -0.2995 0.1634, -0.5945 -0.2995 0.1634, -0.5906 -0.3003 0.1637, -0.5945 -0.3005 0.1638, -0.5906 -0.3005 0.1638, -0.5906 -0.3014 0.1644, -0.5945 -0.3014 0.1644, -0.5906 -0.3025 0.1657, -0.5945 -0.3025 0.1657, -0.5906 -0.3037 0.1681, -0.5945 -0.3037 0.1681, -0.5906 -0.3046 0.1702, -0.5945 -0.325 0.1728, -0.5945 -0.325 0.1704, -0.5906 -0.325 0.1728, -0.5906 -0.325 0.1704, -0.5945 -0.3163 0.1728, -0.5906 -0.3203 0.1728, -0.5906 -0.3163 0.1728, -0.5945 -0.3163 0.18, -0.5906 -0.3163 0.18, -0.5945 -0.3239 0.18, -0.5906 -0.3203 0.18, -0.5906 -0.3239 0.18, -0.5945 -0.3239 0.1824, -0.5906 -0.3239 0.1824, -0.5906 -0.3163 0.1824, -0.5945 -0.3163 0.1824, -0.5906 -0.3203 0.1824, -0.5945 -0.3163 0.1893, -0.5906 -0.3163 0.1893, -0.5906 -0.3246 0.1893, -0.5945 -0.3246 0.1893, -0.5906 -0.3203 0.1893, -0.5945 -0.3246 0.1917, -0.5906 -0.3246 0.1917, -0.5906 -0.3136 0.1917, -0.5945 -0.3136 0.1917, -0.5906 -0.3203 0.1917, -0.5945 -0.3136 0.1704, -0.5906 -0.3136 0.1704, -0.5906 -0.3203 0.1704, -0.5945 -0.3432 0.1734, -0.5945 -0.341 0.1748, -0.5945 -0.341 0.1718, -0.5945 -0.3397 0.1739, -0.5945 -0.3386 0.1708, -0.5945 -0.3379 0.1732, -0.5945 -0.3349 0.1704, -0.5945 -0.3349 0.1728, -0.5945 -0.3291 0.1704, -0.5945 -0.3318 0.1728, -0.5945 -0.3291 0.1917, -0.5945 -0.3318 0.1893, -0.5945 -0.3352 0.1917, -0.5945 -0.3351 0.1893, -0.5945 -0.3384 0.1914, -0.5945 -0.3378 0.189, -0.5945 -0.341 0.1904, -0.5945 -0.3397 0.1883, -0.5945 -0.3432 0.1889, -0.5945 -0.3412 0.1873, -0.5945 -0.344 0.1882, -0.5945 -0.3418 0.1867, -0.5945 -0.3453 0.1863, -0.5945 -0.3426 0.1855, -0.5945 -0.3461 0.1843, -0.5945 -0.3432 0.184, -0.5945 -0.3465 0.1813, -0.5945 -0.3436 0.1813, -0.5945 -0.3464 0.18, -0.5945 -0.3434 0.1796, -0.5945 -0.3459 0.1775, -0.5945 -0.343 0.1777, -0.5945 -0.3448 0.1753, -0.5945 -0.3422 0.1762, -0.5945 -0.3413 0.175, -0.5906 -0.3349 0.1704, -0.5906 -0.3291 0.1704, -0.5906 -0.3386 0.1708, -0.5906 -0.341 0.1718, -0.5906 -0.3432 0.1734, -0.5906 -0.3448 0.1753, -0.5906 -0.3459 0.1775, -0.5906 -0.3464 0.18, -0.5906 -0.3465 0.1813, -0.5906 -0.3461 0.1843, -0.5906 -0.3453 0.1863, -0.5906 -0.344 0.1882, -0.5906 -0.3432 0.1889, -0.5906 -0.341 0.1904, -0.5906 -0.3384 0.1914, -0.5906 -0.3352 0.1917, -0.5906 -0.3291 0.1917, -0.5906 -0.3351 0.1893, -0.5906 -0.3318 0.1893, -0.5906 -0.3318 0.1728, -0.5906 -0.3349 0.1728, -0.5906 -0.3413 0.175, -0.5906 -0.341 0.1748, -0.5906 -0.3397 0.1739, -0.5906 -0.3379 0.1732, -0.5906 -0.3436 0.1813, -0.5906 -0.3434 0.1796, -0.5906 -0.343 0.1777, -0.5906 -0.3422 0.1762, -0.5906 -0.3412 0.1873, -0.5906 -0.3418 0.1867, -0.5906 -0.3426 0.1855, -0.5906 -0.3432 0.184, -0.5906 -0.3378 0.189, -0.5906 -0.3397 0.1883, -0.5906 -0.3397 0.1883
            ]
        }
        coordIndex [
            0,1,2,-1,3,4,5,-1,3,5,6,-1,6,5,7,-1,6,7,2,-1,2,7,8,-1,2,8,0,-1,9,1,10,-1,10,1,0,-1,10,11,9,-1,9,11,12,-1,13,14,15,-1,15,14,12,-1,15,12,16,-1,16,12,11,-1,13,17,14,-1,14,17,18,-1,17,19,18,-1,18,19,20,-1,18,20,21,-1,21,20,22,-1,21,22,23,-1,23,22,24,-1,23,24,25,-1,25,24,26,-1,25,26,27,-1,27,26,28,-1,27,28,29,-1,29,28,30,-1,29,30,31,-1,31,30,32,-1,31,32,33,-1,33,32,34,-1,33,34,35,-1,35,34,36,-1,35,36,37,-1,37,36,38,-1,37,38,39,-1,39,38,40,-1,39,40,41,-1,41,40,42,-1,41,42,43,-1,43,42,44,-1,43,44,45,-1,45,44,46,-1,45,46,47,-1,47,46,48,-1,47,48,49,-1,49,48,50,-1,49,50,51,-1,51,50,52,-1,51,52,53,-1,53,52,54,-1,53,54,55,-1,55,54,56,-1,55,56,57,-1,57,56,58,-1,57,58,59,-1,59,58,60,-1,59,60,61,-1,61,60,62,-1,61,62,63,-1,63,62,64,-1,63,64,65,-1,65,64,66,-1,65,66,67,-1,67,66,68,-1,67,68,69,-1,69,68,70,-1,69,70,71,-1,71,70,72,-1,71,72,73,-1,73,72,74,-1,73,74,75,-1,76,75,77,-1,77,75,74,-1,76,77,78,-1,76,78,79,-1,79,78,80,-1,79,80,81,-1,81,80,82,-1,81,82,83,-1,83,82,84,-1,83,84,85,-1,85,84,86,-1,85,86,87,-1,86,88,87,-1,87,88,89,-1,88,90,89,-1,89,90,91,-1,89,91,92,-1,92,91,93,-1,92,93,94,-1,94,93,95,-1,94,95,96,-1,96,95,97,-1,96,97,98,-1,98,97,99,-1,98,99,100,-1,100,99,101,-1,100,101,102,-1,103,104,105,-1,102,101,106,-1,102,106,107,-1,107,106,108,-1,107,108,105,-1,105,108,109,-1,105,109,103,-1,104,103,110,-1,104,110,111,-1,111,110,112,-1,111,112,113,-1,113,112,114,-1,113,114,115,-1,115,114,116,-1,115,116,117,-1,117,116,118,-1,117,118,119,-1,119,118,120,-1,119,120,121,-1,121,120,122,-1,121,122,123,-1,123,122,124,-1,123,124,125,-1,125,124,126,-1,125,126,127,-1,127,126,128,-1,127,128,129,-1,129,128,130,-1,129,130,131,-1,131,130,132,-1,131,132,133,-1,133,132,134,-1,133,134,135,-1,135,134,4,-1,135,4,3,-1,59,61,87,-1,87,61,85,-1,85,61,63,-1,85,63,83,-1,125,25,27,-1,111,43,104,-1,104,43,45,-1,125,27,123,-1,123,27,29,-1,123,29,121,-1,121,29,31,-1,121,31,119,-1,119,31,33,-1,119,33,117,-1,117,33,35,-1,117,35,115,-1,115,35,37,-1,115,37,113,-1,113,37,39,-1,113,39,111,-1,111,39,41,-1,111,41,43,-1,25,125,23,-1,23,125,127,-1,23,127,21,-1,14,3,12,-1,12,3,6,-1,12,6,9,-1,9,6,2,-1,9,2,1,-1,63,65,83,-1,83,65,67,-1,83,67,81,-1,81,67,69,-1,81,69,79,-1,79,69,71,-1,79,71,76,-1,76,71,73,-1,76,73,75,-1,127,129,21,-1,21,129,131,-1,21,131,18,-1,18,131,133,-1,18,133,14,-1,14,133,135,-1,14,135,3,-1,87,89,59,-1,59,89,92,-1,59,92,57,-1,57,92,94,-1,57,94,55,-1,55,94,96,-1,55,96,53,-1,53,96,98,-1,53,98,51,-1,51,98,100,-1,51,100,49,-1,49,100,102,-1,49,102,47,-1,47,102,107,-1,47,107,45,-1,45,107,105,-1,45,105,104,-1,136,137,138,-1,138,137,139,-1,140,136,141,-1,141,136,138,-1,140,141,142,-1,140,142,143,-1,143,142,144,-1,143,144,145,-1,146,145,147,-1,147,145,144,-1,148,146,149,-1,149,146,147,-1,148,149,150,-1,150,149,151,-1,150,151,152,-1,153,150,154,-1,154,150,152,-1,153,154,155,-1,155,154,156,-1,155,156,157,-1,158,159,160,-1,160,159,155,-1,160,155,157,-1,158,161,159,-1,159,161,162,-1,161,163,162,-1,162,163,164,-1,162,164,165,-1,165,164,166,-1,165,166,167,-1,167,166,168,-1,167,168,169,-1,169,168,170,-1,169,170,171,-1,171,170,172,-1,171,172,173,-1,173,172,174,-1,173,174,175,-1,175,174,176,-1,175,176,177,-1,178,177,179,-1,179,177,176,-1,178,179,180,-1,178,180,181,-1,181,180,182,-1,181,182,183,-1,183,182,184,-1,183,184,185,-1,185,184,186,-1,185,186,187,-1,186,188,187,-1,187,188,189,-1,187,189,190,-1,190,189,191,-1,190,191,192,-1,192,191,193,-1,192,193,194,-1,139,137,195,-1,195,137,194,-1,195,194,193,-1,143,145,194,-1,137,136,194,-1,194,136,140,-1,194,140,143,-1,150,153,148,-1,148,153,155,-1,148,155,146,-1,145,146,194,-1,194,146,155,-1,194,155,192,-1,155,159,192,-1,192,159,162,-1,192,162,190,-1,190,162,165,-1,190,165,187,-1,187,165,167,-1,187,167,185,-1,185,167,169,-1,185,169,183,-1,183,169,171,-1,183,171,181,-1,181,171,173,-1,181,173,178,-1,178,173,175,-1,178,175,177,-1,196,197,198,-1,198,197,199,-1,196,198,200,-1,200,198,201,-1,200,201,202,-1,203,200,204,-1,204,200,202,-1,203,204,205,-1,205,204,206,-1,205,206,207,-1,208,205,209,-1,209,205,207,-1,210,211,212,-1,212,211,208,-1,212,208,209,-1,213,211,214,-1,214,211,210,-1,215,216,217,-1,217,216,213,-1,217,213,214,-1,218,216,219,-1,219,216,215,-1,220,221,222,-1,222,221,218,-1,222,218,219,-1,223,221,224,-1,224,221,220,-1,223,224,197,-1,197,224,225,-1,197,225,199,-1,205,208,203,-1,203,208,211,-1,197,196,223,-1,223,196,200,-1,216,218,213,-1,213,218,221,-1,213,221,211,-1,211,221,223,-1,211,223,203,-1,203,223,200,-1,226,227,228,-1,228,227,229,-1,228,229,230,-1,230,229,231,-1,230,231,232,-1,232,231,233,-1,232,233,234,-1,234,233,235,-1,234,235,236,-1,236,235,237,-1,236,237,238,-1,238,237,239,-1,238,239,240,-1,240,239,241,-1,240,241,242,-1,242,241,243,-1,242,243,244,-1,244,243,245,-1,244,245,246,-1,246,245,247,-1,246,247,248,-1,248,247,249,-1,248,249,250,-1,250,249,251,-1,250,251,252,-1,252,251,253,-1,252,253,254,-1,254,253,255,-1,254,255,256,-1,256,255,257,-1,256,257,258,-1,258,257,259,-1,258,259,226,-1,226,259,260,-1,226,260,227,-1,232,234,261,-1,261,234,262,-1,232,261,263,-1,232,263,230,-1,230,263,264,-1,230,264,228,-1,228,264,265,-1,228,265,226,-1,226,265,266,-1,226,266,258,-1,258,266,267,-1,258,267,256,-1,256,267,268,-1,256,268,254,-1,254,268,269,-1,254,269,252,-1,252,269,270,-1,252,270,250,-1,250,270,271,-1,250,271,248,-1,248,271,272,-1,248,272,246,-1,246,272,273,-1,246,273,244,-1,244,273,274,-1,244,274,242,-1,242,274,275,-1,242,275,240,-1,240,275,276,-1,240,276,238,-1,236,238,277,-1,277,238,276,-1,234,236,262,-1,262,236,277,-1,239,237,278,-1,278,237,279,-1,237,235,279,-1,279,235,280,-1,235,233,280,-1,280,233,281,-1,260,282,283,-1,260,283,227,-1,227,283,284,-1,227,284,229,-1,229,284,285,-1,229,285,231,-1,231,285,281,-1,231,281,233,-1,253,286,287,-1,253,287,255,-1,255,287,288,-1,255,288,257,-1,257,288,289,-1,257,289,259,-1,259,289,282,-1,259,282,260,-1,245,290,291,-1,245,291,247,-1,247,291,292,-1,247,292,249,-1,249,292,293,-1,249,293,251,-1,251,293,286,-1,251,286,253,-1,239,278,294,-1,239,294,241,-1,241,294,295,-1,241,295,243,-1,243,295,290,-1,243,290,245,-1,
        ]
    }
}
Shape{
    appearance Appearance {
        material  Material 	{
            diffuseColor 0.20784313725490197 0.20784313725490197 0.20784313725490197
            specularColor 0.01568627450980392 0.01568627450980392 0.01568627450980392
            ambientIntensity 0.2
            transparency 0
            shininess 0.5
        }
    }
    geometry IndexedFaceSet {
        ccw TRUE
        solid FALSE
        coord DEF co Coordinate {
            point [
                -0.5906 -0.341 0.1748, -0.5906 -0.3413 0.175, -0.5906 -0.3351 0.1893, -0.5906 -0.3318 0.1893, -0.5906 -0.3318 0.1728, -0.5906 -0.3349 0.1728, -0.5906 -0.3379 0.1732, -0.5906 -0.3397 0.1739, -0.5906 -0.3422 0.1762, -0.5906 -0.343 0.1777, -0.5906 -0.3434 0.1796, -0.5906 -0.3436 0.1813, -0.5906 -0.3432 0.184, -0.5906 -0.3426 0.1855, -0.5906 -0.3418 0.1867, -0.5906 -0.3412 0.1873, -0.5906 -0.3378 0.189, -0.5906 -0.3397 0.1883, -0.5906 -0.3397 0.1883
            ]
        }
        coordIndex [
            0,1,2,-1,3,4,2,-1,2,4,5,-1,5,6,2,-1,2,6,7,-1,2,7,0,-1,1,8,2,-1,2,8,9,-1,2,9,10,-1,10,11,2,-1,2,11,12,-1,2,12,13,-1,13,14,2,-1,2,14,15,-1,2,15,16,-1,16,15,17,-1,
        ]
    }
}
Shape{
    appearance Appearance {
        material  Material 	{
            diffuseColor 0.8313725490196079 0.8313725490196079 0.8196078431372549
            specularColor 0.6666666666666666 0.6666666666666666 0.6549019607843137
            ambientIntensity 0.2
            transparency 0
            shininess 0.5
        }
    }
    geometry IndexedFaceSet {
        ccw TRUE
        solid FALSE
        coord DEF co Coordinate {
            point [
                -0.5945 -0.3536 0.1786, -0.5945 -0.3568 0.1875, -0.5945 -0.3558 0.1917, -0.5945 -0.3476 0.1704, -0.5945 -0.3507 0.1704, -0.5945 -0.3527 0.1762, -0.5945 -0.357 0.1882, -0.5945 -0.3572 0.189, -0.5945 -0.3587 0.1917, -0.5945 -0.3572 0.189, -0.5945 -0.3574 0.1881, -0.5945 -0.3575 0.1875, -0.5945 -0.3608 0.1786, -0.5945 -0.3669 0.1704, -0.5945 -0.3638 0.1704, -0.5945 -0.3616 0.1762, -0.5906 -0.3587 0.1917, -0.5906 -0.3669 0.1704, -0.5906 -0.3558 0.1917, -0.5906 -0.3476 0.1704, -0.5906 -0.3507 0.1704, -0.5906 -0.3527 0.1762, -0.5906 -0.3616 0.1762, -0.5906 -0.3638 0.1704, -0.5906 -0.3536 0.1786, -0.5906 -0.3608 0.1786, -0.5906 -0.3575 0.1875, -0.5906 -0.3572 0.189, -0.5906 -0.3574 0.1881, -0.5906 -0.3572 0.189, -0.5906 -0.3568 0.1875, -0.5906 -0.357 0.1882, -0.5906 -0.357 0.1882
            ]
        }
        coordIndex [
            0,1,2,-1,3,4,5,-1,1,6,2,-1,2,6,7,-1,2,7,8,-1,8,7,9,-1,8,9,10,-1,10,11,8,-1,8,11,12,-1,8,12,13,-1,14,13,15,-1,15,13,12,-1,15,12,5,-1,5,12,0,-1,5,0,3,-1,3,0,2,-1,8,13,16,-1,16,13,17,-1,2,8,18,-1,18,8,16,-1,3,2,19,-1,19,2,18,-1,4,3,20,-1,20,3,19,-1,5,4,21,-1,21,4,20,-1,15,5,22,-1,22,5,21,-1,14,15,23,-1,23,15,22,-1,13,14,17,-1,17,14,23,-1,0,12,24,-1,24,12,25,-1,12,11,25,-1,25,11,26,-1,9,27,28,-1,9,28,10,-1,10,28,26,-1,10,26,11,-1,9,7,27,-1,27,7,29,-1,1,30,31,-1,1,31,6,-1,6,31,29,-1,6,29,7,-1,1,0,30,-1,30,0,24,-1,
        ]
    }
}
Shape{
    appearance Appearance {
        material  Material 	{
            diffuseColor 0.20784313725490197 0.20784313725490197 0.20784313725490197
            specularColor 0.01568627450980392 0.01568627450980392 0.01568627450980392
            ambientIntensity 0.2
            transparency 0
            shininess 0.5
        }
    }
    geometry IndexedFaceSet {
        ccw TRUE
        solid FALSE
        coord DEF co Coordinate {
            point [
                -0.5906 -0.3572 0.189, -0.5906 -0.3572 0.189, -0.5906 -0.3574 0.1881, -0.5906 -0.357 0.1882, -0.5906 -0.3575 0.1875, -0.5906 -0.3568 0.1875, -0.5906 -0.3608 0.1786, -0.5906 -0.3536 0.1786, -0.5906 -0.3536 0.1786
            ]
        }
        coordIndex [
            0,1,2,-1,2,1,3,-1,2,3,4,-1,4,3,5,-1,4,5,6,-1,6,5,7,-1,
        ]
    }
}
Shape{
    appearance Appearance {
        material  Material 	{
            diffuseColor 0.8313725490196079 0.8313725490196079 0.8196078431372549
            specularColor 0.6666666666666666 0.6666666666666666 0.6549019607843137
            ambientIntensity 0.2
            transparency 0
            shininess 0.5
        }
    }
    geometry IndexedFaceSet {
        ccw TRUE
        solid FALSE
        coord DEF co Coordinate {
            point [
                -0.5945 -0.1601 0.1674, -0.5945 -0.1624 0.1646, -0.5945 -0.1588 0.1808, -0.5945 -0.2095 0.1882, -0.5945 -0.2047 0.1963, -0.5945 -0.1844 0.1856, -0.5945 -0.1741 0.1811, -0.5945 -0.1756 0.1806, -0.5945 -0.1768 0.1798, -0.5945 -0.1777 0.1787, -0.5945 -0.1882 0.177, -0.5945 -0.1554 0.1828, -0.5945 -0.1561 0.1714, -0.5945 -0.1586 0.1706, -0.5945 -0.1784 0.1774, -0.5945 -0.1787 0.176, -0.5945 -0.1882 0.1755, -0.5945 -0.1788 0.1747, -0.5945 -0.1689 0.1709, -0.5945 -0.1701 0.1701, -0.5945 -0.1653 0.1623, -0.5945 -0.1715 0.1696, -0.5945 -0.2145 0.2033, -0.5945 -0.2157 0.2033, -0.5945 -0.2219 0.2115, -0.5945 -0.2186 0.2029, -0.5945 -0.2227 0.2112, -0.5945 -0.2212 0.2019, -0.5945 -0.2272 0.2089, -0.5945 -0.2313 0.2054, -0.5945 -0.1718 0.2083, -0.5945 -0.1729 0.2077, -0.5945 -0.1682 0.2187, -0.5945 -0.1751 0.2123, -0.5945 -0.1713 0.2224, -0.5945 -0.1784 0.2164, -0.5945 -0.1748 0.2254, -0.5945 -0.1827 0.2195, -0.5945 -0.1785 0.2277, -0.5945 -0.1716 0.1811, -0.5945 -0.1694 0.1904, -0.5945 -0.1702 0.1806, -0.5945 -0.1661 0.1891, -0.5945 -0.169 0.1798, -0.5945 -0.1629 0.1869, -0.5945 -0.168 0.1787, -0.5945 -0.1604 0.1841, -0.5945 -0.1673 0.1774, -0.5945 -0.167 0.176, -0.5945 -0.2313 0.1771, -0.5945 -0.2242 0.1832, -0.5945 -0.2271 0.1736, -0.5945 -0.222 0.1813, -0.5945 -0.2225 0.1713, -0.5945 -0.2193 0.1801, -0.5945 -0.2175 0.1703, -0.5945 -0.2166 0.1796, -0.5945 -0.2085 0.1703, -0.5945 -0.2098 0.1796, -0.5945 -0.2077 0.1704, -0.5945 -0.2137 0.2234, -0.5945 -0.2081 0.2161, -0.5945 -0.2187 0.2177, -0.5945 -0.2114 0.212, -0.5945 -0.2137 0.207, -0.5945 -0.1527 0.1856, -0.5945 -0.1465 0.1779, -0.5945 -0.1507 0.1742, -0.5945 -0.1501 0.1984, -0.5945 -0.1401 0.1961, -0.5945 -0.1496 0.1948, -0.5945 -0.1401 0.1945, -0.5945 -0.1498 0.1924, -0.5945 -0.1407 0.189, -0.5945 -0.1509 0.1887, -0.5945 -0.1427 0.1833, -0.5945 -0.146 0.1785, -0.5945 -0.1785 0.1898, -0.5945 -0.1749 0.1907, -0.5945 -0.173 0.1908, -0.5945 -0.2236 0.2002, -0.5945 -0.2253 0.1983, -0.5945 -0.2344 0.2011, -0.5945 -0.2267 0.1956, -0.5945 -0.2363 0.1965, -0.5945 -0.2274 0.1927, -0.5945 -0.2369 0.1916, -0.5945 -0.2275 0.1914, -0.5945 -0.2362 0.186, -0.5945 -0.2272 0.1885, -0.5945 -0.2343 0.1812, -0.5945 -0.2261 0.1858, -0.5945 -0.2244 0.1834, -0.5945 -0.1855 0.2304, -0.5945 -0.1876 0.2215, -0.5945 -0.1931 0.2313, -0.5945 -0.1932 0.2222, -0.5945 -0.1993 0.2307, -0.5945 -0.1982 0.2216, -0.5945 -0.2069 0.228, -0.5945 -0.203 0.2198, -0.5945 -0.2073 0.2169, -0.5945 -0.1684 0.2095, -0.5945 -0.1664 0.2189, -0.5945 -0.1648 0.2099, -0.5945 -0.1647 0.219, -0.5945 -0.1633 0.2099, -0.5945 -0.1592 0.2184, -0.5945 -0.1595 0.209, -0.5945 -0.1536 0.2164, -0.5945 -0.1561 0.2072, -0.5945 -0.1485 0.2129, -0.5945 -0.1535 0.2048, -0.5945 -0.1472 0.2118, -0.5945 -0.1514 0.2018, -0.5945 -0.1438 0.2075, -0.5945 -0.1413 0.2021, -0.5945 -0.1679 0.172, -0.5945 -0.1673 0.1733, -0.5945 -0.167 0.1747, -0.5945 -0.1729 0.1812, -0.5945 -0.1818 0.1881, -0.5945 -0.1688 0.1609, -0.5945 -0.1724 0.1603, -0.5945 -0.1729 0.1694, -0.5945 -0.173 0.1603, -0.5945 -0.1742 0.1695, -0.5945 -0.1767 0.1607, -0.5945 -0.1755 0.17, -0.5945 -0.1801 0.162, -0.5945 -0.1767 0.1708, -0.5945 -0.1831 0.1641, -0.5945 -0.1777 0.1719, -0.5945 -0.1854 0.1668, -0.5945 -0.1784 0.1732, -0.5945 -0.1872 0.1702, -0.5945 -0.1881 0.1739, -0.5945 -0.209 0.1797, -0.5945 -0.2053 0.1719, -0.5945 -0.2057 0.1715, -0.5945 -0.2041 0.175, -0.5945 -0.2043 0.1739, -0.5945 -0.2047 0.1729, -0.5945 -0.2095 0.1796, -0.5945 -0.2067 0.1708, -0.5945 -0.2077 0.1796, -0.5945 -0.2067 0.1792, -0.5945 -0.2042 0.1755, -0.5945 -0.2057 0.1785, -0.5945 -0.205 0.1777, -0.5945 -0.2044 0.1767, -0.5945 -0.2088 0.1797, -0.5906 -0.2369 0.1916, -0.5906 -0.2363 0.1965, -0.5906 -0.2357 0.1978, -0.5906 -0.2344 0.2011, -0.5906 -0.2313 0.2054, -0.5906 -0.2272 0.2089, -0.5906 -0.2227 0.2112, -0.5906 -0.2219 0.2115, -0.5906 -0.2187 0.2177, -0.5906 -0.2137 0.2234, -0.5906 -0.2102 0.2258, -0.5906 -0.2069 0.228, -0.5906 -0.1993 0.2307, -0.5906 -0.1931 0.2313, -0.5906 -0.1748 0.2254, -0.5906 -0.1754 0.2258, -0.5906 -0.1785 0.2277, -0.5906 -0.1855 0.2304, -0.5906 -0.1713 0.2224, -0.5906 -0.1682 0.2187, -0.5906 -0.1664 0.2189, -0.5906 -0.1647 0.219, -0.5906 -0.1592 0.2184, -0.5906 -0.1536 0.2164, -0.5906 -0.1485 0.2129, -0.5906 -0.1472 0.2118, -0.5906 -0.1401 0.1945, -0.5906 -0.1438 0.2075, -0.5906 -0.1413 0.2021, -0.5906 -0.1405 0.1978, -0.5906 -0.1401 0.1961, -0.5906 -0.1407 0.189, -0.5906 -0.1427 0.1833, -0.5906 -0.146 0.1785, -0.5906 -0.1465 0.1779, -0.5906 -0.1507 0.1742, -0.5906 -0.1561 0.1714, -0.5906 -0.1586 0.1706, -0.5906 -0.1588 0.1702, -0.5906 -0.1601 0.1674, -0.5906 -0.1624 0.1646, -0.5906 -0.1653 0.1623, -0.5906 -0.1667 0.1617, -0.5906 -0.1688 0.1609, -0.5906 -0.1724 0.1603, -0.5906 -0.173 0.1603, -0.5906 -0.1882 0.1755, -0.5906 -0.1767 0.1607, -0.5906 -0.1793 0.1617, -0.5906 -0.1801 0.162, -0.5906 -0.1831 0.1641, -0.5906 -0.1854 0.1668, -0.5906 -0.1872 0.1702, -0.5906 -0.1872 0.1702, -0.5906 -0.1881 0.1739, -0.5906 -0.1882 0.177, -0.5906 -0.2095 0.1882, -0.5906 -0.2047 0.1963, -0.5906 -0.1844 0.1856, -0.5906 -0.1818 0.1881, -0.5906 -0.1785 0.1898, -0.5906 -0.1749 0.1907, -0.5906 -0.173 0.1908, -0.5906 -0.1694 0.1904, -0.5906 -0.1661 0.1891, -0.5906 -0.1629 0.1869, -0.5906 -0.1604 0.1841, -0.5906 -0.1588 0.1808, -0.5906 -0.1554 0.1828, -0.5906 -0.1527 0.1856, -0.5906 -0.1509 0.1887, -0.5906 -0.1498 0.1924, -0.5906 -0.1496 0.1948, -0.5906 -0.15 0.1978, -0.5906 -0.1501 0.1984, -0.5906 -0.1514 0.2018, -0.5906 -0.1535 0.2048, -0.5906 -0.1561 0.2072, -0.5906 -0.1595 0.209, -0.5906 -0.1633 0.2099, -0.5906 -0.1648 0.2099, -0.5906 -0.1684 0.2095, -0.5906 -0.1718 0.2083, -0.5906 -0.1729 0.2077, -0.5906 -0.1751 0.2123, -0.5906 -0.1784 0.2164, -0.5906 -0.1827 0.2195, -0.5906 -0.1876 0.2215, -0.5906 -0.1932 0.2222, -0.5906 -0.1982 0.2216, -0.5906 -0.203 0.2198, -0.5906 -0.2073 0.2169, -0.5906 -0.2081 0.2161, -0.5906 -0.2114 0.212, -0.5906 -0.2137 0.207, -0.5906 -0.2145 0.2033, -0.5906 -0.2157 0.2033, -0.5906 -0.2186 0.2029, -0.5906 -0.2212 0.2019, -0.5906 -0.2236 0.2002, -0.5906 -0.2253 0.1983, -0.5906 -0.2256 0.1978, -0.5906 -0.2267 0.1956, -0.5906 -0.2274 0.1927, -0.5906 -0.2275 0.1914, -0.5906 -0.2272 0.1885, -0.5906 -0.2261 0.1858, -0.5906 -0.2244 0.1834, -0.5906 -0.2242 0.1832, -0.5906 -0.222 0.1813, -0.5906 -0.2193 0.1801, -0.5906 -0.2166 0.1796, -0.5906 -0.2098 0.1796, -0.5906 -0.2095 0.1796, -0.5906 -0.209 0.1797, -0.5906 -0.2088 0.1797, -0.5906 -0.2077 0.1796, -0.5906 -0.2067 0.1792, -0.5906 -0.2057 0.1785, -0.5906 -0.205 0.1777, -0.5906 -0.2044 0.1767, -0.5906 -0.2042 0.1755, -0.5906 -0.2041 0.175, -0.5906 -0.2043 0.1739, -0.5906 -0.2047 0.1729, -0.5906 -0.2053 0.1719, -0.5906 -0.2057 0.1715, -0.5906 -0.2067 0.1708, -0.5906 -0.2077 0.1704, -0.5906 -0.2085 0.1703, -0.5906 -0.2175 0.1703, -0.5906 -0.2225 0.1713, -0.5906 -0.2271 0.1736, -0.5906 -0.2313 0.1771, -0.5906 -0.2343 0.1812, -0.5906 -0.2362 0.186, -0.5906 -0.1729 0.1812, -0.5906 -0.1741 0.1811, -0.5906 -0.1756 0.1806, -0.5906 -0.1768 0.1798, -0.5906 -0.1777 0.1787, -0.5906 -0.1784 0.1774, -0.5906 -0.1787 0.176, -0.5906 -0.1788 0.1747, -0.5906 -0.1784 0.1732, -0.5906 -0.1777 0.1719, -0.5906 -0.1767 0.1708, -0.5906 -0.1755 0.17, -0.5906 -0.1742 0.1695, -0.5906 -0.1729 0.1694, -0.5906 -0.1715 0.1696, -0.5906 -0.1701 0.1701, -0.5906 -0.1689 0.1709, -0.5906 -0.1679 0.172, -0.5906 -0.1673 0.1733, -0.5906 -0.167 0.1747, -0.5906 -0.167 0.176, -0.5906 -0.1673 0.1774, -0.5906 -0.168 0.1787, -0.5906 -0.169 0.1798, -0.5906 -0.1702 0.1806, -0.5906 -0.1716 0.1811, -0.5906 -0.1716 0.1811
            ]
        }
        coordIndex [
            0,1,2,-1,3,4,5,-1,6,7,3,-1,7,8,3,-1,3,8,9,-1,3,9,10,-1,11,12,2,-1,2,12,13,-1,2,13,0,-1,9,14,10,-1,10,14,15,-1,10,15,16,-1,16,15,17,-1,18,1,19,-1,19,1,20,-1,19,20,21,-1,22,23,24,-1,24,23,25,-1,24,25,26,-1,26,25,27,-1,26,27,28,-1,28,27,29,-1,30,31,32,-1,32,31,33,-1,32,33,34,-1,34,33,35,-1,34,35,36,-1,36,35,37,-1,36,37,38,-1,39,40,41,-1,41,40,42,-1,41,42,43,-1,43,42,44,-1,43,44,45,-1,45,44,46,-1,45,46,47,-1,47,46,2,-1,47,2,48,-1,49,50,51,-1,51,50,52,-1,51,52,53,-1,53,52,54,-1,53,54,55,-1,55,54,56,-1,55,56,57,-1,57,56,58,-1,57,58,59,-1,60,61,62,-1,62,61,63,-1,62,63,24,-1,24,63,64,-1,24,64,22,-1,65,66,11,-1,11,66,67,-1,11,67,12,-1,68,69,70,-1,70,69,71,-1,70,71,72,-1,72,71,73,-1,72,73,74,-1,74,73,75,-1,74,75,65,-1,65,75,76,-1,65,76,66,-1,77,78,39,-1,39,78,79,-1,39,79,40,-1,27,80,29,-1,29,80,81,-1,29,81,82,-1,82,81,83,-1,82,83,84,-1,84,83,85,-1,84,85,86,-1,86,85,87,-1,86,87,88,-1,88,87,89,-1,88,89,90,-1,90,89,91,-1,90,91,49,-1,49,91,92,-1,49,92,50,-1,38,37,93,-1,93,37,94,-1,93,94,95,-1,95,94,96,-1,95,96,97,-1,97,96,98,-1,97,98,99,-1,99,98,100,-1,99,100,60,-1,60,100,101,-1,60,101,61,-1,30,32,102,-1,102,32,103,-1,102,103,104,-1,104,103,105,-1,104,105,106,-1,106,105,107,-1,106,107,108,-1,108,107,109,-1,108,109,110,-1,110,109,111,-1,110,111,112,-1,112,111,113,-1,112,113,114,-1,114,113,115,-1,114,115,68,-1,68,115,116,-1,68,116,69,-1,18,117,1,-1,1,117,118,-1,1,118,2,-1,2,118,119,-1,2,119,48,-1,6,3,120,-1,120,3,5,-1,120,5,39,-1,39,5,121,-1,39,121,77,-1,20,122,21,-1,21,122,123,-1,21,123,124,-1,124,123,125,-1,124,125,126,-1,126,125,127,-1,126,127,128,-1,128,127,129,-1,128,129,130,-1,130,129,131,-1,130,131,132,-1,132,131,133,-1,132,133,134,-1,134,133,135,-1,134,135,17,-1,17,135,136,-1,17,136,16,-1,137,138,139,-1,140,141,137,-1,137,141,142,-1,137,142,138,-1,58,143,59,-1,59,143,137,-1,59,137,144,-1,144,137,139,-1,145,146,147,-1,146,148,147,-1,147,148,149,-1,147,149,150,-1,140,137,147,-1,147,137,151,-1,147,151,145,-1,86,152,153,-1,86,153,84,-1,84,153,154,-1,84,154,82,-1,154,155,82,-1,82,155,156,-1,82,156,29,-1,29,156,157,-1,29,157,28,-1,28,157,158,-1,28,158,26,-1,26,158,159,-1,26,159,24,-1,24,159,160,-1,24,160,62,-1,62,160,161,-1,62,161,60,-1,60,161,99,-1,99,161,162,-1,162,163,99,-1,99,163,164,-1,99,164,97,-1,97,164,165,-1,97,165,95,-1,166,36,167,-1,167,36,38,-1,167,38,168,-1,168,38,93,-1,168,93,169,-1,169,93,95,-1,169,95,165,-1,36,166,170,-1,36,170,34,-1,34,170,171,-1,34,171,32,-1,32,171,172,-1,32,172,103,-1,103,172,173,-1,103,173,105,-1,105,173,174,-1,105,174,107,-1,107,174,175,-1,107,175,109,-1,109,175,176,-1,109,176,111,-1,111,176,177,-1,111,177,113,-1,178,71,69,-1,113,177,179,-1,113,179,115,-1,115,179,180,-1,115,180,116,-1,116,180,181,-1,116,181,69,-1,69,181,182,-1,69,182,178,-1,71,178,183,-1,71,183,73,-1,73,183,184,-1,73,184,75,-1,75,184,185,-1,75,185,76,-1,76,185,186,-1,76,186,66,-1,66,186,187,-1,66,187,67,-1,67,187,188,-1,67,188,12,-1,12,188,189,-1,12,189,13,-1,13,189,190,-1,13,190,0,-1,190,191,0,-1,0,191,192,-1,0,192,1,-1,1,192,193,-1,1,193,20,-1,20,193,194,-1,20,194,122,-1,194,195,122,-1,122,195,196,-1,122,196,123,-1,123,196,197,-1,123,197,125,-1,198,16,136,-1,125,197,199,-1,125,199,127,-1,127,199,200,-1,127,200,129,-1,200,201,129,-1,129,201,202,-1,129,202,131,-1,131,202,203,-1,131,203,133,-1,133,203,204,-1,133,204,135,-1,135,204,205,-1,135,205,136,-1,136,205,206,-1,136,206,198,-1,10,16,207,-1,207,16,198,-1,3,10,208,-1,208,10,207,-1,4,3,209,-1,209,3,208,-1,5,4,210,-1,210,4,209,-1,5,210,211,-1,5,211,121,-1,121,211,212,-1,121,212,77,-1,77,212,213,-1,77,213,78,-1,78,213,214,-1,78,214,79,-1,79,214,215,-1,79,215,40,-1,40,215,216,-1,40,216,42,-1,42,216,217,-1,42,217,44,-1,44,217,218,-1,44,218,46,-1,46,218,219,-1,46,219,2,-1,2,219,220,-1,2,220,11,-1,11,220,221,-1,11,221,65,-1,65,221,222,-1,65,222,74,-1,74,222,223,-1,74,223,72,-1,72,223,224,-1,72,224,70,-1,224,225,70,-1,70,225,68,-1,225,226,68,-1,68,226,227,-1,68,227,114,-1,114,227,228,-1,114,228,112,-1,112,228,229,-1,112,229,110,-1,110,229,230,-1,110,230,108,-1,108,230,231,-1,108,231,106,-1,106,231,232,-1,106,232,104,-1,104,232,233,-1,104,233,102,-1,102,233,234,-1,102,234,30,-1,30,234,235,-1,30,235,31,-1,31,235,236,-1,31,236,33,-1,33,236,237,-1,33,237,35,-1,35,237,238,-1,35,238,37,-1,37,238,239,-1,37,239,94,-1,94,239,240,-1,94,240,96,-1,96,240,241,-1,96,241,98,-1,98,241,242,-1,98,242,100,-1,100,242,243,-1,100,243,101,-1,101,243,244,-1,101,244,61,-1,61,244,245,-1,61,245,63,-1,63,245,246,-1,63,246,64,-1,64,246,247,-1,64,247,22,-1,23,22,248,-1,248,22,247,-1,23,248,249,-1,23,249,25,-1,25,249,250,-1,25,250,27,-1,27,250,251,-1,27,251,80,-1,80,251,252,-1,80,252,81,-1,81,252,253,-1,81,253,83,-1,253,254,83,-1,83,254,255,-1,83,255,85,-1,85,255,256,-1,85,256,87,-1,87,256,257,-1,87,257,89,-1,89,257,258,-1,89,258,91,-1,91,258,259,-1,91,259,92,-1,92,259,260,-1,92,260,50,-1,50,260,261,-1,50,261,52,-1,52,261,262,-1,52,262,54,-1,54,262,263,-1,54,263,56,-1,58,56,264,-1,264,56,263,-1,58,264,265,-1,58,265,143,-1,143,265,266,-1,143,266,137,-1,137,266,267,-1,137,267,151,-1,151,267,268,-1,151,268,145,-1,145,268,269,-1,145,269,146,-1,146,269,270,-1,146,270,148,-1,148,270,271,-1,148,271,149,-1,149,271,272,-1,149,272,150,-1,150,272,273,-1,150,273,147,-1,147,273,274,-1,147,274,140,-1,140,274,275,-1,140,275,141,-1,141,275,276,-1,141,276,142,-1,142,276,277,-1,142,277,138,-1,138,277,278,-1,138,278,139,-1,139,278,279,-1,139,279,144,-1,144,279,280,-1,144,280,59,-1,59,280,281,-1,59,281,57,-1,55,57,282,-1,282,57,281,-1,55,282,283,-1,55,283,53,-1,53,283,284,-1,53,284,51,-1,51,284,285,-1,51,285,49,-1,49,285,286,-1,49,286,90,-1,90,286,287,-1,90,287,88,-1,88,287,152,-1,88,152,86,-1,120,288,289,-1,120,289,6,-1,6,289,290,-1,6,290,7,-1,7,290,291,-1,7,291,8,-1,8,291,292,-1,8,292,9,-1,9,292,293,-1,9,293,14,-1,14,293,294,-1,14,294,15,-1,15,294,295,-1,15,295,17,-1,17,295,296,-1,17,296,134,-1,134,296,297,-1,134,297,132,-1,132,297,298,-1,132,298,130,-1,130,298,299,-1,130,299,128,-1,128,299,300,-1,128,300,126,-1,126,300,301,-1,126,301,124,-1,124,301,302,-1,124,302,21,-1,21,302,303,-1,21,303,19,-1,19,303,304,-1,19,304,18,-1,18,304,305,-1,18,305,117,-1,117,305,306,-1,117,306,118,-1,118,306,307,-1,118,307,119,-1,119,307,308,-1,119,308,48,-1,48,308,309,-1,48,309,47,-1,47,309,310,-1,47,310,45,-1,45,310,311,-1,45,311,43,-1,43,311,312,-1,43,312,41,-1,41,312,313,-1,41,313,39,-1,39,313,288,-1,39,288,120,-1,
        ]
    }
}
Shape{
    appearance Appearance {
        material  Material 	{
            diffuseColor 0.20784313725490197 0.20784313725490197 0.20784313725490197
            specularColor 0.01568627450980392 0.01568627450980392 0.01568627450980392
            ambientIntensity 0.2
            transparency 0
            shininess 0.5
        }
    }
    geometry IndexedFaceSet {
        ccw TRUE
        solid FALSE
        coord DEF co Coordinate {
            point [
                -0.5906 -0.1729 0.1812, -0.5906 -0.1729 0.1694, -0.5906 -0.1742 0.1695, -0.5906 -0.1702 0.1806, -0.5906 -0.167 0.176, -0.5906 -0.1716 0.1811, -0.5906 -0.167 0.1747, -0.5906 -0.1777 0.1719, -0.5906 -0.1784 0.1732, -0.5906 -0.1788 0.1747, -0.5906 -0.1784 0.1774, -0.5906 -0.1777 0.1787, -0.5906 -0.1768 0.1798, -0.5906 -0.1673 0.1733, -0.5906 -0.1679 0.172, -0.5906 -0.1689 0.1709, -0.5906 -0.1756 0.1806, -0.5906 -0.1741 0.1811, -0.5906 -0.169 0.1798, -0.5906 -0.168 0.1787, -0.5906 -0.1673 0.1774, -0.5906 -0.1701 0.1701, -0.5906 -0.1715 0.1696, -0.5906 -0.1787 0.176, -0.5906 -0.1755 0.17, -0.5906 -0.1767 0.1708, -0.5906 -0.1767 0.1708
            ]
        }
        coordIndex [
            0,1,2,-1,3,4,5,-1,5,4,6,-1,5,6,0,-1,7,8,9,-1,10,11,2,-1,2,11,12,-1,6,13,0,-1,0,13,14,-1,0,14,15,-1,12,16,2,-1,2,16,17,-1,2,17,0,-1,3,18,4,-1,4,18,19,-1,4,19,20,-1,15,21,0,-1,0,21,22,-1,0,22,1,-1,10,2,23,-1,23,2,24,-1,23,24,9,-1,9,24,25,-1,9,25,7,-1,
        ]
    }
}