#VRML V2.0 utf8
# 3D model generated by easyeda2kicad.py (https://github.com/uPesy/easyeda2kicad.py)

Shape{
    appearance Appearance {
        material  Material 	{
            diffuseColor 0.11372549019607843 0.11372549019607843 0.11372549019607843
            specularColor 0.058823529411764705 0.058823529411764705 0.058823529411764705
            ambientIntensity 0.2
            transparency 0
            shininess 0.5
        }
    }
    geometry IndexedFaceSet {
        ccw TRUE
        solid FALSE
        coord DEF co Coordinate {
            point [
                -0.3468 -0.3524 0.0, 0.0492 -0.5906 0.0, -0.5716 -0.3524 0.0, -0.5906 -0.5906 0.0, -0.5829 -0.3406 0.0, -0.5906 -0.3406 0.0, 0.0736 -0.4435 0.0, -0.0801 -0.2101 0.0, -0.0082 -0.1975 0.0, 0.0977 -0.4371 0.0, 0.055 -0.161 0.0, 0.0977 -0.1101 0.0, -0.2757 -0.2101 0.0, 0.0558 -0.4614 0.0, 0.0492 -0.4858 0.0, 0.2957 -0.437 0.0, 0.2949 -0.437 0.0, 0.4435 -0.3201 0.0, 0.437 -0.2957 0.0, 0.5906 -0.3445 0.0, 0.5906 -0.5906 0.0, 0.4858 -0.3445 0.0, 0.3445 -0.5906 0.0, 0.4614 -0.3379 0.0, 0.2705 -0.4435 0.0, 0.1476 -0.4858 0.0, 0.4614 0.0558 0.0, 0.1411 -0.4614 0.0, 0.4435 0.0736 0.0, 0.1232 -0.4435 0.0, 0.437 0.098 0.0, 0.437 0.0988 0.0, 0.1897 0.2725 0.0, 0.1957 0.2716 0.0, 0.1019 0.1051 0.0, 0.1996 0.2715 0.0, 0.2052 0.2725 0.0, 0.4858 0.2461 0.0, 0.5906 0.2461 0.0, 0.5906 0.1476 0.0, 0.4614 -0.1411 0.0, 0.4435 -0.1232 0.0, 0.437 -0.0988 0.0, 0.2461 -0.5906 0.0, 0.1476 -0.5906 0.0, 0.2461 -0.4858 0.0, 0.2526 -0.4614 0.0, 0.4435 0.1232 0.0, 0.4614 0.2526 0.0, 0.4614 0.1411 0.0, 0.4858 0.1476 0.0, 0.0988 -0.437 0.0, 0.1019 -0.1051 0.0, 0.098 -0.437 0.0, 0.5906 0.0492 0.0, 0.5906 -0.0492 0.0, 0.4858 0.0492 0.0, 0.4858 -0.0492 0.0, 0.5906 -0.1476 0.0, 0.5906 -0.2461 0.0, 0.4858 -0.1476 0.0, 0.4858 -0.2461 0.0, 0.1269 -0.0365 0.0, 0.1269 0.0365 0.0, 0.4435 0.2705 0.0, 0.4614 -0.0558 0.0, 0.4435 -0.0736 0.0, 0.437 -0.098 0.0, 0.4614 -0.2526 0.0, 0.4435 -0.2705 0.0, 0.437 -0.2949 0.0, 0.3445 -0.4858 0.0, 0.3379 -0.4614 0.0, 0.3201 -0.4435 0.0, 0.1492 0.3522 0.0, 0.1048 0.3522 0.0, 0.0977 0.4371 0.0, 0.1048 0.3442 0.0, 0.0977 0.2725 0.0, 0.1048 0.3119 0.0, 0.1048 0.3199 0.0, 0.1421 0.3199 0.0, 0.1421 0.3442 0.0, 0.2885 0.2735 0.0, 0.2512 0.2735 0.0, 0.2175 0.2747 0.0, 0.2251 0.2789 0.0, 0.1678 0.3409 0.0, 0.1654 0.3378 0.0, 0.0988 0.437 0.0, 0.4614 0.3379 0.0, 0.2885 0.3522 0.0, 0.4858 0.3445 0.0, 0.5906 0.5906 0.0, 0.5906 0.3445 0.0, 0.1421 0.3119 0.0, 0.1421 0.2816 0.0, 0.1048 0.2816 0.0, 0.1048 0.2735 0.0, 0.1492 0.2735 0.0, 0.1654 0.288 0.0, 0.1805 0.2756 0.0, 0.4435 0.3201 0.0, 0.437 0.2957 0.0, 0.3201 0.4435 0.0, 0.3379 0.4614 0.0, 0.3445 0.4858 0.0, 0.3445 0.5906 0.0, 0.098 0.437 0.0, 0.2176 0.3419 0.0, 0.2298 0.3309 0.0, 0.2002 0.3462 0.0, 0.2349 0.316 0.0, 0.235 0.3128 0.0, 0.2309 0.2966 0.0, 0.2201 0.2852 0.0, 0.2046 0.2798 0.0, 0.1894 0.2725 0.0, 0.443 0.2725 0.0, 0.437 0.2949 0.0, 0.1476 0.5906 0.0, 0.2461 0.5906 0.0, 0.1476 0.4858 0.0, 0.2461 0.4858 0.0, 0.1715 0.2927 0.0, 0.1715 0.3331 0.0, 0.1841 0.2829 0.0, 0.1843 0.3429 0.0, 0.1997 0.2796 0.0, 0.1917 0.3454 0.0, 0.1969 0.3461 0.0, 0.2296 0.2826 0.0, 0.2321 0.2853 0.0, 0.2512 0.2816 0.0, 0.2397 0.2984 0.0, 0.2815 0.2816 0.0, 0.2421 0.3133 0.0, 0.2815 0.3522 0.0, 0.237 0.3335 0.0, 0.2235 0.3477 0.0, 0.2526 0.4614 0.0, 0.1411 0.4614 0.0, 0.2705 0.4435 0.0, 0.2949 0.437 0.0, 0.2957 0.437 0.0, 0.2032 0.3541 0.0, 0.1997 0.3543 0.0, 0.1232 0.4435 0.0, 0.1805 0.3502 0.0, 0.1724 0.3452 0.0, 0.0663 0.2735 0.0, 0.0907 0.2735 0.0, 0.0907 0.3522 0.0, 0.016 0.2735 0.0, 0.0419 0.279 0.0, 0.0578 0.2739 0.0, -0.5906 0.5906 0.0, 0.0492 0.5906 0.0, 0.0492 0.4858 0.0, -0.0511 0.2735 0.0, -0.0587 0.2735 0.0, -0.3069 0.2725 0.0, -0.0224 0.3522 0.0, -0.3468 0.3524 0.0, 0.0082 0.2735 0.0, -0.0037 0.2987 0.0, -0.0394 0.2987 0.0, -0.0214 0.3522 0.0, 0.0558 0.4614 0.0, 0.0736 0.4435 0.0, -0.5829 0.3406 0.0, -0.5906 0.3406 0.0, -0.5716 0.3524 0.0, 0.0275 0.3243 0.0, 0.0261 0.3119 0.0, 0.0305 0.2921 0.0, 0.0622 0.3518 0.0, 0.0498 0.3494 0.0, 0.0356 0.3399 0.0, 0.0748 0.3522 0.0, 0.0977 0.1101 0.0, 0.055 0.161 0.0, -0.2757 0.2101 0.0, -0.0801 0.2101 0.0, -0.0082 0.1975 0.0, -0.5672 -0.1437 0.0, -0.5672 -0.2618 0.0, -0.5906 -0.1437 0.0, -0.5906 -0.2618 0.0, -0.5672 0.2618 0.0, -0.5672 0.1437 0.0, -0.5906 0.2618 0.0, -0.5906 0.1437 0.0, 0.5906 -0.5906 0.2953, 0.5906 -0.3445 0.0984, 0.5906 -0.2461 0.0984, 0.5906 0.5906 0.2953, 0.5906 -0.0492 0.0984, 0.5906 0.0492 0.0984, 0.5906 0.1476 0.0984, 0.5906 -0.1476 0.0984, 0.5906 0.3445 0.0984, 0.5906 0.2461 0.0984, 0.3445 0.5906 0.0984, 0.2461 0.5906 0.0984, -0.5906 0.5906 0.2953, 0.0492 0.5906 0.0984, 0.1476 0.5906 0.0984, -0.5906 0.065 0.0984, -0.5906 0.065 0.0, -0.5906 -0.065 0.0, -0.5906 0.3406 0.0984, -0.5906 0.2618 0.0984, -0.5906 -0.1437 0.0984, -0.5906 -0.2618 0.0984, -0.5906 -0.065 0.0984, -0.5906 0.1437 0.0984, -0.5906 -0.3406 0.0984, -0.5906 -0.5906 0.2953, 0.3445 -0.5906 0.0984, 0.2461 -0.5906 0.0984, 0.0492 -0.5906 0.0984, 0.1476 -0.5906 0.0984, -0.4321 0.4961 0.2953, -0.4118 0.4757 0.2953, -0.4043 0.448 0.2953, -0.4118 0.4202 0.2953, -0.4321 0.3998 0.2953, -0.4599 0.3924 0.2953, -0.4877 0.3998 0.2953, -0.4599 0.5035 0.2953, -0.4877 0.4961 0.2953, -0.508 0.4202 0.2953, -0.5155 0.448 0.2953, -0.508 0.4757 0.2953, -0.2862 0.0224 0.0, -0.3307 -0.065 0.0, -0.3307 0.065 0.0, -0.0606 -0.0112 0.0, -0.0689 -0.0194 0.0, -0.0801 -0.0224 0.0, -0.0606 0.0112 0.0, -0.0576 0.0 0.0, -0.0689 0.0194 0.0, -0.0801 0.0224 0.0, -0.2862 -0.0224 0.0, -0.2862 -0.0224 0.0
            ]
        }
        coordIndex [
            0,1,2,-1,2,1,3,-1,2,3,4,-1,4,3,5,-1,6,7,8,-1,6,8,9,-1,9,8,10,-1,9,10,11,-1,7,6,12,-1,12,6,13,-1,12,13,0,-1,0,13,14,-1,0,14,1,-1,15,16,17,-1,17,16,18,-1,19,20,21,-1,21,20,22,-1,21,22,23,-1,24,25,26,-1,26,25,27,-1,26,27,28,-1,28,27,29,-1,28,29,30,-1,30,29,31,-1,32,33,34,-1,34,33,35,-1,34,35,36,-1,37,38,39,-1,40,16,41,-1,41,16,24,-1,41,24,42,-1,43,44,45,-1,45,44,25,-1,45,25,46,-1,46,25,24,-1,47,48,49,-1,49,48,37,-1,49,37,50,-1,50,37,39,-1,51,48,29,-1,29,48,47,-1,29,47,31,-1,11,52,9,-1,9,52,48,-1,9,48,53,-1,53,48,51,-1,54,55,56,-1,56,55,57,-1,56,57,26,-1,58,59,60,-1,60,59,61,-1,60,61,40,-1,52,62,48,-1,48,62,63,-1,48,63,64,-1,57,65,26,-1,26,65,66,-1,26,66,24,-1,24,66,67,-1,24,67,42,-1,61,68,40,-1,40,68,69,-1,40,69,16,-1,16,69,70,-1,16,70,18,-1,22,71,23,-1,23,71,72,-1,23,72,17,-1,17,72,73,-1,17,73,15,-1,74,75,76,-1,75,77,78,-1,79,78,80,-1,80,78,77,-1,80,77,81,-1,81,77,82,-1,83,36,84,-1,84,36,85,-1,84,85,86,-1,87,88,89,-1,90,91,92,-1,92,91,93,-1,92,93,94,-1,95,96,79,-1,79,96,97,-1,79,97,78,-1,78,97,98,-1,78,98,99,-1,99,100,101,-1,90,102,91,-1,91,102,103,-1,91,103,83,-1,91,104,105,-1,91,105,93,-1,93,105,106,-1,93,106,107,-1,74,76,88,-1,88,76,108,-1,88,108,89,-1,109,110,111,-1,111,110,112,-1,111,112,113,-1,113,114,111,-1,111,114,115,-1,111,115,116,-1,101,117,99,-1,99,117,32,-1,99,32,78,-1,63,34,64,-1,64,34,36,-1,64,36,118,-1,118,36,83,-1,118,83,119,-1,119,83,103,-1,120,121,122,-1,122,121,123,-1,99,74,100,-1,100,74,88,-1,100,88,124,-1,124,88,125,-1,124,125,126,-1,126,125,127,-1,126,127,128,-1,128,127,129,-1,128,129,116,-1,116,129,130,-1,116,130,111,-1,86,131,84,-1,84,131,132,-1,84,132,133,-1,133,132,134,-1,133,134,135,-1,135,134,136,-1,135,136,137,-1,137,136,138,-1,137,138,139,-1,123,140,122,-1,122,140,137,-1,122,137,141,-1,141,137,139,-1,140,142,137,-1,137,142,143,-1,137,143,91,-1,91,143,144,-1,91,144,104,-1,139,145,141,-1,141,145,146,-1,141,146,147,-1,147,146,148,-1,147,148,89,-1,89,148,149,-1,89,149,87,-1,150,151,78,-1,78,151,152,-1,153,154,155,-1,156,157,158,-1,159,78,160,-1,160,78,161,-1,160,161,162,-1,162,161,163,-1,155,150,153,-1,153,150,78,-1,153,78,164,-1,164,78,159,-1,164,159,165,-1,165,159,166,-1,167,168,169,-1,170,171,172,-1,172,171,156,-1,169,173,167,-1,167,173,174,-1,167,174,153,-1,153,174,175,-1,153,175,154,-1,176,177,169,-1,169,177,178,-1,169,178,173,-1,168,167,158,-1,158,167,162,-1,158,162,156,-1,156,162,163,-1,156,163,172,-1,75,78,76,-1,76,78,152,-1,76,152,169,-1,169,152,179,-1,169,179,176,-1,32,34,78,-1,78,34,180,-1,78,180,181,-1,182,161,183,-1,183,161,78,-1,183,78,184,-1,184,78,181,-1,185,186,187,-1,187,186,188,-1,189,190,191,-1,191,190,192,-1,193,20,19,-1,19,194,193,-1,193,194,195,-1,193,195,196,-1,197,55,54,-1,198,199,196,-1,54,198,197,-1,197,198,196,-1,197,196,200,-1,200,196,195,-1,200,195,58,-1,58,195,59,-1,94,93,201,-1,201,93,196,-1,201,196,202,-1,202,196,199,-1,202,199,38,-1,38,199,39,-1,196,93,107,-1,107,203,196,-1,196,203,204,-1,196,204,205,-1,157,156,206,-1,206,156,205,-1,206,205,207,-1,207,205,204,-1,207,204,120,-1,120,204,121,-1,208,209,210,-1,156,171,205,-1,205,171,211,-1,205,211,212,-1,187,188,213,-1,213,188,214,-1,210,215,208,-1,208,215,205,-1,208,205,216,-1,216,205,212,-1,216,212,192,-1,192,212,191,-1,5,3,217,-1,217,3,218,-1,217,218,214,-1,214,218,205,-1,214,205,213,-1,213,205,215,-1,22,20,219,-1,219,20,193,-1,219,193,220,-1,3,1,218,-1,218,1,221,-1,218,221,222,-1,44,43,222,-1,222,43,220,-1,222,220,218,-1,218,220,193,-1,223,224,196,-1,196,224,225,-1,196,225,193,-1,225,226,193,-1,193,226,227,-1,193,227,218,-1,218,227,228,-1,218,228,229,-1,223,196,230,-1,230,196,205,-1,230,205,231,-1,229,232,218,-1,218,232,233,-1,218,233,205,-1,205,233,234,-1,205,234,231,-1,235,236,237,-1,237,236,210,-1,237,210,209,-1,238,239,240,-1,241,242,243,-1,243,242,238,-1,243,238,244,-1,244,238,240,-1,244,240,235,-1,235,240,245,-1,235,245,236,-1,
        ]
    }
}
Shape{
    appearance Appearance {
        material  Material 	{
            diffuseColor 0.7529411764705882 0.7529411764705882 0.7529411764705882
            specularColor 0.3764705882352941 0.3764705882352941 0.3764705882352941
            ambientIntensity 0.2
            transparency 0
            shininess 0.5
        }
    }
    geometry IndexedFaceSet {
        ccw TRUE
        solid FALSE
        coord DEF co Coordinate {
            point [
                0.5906 0.2461 0.0984, 0.5945 0.2461 0.0984, 0.5906 0.3445 0.0984, 0.5945 0.3445 0.0984, 0.5906 0.3445 0.0, 0.5945 0.3445 -0.0039, 0.4858 0.3445 0.0, 0.4858 0.3445 -0.0039, 0.4614 0.3379 -0.0039, 0.4614 0.3379 0.0, 0.4435 0.3201 -0.0039, 0.4435 0.3201 0.0, 0.437 0.2957 -0.0039, 0.437 0.2957 0.0, 0.437 0.2949 -0.0039, 0.437 0.2949 0.0, 0.443 0.2725 0.0, 0.4435 0.2705 -0.0039, 0.4435 0.2705 0.0, 0.4614 0.2526 -0.0039, 0.4614 0.2526 0.0, 0.4858 0.2461 -0.0039, 0.4858 0.2461 0.0, 0.5906 0.2461 0.0, 0.5945 0.2461 -0.0039, 0.5945 0.2461 -0.0039
            ]
        }
        coordIndex [
            0,1,2,-1,2,1,3,-1,2,3,4,-1,4,3,5,-1,4,5,6,-1,6,5,7,-1,6,7,8,-1,6,8,9,-1,9,8,10,-1,9,10,11,-1,11,10,12,-1,11,12,13,-1,12,14,13,-1,13,14,15,-1,15,14,16,-1,16,14,17,-1,16,17,18,-1,18,17,19,-1,18,19,20,-1,20,19,21,-1,20,21,22,-1,22,21,23,-1,23,21,24,-1,23,24,0,-1,0,24,1,-1,
        ]
    }
}
Shape{
    appearance Appearance {
        material  Material 	{
            diffuseColor 0.5019607843137255 0.5019607843137255 0.0
            specularColor 0.25098039215686274 0.25098039215686274 0.0
            ambientIntensity 0.2
            transparency 0
            shininess 0.5
        }
    }
    geometry IndexedFaceSet {
        ccw TRUE
        solid FALSE
        coord DEF co Coordinate {
            point [
                0.5945 0.3445 -0.0039, 0.5945 0.3445 0.0984, 0.5945 0.2461 -0.0039, 0.5945 0.2461 0.0984, 0.4858 0.3445 -0.0039, 0.4858 0.2461 -0.0039, 0.4614 0.2526 -0.0039, 0.4435 0.2705 -0.0039, 0.4435 0.3201 -0.0039, 0.4614 0.3379 -0.0039, 0.437 0.2957 -0.0039, 0.437 0.2949 -0.0039, 0.437 0.2949 -0.0039
            ]
        }
        coordIndex [
            0,1,2,-1,2,1,3,-1,4,0,2,-1,2,5,4,-1,4,5,6,-1,4,6,7,-1,8,9,10,-1,10,9,4,-1,10,4,11,-1,11,4,7,-1,
        ]
    }
}
Shape{
    appearance Appearance {
        material  Material 	{
            diffuseColor 0.7529411764705882 0.7529411764705882 0.7529411764705882
            specularColor 0.3764705882352941 0.3764705882352941 0.3764705882352941
            ambientIntensity 0.2
            transparency 0
            shininess 0.5
        }
    }
    geometry IndexedFaceSet {
        ccw TRUE
        solid FALSE
        coord DEF co Coordinate {
            point [
                0.3445 0.5906 0.0984, 0.3445 0.5945 0.0984, 0.2461 0.5906 0.0984, 0.2461 0.5945 0.0984, 0.3445 0.4858 0.0, 0.3445 0.4858 -0.0039, 0.3445 0.5906 0.0, 0.3445 0.5945 -0.0039, 0.2461 0.5906 0.0, 0.2461 0.5945 -0.0039, 0.2461 0.4858 0.0, 0.2461 0.4858 -0.0039, 0.2526 0.4614 -0.0039, 0.2526 0.4614 0.0, 0.2705 0.4435 -0.0039, 0.2705 0.4435 0.0, 0.2949 0.437 -0.0039, 0.2949 0.437 0.0, 0.2957 0.437 -0.0039, 0.2957 0.437 0.0, 0.3201 0.4435 -0.0039, 0.3201 0.4435 0.0, 0.3379 0.4614 -0.0039, 0.3379 0.4614 0.0, 0.3379 0.4614 0.0
            ]
        }
        coordIndex [
            0,1,2,-1,2,1,3,-1,4,5,6,-1,6,5,7,-1,6,7,0,-1,0,7,1,-1,2,3,8,-1,8,3,9,-1,8,9,10,-1,10,9,11,-1,10,11,12,-1,10,12,13,-1,13,12,14,-1,13,14,15,-1,15,14,16,-1,15,16,17,-1,16,18,17,-1,17,18,19,-1,19,18,20,-1,19,20,21,-1,21,20,22,-1,21,22,23,-1,23,22,5,-1,23,5,4,-1,
        ]
    }
}
Shape{
    appearance Appearance {
        material  Material 	{
            diffuseColor 0.5019607843137255 0.5019607843137255 0.0
            specularColor 0.25098039215686274 0.25098039215686274 0.0
            ambientIntensity 0.2
            transparency 0
            shininess 0.5
        }
    }
    geometry IndexedFaceSet {
        ccw TRUE
        solid FALSE
        coord DEF co Coordinate {
            point [
                0.2461 0.5945 -0.0039, 0.2461 0.5945 0.0984, 0.3445 0.5945 -0.0039, 0.3445 0.5945 0.0984, 0.3445 0.4858 -0.0039, 0.3379 0.4614 -0.0039, 0.2949 0.437 -0.0039, 0.2705 0.4435 -0.0039, 0.2526 0.4614 -0.0039, 0.2461 0.4858 -0.0039, 0.2957 0.437 -0.0039, 0.3201 0.4435 -0.0039, 0.3201 0.4435 -0.0039
            ]
        }
        coordIndex [
            0,1,2,-1,2,1,3,-1,2,4,0,-1,0,4,5,-1,6,7,8,-1,8,9,6,-1,6,9,0,-1,6,0,10,-1,10,0,5,-1,10,5,11,-1,
        ]
    }
}
Shape{
    appearance Appearance {
        material  Material 	{
            diffuseColor 0.7529411764705882 0.7529411764705882 0.7529411764705882
            specularColor 0.3764705882352941 0.3764705882352941 0.3764705882352941
            ambientIntensity 0.2
            transparency 0
            shininess 0.5
        }
    }
    geometry IndexedFaceSet {
        ccw TRUE
        solid FALSE
        coord DEF co Coordinate {
            point [
                0.5945 0.0492 0.0984, 0.5945 0.1476 0.0984, 0.5906 0.0492 0.0984, 0.5906 0.1476 0.0984, 0.5906 0.1476 0.0, 0.5945 0.1476 -0.0039, 0.4858 0.1476 0.0, 0.4858 0.1476 -0.0039, 0.4614 0.1411 -0.0039, 0.4614 0.1411 0.0, 0.4435 0.1232 -0.0039, 0.4435 0.1232 0.0, 0.437 0.0988 -0.0039, 0.437 0.0988 0.0, 0.437 0.098 -0.0039, 0.437 0.098 0.0, 0.4435 0.0736 -0.0039, 0.4435 0.0736 0.0, 0.4614 0.0558 -0.0039, 0.4614 0.0558 0.0, 0.4858 0.0492 -0.0039, 0.4858 0.0492 0.0, 0.5906 0.0492 0.0, 0.5945 0.0492 -0.0039, 0.5945 0.0492 -0.0039
            ]
        }
        coordIndex [
            0,1,2,-1,2,1,3,-1,3,1,4,-1,4,1,5,-1,4,5,6,-1,6,5,7,-1,6,7,8,-1,6,8,9,-1,9,8,10,-1,9,10,11,-1,11,10,12,-1,11,12,13,-1,12,14,13,-1,13,14,15,-1,15,14,16,-1,15,16,17,-1,17,16,18,-1,17,18,19,-1,19,18,20,-1,19,20,21,-1,21,20,22,-1,22,20,23,-1,22,23,2,-1,2,23,0,-1,
        ]
    }
}
Shape{
    appearance Appearance {
        material  Material 	{
            diffuseColor 0.5019607843137255 0.5019607843137255 0.0
            specularColor 0.25098039215686274 0.25098039215686274 0.0
            ambientIntensity 0.2
            transparency 0
            shininess 0.5
        }
    }
    geometry IndexedFaceSet {
        ccw TRUE
        solid FALSE
        coord DEF co Coordinate {
            point [
                0.5945 0.1476 -0.0039, 0.5945 0.1476 0.0984, 0.5945 0.0492 -0.0039, 0.5945 0.0492 0.0984, 0.4858 0.1476 -0.0039, 0.4858 0.0492 -0.0039, 0.4614 0.0558 -0.0039, 0.4435 0.0736 -0.0039, 0.4435 0.1232 -0.0039, 0.4614 0.1411 -0.0039, 0.437 0.0988 -0.0039, 0.437 0.098 -0.0039, 0.437 0.098 -0.0039
            ]
        }
        coordIndex [
            0,1,2,-1,2,1,3,-1,4,0,2,-1,2,5,4,-1,4,5,6,-1,4,6,7,-1,8,9,10,-1,10,9,4,-1,10,4,11,-1,11,4,7,-1,
        ]
    }
}
Shape{
    appearance Appearance {
        material  Material 	{
            diffuseColor 0.7529411764705882 0.7529411764705882 0.7529411764705882
            specularColor 0.3764705882352941 0.3764705882352941 0.3764705882352941
            ambientIntensity 0.2
            transparency 0
            shininess 0.5
        }
    }
    geometry IndexedFaceSet {
        ccw TRUE
        solid FALSE
        coord DEF co Coordinate {
            point [
                0.5945 -0.1476 0.0984, 0.5945 -0.0492 0.0984, 0.5906 -0.1476 0.0984, 0.5906 -0.0492 0.0984, 0.5906 -0.0492 0.0, 0.5945 -0.0492 -0.0039, 0.4858 -0.0492 0.0, 0.4858 -0.0492 -0.0039, 0.4614 -0.0558 -0.0039, 0.4614 -0.0558 0.0, 0.4435 -0.0736 -0.0039, 0.4435 -0.0736 0.0, 0.437 -0.098 -0.0039, 0.437 -0.098 0.0, 0.437 -0.0988 -0.0039, 0.437 -0.0988 0.0, 0.4435 -0.1232 -0.0039, 0.4435 -0.1232 0.0, 0.4614 -0.1411 -0.0039, 0.4614 -0.1411 0.0, 0.4858 -0.1476 -0.0039, 0.4858 -0.1476 0.0, 0.5906 -0.1476 0.0, 0.5945 -0.1476 -0.0039, 0.5945 -0.1476 -0.0039
            ]
        }
        coordIndex [
            0,1,2,-1,2,1,3,-1,3,1,4,-1,4,1,5,-1,4,5,6,-1,6,5,7,-1,6,7,8,-1,6,8,9,-1,9,8,10,-1,9,10,11,-1,11,10,12,-1,11,12,13,-1,12,14,13,-1,13,14,15,-1,15,14,16,-1,15,16,17,-1,17,16,18,-1,17,18,19,-1,19,18,20,-1,19,20,21,-1,21,20,22,-1,22,20,23,-1,22,23,2,-1,2,23,0,-1,
        ]
    }
}
Shape{
    appearance Appearance {
        material  Material 	{
            diffuseColor 0.5019607843137255 0.5019607843137255 0.0
            specularColor 0.25098039215686274 0.25098039215686274 0.0
            ambientIntensity 0.2
            transparency 0
            shininess 0.5
        }
    }
    geometry IndexedFaceSet {
        ccw TRUE
        solid FALSE
        coord DEF co Coordinate {
            point [
                0.5945 -0.0492 -0.0039, 0.5945 -0.0492 0.0984, 0.5945 -0.1476 -0.0039, 0.5945 -0.1476 0.0984, 0.4858 -0.1476 -0.0039, 0.4614 -0.1411 -0.0039, 0.437 -0.098 -0.0039, 0.4435 -0.0736 -0.0039, 0.4614 -0.0558 -0.0039, 0.4858 -0.0492 -0.0039, 0.437 -0.0988 -0.0039, 0.4435 -0.1232 -0.0039, 0.4435 -0.1232 -0.0039
            ]
        }
        coordIndex [
            0,1,2,-1,2,1,3,-1,2,4,0,-1,0,4,5,-1,6,7,8,-1,8,9,6,-1,6,9,0,-1,6,0,10,-1,10,0,5,-1,10,5,11,-1,
        ]
    }
}
Shape{
    appearance Appearance {
        material  Material 	{
            diffuseColor 0.7529411764705882 0.7529411764705882 0.7529411764705882
            specularColor 0.3764705882352941 0.3764705882352941 0.3764705882352941
            ambientIntensity 0.2
            transparency 0
            shininess 0.5
        }
    }
    geometry IndexedFaceSet {
        ccw TRUE
        solid FALSE
        coord DEF co Coordinate {
            point [
                0.5945 -0.3445 0.0984, 0.5945 -0.2461 0.0984, 0.5906 -0.3445 0.0984, 0.5906 -0.2461 0.0984, 0.5906 -0.2461 0.0, 0.5945 -0.2461 -0.0039, 0.4858 -0.2461 0.0, 0.4858 -0.2461 -0.0039, 0.4614 -0.2526 -0.0039, 0.4614 -0.2526 0.0, 0.4435 -0.2705 -0.0039, 0.4435 -0.2705 0.0, 0.437 -0.2949 -0.0039, 0.437 -0.2949 0.0, 0.437 -0.2957 -0.0039, 0.437 -0.2957 0.0, 0.4435 -0.3201 -0.0039, 0.4435 -0.3201 0.0, 0.4614 -0.3379 -0.0039, 0.4614 -0.3379 0.0, 0.4858 -0.3445 -0.0039, 0.4858 -0.3445 0.0, 0.5906 -0.3445 0.0, 0.5945 -0.3445 -0.0039, 0.5945 -0.3445 -0.0039
            ]
        }
        coordIndex [
            0,1,2,-1,2,1,3,-1,3,1,4,-1,4,1,5,-1,4,5,6,-1,6,5,7,-1,6,7,8,-1,6,8,9,-1,9,8,10,-1,9,10,11,-1,11,10,12,-1,11,12,13,-1,12,14,13,-1,13,14,15,-1,15,14,16,-1,15,16,17,-1,17,16,18,-1,17,18,19,-1,19,18,20,-1,19,20,21,-1,21,20,22,-1,22,20,23,-1,22,23,2,-1,2,23,0,-1,
        ]
    }
}
Shape{
    appearance Appearance {
        material  Material 	{
            diffuseColor 0.5019607843137255 0.5019607843137255 0.0
            specularColor 0.25098039215686274 0.25098039215686274 0.0
            ambientIntensity 0.2
            transparency 0
            shininess 0.5
        }
    }
    geometry IndexedFaceSet {
        ccw TRUE
        solid FALSE
        coord DEF co Coordinate {
            point [
                0.5945 -0.2461 -0.0039, 0.5945 -0.2461 0.0984, 0.5945 -0.3445 -0.0039, 0.5945 -0.3445 0.0984, 0.4858 -0.3445 -0.0039, 0.4614 -0.3379 -0.0039, 0.437 -0.2949 -0.0039, 0.4435 -0.2705 -0.0039, 0.4614 -0.2526 -0.0039, 0.4858 -0.2461 -0.0039, 0.437 -0.2957 -0.0039, 0.4435 -0.3201 -0.0039, 0.4435 -0.3201 -0.0039
            ]
        }
        coordIndex [
            0,1,2,-1,2,1,3,-1,2,4,0,-1,0,4,5,-1,6,7,8,-1,8,9,6,-1,6,9,0,-1,6,0,10,-1,10,0,5,-1,10,5,11,-1,
        ]
    }
}
Shape{
    appearance Appearance {
        material  Material 	{
            diffuseColor 0.7529411764705882 0.7529411764705882 0.7529411764705882
            specularColor 0.3764705882352941 0.3764705882352941 0.3764705882352941
            ambientIntensity 0.2
            transparency 0
            shininess 0.5
        }
    }
    geometry IndexedFaceSet {
        ccw TRUE
        solid FALSE
        coord DEF co Coordinate {
            point [
                0.0492 -0.5945 0.0984, 0.1476 -0.5945 0.0984, 0.0492 -0.5906 0.0984, 0.1476 -0.5906 0.0984, 0.1476 -0.5906 0.0, 0.1476 -0.5945 -0.0039, 0.1476 -0.4858 0.0, 0.1476 -0.4858 -0.0039, 0.1411 -0.4614 -0.0039, 0.1411 -0.4614 0.0, 0.1232 -0.4435 -0.0039, 0.1232 -0.4435 0.0, 0.0988 -0.437 -0.0039, 0.0988 -0.437 0.0, 0.098 -0.437 -0.0039, 0.098 -0.437 0.0, 0.0977 -0.4371 0.0, 0.0736 -0.4435 -0.0039, 0.0736 -0.4435 0.0, 0.0558 -0.4614 -0.0039, 0.0558 -0.4614 0.0, 0.0492 -0.4858 -0.0039, 0.0492 -0.4858 0.0, 0.0492 -0.5906 0.0, 0.0492 -0.5945 -0.0039, 0.0492 -0.5945 -0.0039
            ]
        }
        coordIndex [
            0,1,2,-1,2,1,3,-1,3,1,4,-1,4,1,5,-1,4,5,6,-1,6,5,7,-1,6,7,8,-1,6,8,9,-1,9,8,10,-1,9,10,11,-1,11,10,12,-1,11,12,13,-1,12,14,13,-1,13,14,15,-1,15,14,16,-1,16,14,17,-1,16,17,18,-1,18,17,19,-1,18,19,20,-1,20,19,21,-1,20,21,22,-1,22,21,23,-1,23,21,24,-1,23,24,2,-1,2,24,0,-1,
        ]
    }
}
Shape{
    appearance Appearance {
        material  Material 	{
            diffuseColor 0.5019607843137255 0.5019607843137255 0.0
            specularColor 0.25098039215686274 0.25098039215686274 0.0
            ambientIntensity 0.2
            transparency 0
            shininess 0.5
        }
    }
    geometry IndexedFaceSet {
        ccw TRUE
        solid FALSE
        coord DEF co Coordinate {
            point [
                0.1476 -0.5945 -0.0039, 0.1476 -0.5945 0.0984, 0.0492 -0.5945 -0.0039, 0.0492 -0.5945 0.0984, 0.0492 -0.4858 -0.0039, 0.0558 -0.4614 -0.0039, 0.0988 -0.437 -0.0039, 0.1232 -0.4435 -0.0039, 0.1411 -0.4614 -0.0039, 0.1476 -0.4858 -0.0039, 0.098 -0.437 -0.0039, 0.0736 -0.4435 -0.0039, 0.0736 -0.4435 -0.0039
            ]
        }
        coordIndex [
            0,1,2,-1,2,1,3,-1,2,4,0,-1,0,4,5,-1,6,7,8,-1,8,9,6,-1,6,9,0,-1,6,0,10,-1,10,0,5,-1,10,5,11,-1,
        ]
    }
}
Shape{
    appearance Appearance {
        material  Material 	{
            diffuseColor 0.7529411764705882 0.7529411764705882 0.7529411764705882
            specularColor 0.3764705882352941 0.3764705882352941 0.3764705882352941
            ambientIntensity 0.2
            transparency 0
            shininess 0.5
        }
    }
    geometry IndexedFaceSet {
        ccw TRUE
        solid FALSE
        coord DEF co Coordinate {
            point [
                0.1476 0.5906 0.0984, 0.1476 0.5945 0.0984, 0.0492 0.5906 0.0984, 0.0492 0.5945 0.0984, 0.0492 0.5906 0.0, 0.0492 0.5945 -0.0039, 0.0492 0.4858 0.0, 0.0492 0.4858 -0.0039, 0.0558 0.4614 -0.0039, 0.0558 0.4614 0.0, 0.0736 0.4435 -0.0039, 0.0736 0.4435 0.0, 0.0977 0.4371 0.0, 0.098 0.437 -0.0039, 0.098 0.437 0.0, 0.0988 0.437 -0.0039, 0.0988 0.437 0.0, 0.1232 0.4435 -0.0039, 0.1232 0.4435 0.0, 0.1411 0.4614 -0.0039, 0.1411 0.4614 0.0, 0.1476 0.4858 -0.0039, 0.1476 0.4858 0.0, 0.1476 0.5906 0.0, 0.1476 0.5945 -0.0039, 0.1476 0.5945 -0.0039
            ]
        }
        coordIndex [
            0,1,2,-1,2,1,3,-1,2,3,4,-1,4,3,5,-1,4,5,6,-1,6,5,7,-1,6,7,8,-1,6,8,9,-1,9,8,10,-1,9,10,11,-1,11,10,12,-1,12,10,13,-1,12,13,14,-1,13,15,14,-1,14,15,16,-1,16,15,17,-1,16,17,18,-1,18,17,19,-1,18,19,20,-1,20,19,21,-1,20,21,22,-1,22,21,23,-1,23,21,24,-1,23,24,0,-1,0,24,1,-1,
        ]
    }
}
Shape{
    appearance Appearance {
        material  Material 	{
            diffuseColor 0.5019607843137255 0.5019607843137255 0.0
            specularColor 0.25098039215686274 0.25098039215686274 0.0
            ambientIntensity 0.2
            transparency 0
            shininess 0.5
        }
    }
    geometry IndexedFaceSet {
        ccw TRUE
        solid FALSE
        coord DEF co Coordinate {
            point [
                0.0492 0.5945 -0.0039, 0.0492 0.5945 0.0984, 0.1476 0.5945 -0.0039, 0.1476 0.5945 0.0984, 0.0492 0.4858 -0.0039, 0.1476 0.4858 -0.0039, 0.1411 0.4614 -0.0039, 0.0736 0.4435 -0.0039, 0.0558 0.4614 -0.0039, 0.098 0.437 -0.0039, 0.0988 0.437 -0.0039, 0.1232 0.4435 -0.0039, 0.1232 0.4435 -0.0039
            ]
        }
        coordIndex [
            0,1,2,-1,2,1,3,-1,0,2,4,-1,4,2,5,-1,4,5,6,-1,7,8,9,-1,9,8,4,-1,9,4,10,-1,10,4,6,-1,10,6,11,-1,
        ]
    }
}
Shape{
    appearance Appearance {
        material  Material 	{
            diffuseColor 0.7529411764705882 0.7529411764705882 0.7529411764705882
            specularColor 0.3764705882352941 0.3764705882352941 0.3764705882352941
            ambientIntensity 0.2
            transparency 0
            shininess 0.5
        }
    }
    geometry IndexedFaceSet {
        ccw TRUE
        solid FALSE
        coord DEF co Coordinate {
            point [
                0.2461 -0.5945 0.0984, 0.3445 -0.5945 0.0984, 0.2461 -0.5906 0.0984, 0.3445 -0.5906 0.0984, 0.3445 -0.4858 0.0, 0.3445 -0.4858 -0.0039, 0.3379 -0.4614 -0.0039, 0.3379 -0.4614 0.0, 0.3201 -0.4435 -0.0039, 0.3201 -0.4435 0.0, 0.2957 -0.437 -0.0039, 0.2957 -0.437 0.0, 0.2949 -0.437 -0.0039, 0.2949 -0.437 0.0, 0.2705 -0.4435 -0.0039, 0.2705 -0.4435 0.0, 0.2526 -0.4614 -0.0039, 0.2526 -0.4614 0.0, 0.2461 -0.4858 -0.0039, 0.2461 -0.4858 0.0, 0.2461 -0.5906 0.0, 0.2461 -0.5945 -0.0039, 0.3445 -0.5906 0.0, 0.3445 -0.5945 -0.0039, 0.3445 -0.5945 -0.0039
            ]
        }
        coordIndex [
            0,1,2,-1,2,1,3,-1,4,5,6,-1,4,6,7,-1,7,6,8,-1,7,8,9,-1,9,8,10,-1,9,10,11,-1,10,12,11,-1,11,12,13,-1,13,12,14,-1,13,14,15,-1,15,14,16,-1,15,16,17,-1,17,16,18,-1,17,18,19,-1,19,18,20,-1,20,18,21,-1,20,21,2,-1,2,21,0,-1,3,1,22,-1,22,1,23,-1,22,23,4,-1,4,23,5,-1,
        ]
    }
}
Shape{
    appearance Appearance {
        material  Material 	{
            diffuseColor 0.5019607843137255 0.5019607843137255 0.0
            specularColor 0.25098039215686274 0.25098039215686274 0.0
            ambientIntensity 0.2
            transparency 0
            shininess 0.5
        }
    }
    geometry IndexedFaceSet {
        ccw TRUE
        solid FALSE
        coord DEF co Coordinate {
            point [
                0.3445 -0.5945 -0.0039, 0.3445 -0.5945 0.0984, 0.2461 -0.5945 -0.0039, 0.2461 -0.5945 0.0984, 0.2461 -0.4858 -0.0039, 0.2526 -0.4614 -0.0039, 0.2957 -0.437 -0.0039, 0.3201 -0.4435 -0.0039, 0.3379 -0.4614 -0.0039, 0.3445 -0.4858 -0.0039, 0.2949 -0.437 -0.0039, 0.2705 -0.4435 -0.0039, 0.2705 -0.4435 -0.0039
            ]
        }
        coordIndex [
            0,1,2,-1,2,1,3,-1,2,4,0,-1,0,4,5,-1,6,7,8,-1,8,9,6,-1,6,9,0,-1,6,0,10,-1,10,0,5,-1,10,5,11,-1,
        ]
    }
}
Shape{
    appearance Appearance {
        material  Material 	{
            diffuseColor 0.7529411764705882 0.7529411764705882 0.7529411764705882
            specularColor 0.3764705882352941 0.3764705882352941 0.3764705882352941
            ambientIntensity 0.2
            transparency 0
            shininess 0.5
        }
    }
    geometry IndexedFaceSet {
        ccw TRUE
        solid FALSE
        coord DEF co Coordinate {
            point [
                -0.5906 -0.2618 0.0984, -0.5945 -0.2618 0.0984, -0.5906 -0.3406 0.0984, -0.5945 -0.3406 0.0984, -0.5906 -0.065 0.0984, -0.5945 -0.065 0.0984, -0.5906 -0.1437 0.0984, -0.5945 -0.1437 0.0984, -0.5906 0.1437 0.0984, -0.5945 0.1437 0.0984, -0.5906 0.065 0.0984, -0.5945 0.065 0.0984, -0.5906 0.3406 0.0984, -0.5945 0.3406 0.0984, -0.5906 0.2618 0.0984, -0.5945 0.2618 0.0984, -0.3307 0.065 -0.0039, -0.2862 0.0224 -0.0039, -0.3307 0.065 0.0, -0.2862 0.0224 0.0, -0.0801 0.0224 -0.0039, -0.0801 0.0224 0.0, -0.0689 0.0194 0.0, -0.0689 0.0194 -0.0039, -0.0606 0.0112 0.0, -0.0606 0.0112 -0.0039, -0.0576 0.0 0.0, -0.0576 0.0 -0.0039, -0.0606 -0.0112 0.0, -0.0606 -0.0112 -0.0039, -0.0689 -0.0194 0.0, -0.0689 -0.0194 -0.0039, -0.0801 -0.0224 0.0, -0.0801 -0.0224 -0.0039, -0.2862 -0.0224 -0.0039, -0.2862 -0.0224 0.0, -0.3307 -0.065 -0.0039, -0.3307 -0.065 0.0, -0.5906 -0.065 0.0, -0.5945 -0.065 -0.0039, -0.5906 -0.1437 0.0, -0.5945 -0.1437 -0.0039, -0.5672 -0.1437 0.0, -0.5672 -0.1437 -0.0039, -0.5672 -0.2618 -0.0039, -0.5672 -0.2618 0.0, -0.5906 -0.2618 0.0, -0.5945 -0.2618 -0.0039, -0.5906 -0.3406 0.0, -0.5945 -0.3406 -0.0039, -0.5829 -0.3406 0.0, -0.5829 -0.3406 -0.0039, -0.5716 -0.3524 -0.0039, -0.5716 -0.3524 0.0, -0.3468 -0.3524 -0.0039, -0.3468 -0.3524 0.0, -0.2757 -0.2101 -0.0039, -0.2757 -0.2101 0.0, -0.0801 -0.2101 -0.0039, -0.0801 -0.2101 0.0, 0.055 -0.161 -0.0039, -0.0082 -0.1975 0.0, -0.0082 -0.1975 -0.0039, 0.1019 0.1051 -0.0039, 0.1269 0.0365 0.0, 0.1269 0.0365 -0.0039, 0.1269 -0.0365 0.0, 0.1269 -0.0365 -0.0039, 0.1019 -0.1051 0.0, 0.1019 -0.1051 -0.0039, 0.0977 -0.1101 0.0, 0.055 -0.161 0.0, 0.055 0.161 0.0, 0.0977 0.1101 0.0, 0.1019 0.1051 0.0, 0.055 0.161 -0.0039, -0.0082 0.1975 -0.0039, -0.0082 0.1975 0.0, -0.0801 0.2101 -0.0039, -0.0801 0.2101 0.0, -0.2757 0.2101 -0.0039, -0.2757 0.2101 0.0, -0.3069 0.2725 0.0, -0.3468 0.3524 -0.0039, -0.3468 0.3524 0.0, -0.5716 0.3524 -0.0039, -0.5716 0.3524 0.0, -0.5829 0.3406 -0.0039, -0.5829 0.3406 0.0, -0.5906 0.3406 0.0, -0.5945 0.3406 -0.0039, -0.5906 0.2618 0.0, -0.5945 0.2618 -0.0039, -0.5672 0.2618 0.0, -0.5672 0.2618 -0.0039, -0.5672 0.1437 -0.0039, -0.5672 0.1437 0.0, -0.5906 0.1437 0.0, -0.5945 0.1437 -0.0039, -0.5906 0.065 0.0, -0.5945 0.065 -0.0039, -0.5945 0.065 -0.0039
            ]
        }
        coordIndex [
            0,1,2,-1,2,1,3,-1,4,5,6,-1,6,5,7,-1,8,9,10,-1,10,9,11,-1,12,13,14,-1,14,13,15,-1,16,17,18,-1,18,17,19,-1,17,20,19,-1,19,20,21,-1,21,20,22,-1,22,20,23,-1,22,23,24,-1,24,23,25,-1,24,25,26,-1,26,25,27,-1,26,27,28,-1,28,27,29,-1,28,29,30,-1,30,29,31,-1,30,31,32,-1,32,31,33,-1,33,34,32,-1,32,34,35,-1,34,36,35,-1,35,36,37,-1,37,36,38,-1,38,36,39,-1,38,39,4,-1,4,39,5,-1,6,7,40,-1,40,7,41,-1,40,41,42,-1,42,41,43,-1,43,44,42,-1,42,44,45,-1,45,44,46,-1,46,44,47,-1,46,47,0,-1,0,47,1,-1,2,3,48,-1,48,3,49,-1,48,49,50,-1,50,49,51,-1,51,52,50,-1,50,52,53,-1,52,54,53,-1,53,54,55,-1,54,56,55,-1,55,56,57,-1,56,58,57,-1,57,58,59,-1,60,61,62,-1,62,61,59,-1,62,59,58,-1,63,64,65,-1,65,64,66,-1,65,66,67,-1,67,66,68,-1,67,68,69,-1,69,68,70,-1,69,70,60,-1,60,70,71,-1,60,71,61,-1,72,73,63,-1,63,73,74,-1,63,74,64,-1,63,75,72,-1,72,75,76,-1,72,76,77,-1,77,76,78,-1,77,78,79,-1,78,80,79,-1,79,80,81,-1,81,80,82,-1,82,80,83,-1,82,83,84,-1,83,85,84,-1,84,85,86,-1,85,87,86,-1,86,87,88,-1,88,87,89,-1,89,87,90,-1,89,90,12,-1,12,90,13,-1,14,15,91,-1,91,15,92,-1,91,92,93,-1,93,92,94,-1,94,95,93,-1,93,95,96,-1,96,95,97,-1,97,95,98,-1,97,98,8,-1,8,98,9,-1,10,11,99,-1,99,11,100,-1,99,100,18,-1,18,100,16,-1,
        ]
    }
}
Shape{
    appearance Appearance {
        material  Material 	{
            diffuseColor 0.5019607843137255 0.5019607843137255 0.0
            specularColor 0.25098039215686274 0.25098039215686274 0.0
            ambientIntensity 0.2
            transparency 0
            shininess 0.5
        }
    }
    geometry IndexedFaceSet {
        ccw TRUE
        solid FALSE
        coord DEF co Coordinate {
            point [
                -0.5945 -0.1437 -0.0039, -0.5945 -0.1437 0.0984, -0.5945 -0.065 -0.0039, -0.5945 -0.065 0.0984, -0.5945 -0.3406 -0.0039, -0.5945 -0.3406 0.0984, -0.5945 -0.2618 -0.0039, -0.5945 -0.2618 0.0984, -0.5945 0.2618 -0.0039, -0.5945 0.2618 0.0984, -0.5945 0.3406 -0.0039, -0.5945 0.3406 0.0984, -0.5945 0.065 -0.0039, -0.5945 0.065 0.0984, -0.5945 0.1437 -0.0039, -0.5945 0.1437 0.0984, -0.3307 -0.065 -0.0039, -0.2862 -0.0224 -0.0039, -0.0801 -0.0224 -0.0039, -0.0801 0.0224 -0.0039, -0.2862 0.0224 -0.0039, -0.3307 0.065 -0.0039, -0.5829 0.3406 -0.0039, -0.5716 0.3524 -0.0039, -0.3468 0.3524 -0.0039, -0.5672 0.2618 -0.0039, -0.5672 -0.1437 -0.0039, -0.5829 -0.3406 -0.0039, -0.5672 -0.2618 -0.0039, -0.5672 0.1437 -0.0039, -0.2757 0.2101 -0.0039, 0.055 -0.161 -0.0039, -0.0082 -0.1975 -0.0039, 0.1019 -0.1051 -0.0039, -0.0801 -0.2101 -0.0039, -0.2757 -0.2101 -0.0039, -0.3468 -0.3524 -0.0039, -0.5716 -0.3524 -0.0039, -0.0689 -0.0194 -0.0039, -0.0606 -0.0112 -0.0039, 0.1019 0.1051 -0.0039, -0.0576 0.0 -0.0039, -0.0606 0.0112 -0.0039, 0.055 0.161 -0.0039, -0.0689 0.0194 -0.0039, -0.0082 0.1975 -0.0039, -0.0801 0.2101 -0.0039, 0.1269 0.0365 -0.0039, 0.1269 -0.0365 -0.0039, 0.1269 -0.0365 -0.0039
            ]
        }
        coordIndex [
            0,1,2,-1,2,1,3,-1,4,5,6,-1,6,5,7,-1,8,9,10,-1,10,9,11,-1,12,13,14,-1,14,13,15,-1,16,17,18,-1,19,20,21,-1,22,23,24,-1,25,8,10,-1,26,0,2,-1,4,6,27,-1,27,6,28,-1,10,22,25,-1,25,22,24,-1,25,24,29,-1,29,24,30,-1,31,32,33,-1,33,32,34,-1,35,36,28,-1,28,36,37,-1,28,37,27,-1,38,39,40,-1,39,41,40,-1,40,41,42,-1,40,42,43,-1,43,42,44,-1,45,43,46,-1,46,43,44,-1,46,44,30,-1,30,44,19,-1,30,19,29,-1,29,19,21,-1,29,21,14,-1,14,21,12,-1,2,16,26,-1,26,16,18,-1,26,18,28,-1,28,18,38,-1,28,38,35,-1,35,38,40,-1,35,40,34,-1,34,40,47,-1,34,47,33,-1,33,47,48,-1,
        ]
    }
}
Shape{
    appearance Appearance {
        material  Material 	{
            diffuseColor 0.7529411764705882 0.7529411764705882 0.7529411764705882
            specularColor 0.3764705882352941 0.3764705882352941 0.3764705882352941
            ambientIntensity 0.2
            transparency 0
            shininess 0.5
        }
    }
    geometry IndexedFaceSet {
        ccw TRUE
        solid FALSE
        coord DEF co Coordinate {
            point [
                -0.0214 0.3522 0.0039, -0.0224 0.3522 0.0039, -0.0214 0.3522 0.0, -0.0224 0.3522 0.0, -0.0587 0.2735 0.0039, -0.0587 0.2735 0.0, -0.0511 0.2735 0.0039, -0.0511 0.2735 0.0, -0.0394 0.2987 0.0039, -0.0394 0.2987 0.0, -0.0037 0.2987 0.0039, -0.0037 0.2987 0.0, 0.0082 0.2735 0.0039, 0.0082 0.2735 0.0, 0.016 0.2735 0.0039, 0.016 0.2735 0.0, -0.0357 0.3068 0.0039, -0.0076 0.3068 0.0039, -0.0218 0.3369 0.0039, -0.0357 0.3068 0.0, -0.0218 0.3369 0.0, -0.0076 0.3068 0.0, 0.0663 0.2735 0.0039, 0.0907 0.2735 0.0039, 0.0663 0.2735 0.0, 0.0907 0.2735 0.0, 0.0907 0.3522 0.0039, 0.0907 0.3522 0.0, 0.0748 0.3522 0.0039, 0.0748 0.3522 0.0, 0.0498 0.3494 0.0039, 0.0498 0.3494 0.0, 0.0622 0.3518 0.0, 0.0622 0.3518 0.0039, 0.0261 0.3119 0.0039, 0.0261 0.3119 0.0, 0.0275 0.3243 0.0, 0.0275 0.3243 0.0039, 0.0356 0.3399 0.0, 0.0356 0.3399 0.0039, 0.0578 0.2739 0.0, 0.0578 0.2739 0.0039, 0.0419 0.279 0.0, 0.0419 0.279 0.0039, 0.0305 0.2921 0.0, 0.0305 0.2921 0.0039, 0.0344 0.3021 0.0039, 0.0408 0.2906 0.0039, 0.052 0.2836 0.0039, 0.0632 0.2819 0.0039, 0.0746 0.2816 0.0039, 0.0836 0.2816 0.0039, 0.0836 0.3442 0.0039, 0.0781 0.3442 0.0039, 0.0659 0.3438 0.0039, 0.0539 0.342 0.0039, 0.0452 0.3378 0.0039, 0.0366 0.3276 0.0039, 0.0331 0.3119 0.0039, 0.0836 0.3442 0.0, 0.0836 0.2816 0.0, 0.0781 0.3442 0.0, 0.0659 0.3438 0.0, 0.0539 0.342 0.0, 0.0452 0.3378 0.0, 0.0366 0.3276 0.0, 0.0331 0.3119 0.0, 0.0344 0.3021 0.0, 0.0408 0.2906 0.0, 0.052 0.2836 0.0, 0.0632 0.2819 0.0, 0.0746 0.2816 0.0, 0.1492 0.2735 0.0039, 0.1492 0.3522 0.0039, 0.1492 0.2735 0.0, 0.1492 0.3522 0.0, 0.1048 0.3522 0.0039, 0.1048 0.3522 0.0, 0.1048 0.3442 0.0039, 0.1048 0.3442 0.0, 0.1421 0.3442 0.0039, 0.1421 0.3442 0.0, 0.1421 0.3199 0.0039, 0.1421 0.3199 0.0, 0.1048 0.3199 0.0039, 0.1048 0.3199 0.0, 0.1048 0.3119 0.0039, 0.1048 0.3119 0.0, 0.1421 0.3119 0.0039, 0.1421 0.3119 0.0, 0.1421 0.2816 0.0039, 0.1421 0.2816 0.0, 0.1048 0.2816 0.0039, 0.1048 0.2816 0.0, 0.1048 0.2735 0.0039, 0.1048 0.2735 0.0, 0.1654 0.3378 0.0039, 0.1654 0.3378 0.0, 0.1678 0.3409 0.0, 0.1678 0.3409 0.0039, 0.1724 0.3452 0.0, 0.1724 0.3452 0.0039, 0.1805 0.3502 0.0, 0.1805 0.3502 0.0039, 0.1997 0.3543 0.0, 0.1997 0.3543 0.0039, 0.1715 0.3331 0.0039, 0.1715 0.3331 0.0, 0.2002 0.3462 0.0039, 0.2002 0.3462 0.0, 0.1969 0.3461 0.0, 0.1969 0.3461 0.0039, 0.1917 0.3454 0.0, 0.1917 0.3454 0.0039, 0.1843 0.3429 0.0, 0.1843 0.3429 0.0039, 0.235 0.3128 0.0039, 0.235 0.3128 0.0, 0.2349 0.316 0.0, 0.2349 0.316 0.0039, 0.2298 0.3309 0.0, 0.2298 0.3309 0.0039, 0.2176 0.3419 0.0, 0.2176 0.3419 0.0039, 0.1997 0.2796 0.0039, 0.1997 0.2796 0.0, 0.2046 0.2798 0.0, 0.2046 0.2798 0.0039, 0.2201 0.2852 0.0, 0.2201 0.2852 0.0039, 0.2309 0.2966 0.0, 0.2309 0.2966 0.0039, 0.1715 0.2927 0.0039, 0.1715 0.2927 0.0, 0.1841 0.2829 0.0, 0.1841 0.2829 0.0039, 0.1654 0.288 0.0039, 0.1654 0.288 0.0, 0.1996 0.2715 0.0039, 0.1996 0.2715 0.0, 0.1957 0.2716 0.0, 0.1957 0.2716 0.0039, 0.1897 0.2725 0.0, 0.1894 0.2725 0.0039, 0.1894 0.2725 0.0, 0.1805 0.2756 0.0, 0.1805 0.2756 0.0039, 0.2321 0.2853 0.0039, 0.2321 0.2853 0.0, 0.2296 0.2826 0.0, 0.2296 0.2826 0.0039, 0.2251 0.2789 0.0, 0.2251 0.2789 0.0039, 0.2175 0.2747 0.0, 0.2175 0.2747 0.0039, 0.2052 0.2725 0.0, 0.2421 0.3133 0.0039, 0.2421 0.3133 0.0, 0.2397 0.2984 0.0, 0.2397 0.2984 0.0039, 0.2032 0.3541 0.0, 0.2032 0.3541 0.0039, 0.2235 0.3477 0.0, 0.2235 0.3477 0.0039, 0.237 0.3335 0.0, 0.237 0.3335 0.0039, 0.2885 0.2735 0.0039, 0.2885 0.3522 0.0039, 0.2885 0.2735 0.0, 0.2885 0.3522 0.0, 0.2815 0.3522 0.0039, 0.2815 0.3522 0.0, 0.2815 0.2816 0.0039, 0.2815 0.2816 0.0, 0.2512 0.2816 0.0039, 0.2512 0.2816 0.0, 0.2512 0.2735 0.0039, 0.2512 0.2735 0.0, 0.2512 0.2735 0.0
            ]
        }
        coordIndex [
            0,1,2,-1,2,1,3,-1,1,4,3,-1,3,4,5,-1,4,6,5,-1,5,6,7,-1,6,8,7,-1,7,8,9,-1,8,10,9,-1,9,10,11,-1,10,12,11,-1,11,12,13,-1,12,14,13,-1,13,14,15,-1,14,0,15,-1,15,0,2,-1,16,4,1,-1,0,17,1,-1,1,17,18,-1,1,18,16,-1,14,12,10,-1,6,4,8,-1,8,4,16,-1,8,16,10,-1,10,16,17,-1,10,17,14,-1,14,17,0,-1,16,18,19,-1,19,18,20,-1,17,16,21,-1,21,16,19,-1,18,17,20,-1,20,17,21,-1,22,23,24,-1,24,23,25,-1,23,26,25,-1,25,26,27,-1,26,28,27,-1,27,28,29,-1,30,31,32,-1,30,32,33,-1,33,32,29,-1,33,29,28,-1,34,35,36,-1,34,36,37,-1,37,36,38,-1,37,38,39,-1,39,38,31,-1,39,31,30,-1,22,24,40,-1,22,40,41,-1,41,40,42,-1,41,42,43,-1,43,42,44,-1,43,44,45,-1,45,44,35,-1,45,35,34,-1,46,47,43,-1,43,47,48,-1,43,48,41,-1,41,48,49,-1,41,49,22,-1,22,49,50,-1,22,50,23,-1,23,50,51,-1,23,51,26,-1,26,51,52,-1,26,52,28,-1,28,52,53,-1,28,53,33,-1,33,53,54,-1,33,54,30,-1,30,54,55,-1,30,55,39,-1,39,55,56,-1,39,56,37,-1,37,56,57,-1,37,57,34,-1,34,57,58,-1,34,58,45,-1,45,58,46,-1,45,46,43,-1,52,51,59,-1,59,51,60,-1,53,52,61,-1,61,52,59,-1,53,61,62,-1,53,62,54,-1,54,62,63,-1,54,63,55,-1,55,63,64,-1,55,64,56,-1,56,64,65,-1,56,65,57,-1,57,65,66,-1,57,66,58,-1,58,66,67,-1,58,67,46,-1,46,67,68,-1,46,68,47,-1,47,68,69,-1,47,69,48,-1,48,69,70,-1,48,70,49,-1,49,70,71,-1,49,71,50,-1,51,50,60,-1,60,50,71,-1,72,73,74,-1,74,73,75,-1,73,76,75,-1,75,76,77,-1,76,78,77,-1,77,78,79,-1,78,80,79,-1,79,80,81,-1,80,82,81,-1,81,82,83,-1,82,84,83,-1,83,84,85,-1,84,86,85,-1,85,86,87,-1,86,88,87,-1,87,88,89,-1,88,90,89,-1,89,90,91,-1,90,92,91,-1,91,92,93,-1,92,94,93,-1,93,94,95,-1,94,72,95,-1,95,72,74,-1,72,94,92,-1,92,90,72,-1,72,90,88,-1,72,88,73,-1,78,76,80,-1,80,76,73,-1,80,73,82,-1,82,73,88,-1,82,88,84,-1,84,88,86,-1,96,97,98,-1,96,98,99,-1,99,98,100,-1,99,100,101,-1,101,100,102,-1,101,102,103,-1,103,102,104,-1,103,104,105,-1,96,106,97,-1,97,106,107,-1,108,109,110,-1,108,110,111,-1,111,110,112,-1,111,112,113,-1,113,112,114,-1,113,114,115,-1,115,114,107,-1,115,107,106,-1,116,117,118,-1,116,118,119,-1,119,118,120,-1,119,120,121,-1,121,120,122,-1,121,122,123,-1,123,122,109,-1,123,109,108,-1,124,125,126,-1,124,126,127,-1,127,126,128,-1,127,128,129,-1,129,128,130,-1,129,130,131,-1,131,130,117,-1,131,117,116,-1,132,133,134,-1,132,134,135,-1,135,134,125,-1,135,125,124,-1,132,136,133,-1,133,136,137,-1,138,139,140,-1,138,140,141,-1,141,140,142,-1,141,142,143,-1,142,144,143,-1,143,144,145,-1,143,145,146,-1,146,145,137,-1,146,137,136,-1,147,148,149,-1,147,149,150,-1,150,149,151,-1,150,151,152,-1,152,151,153,-1,152,153,154,-1,154,153,138,-1,138,153,155,-1,138,155,139,-1,156,157,158,-1,156,158,159,-1,159,158,148,-1,159,148,147,-1,105,104,160,-1,105,160,161,-1,161,160,162,-1,161,162,163,-1,163,162,164,-1,163,164,165,-1,165,164,157,-1,165,157,156,-1,136,132,146,-1,146,132,135,-1,156,159,131,-1,131,159,129,-1,129,159,147,-1,129,147,150,-1,106,96,99,-1,106,99,115,-1,115,99,101,-1,115,101,103,-1,150,152,129,-1,129,152,154,-1,129,154,127,-1,127,154,138,-1,127,138,124,-1,124,138,141,-1,124,141,135,-1,135,141,143,-1,135,143,146,-1,131,116,156,-1,156,116,119,-1,156,119,165,-1,165,119,121,-1,165,121,163,-1,163,121,123,-1,163,123,161,-1,161,123,108,-1,161,108,105,-1,105,108,111,-1,105,111,103,-1,103,111,113,-1,103,113,115,-1,166,167,168,-1,168,167,169,-1,167,170,169,-1,169,170,171,-1,170,172,171,-1,171,172,173,-1,172,174,173,-1,173,174,175,-1,174,176,175,-1,175,176,177,-1,176,166,177,-1,177,166,168,-1,170,167,172,-1,172,167,166,-1,172,166,174,-1,174,166,176,-1,
        ]
    }
}
Shape{
    appearance Appearance {
        material  Material 	{
            diffuseColor 0.11372549019607843 0.11372549019607843 0.11372549019607843
            specularColor 0.058823529411764705 0.058823529411764705 0.058823529411764705
            ambientIntensity 0.2
            transparency 0
            shininess 0.5
        }
    }
    geometry IndexedFaceSet {
        ccw TRUE
        solid FALSE
        coord DEF co Coordinate {
            point [
                -0.0218 0.3369 0.0, -0.0076 0.3068 0.0, -0.0357 0.3068 0.0, 0.0836 0.3442 0.0, 0.0836 0.2816 0.0, 0.0781 0.3442 0.0, 0.0746 0.2816 0.0, 0.0659 0.3438 0.0, 0.0632 0.2819 0.0, 0.0539 0.342 0.0, 0.052 0.2836 0.0, 0.0408 0.2906 0.0, 0.0344 0.3021 0.0, 0.0331 0.3119 0.0, 0.0366 0.3276 0.0, 0.0452 0.3378 0.0, 0.0452 0.3378 0.0
            ]
        }
        coordIndex [
            0,1,2,-1,3,4,5,-1,5,4,6,-1,5,6,7,-1,7,6,8,-1,7,8,9,-1,10,11,8,-1,8,11,12,-1,8,12,13,-1,13,14,8,-1,8,14,15,-1,8,15,9,-1,
        ]
    }
}
Shape{
    appearance Appearance {
        material  Material 	{
            diffuseColor 0.7529411764705882 0.7529411764705882 0.7529411764705882
            specularColor 0.3764705882352941 0.3764705882352941 0.3764705882352941
            ambientIntensity 0.2
            transparency 0
            shininess 0.5
        }
    }
    geometry IndexedFaceSet {
        ccw TRUE
        solid FALSE
        coord DEF co Coordinate {
            point [
                -0.4043 0.448 0.2913, -0.4043 0.448 0.2953, -0.4118 0.4757 0.2913, -0.4118 0.4757 0.2953, -0.4321 0.4961 0.2913, -0.4321 0.4961 0.2953, -0.4599 0.5035 0.2913, -0.4599 0.5035 0.2953, -0.4877 0.4961 0.2913, -0.4877 0.4961 0.2953, -0.508 0.4757 0.2913, -0.508 0.4757 0.2953, -0.5155 0.448 0.2913, -0.5155 0.448 0.2953, -0.508 0.4202 0.2913, -0.508 0.4202 0.2953, -0.4877 0.3998 0.2913, -0.4877 0.3998 0.2953, -0.4599 0.3924 0.2913, -0.4599 0.3924 0.2953, -0.4321 0.3998 0.2913, -0.4321 0.3998 0.2953, -0.4118 0.4202 0.2913, -0.4118 0.4202 0.2953, -0.4118 0.4202 0.2953
            ]
        }
        coordIndex [
            0,1,2,-1,2,1,3,-1,2,3,4,-1,4,3,5,-1,4,5,6,-1,6,5,7,-1,6,7,8,-1,8,7,9,-1,8,9,10,-1,10,9,11,-1,10,11,12,-1,12,11,13,-1,12,13,14,-1,14,13,15,-1,14,15,16,-1,16,15,17,-1,16,17,18,-1,18,17,19,-1,18,19,20,-1,20,19,21,-1,20,21,22,-1,22,21,23,-1,22,23,0,-1,0,23,1,-1,
        ]
    }
}
Shape{
    appearance Appearance {
        material  Material 	{
            diffuseColor 0.11372549019607843 0.11372549019607843 0.11372549019607843
            specularColor 0.058823529411764705 0.058823529411764705 0.058823529411764705
            ambientIntensity 0.2
            transparency 0
            shininess 0.5
        }
    }
    geometry IndexedFaceSet {
        ccw TRUE
        solid FALSE
        coord DEF co Coordinate {
            point [
                -0.4321 0.3998 0.2913, -0.4118 0.4202 0.2913, -0.4599 0.448 0.2913, -0.4043 0.448 0.2913, -0.4118 0.4757 0.2913, -0.508 0.4202 0.2913, -0.4877 0.3998 0.2913, -0.4599 0.3924 0.2913, -0.4877 0.4961 0.2913, -0.508 0.4757 0.2913, -0.5155 0.448 0.2913, -0.4321 0.4961 0.2913, -0.4599 0.5035 0.2913, -0.4599 0.5035 0.2913
            ]
        }
        coordIndex [
            0,1,2,-1,2,1,3,-1,2,3,4,-1,5,6,2,-1,2,6,7,-1,2,7,0,-1,8,9,2,-1,2,9,10,-1,2,10,5,-1,4,11,2,-1,2,11,12,-1,2,12,8,-1,
        ]
    }
}