#VRML V2.0 utf8
# 3D model generated by easyeda2kicad.py (https://github.com/uPesy/easyeda2kicad.py)

Shape{
    appearance Appearance {
        material  Material 	{
            diffuseColor 0.2235294117647059 0.2235294117647059 0.2235294117647059
            specularColor 0.1803921568627451 0.1803921568627451 0.1803921568627451
            ambientIntensity 0.2
            transparency 0
            shininess 0.5
        }
    }
    geometry IndexedFaceSet {
        ccw TRUE
        solid FALSE
        coord DEF co Coordinate {
            point [
                0.3371 0.1481 0.0197, 0.3758 0.1437 0.0197, 0.2519 -0.1475 0.0197, 2.0669 1.8307 0.0197, 2.0669 0.5906 0.0197, 1.5698 0.5906 0.0197, 0.2449 -0.1868 0.0197, 0.2065 -0.2096 0.0197, 0.2449 -0.1436 0.0197, 0.2065 2.0276 0.0197, 1.8701 2.0276 0.0197, 1.921 2.0209 0.0197, 1.9685 2.0012 0.0197, 2.0093 1.9699 0.0197, 2.0406 1.9291 0.0197, 2.0602 1.8817 0.0197, 0.773 -0.2072 0.0197, 0.3763 -0.2096 0.0197, 0.5713 -0.2072 0.0197, 0.4017 -0.207 0.0197, 0.4399 -0.1938 0.0197, 0.4053 0.1331 0.0197, 0.4325 0.1149 0.0197, 0.4563 0.0886 0.0197, 0.4849 -0.0145 0.0197, 0.4809 -0.0572 0.0197, 0.4702 -0.091 0.0197, 0.3826 -0.1647 0.0197, 0.3459 -0.1688 0.0197, 0.4113 -0.1541 0.0197, 0.4355 -0.1378 0.0197, 0.454 -0.1183 0.0197, 0.2937 -0.163 0.0197, 0.2892 0.1419 0.0197, 0.2449 0.1229 0.0197, 0.2449 0.1757 0.0197, 0.4726 0.0582 0.0197, 0.483 0.0161 0.0197, 1.6651 0.2007 0.0197, 1.6772 0.0 0.0197, 0.517 0.0828 0.0197, 0.4939 0.1196 0.0197, 0.7202 0.1865 0.0197, 0.773 0.1865 0.0197, 1.6291 0.3985 0.0197, 0.4715 -0.1736 0.0197, 0.5011 -0.1425 0.0197, 0.5713 -0.164 0.0197, 0.5221 -0.105 0.0197, 0.7202 -0.164 0.0197, 0.4583 0.1538 0.0197, 0.4209 0.1753 0.0197, 0.3771 0.1881 0.0197, 0.5339 -0.0634 0.0197, 0.5377 -0.0178 0.0197, 0.5321 0.0382 0.0197, 0.3375 0.1913 0.0197, 0.2904 0.1881 0.0197, 1.5698 -0.5906 0.0197, 2.0669 -0.5906 0.0197, 2.0669 -1.4452 0.0197, 0.2868 -0.204 0.0197, 0.3266 -0.2096 0.0197, 0.2065 -2.0276 0.0197, 0.3424 -0.2118 0.0197, 0.3532 -0.212 0.0197, 1.4764 -2.0276 0.0197, 1.6291 -0.3985 0.0197, 1.6635 -0.2096 0.0197, 1.6651 -0.2007 0.0197, -1.4764 2.0276 0.0197, -2.0669 1.437 0.0197, -1.5698 0.5906 0.0197, -2.0669 0.5906 0.0197, -0.7236 -0.0968 0.0197, -0.5609 -0.0968 0.0197, -0.7634 -0.2072 0.0197, -0.5233 -0.2072 0.0197, -0.6674 0.1865 0.0197, -1.6772 -0.0 0.0197, -1.6651 0.2007 0.0197, 0.1152 0.1433 0.0197, 0.1152 0.0137 0.0197, -0.0336 0.1433 0.0197, -0.024 0.0137 0.0197, -0.024 -0.0296 0.0197, 0.1152 -0.0296 0.0197, 0.1152 -0.164 0.0197, -0.4173 -0.0993 0.0197, -0.3947 -0.1345 0.0197, -0.4657 -0.2072 0.0197, -0.3623 -0.1655 0.0197, -0.3212 -0.1894 0.0197, -0.0336 0.1865 0.0197, -0.12 0.1865 0.0197, -0.12 -0.2072 0.0197, -0.0432 -0.164 0.0197, -0.288 0.1804 0.0197, -0.3341 0.1642 0.0197, -0.6146 0.1865 0.0197, -0.3769 0.1355 0.0197, -0.3773 0.1352 0.0197, -0.4052 0.1043 0.0197, -0.4235 0.0704 0.0197, -0.4341 0.0316 0.0197, -0.4369 -0.0054 0.0197, -0.4314 -0.0581 0.0197, -1.6291 0.3985 0.0197, -0.2311 0.1865 0.0197, -0.0432 -0.2072 0.0197, 0.168 -0.2072 0.0197, 0.168 0.1865 0.0197, -0.2271 -0.2072 0.0197, -0.2758 -0.2029 0.0197, -1.6651 -0.2007 0.0197, -0.821 -0.2072 0.0197, -1.6635 -0.2096 0.0197, -1.6732 -2.0276 0.0197, -1.5698 -0.5906 0.0197, -2.0669 -1.6339 0.0197, -2.0669 -0.5906 0.0197, -1.6291 -0.3985 0.0197, 2.0669 -1.4452 0.4575, 2.0656 -1.4465 0.4575, 1.5538 -1.9512 0.5504, 1.5405 -1.9643 0.5674, 1.513 -1.9914 0.6696, 1.5161 -1.9884 0.6877, 1.4764 -2.0276 1.5945, 1.5587 -1.9464 0.5457, 1.533 -1.9718 0.5806, 1.5258 -1.9788 0.5931, 1.5217 -1.9829 0.6029, 1.5188 -1.9857 0.6972, 1.5196 -1.985 0.6997, 1.5299 -1.9748 0.7238, 1.5327 -1.972 0.7283, 1.5418 -1.9631 0.743, 1.5586 -1.9465 0.7632, 1.683 -1.8238 0.4575, 1.683 -1.8238 0.4724, 1.6554 -1.851 0.4819, 1.6107 -1.8951 0.5037, 1.5939 -1.9117 0.5154, 1.5797 -1.9257 0.5254, 1.5192 -1.9853 0.6117, 1.5145 -1.9899 0.6282, 1.5133 -1.9912 0.639, 1.5605 -1.9446 0.7656, 1.585 -1.9204 0.7875, 1.5938 -1.9118 0.7934, 1.6369 -1.8693 0.4906, 1.6164 -1.8894 0.5003, 1.6141 -1.8917 0.807, 1.6368 -1.8694 0.8184, 1.6436 -1.8627 0.8219, 2.0669 -1.4452 0.8512, 2.0669 -1.4452 1.5945, 2.0656 -1.4465 0.8512, 1.683 -1.8238 0.8512, 1.683 -1.8238 0.8362, 1.5121 -1.9923 0.6565, 1.5121 -1.9923 0.6578, 1.5127 -1.9917 0.6679, 1.5122 -1.9922 0.6483, 1.5121 -1.9923 0.6511, 1.5121 -1.9923 0.6534, 1.5121 -1.9923 0.6535, 1.5121 -1.9924 0.6538, 1.5121 -1.9924 0.6548, 1.5121 -1.9923 0.6551, 1.5121 -1.9923 0.6553, 1.5121 -1.9924 0.654, 1.5121 -1.9924 0.654, 1.5121 -1.9924 0.6541, 1.5121 -1.9924 0.6545, 1.5121 -1.9924 0.6546, 1.5121 -1.9924 0.6546, 1.5121 -1.9924 0.6542, 1.5121 -1.9924 0.6544, 1.5121 -1.9924 0.6544
            ]
        }
        coordIndex [
            0,1,2,-1,3,4,5,-1,6,7,8,-1,8,7,9,-1,5,9,10,-1,5,10,3,-1,3,10,11,-1,3,11,12,-1,12,13,3,-1,3,13,14,-1,3,14,15,-1,16,17,18,-1,18,17,19,-1,18,19,20,-1,1,21,2,-1,2,21,22,-1,2,22,23,-1,24,25,2,-1,2,25,26,-1,27,28,29,-1,29,28,30,-1,26,31,2,-1,2,31,30,-1,2,30,32,-1,32,30,28,-1,0,2,33,-1,33,2,8,-1,33,8,34,-1,34,8,9,-1,34,9,35,-1,23,36,2,-1,2,36,37,-1,2,37,24,-1,16,38,39,-1,40,41,42,-1,42,41,9,-1,42,9,43,-1,43,9,5,-1,43,5,16,-1,16,5,44,-1,16,44,38,-1,20,45,18,-1,18,45,46,-1,18,46,47,-1,47,46,48,-1,47,48,49,-1,41,50,9,-1,9,50,51,-1,9,51,52,-1,48,53,49,-1,49,53,54,-1,49,54,42,-1,42,54,55,-1,42,55,40,-1,52,56,9,-1,9,56,57,-1,9,57,35,-1,58,59,60,-1,6,61,7,-1,7,61,62,-1,7,62,63,-1,62,64,63,-1,63,64,65,-1,63,65,17,-1,60,66,58,-1,58,66,63,-1,58,63,67,-1,67,63,17,-1,67,17,68,-1,68,17,16,-1,68,16,69,-1,69,16,39,-1,70,9,71,-1,71,9,72,-1,71,72,73,-1,74,75,76,-1,76,75,77,-1,78,79,80,-1,81,82,83,-1,83,82,84,-1,85,86,87,-1,88,89,90,-1,90,89,91,-1,90,91,92,-1,93,83,94,-1,94,83,84,-1,94,84,95,-1,95,84,85,-1,95,85,96,-1,96,85,87,-1,97,98,99,-1,99,98,100,-1,100,101,99,-1,99,101,102,-1,99,102,103,-1,103,104,99,-1,99,104,105,-1,99,105,90,-1,90,105,106,-1,90,106,88,-1,80,107,78,-1,78,107,72,-1,78,72,99,-1,99,72,108,-1,99,108,97,-1,109,110,7,-1,7,110,111,-1,7,111,9,-1,9,111,93,-1,9,93,72,-1,72,93,94,-1,72,94,108,-1,96,109,95,-1,95,109,7,-1,95,7,112,-1,112,7,90,-1,112,90,113,-1,113,90,92,-1,79,78,114,-1,114,78,115,-1,114,115,116,-1,116,115,76,-1,116,76,7,-1,7,76,77,-1,7,77,90,-1,63,117,118,-1,118,117,119,-1,118,119,120,-1,63,118,7,-1,7,118,121,-1,7,121,116,-1,60,122,66,-1,66,122,123,-1,124,125,66,-1,126,127,128,-1,124,66,129,-1,125,130,66,-1,66,130,131,-1,66,131,132,-1,127,133,128,-1,128,133,134,-1,128,134,135,-1,135,136,128,-1,128,136,137,-1,128,137,138,-1,123,139,66,-1,66,139,140,-1,66,140,141,-1,142,143,66,-1,66,143,144,-1,66,144,129,-1,132,145,66,-1,66,145,146,-1,66,146,147,-1,138,148,128,-1,128,148,149,-1,128,149,150,-1,141,151,66,-1,66,151,152,-1,66,152,142,-1,150,153,128,-1,128,153,154,-1,128,154,155,-1,156,157,158,-1,158,157,128,-1,158,128,159,-1,159,128,155,-1,159,155,160,-1,161,162,128,-1,128,162,163,-1,128,163,126,-1,147,164,66,-1,66,164,165,-1,66,165,128,-1,165,166,128,-1,128,166,167,-1,128,167,168,-1,169,170,128,-1,128,170,171,-1,128,171,161,-1,168,172,128,-1,128,172,173,-1,128,173,174,-1,175,176,128,-1,128,176,177,-1,128,177,169,-1,174,178,128,-1,128,178,179,-1,128,179,175,-1,
        ]
    }
}
Shape{
    appearance Appearance {
        material  Material 	{
            diffuseColor 0.8509803921568627 0.8509803921568627 0.8509803921568627
            specularColor 0.4235294117647059 0.4235294117647059 0.4235294117647059
            ambientIntensity 0.2
            transparency 0
            shininess 0.5
        }
    }
    geometry IndexedFaceSet {
        ccw TRUE
        solid FALSE
        coord DEF co Coordinate {
            point [
                1.683 -1.8238 0.4575, 1.6913 -1.8321 0.4575, 1.683 -1.8238 0.4724, 1.6913 -1.8321 0.4729, 1.9992 -1.5243 0.7865, 2.0219 -1.5015 0.766, 2.0712 -1.4522 0.8512, 1.9979 -1.5256 0.7874, 2.0308 -1.4926 0.7553, 2.0406 -1.4828 0.7436, 2.053 -1.4704 0.7235, 2.0703 -1.4532 0.6637, 2.0704 -1.453 0.6598, 2.0688 -1.4546 0.6349, 2.0683 -1.4551 0.6292, 2.0712 -1.4522 0.4575, 2.0695 -1.454 0.6415, 2.0662 -1.4572 0.6195, 2.0574 -1.4661 0.5941, 2.0666 -1.4568 0.6877, 2.0664 -1.457 0.6882, 2.0632 -1.4602 0.6994, 2.0672 -1.4563 0.6839, 2.0688 -1.4546 0.6732, 2.0705 -1.4529 0.656, 2.0706 -1.4529 0.6536, 2.07 -1.4534 0.6476, 2.0677 -1.4557 0.6263, 2.0664 -1.457 0.6204, 1.7388 -1.7846 0.8463, 1.6913 -1.8321 0.8512, 1.6941 -1.8293 0.8363, 1.6913 -1.8321 0.8357, 2.0547 -1.4687 0.7195, 2.0565 -1.4669 0.7152, 2.0511 -1.4723 0.5817, 2.0337 -1.4897 0.556, 2.031 -1.4924 0.553, 1.9429 -1.5805 0.8203, 1.9088 -1.6146 0.8331, 1.904 -1.6194 0.8349, 1.9565 -1.5669 0.8133, 1.9703 -1.5531 0.8061, 2.0564 -1.467 0.5922, 2.0548 -1.4686 0.589, 2.016 -1.5074 0.5367, 1.9976 -1.5258 0.5218, 1.9863 -1.5372 0.5126, 1.8565 -1.6669 0.4633, 1.8463 -1.6771 0.4612, 1.747 -1.7764 0.847, 1.7874 -1.736 0.8506, 1.8019 -1.7215 0.85, 1.8358 -1.6877 0.8486, 1.8566 -1.6669 0.8457, 1.8629 -1.6605 0.8448, 1.9565 -1.5669 0.4953, 1.9516 -1.5719 0.4924, 1.9379 -1.5855 0.4861, 1.9087 -1.6147 0.476, 1.8934 -1.63 0.4706, 1.747 -1.7764 0.4616, 1.7371 -1.7863 0.4626, 1.6941 -1.8293 0.4723, 1.8019 -1.7215 0.4582, 1.7975 -1.7259 0.4579, 1.784 -1.7394 0.4581, 1.784 -1.7394 0.4581
            ]
        }
        coordIndex [
            0,1,2,-1,2,1,3,-1,4,5,6,-1,4,6,7,-1,5,8,6,-1,6,8,9,-1,6,9,10,-1,6,11,12,-1,13,14,15,-1,13,15,16,-1,15,17,18,-1,19,6,20,-1,20,6,21,-1,19,22,6,-1,6,22,23,-1,6,23,11,-1,12,24,6,-1,6,24,25,-1,6,25,15,-1,15,25,26,-1,15,26,16,-1,14,27,15,-1,15,27,28,-1,15,28,17,-1,29,30,31,-1,31,30,32,-1,10,33,6,-1,6,33,34,-1,6,34,21,-1,35,36,15,-1,15,36,37,-1,38,6,39,-1,39,6,40,-1,38,41,6,-1,6,41,42,-1,6,42,7,-1,18,43,15,-1,15,43,44,-1,15,44,35,-1,37,45,15,-1,15,45,46,-1,15,46,47,-1,48,49,15,-1,29,50,30,-1,30,50,51,-1,30,51,6,-1,6,51,52,-1,6,52,53,-1,53,54,6,-1,6,54,55,-1,6,55,40,-1,47,56,15,-1,15,56,57,-1,15,57,58,-1,58,59,15,-1,15,59,60,-1,15,60,48,-1,61,62,1,-1,1,62,63,-1,1,63,3,-1,49,64,15,-1,15,64,65,-1,15,65,1,-1,1,65,66,-1,1,66,61,-1,
        ]
    }
}
Shape{
    appearance Appearance {
        material  Material 	{
            diffuseColor 0.2235294117647059 0.2235294117647059 0.2235294117647059
            specularColor 0.1803921568627451 0.1803921568627451 0.1803921568627451
            ambientIntensity 0.2
            transparency 0
            shininess 0.5
        }
    }
    geometry IndexedFaceSet {
        ccw TRUE
        solid FALSE
        coord DEF co Coordinate {
            point [
                2.0669 -0.5906 0.8512, 2.0669 -0.5906 1.5945, 2.0669 -1.4341 0.8512, 2.0669 -1.4452 1.5945, 2.0669 -1.4452 0.8512, 2.0669 -1.4452 0.8512
            ]
        }
        coordIndex [
            0,1,2,-1,2,1,3,-1,2,3,4,-1,
        ]
    }
}
Shape{
    appearance Appearance {
        material  Material 	{
            diffuseColor 0.8509803921568627 0.8509803921568627 0.8509803921568627
            specularColor 0.4235294117647059 0.4235294117647059 0.4235294117647059
            ambientIntensity 0.2
            transparency 0
            shininess 0.5
        }
    }
    geometry IndexedFaceSet {
        ccw TRUE
        solid FALSE
        coord DEF co Coordinate {
            point [
                2.0669 -0.5906 0.8512, 2.0787 -0.5906 0.8512, 2.0669 -0.5906 1.5945, 2.0787 -0.5906 1.6142, 1.5698 -0.5906 1.5945, 1.5698 -0.5906 1.6142, 1.5698 -0.5906 1.6142
            ]
        }
        coordIndex [
            0,1,2,-1,2,1,3,-1,2,3,4,-1,4,3,5,-1,
        ]
    }
}
Shape{
    appearance Appearance {
        material  Material 	{
            diffuseColor 0.2235294117647059 0.2235294117647059 0.2235294117647059
            specularColor 0.1803921568627451 0.1803921568627451 0.1803921568627451
            ambientIntensity 0.2
            transparency 0
            shininess 0.5
        }
    }
    geometry IndexedFaceSet {
        ccw TRUE
        solid FALSE
        coord DEF co Coordinate {
            point [
                -1.4296 0.8694 1.5945, -1.2979 1.056 1.5945, -2.0669 1.437 1.5945, 0.5603 1.5766 1.5945, 0.7698 1.4856 1.5945, 1.8701 2.0276 1.5945, -2.0669 0.5906 1.5945, -1.5698 0.5906 1.5945, -1.4764 2.0276 1.5945, -1.1421 1.2229 1.5945, -0.9649 1.367 1.5945, -0.7698 1.4856 1.5945, -0.5603 1.5766 1.5945, -0.3404 1.6382 1.5945, 1.6732 0.0 1.5945, 1.6576 -0.2278 1.5945, 1.6651 -0.2007 1.5945, -1.5347 0.6666 1.5945, -1.6112 0.4514 1.5945, -1.6291 0.3985 1.5945, -1.6576 0.2278 1.5945, -1.6651 0.2007 1.5945, -1.6732 0.0 1.5945, -1.6732 -2.0276 1.5945, -0.5603 -1.5766 1.5945, -0.7698 -1.4856 1.5945, 2.0669 -1.4452 1.5945, 2.0669 -0.5906 1.5945, 1.5698 -0.5906 1.5945, 0.9649 -1.367 1.5945, 0.7698 -1.4856 1.5945, 1.4764 -2.0276 1.5945, 0.5603 -1.5766 1.5945, 0.3404 -1.6382 1.5945, -0.9649 -1.367 1.5945, -1.1421 -1.2229 1.5945, -2.0669 -1.6339 1.5945, -1.6772 -0.0 1.5945, -1.6651 -0.2007 1.5945, -1.6576 -0.2278 1.5945, -1.6291 -0.3985 1.5945, -1.6112 -0.4514 1.5945, -1.5698 -0.5906 1.5945, -1.5347 -0.6666 1.5945, -2.0669 -0.5906 1.5945, -1.4296 -0.8694 1.5945, -1.2979 -1.056 1.5945, -0.1142 1.6693 1.5945, 0.1142 1.6693 1.5945, 0.3404 1.6382 1.5945, 1.6291 -0.3985 1.5945, 1.6112 -0.4514 1.5945, 1.5347 -0.6666 1.5945, 1.4296 -0.8694 1.5945, 1.2979 -1.056 1.5945, 1.1421 -1.2229 1.5945, 0.1142 -1.6693 1.5945, -0.1142 -1.6693 1.5945, -0.3404 -1.6382 1.5945, 2.0406 1.9291 1.5945, 2.0093 1.9699 1.5945, 1.2979 1.056 1.5945, 0.9649 1.367 1.5945, 1.1421 1.2229 1.5945, 1.921 2.0209 1.5945, 1.9685 2.0012 1.5945, 1.6772 0.0 1.5945, 1.6651 0.2007 1.5945, 1.6576 0.2278 1.5945, 1.6291 0.3985 1.5945, 1.6112 0.4514 1.5945, 1.5698 0.5906 1.5945, 1.5347 0.6666 1.5945, 2.0669 0.5906 1.5945, 1.4296 0.8694 1.5945, 2.0669 1.8307 1.5945, 2.0602 1.8817 1.5945, 2.0669 1.8307 0.0197, 2.0669 0.5906 0.0197, 2.0669 -1.4452 0.4575, 2.0669 -1.4452 0.0197, 2.0669 -1.4341 0.4575, 2.0669 -0.5906 0.0197, 2.0669 -0.5906 0.4575, 2.0669 -0.5906 0.4575
            ]
        }
        coordIndex [
            0,1,2,-1,3,4,5,-1,2,6,7,-1,2,1,8,-1,8,1,9,-1,8,9,10,-1,10,11,8,-1,8,11,12,-1,8,12,13,-1,14,15,16,-1,0,2,17,-1,17,2,7,-1,17,7,18,-1,18,7,19,-1,18,19,20,-1,20,19,21,-1,20,21,22,-1,23,24,25,-1,26,27,28,-1,29,30,31,-1,31,30,32,-1,31,32,33,-1,25,34,23,-1,23,34,35,-1,23,35,36,-1,21,37,22,-1,22,37,38,-1,22,38,39,-1,39,38,40,-1,39,40,41,-1,41,40,42,-1,41,42,43,-1,43,42,44,-1,43,44,45,-1,45,44,36,-1,45,36,46,-1,46,36,35,-1,13,47,8,-1,8,47,48,-1,8,48,5,-1,5,48,49,-1,5,49,3,-1,16,15,50,-1,50,15,51,-1,50,51,28,-1,28,51,52,-1,28,52,26,-1,52,53,26,-1,26,53,54,-1,26,54,31,-1,31,54,55,-1,31,55,29,-1,33,56,31,-1,31,56,57,-1,31,57,23,-1,23,57,58,-1,23,58,24,-1,59,60,61,-1,4,62,5,-1,5,62,63,-1,5,63,64,-1,64,63,61,-1,64,61,65,-1,65,61,60,-1,16,66,14,-1,14,66,67,-1,14,67,68,-1,68,67,69,-1,68,69,70,-1,70,69,71,-1,70,71,72,-1,72,71,73,-1,72,73,74,-1,74,73,75,-1,74,75,61,-1,61,75,76,-1,61,76,59,-1,77,75,78,-1,78,75,73,-1,79,80,81,-1,81,80,82,-1,81,82,83,-1,
        ]
    }
}
Shape{
    appearance Appearance {
        material  Material 	{
            diffuseColor 0.8509803921568627 0.8509803921568627 0.8509803921568627
            specularColor 0.4235294117647059 0.4235294117647059 0.4235294117647059
            ambientIntensity 0.2
            transparency 0
            shininess 0.5
        }
    }
    geometry IndexedFaceSet {
        ccw TRUE
        solid FALSE
        coord DEF co Coordinate {
            point [
                -1.683 1.8237 0.4575, -1.6913 1.8321 0.4575, -1.683 1.8237 0.4724, -1.6913 1.8321 0.4729, -2.053 1.4704 0.7235, -2.0712 1.4522 0.8512, -2.0415 1.4819 0.7421, -2.0406 1.4828 0.7436, -1.9735 1.5499 0.8039, -1.9992 1.5243 0.7865, -2.0702 1.4533 0.6643, -2.0703 1.4532 0.6637, -2.0704 1.4531 0.66, -2.0117 1.5117 0.7752, -2.0219 1.5015 0.766, -2.0662 1.4572 0.6195, -2.0712 1.4522 0.4575, -2.0681 1.4554 0.628, -2.0683 1.4551 0.6292, -2.0632 1.4602 0.6994, -2.0666 1.4568 0.6877, -2.0671 1.4563 0.6843, -2.0701 1.4534 0.648, -2.0695 1.4539 0.642, -1.7388 1.7846 0.8463, -1.6913 1.8321 0.8512, -1.7145 1.8089 0.8409, -1.6913 1.8321 0.8357, -2.0559 1.4675 0.7166, -2.0599 1.4636 0.7074, -2.0686 1.4549 0.6748, -2.0688 1.4547 0.6735, -2.0705 1.4529 0.6562, -2.0706 1.4529 0.6536, -2.0705 1.4529 0.6527, -2.0689 1.4545 0.6354, -2.0687 1.4547 0.6333, -2.0599 1.4636 0.6012, -2.0585 1.465 0.5973, -2.0574 1.4661 0.5941, -1.928 1.5954 0.8259, -1.9429 1.5805 0.8203, -1.9703 1.5531 0.8061, -2.0511 1.4723 0.5817, -2.0412 1.4822 0.567, -2.0337 1.4897 0.556, -2.016 1.5074 0.5367, -2.0118 1.5117 0.5333, -1.9863 1.5372 0.5126, -1.8358 1.6877 0.8486, -1.8629 1.6605 0.8448, -1.8773 1.6461 0.4674, -1.8463 1.6771 0.4612, -1.7684 1.755 0.8489, -1.7874 1.736 0.8506, -1.8234 1.7 0.8491, -1.8773 1.6461 0.8413, -1.904 1.6194 0.8349, -1.9734 1.55 0.5051, -1.9516 1.5719 0.4924, -1.9379 1.5855 0.4861, -1.928 1.5954 0.4827, -1.8934 1.63 0.4706, -1.7684 1.755 0.4596, -1.7371 1.7863 0.4626, -1.7145 1.8089 0.4677, -1.8234 1.7 0.4597, -1.7975 1.7259 0.4579, -1.784 1.7394 0.4581, -2.0453 1.4614 0.585, -2.0629 1.4438 0.4575, -2.0332 1.4735 0.5654, -2.0329 1.4738 0.5649, -1.9652 1.5416 0.504, -1.9913 1.5154 0.5218, -2.0033 1.5034 0.5327, -2.0142 1.4925 0.5425, -2.0514 1.4553 0.5995, -2.0555 1.4512 0.6091, -2.0589 1.4478 0.6209, -2.0444 1.4623 0.7252, -2.0629 1.4438 0.8512, -2.0514 1.4553 0.7091, -2.0555 1.4512 0.6997, -1.7306 1.7762 0.4618, -1.7062 1.8006 0.4673, -2.036 1.4707 0.7391, -2.033 1.4737 0.7429, -2.0155 1.4912 0.7648, -1.9197 1.5871 0.4822, -1.9351 1.5716 0.488, -1.9624 1.5443 0.5022, -2.0033 1.5034 0.7759, -1.9917 1.515 0.7865, -1.9651 1.5417 0.8043, -2.0624 1.4443 0.6658, -2.0599 1.4468 0.6805, -2.0581 1.4486 0.691, -1.8276 1.6791 0.4595, -1.855 1.6517 0.4634, -2.0601 1.4466 0.628, -2.0622 1.4445 0.6406, -2.0624 1.4443 0.6436, -1.9576 1.5491 0.8092, -1.9198 1.5869 0.827, -1.919 1.5878 0.8274, -1.76 1.7467 0.4592, -1.7792 1.7276 0.4576, -1.8151 1.6917 0.459, -1.869 1.6377 0.4668, -1.8962 1.6106 0.4733, -2.0628 1.4439 0.6504, -2.0628 1.4439 0.6507, -2.0629 1.4439 0.6518, -1.8943 1.6124 0.8358, -1.869 1.6378 0.8416, -1.8468 1.6599 0.8466, -2.0629 1.4439 0.6529, -2.0629 1.4438 0.6532, -2.0629 1.4438 0.6557, -2.0628 1.444 0.6583, -1.815 1.6917 0.8495, -1.7982 1.7085 0.851, -1.683 1.8237 0.8512, -1.76 1.7467 0.8496, -1.7497 1.757 0.8492, -1.7221 1.7847 0.8454, -1.7061 1.8006 0.8416, -1.683 1.8237 0.8362, -2.0626 1.4441 0.6616, -2.0624 1.4443 0.665, -2.0629 1.4438 0.6535, -2.0629 1.4438 0.654, -2.0629 1.4438 0.6546, -2.0629 1.4438 0.6552, -2.0629 1.4438 0.6557, -2.0629 1.4438 0.6557
            ]
        }
        coordIndex [
            0,1,2,-1,2,1,3,-1,4,5,6,-1,6,5,7,-1,8,9,5,-1,10,11,5,-1,5,11,12,-1,9,13,5,-1,5,13,14,-1,5,14,7,-1,15,16,17,-1,17,16,18,-1,19,20,5,-1,5,20,21,-1,22,23,16,-1,24,25,26,-1,26,25,27,-1,4,28,5,-1,5,28,29,-1,5,29,19,-1,21,30,5,-1,5,30,31,-1,5,31,10,-1,12,32,5,-1,5,32,33,-1,5,33,16,-1,16,33,34,-1,16,34,22,-1,23,35,16,-1,16,35,36,-1,16,36,18,-1,15,37,16,-1,16,37,38,-1,16,38,39,-1,40,41,5,-1,5,41,42,-1,5,42,8,-1,39,43,16,-1,16,43,44,-1,16,44,45,-1,45,46,16,-1,16,46,47,-1,16,47,48,-1,5,49,50,-1,51,52,16,-1,24,53,25,-1,25,53,54,-1,25,54,5,-1,5,54,55,-1,5,55,49,-1,50,56,5,-1,5,56,57,-1,5,57,40,-1,48,58,16,-1,16,58,59,-1,16,59,60,-1,60,61,16,-1,16,61,62,-1,16,62,51,-1,63,64,1,-1,1,64,65,-1,1,65,3,-1,52,66,16,-1,16,66,67,-1,16,67,1,-1,1,67,68,-1,1,68,63,-1,69,70,71,-1,71,70,72,-1,73,74,70,-1,74,75,70,-1,70,75,76,-1,70,76,72,-1,69,77,70,-1,70,77,78,-1,70,78,79,-1,80,81,82,-1,82,81,83,-1,84,0,85,-1,85,0,2,-1,80,86,81,-1,81,86,87,-1,81,87,88,-1,89,90,70,-1,70,90,91,-1,70,91,73,-1,88,92,81,-1,81,92,93,-1,81,93,94,-1,95,96,81,-1,81,96,97,-1,81,97,83,-1,70,98,99,-1,79,100,70,-1,70,100,101,-1,70,101,102,-1,94,103,81,-1,81,103,104,-1,81,104,105,-1,84,106,0,-1,0,106,107,-1,0,107,70,-1,70,107,108,-1,70,108,98,-1,99,109,70,-1,70,109,110,-1,70,110,89,-1,102,111,70,-1,70,111,112,-1,70,112,113,-1,105,114,81,-1,81,114,115,-1,81,115,116,-1,113,117,70,-1,70,117,118,-1,70,118,81,-1,119,120,81,-1,116,121,81,-1,81,121,122,-1,81,122,123,-1,123,122,124,-1,123,124,125,-1,125,126,123,-1,123,126,127,-1,123,127,128,-1,120,129,81,-1,81,129,130,-1,81,130,95,-1,118,131,81,-1,81,131,132,-1,81,132,133,-1,133,134,81,-1,81,134,135,-1,81,135,119,-1,
        ]
    }
}
Shape{
    appearance Appearance {
        material  Material 	{
            diffuseColor 0.2235294117647059 0.2235294117647059 0.2235294117647059
            specularColor 0.1803921568627451 0.1803921568627451 0.1803921568627451
            ambientIntensity 0.2
            transparency 0
            shininess 0.5
        }
    }
    geometry IndexedFaceSet {
        ccw TRUE
        solid FALSE
        coord DEF co Coordinate {
            point [
                -2.0669 1.437 1.5945, -2.0669 1.437 0.8512, -2.0669 0.5906 1.5945, -2.0669 1.4341 0.8512, -2.0669 0.5906 0.8512, -2.0669 0.5906 0.8512
            ]
        }
        coordIndex [
            0,1,2,-1,2,1,3,-1,2,3,4,-1,
        ]
    }
}
Shape{
    appearance Appearance {
        material  Material 	{
            diffuseColor 0.8509803921568627 0.8509803921568627 0.8509803921568627
            specularColor 0.4235294117647059 0.4235294117647059 0.4235294117647059
            ambientIntensity 0.2
            transparency 0
            shininess 0.5
        }
    }
    geometry IndexedFaceSet {
        ccw TRUE
        solid FALSE
        coord DEF co Coordinate {
            point [
                -2.0669 0.5906 0.8512, -2.0787 0.5906 0.8512, -2.0669 0.5906 1.5945, -2.0787 0.5906 1.6142, -1.5698 0.5906 1.5945, -1.5698 0.5906 1.6142, -1.5698 0.5906 1.6142
            ]
        }
        coordIndex [
            0,1,2,-1,2,1,3,-1,2,3,4,-1,4,3,5,-1,
        ]
    }
}
Shape{
    appearance Appearance {
        material  Material 	{
            diffuseColor 0.2235294117647059 0.2235294117647059 0.2235294117647059
            specularColor 0.1803921568627451 0.1803921568627451 0.1803921568627451
            ambientIntensity 0.2
            transparency 0
            shininess 0.5
        }
    }
    geometry IndexedFaceSet {
        ccw TRUE
        solid FALSE
        coord DEF co Coordinate {
            point [
                -2.0669 -1.6339 0.0197, -2.0669 -1.6339 1.5945, -2.0669 -0.5906 0.0197, -2.0669 -0.5906 1.5945, -2.0669 1.437 0.4575, -2.0669 1.437 0.0197, -2.0669 1.4341 0.4575, -2.0669 0.5906 0.0197, -2.0669 0.5906 0.4575, -2.0669 0.5906 0.4575
            ]
        }
        coordIndex [
            0,1,2,-1,2,1,3,-1,4,5,6,-1,6,5,7,-1,6,7,8,-1,
        ]
    }
}
Shape{
    appearance Appearance {
        material  Material 	{
            diffuseColor 0.4392156862745098 0.4392156862745098 0.4392156862745098
            specularColor 0.2196078431372549 0.2196078431372549 0.2196078431372549
            ambientIntensity 0.2
            transparency 0
            shininess 0.5
        }
    }
    geometry IndexedFaceSet {
        ccw TRUE
        solid FALSE
        coord DEF co Coordinate {
            point [
                -0.6628 -0.6207 1.5945, -0.7829 -0.6207 1.5945, -1.1164 -1.0781 1.5945, 0.3214 -0.1244 1.5945, 0.7295 0.2154 1.5945, 0.6604 0.1663 1.5945, -0.9555 -1.223 1.5945, -0.776 -1.3441 1.5945, -0.5814 -1.439 1.5945, -0.3755 -1.5059 1.5945, -0.1622 -1.5435 1.5945, 0.0542 -1.551 1.5945, 0.2296 0.2711 1.5945, 0.2702 0.1988 1.5945, 0.5015 0.0995 1.5945, 0.3006 0.1007 1.5945, 1.4919 0.4278 1.5945, 0.8496 0.3756 1.5945, 1.5369 0.216 1.5945, 1.552 -0.0 1.5945, -0.7829 0.2154 1.5945, -0.852 0.1663 1.5945, -0.9618 0.1147 1.5945, -1.0109 0.0995 1.5945, 0.5505 0.1147 1.5945, 0.3184 -0.0306 1.5945, -1.0109 0.2196 1.5945, -1.4584 0.5308 1.5945, -1.5181 0.3227 1.5945, -1.5482 -0.1083 1.5945, -1.5181 -0.3227 1.5945, 0.1898 0.3142 1.5945, 0.5015 0.2196 1.5945, 0.1386 0.348 1.5945, -1.4584 -0.5308 1.5945, -1.3703 -0.7286 1.5945, -1.2556 -0.9122 1.5945, -1.5482 0.1083 1.5945, 0.2695 -1.5284 1.5945, 0.4796 -1.476 1.5945, 0.7295 -0.6207 1.5945, 0.6803 -1.3949 1.5945, 1.0385 1.1533 1.5945, 0.8679 1.2866 1.5945, 0.8029 0.3756 1.5945, 1.3162 -0.8224 1.5945, 1.4178 -0.6312 1.5945, 0.8496 -0.6207 1.5945, 1.4919 -0.4278 1.5945, 1.5369 -0.216 1.5945, -0.7095 0.3756 1.5945, -1.1164 1.0781 1.5945, -0.7735 0.3287 1.5945, -1.2556 0.9122 1.5945, -1.3703 0.7286 1.5945, -0.3755 1.5059 1.5945, -0.5814 1.439 1.5945, -0.6628 0.3756 1.5945, -0.776 1.3441 1.5945, -0.9555 1.223 1.5945, 0.8679 -1.2866 1.5945, 1.0385 -1.1533 1.5945, 1.1889 -0.9976 1.5945, 0.6803 1.3949 1.5945, 0.4796 1.476 1.5945, 0.7388 0.3287 1.5945, -0.8917 0.2642 1.5945, 0.2695 1.5284 1.5945, 0.0542 1.551 1.5945, -0.1622 1.5435 1.5945, -0.1376 0.3409 1.5945, -0.0765 0.3651 1.5945, 1.4178 0.6312 1.5945, 1.3162 0.8224 1.5945, 1.1889 0.9976 1.5945, 0.2985 -0.3463 1.5945, 0.2682 -0.4382 1.5945, 0.2252 -0.5137 1.5945, -0.1398 -0.6047 1.5945, -0.1891 -0.5719 1.5945, 0.0799 0.3683 1.5945, 0.1761 -0.5672 1.5945, 0.1214 -0.6035 1.5945, 0.0598 -0.6249 1.5945, -0.1906 0.3027 1.5945, -0.0103 0.3749 1.5945, 0.0093 0.3756 1.5945, 0.3167 -0.2335 1.5945, -0.0128 -0.6327 1.5945, -0.0827 -0.6251 1.5945, -0.3046 0.0819 1.5945, -0.2751 0.1766 1.5945, -0.237 0.2483 1.5945, 0.6207 0.2642 1.5945, -0.2376 -0.5188 1.5945, -0.2795 -0.4422 1.5945, -0.3057 -0.358 1.5945, -0.324 -0.2314 1.5945, -0.3267 -0.1477 1.5945, -0.3221 -0.0347 1.5945, -0.3221 -0.0347 1.5945
            ]
        }
        coordIndex [
            0,1,2,-1,3,4,5,-1,2,6,0,-1,0,6,7,-1,0,7,8,-1,8,9,0,-1,0,9,10,-1,0,10,11,-1,12,13,14,-1,14,13,15,-1,16,17,18,-1,18,17,19,-1,20,21,1,-1,1,21,22,-1,1,22,23,-1,5,24,3,-1,3,24,14,-1,3,14,25,-1,25,14,15,-1,26,27,28,-1,29,30,23,-1,12,14,31,-1,31,14,32,-1,31,32,33,-1,30,34,23,-1,23,34,35,-1,23,35,1,-1,1,35,36,-1,1,36,2,-1,26,28,23,-1,23,28,37,-1,23,37,29,-1,38,39,40,-1,40,39,41,-1,42,43,44,-1,45,46,47,-1,47,46,48,-1,47,48,17,-1,17,48,49,-1,17,49,19,-1,50,51,52,-1,52,51,53,-1,52,53,54,-1,55,56,57,-1,57,56,58,-1,57,58,50,-1,50,58,59,-1,50,59,51,-1,41,60,40,-1,40,60,61,-1,40,61,47,-1,47,61,62,-1,47,62,45,-1,43,63,44,-1,44,63,64,-1,44,64,65,-1,27,26,54,-1,54,26,66,-1,54,66,52,-1,67,68,57,-1,57,68,69,-1,57,69,55,-1,64,70,71,-1,16,72,17,-1,17,72,73,-1,17,73,44,-1,44,73,74,-1,44,74,42,-1,75,76,40,-1,40,76,77,-1,40,77,38,-1,11,38,0,-1,0,38,78,-1,0,78,79,-1,64,80,33,-1,77,81,38,-1,38,81,82,-1,38,82,83,-1,67,57,64,-1,64,57,84,-1,64,84,70,-1,71,85,64,-1,64,85,86,-1,64,86,80,-1,4,3,40,-1,40,3,87,-1,40,87,75,-1,83,88,38,-1,38,88,89,-1,38,89,78,-1,90,91,57,-1,57,91,92,-1,57,92,84,-1,33,32,64,-1,64,32,93,-1,64,93,65,-1,79,94,0,-1,0,94,95,-1,0,95,96,-1,96,97,0,-1,0,97,98,-1,0,98,57,-1,57,98,99,-1,57,99,90,-1,
        ]
    }
}
Shape{
    appearance Appearance {
        material  Material 	{
            diffuseColor 0.2235294117647059 0.2235294117647059 0.2235294117647059
            specularColor 0.1803921568627451 0.1803921568627451 0.1803921568627451
            ambientIntensity 0.2
            transparency 0
            shininess 0.5
        }
    }
    geometry IndexedFaceSet {
        ccw TRUE
        solid FALSE
        coord DEF co Coordinate {
            point [
                -1.6732 -2.0276 1.5945, -2.0669 -1.6339 1.5945, -1.6732 -2.0276 0.0197, -2.0669 -1.6339 0.0197, 1.4764 -2.0276 1.5945, 0.2065 -2.0276 0.0197, 1.4764 -2.0276 0.0197, 2.0669 1.8307 1.5945, 2.0669 1.8307 0.0197, 2.0602 1.8817 0.0197, 2.0602 1.8817 1.5945, 2.0406 1.9291 0.0197, 2.0406 1.9291 1.5945, 2.0093 1.9699 0.0197, 2.0093 1.9699 1.5945, 1.9685 2.0012 0.0197, 1.9685 2.0012 1.5945, 1.921 2.0209 0.0197, 1.921 2.0209 1.5945, 1.8701 2.0276 0.0197, 1.8701 2.0276 1.5945, -1.4764 2.0276 0.0197, -1.4764 2.0276 1.5945, 0.2065 2.0276 0.0197, -2.0669 1.437 0.8512, -2.0669 1.437 1.5945, -2.0665 1.4374 0.8512, -2.0669 1.437 0.0197, -2.0669 1.437 0.4575, -2.0665 1.4374 0.4575, -1.541 1.9629 0.566, -1.5227 1.9813 0.5996, -2.0318 1.4721 0.7432, -2.0505 1.4535 0.7096, -2.0022 1.5018 0.7765, -2.059 1.4449 0.6808, -2.0615 1.4424 0.6543, -2.059 1.4449 0.6278, -2.0505 1.4535 0.5991, -2.0318 1.4721 0.5654, -2.0022 1.5018 0.5321, -1.5142 1.9897 0.6283, -1.5118 1.9921 0.6543, -1.5142 1.9897 0.6803, -1.5227 1.9813 0.709, -1.654 1.8499 0.4819, -1.6087 1.8952 0.5043, -1.5705 1.9334 0.5327, -1.541 1.9629 0.7426, -1.5705 1.9334 0.7759, -1.6087 1.8952 0.8043, -1.9184 1.5855 0.8271, -1.9638 1.5401 0.8048, -1.8137 1.6903 0.4584, -1.7586 1.7453 0.4585, -1.7047 1.7993 0.4664, -1.9638 1.5401 0.5038, -1.9184 1.5855 0.4815, -1.8677 1.6363 0.4662, -1.654 1.8499 0.8267, -1.7047 1.7993 0.8422, -1.7586 1.7453 0.8501, -1.8137 1.6903 0.8502, -1.8677 1.6363 0.8424, 1.6732 -0.0 0.1772, 1.6732 0.0 1.5945, 1.6576 0.2278 0.1772, 1.6576 0.2278 1.5945, 1.6112 0.4514 0.1772, 1.6112 0.4514 1.5945, 1.5347 0.6666 0.1772, 1.5347 0.6666 1.5945, 1.4296 0.8694 0.1772, 1.4296 0.8694 1.5945, 1.2979 1.056 0.1772, 1.2979 1.056 1.5945, 1.1421 1.2229 0.1772, 1.1421 1.2229 1.5945, 0.9649 1.367 0.1772, 0.9649 1.367 1.5945, 0.7698 1.4856 0.1772, 0.7698 1.4856 1.5945, 0.5603 1.5766 0.1772, 0.5603 1.5766 1.5945, 0.3404 1.6382 0.1772, 0.3404 1.6382 1.5945, 0.1142 1.6693 0.1772, 0.1142 1.6693 1.5945, -0.1142 1.6693 0.1772, -0.1142 1.6693 1.5945, -0.3404 1.6382 0.1772, -0.3404 1.6382 1.5945, -0.5603 1.5766 0.1772, -0.5603 1.5766 1.5945, -0.7698 1.4856 0.1772, -0.7698 1.4856 1.5945, -0.9649 1.367 0.1772, -0.9649 1.367 1.5945, -1.1421 1.2229 0.1772, -1.1421 1.2229 1.5945, -1.2979 1.056 0.1772, -1.2979 1.056 1.5945, -1.4296 0.8694 0.1772, -1.4296 0.8694 1.5945, -1.5347 0.6666 0.1772, -1.5347 0.6666 1.5945, -1.6112 0.4514 0.1772, -1.6112 0.4514 1.5945, -1.6576 0.2278 0.1772, -1.6576 0.2278 1.5945, -1.6732 0.0 0.1772, -1.6732 0.0 1.5945, -1.6576 -0.2278 0.1772, -1.6576 -0.2278 1.5945, -1.6112 -0.4514 0.1772, -1.6112 -0.4514 1.5945, -1.5347 -0.6666 0.1772, -1.5347 -0.6666 1.5945, -1.4296 -0.8694 0.1772, -1.4296 -0.8694 1.5945, -1.2979 -1.056 0.1772, -1.2979 -1.056 1.5945, -1.1421 -1.2229 0.1772, -1.1421 -1.2229 1.5945, -0.9649 -1.367 0.1772, -0.9649 -1.367 1.5945, -0.7698 -1.4856 0.1772, -0.7698 -1.4856 1.5945, -0.5603 -1.5766 0.1772, -0.5603 -1.5766 1.5945, -0.3404 -1.6382 0.1772, -0.3404 -1.6382 1.5945, -0.1142 -1.6693 0.1772, -0.1142 -1.6693 1.5945, 0.1142 -1.6693 0.1772, 0.1142 -1.6693 1.5945, 0.3404 -1.6382 0.1772, 0.3404 -1.6382 1.5945, 0.5603 -1.5766 0.1772, 0.5603 -1.5766 1.5945, 0.7698 -1.4856 0.1772, 0.7698 -1.4856 1.5945, 0.9649 -1.367 0.1772, 0.9649 -1.367 1.5945, 1.1421 -1.2229 0.1772, 1.1421 -1.2229 1.5945, 1.2979 -1.056 0.1772, 1.2979 -1.056 1.5945, 1.4296 -0.8694 0.1772, 1.4296 -0.8694 1.5945, 1.5347 -0.6666 0.1772, 1.5347 -0.6666 1.5945, 1.6112 -0.4514 0.1772, 1.6112 -0.4514 1.5945, 1.6576 -0.2278 0.1772, 1.6576 -0.2278 1.5945, -1.3746 0.0961 0.1772, -1.3746 -0.0961 0.1772, -1.3478 -0.2865 0.1772, -1.2949 -0.4713 0.1772, -1.2167 -0.6469 0.1772, -1.1148 -0.8099 0.1772, -0.9912 -0.9572 0.1772, -0.8484 -1.0858 0.1772, -0.689 -1.1933 0.1772, -0.5162 -1.2776 0.1772, -0.3334 -1.337 0.1772, -0.144 -1.3704 0.1772, 0.0481 -1.3771 0.1772, 0.2393 -1.357 0.1772, 0.4258 -1.3105 0.1772, 0.6041 -1.2385 0.1772, 0.7705 -1.1424 0.1772, 0.922 -1.024 0.1772, 1.0556 -0.8857 0.1772, 1.1686 -0.7302 0.1772, 1.2588 -0.5605 0.1772, 1.3246 -0.3798 0.1772, 1.3645 -0.1918 0.1772, 1.378 0.0 0.1772, 1.3645 0.1918 0.1772, 1.3246 0.3798 0.1772, 1.2588 0.5605 0.1772, 1.1686 0.7302 0.1772, 1.0556 0.8857 0.1772, 0.922 1.024 0.1772, 0.7705 1.1424 0.1772, 0.6041 1.2385 0.1772, 0.4258 1.3105 0.1772, 0.2393 1.357 0.1772, 0.0481 1.3771 0.1772, -0.144 1.3704 0.1772, -0.3334 1.337 0.1772, -0.5162 1.2776 0.1772, -0.689 1.1933 0.1772, -0.8484 1.0858 0.1772, -0.9912 0.9572 0.1772, -1.1148 0.8099 0.1772, -1.2167 0.6469 0.1772, -1.2949 0.4713 0.1772, -1.3478 0.2865 0.1772, -1.3478 0.2865 0.1772
            ]
        }
        coordIndex [
            0,1,2,-1,2,1,3,-1,0,2,4,-1,4,2,5,-1,4,5,6,-1,7,8,9,-1,7,9,10,-1,10,9,11,-1,10,11,12,-1,12,11,13,-1,12,13,14,-1,14,13,15,-1,14,15,16,-1,16,15,17,-1,16,17,18,-1,18,17,19,-1,18,19,20,-1,21,22,23,-1,23,22,20,-1,23,20,19,-1,24,25,26,-1,26,25,22,-1,27,28,21,-1,21,28,29,-1,30,31,21,-1,32,33,26,-1,32,26,34,-1,33,35,26,-1,26,35,36,-1,26,36,29,-1,29,36,37,-1,37,38,29,-1,29,38,39,-1,29,39,40,-1,31,41,21,-1,21,41,42,-1,21,42,22,-1,22,42,43,-1,22,43,44,-1,45,46,21,-1,21,46,47,-1,21,47,30,-1,44,48,22,-1,22,48,49,-1,22,49,50,-1,22,51,26,-1,26,51,52,-1,26,52,34,-1,53,54,21,-1,21,54,55,-1,21,55,45,-1,40,56,29,-1,29,56,57,-1,29,57,21,-1,21,57,58,-1,21,58,53,-1,50,59,22,-1,22,59,60,-1,22,60,61,-1,61,62,22,-1,22,62,63,-1,22,63,51,-1,64,65,66,-1,66,65,67,-1,66,67,68,-1,68,67,69,-1,68,69,70,-1,70,69,71,-1,70,71,72,-1,72,71,73,-1,72,73,74,-1,74,73,75,-1,74,75,76,-1,76,75,77,-1,76,77,78,-1,78,77,79,-1,78,79,80,-1,80,79,81,-1,80,81,82,-1,82,81,83,-1,82,83,84,-1,84,83,85,-1,84,85,86,-1,86,85,87,-1,86,87,88,-1,88,87,89,-1,88,89,90,-1,90,89,91,-1,90,91,92,-1,92,91,93,-1,92,93,94,-1,94,93,95,-1,94,95,96,-1,96,95,97,-1,96,97,98,-1,98,97,99,-1,98,99,100,-1,100,99,101,-1,100,101,102,-1,102,101,103,-1,102,103,104,-1,104,103,105,-1,104,105,106,-1,106,105,107,-1,106,107,108,-1,108,107,109,-1,108,109,110,-1,110,109,111,-1,110,111,112,-1,112,111,113,-1,112,113,114,-1,114,113,115,-1,114,115,116,-1,116,115,117,-1,116,117,118,-1,118,117,119,-1,118,119,120,-1,120,119,121,-1,120,121,122,-1,122,121,123,-1,122,123,124,-1,124,123,125,-1,124,125,126,-1,126,125,127,-1,126,127,128,-1,128,127,129,-1,128,129,130,-1,130,129,131,-1,130,131,132,-1,132,131,133,-1,132,133,134,-1,134,133,135,-1,134,135,136,-1,136,135,137,-1,136,137,138,-1,138,137,139,-1,138,139,140,-1,140,139,141,-1,140,141,142,-1,142,141,143,-1,142,143,144,-1,144,143,145,-1,144,145,146,-1,146,145,147,-1,146,147,148,-1,148,147,149,-1,148,149,150,-1,150,149,151,-1,150,151,152,-1,152,151,153,-1,152,153,154,-1,154,153,155,-1,154,155,64,-1,64,155,65,-1,106,108,156,-1,156,108,110,-1,156,110,157,-1,157,110,112,-1,157,112,158,-1,158,112,114,-1,158,114,159,-1,159,114,116,-1,159,116,160,-1,160,116,118,-1,160,118,161,-1,161,118,120,-1,161,120,162,-1,162,120,122,-1,162,122,163,-1,163,122,124,-1,163,124,164,-1,164,124,126,-1,164,126,165,-1,165,126,128,-1,165,128,166,-1,166,128,130,-1,166,130,167,-1,167,130,132,-1,167,132,168,-1,168,132,134,-1,168,134,169,-1,169,134,136,-1,169,136,170,-1,170,136,138,-1,170,138,171,-1,171,138,140,-1,171,140,172,-1,172,140,142,-1,172,142,173,-1,173,142,144,-1,173,144,174,-1,174,144,146,-1,174,146,175,-1,175,146,148,-1,175,148,176,-1,176,148,150,-1,176,150,177,-1,177,150,152,-1,177,152,178,-1,178,152,154,-1,178,154,179,-1,179,154,64,-1,179,64,180,-1,180,64,66,-1,180,66,181,-1,181,66,68,-1,181,68,182,-1,182,68,70,-1,182,70,183,-1,183,70,72,-1,183,72,184,-1,184,72,74,-1,184,74,185,-1,185,74,76,-1,185,76,186,-1,186,76,78,-1,186,78,187,-1,187,78,80,-1,187,80,188,-1,188,80,82,-1,188,82,189,-1,189,82,84,-1,189,84,190,-1,190,84,86,-1,190,86,191,-1,191,86,88,-1,191,88,192,-1,192,88,90,-1,192,90,193,-1,193,90,92,-1,193,92,194,-1,194,92,94,-1,194,94,195,-1,195,94,96,-1,195,96,196,-1,196,96,98,-1,196,98,197,-1,197,98,100,-1,197,100,198,-1,198,100,102,-1,198,102,199,-1,199,102,104,-1,199,104,200,-1,200,104,106,-1,200,106,156,-1,
        ]
    }
}
Shape{
    appearance Appearance {
        material  Material 	{
            diffuseColor 0.4392156862745098 0.4392156862745098 0.4392156862745098
            specularColor 0.2196078431372549 0.2196078431372549 0.2196078431372549
            ambientIntensity 0.2
            transparency 0
            shininess 0.5
        }
    }
    geometry IndexedFaceSet {
        ccw TRUE
        solid FALSE
        coord DEF co Coordinate {
            point [
                1.552 -0.0 1.5945, 1.3645 0.1918 0.1772, 1.5369 0.216 1.5945, 1.3246 0.3798 0.1772, 1.4919 0.4278 1.5945, 1.2588 0.5605 0.1772, 1.4178 0.6312 1.5945, 1.1686 0.7302 0.1772, 1.3162 0.8224 1.5945, 1.0556 0.8857 0.1772, 1.1889 0.9976 1.5945, 0.922 1.024 0.1772, 1.0385 1.1533 1.5945, 0.7705 1.1424 0.1772, 0.8679 1.2866 1.5945, 0.6041 1.2385 0.1772, 0.6803 1.3949 1.5945, 0.4258 1.3105 0.1772, 0.4796 1.476 1.5945, 0.2393 1.357 0.1772, 0.2695 1.5284 1.5945, 0.0481 1.3771 0.1772, 0.0542 1.551 1.5945, -0.144 1.3704 0.1772, -0.1622 1.5435 1.5945, -0.3334 1.337 0.1772, -0.3755 1.5059 1.5945, -0.5162 1.2776 0.1772, -0.5814 1.439 1.5945, -0.689 1.1933 0.1772, -0.776 1.3441 1.5945, -0.8484 1.0858 0.1772, -0.9555 1.223 1.5945, -0.9912 0.9572 0.1772, -1.1164 1.0781 1.5945, -1.1148 0.8099 0.1772, -1.2556 0.9122 1.5945, -1.2167 0.6469 0.1772, -1.3703 0.7286 1.5945, -1.2949 0.4713 0.1772, -1.4584 0.5308 1.5945, -1.3478 0.2865 0.1772, -1.5181 0.3227 1.5945, -1.3746 0.0961 0.1772, -1.5482 0.1083 1.5945, -1.3746 -0.0961 0.1772, -1.5482 -0.1083 1.5945, -1.3478 -0.2865 0.1772, -1.5181 -0.3227 1.5945, -1.2949 -0.4713 0.1772, -1.4584 -0.5308 1.5945, -1.2167 -0.6469 0.1772, -1.3703 -0.7286 1.5945, -1.1148 -0.8099 0.1772, -1.2556 -0.9122 1.5945, -0.9912 -0.9572 0.1772, -1.1164 -1.0781 1.5945, -0.8484 -1.0858 0.1772, -0.9555 -1.223 1.5945, -0.689 -1.1933 0.1772, -0.776 -1.3441 1.5945, -0.5162 -1.2776 0.1772, -0.5814 -1.439 1.5945, -0.3334 -1.337 0.1772, -0.3755 -1.5059 1.5945, -0.144 -1.3704 0.1772, -0.1622 -1.5435 1.5945, 0.0481 -1.3771 0.1772, 0.0542 -1.551 1.5945, 0.2393 -1.357 0.1772, 0.2695 -1.5284 1.5945, 0.4258 -1.3105 0.1772, 0.4796 -1.476 1.5945, 0.6041 -1.2385 0.1772, 0.6803 -1.3949 1.5945, 0.7705 -1.1424 0.1772, 0.8679 -1.2866 1.5945, 0.922 -1.024 0.1772, 1.0385 -1.1533 1.5945, 1.0556 -0.8857 0.1772, 1.1889 -0.9976 1.5945, 1.1686 -0.7302 0.1772, 1.3162 -0.8224 1.5945, 1.2588 -0.5605 0.1772, 1.4178 -0.6312 1.5945, 1.3246 -0.3798 0.1772, 1.4919 -0.4278 1.5945, 1.3645 -0.1918 0.1772, 1.5369 -0.216 1.5945, 1.378 0.0 0.1772, 1.378 0.0 0.1772
            ]
        }
        coordIndex [
            0,1,2,-1,2,1,3,-1,2,3,4,-1,4,3,5,-1,4,5,6,-1,6,5,7,-1,6,7,8,-1,8,7,9,-1,8,9,10,-1,10,9,11,-1,10,11,12,-1,12,11,13,-1,12,13,14,-1,14,13,15,-1,14,15,16,-1,16,15,17,-1,16,17,18,-1,18,17,19,-1,18,19,20,-1,20,19,21,-1,20,21,22,-1,22,21,23,-1,22,23,24,-1,24,23,25,-1,24,25,26,-1,26,25,27,-1,26,27,28,-1,28,27,29,-1,28,29,30,-1,30,29,31,-1,30,31,32,-1,32,31,33,-1,32,33,34,-1,34,33,35,-1,34,35,36,-1,36,35,37,-1,36,37,38,-1,38,37,39,-1,38,39,40,-1,40,39,41,-1,40,41,42,-1,42,41,43,-1,42,43,44,-1,44,43,45,-1,44,45,46,-1,46,45,47,-1,46,47,48,-1,48,47,49,-1,48,49,50,-1,50,49,51,-1,50,51,52,-1,52,51,53,-1,52,53,54,-1,54,53,55,-1,54,55,56,-1,56,55,57,-1,56,57,58,-1,58,57,59,-1,58,59,60,-1,60,59,61,-1,60,61,62,-1,62,61,63,-1,62,63,64,-1,64,63,65,-1,64,65,66,-1,66,65,67,-1,66,67,68,-1,68,67,69,-1,68,69,70,-1,70,69,71,-1,70,71,72,-1,72,71,73,-1,72,73,74,-1,74,73,75,-1,74,75,76,-1,76,75,77,-1,76,77,78,-1,78,77,79,-1,78,79,80,-1,80,79,81,-1,80,81,82,-1,82,81,83,-1,82,83,84,-1,84,83,85,-1,84,85,86,-1,86,85,87,-1,86,87,88,-1,88,87,89,-1,88,89,0,-1,0,89,1,-1,
        ]
    }
}
Shape{
    appearance Appearance {
        material  Material 	{
            diffuseColor 0.0 0.0 0.0
            specularColor 0.0 0.0 0.0
            ambientIntensity 0.2
            transparency 0
            shininess 0.5
        }
    }
    geometry IndexedFaceSet {
        ccw TRUE
        solid FALSE
        coord DEF co Coordinate {
            point [
                0.8496 -0.6207 1.5906, 0.7295 -0.6207 1.5906, 0.8496 -0.6207 1.5945, 0.7295 -0.6207 1.5945, 0.7295 0.2154 1.5906, 0.7295 0.2154 1.5945, 0.5015 0.0995 1.5906, 0.5015 0.0995 1.5945, 0.5505 0.1147 1.5945, 0.5505 0.1147 1.5906, 0.6604 0.1663 1.5945, 0.6604 0.1663 1.5906, 0.5015 0.2196 1.5906, 0.5015 0.2196 1.5945, 0.8029 0.3756 1.5906, 0.8029 0.3756 1.5945, 0.7388 0.3287 1.5945, 0.7388 0.3287 1.5906, 0.6207 0.2642 1.5945, 0.6207 0.2642 1.5906, 0.8496 0.3756 1.5906, 0.8496 0.3756 1.5945, -0.3267 -0.1477 1.5906, -0.3267 -0.1477 1.5945, -0.324 -0.2314 1.5945, -0.324 -0.2314 1.5906, -0.3057 -0.358 1.5945, -0.3057 -0.358 1.5906, -0.2795 -0.4422 1.5945, -0.2795 -0.4422 1.5906, -0.2376 -0.5188 1.5945, -0.2376 -0.5188 1.5906, -0.1891 -0.5719 1.5945, -0.1891 -0.5719 1.5906, -0.1398 -0.6047 1.5945, -0.1398 -0.6047 1.5906, -0.0827 -0.6251 1.5945, -0.0827 -0.6251 1.5906, -0.0128 -0.6327 1.5945, -0.0128 -0.6327 1.5906, 0.0093 0.3756 1.5906, 0.0093 0.3756 1.5945, -0.0103 0.3749 1.5945, -0.0103 0.3749 1.5906, -0.0765 0.3651 1.5945, -0.0765 0.3651 1.5906, -0.1376 0.3409 1.5945, -0.1376 0.3409 1.5906, -0.1906 0.3027 1.5945, -0.1906 0.3027 1.5906, -0.237 0.2483 1.5945, -0.237 0.2483 1.5906, -0.2751 0.1766 1.5945, -0.2751 0.1766 1.5906, -0.3046 0.0819 1.5945, -0.3046 0.0819 1.5906, -0.3221 -0.0347 1.5945, -0.3221 -0.0347 1.5906, 0.3214 -0.1244 1.5906, 0.3214 -0.1244 1.5945, 0.3184 -0.0306 1.5945, 0.3184 -0.0306 1.5906, 0.3006 0.1007 1.5945, 0.3006 0.1007 1.5906, 0.2702 0.1988 1.5945, 0.2702 0.1988 1.5906, 0.2296 0.2711 1.5945, 0.2296 0.2711 1.5906, 0.1898 0.3142 1.5945, 0.1898 0.3142 1.5906, 0.1386 0.348 1.5945, 0.1386 0.348 1.5906, 0.0799 0.3683 1.5945, 0.0799 0.3683 1.5906, 0.0598 -0.6249 1.5945, 0.0598 -0.6249 1.5906, 0.1214 -0.6035 1.5945, 0.1214 -0.6035 1.5906, 0.1761 -0.5672 1.5945, 0.1761 -0.5672 1.5906, 0.2252 -0.5137 1.5945, 0.2252 -0.5137 1.5906, 0.2682 -0.4382 1.5945, 0.2682 -0.4382 1.5906, 0.2985 -0.3463 1.5945, 0.2985 -0.3463 1.5906, 0.3167 -0.2335 1.5945, 0.3167 -0.2335 1.5906, 0.0026 0.2676 1.5906, -0.0385 0.2626 1.5906, -0.0698 0.2505 1.5906, -0.0982 0.2306 1.5906, -0.126 0.1987 1.5906, -0.1555 0.1422 1.5906, -0.1799 0.0518 1.5906, -0.1935 -0.0798 1.5906, -0.1947 -0.1417 1.5906, -0.19 -0.2523 1.5906, -0.1739 -0.3517 1.5906, -0.1487 -0.424 1.5906, -0.1233 -0.4656 1.5906, -0.0949 -0.4941 1.5906, -0.0657 -0.5117 1.5906, -0.0307 -0.5222 1.5906, -0.0012 -0.5246 1.5906, 0.0384 -0.52 1.5906, 0.0691 -0.5081 1.5906, 0.0975 -0.4883 1.5906, 0.1252 -0.4563 1.5906, 0.1527 -0.4022 1.5906, 0.1761 -0.3142 1.5906, 0.1885 -0.1863 1.5906, 0.1894 -0.1353 1.5906, 0.1845 -0.0162 1.5906, 0.1684 0.0898 1.5906, 0.1448 0.1621 1.5906, 0.1195 0.2069 1.5906, 0.0928 0.2358 1.5906, 0.0671 0.2528 1.5906, 0.038 0.2636 1.5906, -0.1947 -0.1417 1.5945, -0.1935 -0.0798 1.5945, -0.1799 0.0518 1.5945, -0.1555 0.1422 1.5945, -0.126 0.1987 1.5945, -0.0982 0.2306 1.5945, -0.0698 0.2505 1.5945, -0.0385 0.2626 1.5945, 0.0026 0.2676 1.5945, 0.038 0.2636 1.5945, 0.0671 0.2528 1.5945, 0.0928 0.2358 1.5945, 0.1195 0.2069 1.5945, 0.1448 0.1621 1.5945, 0.1684 0.0898 1.5945, 0.1845 -0.0162 1.5945, 0.1894 -0.1353 1.5945, 0.1885 -0.1863 1.5945, 0.1761 -0.3142 1.5945, 0.1527 -0.4022 1.5945, 0.1252 -0.4563 1.5945, 0.0975 -0.4883 1.5945, 0.0691 -0.5081 1.5945, 0.0384 -0.52 1.5945, -0.0012 -0.5246 1.5945, -0.0307 -0.5222 1.5945, -0.0657 -0.5117 1.5945, -0.0949 -0.4941 1.5945, -0.1233 -0.4656 1.5945, -0.1487 -0.424 1.5945, -0.1739 -0.3517 1.5945, -0.19 -0.2523 1.5945, -0.6628 -0.6207 1.5906, -0.7829 -0.6207 1.5906, -0.6628 -0.6207 1.5945, -0.7829 -0.6207 1.5945, -0.7829 0.2154 1.5906, -0.7829 0.2154 1.5945, -1.0109 0.0995 1.5906, -1.0109 0.0995 1.5945, -0.9618 0.1147 1.5945, -0.9618 0.1147 1.5906, -0.852 0.1663 1.5945, -0.852 0.1663 1.5906, -1.0109 0.2196 1.5906, -1.0109 0.2196 1.5945, -0.7095 0.3756 1.5906, -0.7095 0.3756 1.5945, -0.7735 0.3287 1.5945, -0.7735 0.3287 1.5906, -0.8917 0.2642 1.5945, -0.8917 0.2642 1.5906, -0.6628 0.3756 1.5906, -0.6628 0.3756 1.5945, -0.6628 0.3756 1.5945
            ]
        }
        coordIndex [
            0,1,2,-1,2,1,3,-1,1,4,3,-1,3,4,5,-1,6,7,8,-1,6,8,9,-1,9,8,10,-1,9,10,11,-1,11,10,5,-1,11,5,4,-1,6,12,7,-1,7,12,13,-1,14,15,16,-1,14,16,17,-1,17,16,18,-1,17,18,19,-1,19,18,13,-1,19,13,12,-1,14,20,15,-1,15,20,21,-1,20,0,21,-1,21,0,2,-1,1,0,4,-1,4,0,20,-1,20,14,4,-1,4,14,17,-1,4,17,11,-1,11,17,19,-1,11,19,9,-1,9,19,12,-1,9,12,6,-1,22,23,24,-1,22,24,25,-1,25,24,26,-1,25,26,27,-1,27,26,28,-1,27,28,29,-1,29,28,30,-1,29,30,31,-1,31,30,32,-1,31,32,33,-1,33,32,34,-1,33,34,35,-1,35,34,36,-1,35,36,37,-1,37,36,38,-1,37,38,39,-1,40,41,42,-1,40,42,43,-1,43,42,44,-1,43,44,45,-1,45,44,46,-1,45,46,47,-1,47,46,48,-1,47,48,49,-1,49,48,50,-1,49,50,51,-1,51,50,52,-1,51,52,53,-1,53,52,54,-1,53,54,55,-1,55,54,56,-1,55,56,57,-1,57,56,23,-1,57,23,22,-1,58,59,60,-1,58,60,61,-1,61,60,62,-1,61,62,63,-1,63,62,64,-1,63,64,65,-1,65,64,66,-1,65,66,67,-1,67,66,68,-1,67,68,69,-1,69,68,70,-1,69,70,71,-1,71,70,72,-1,71,72,73,-1,73,72,41,-1,73,41,40,-1,39,38,74,-1,39,74,75,-1,75,74,76,-1,75,76,77,-1,77,76,78,-1,77,78,79,-1,79,78,80,-1,79,80,81,-1,81,80,82,-1,81,82,83,-1,83,82,84,-1,83,84,85,-1,85,84,86,-1,85,86,87,-1,87,86,59,-1,87,59,58,-1,73,40,88,-1,88,40,43,-1,88,43,89,-1,89,43,45,-1,89,45,90,-1,90,45,47,-1,90,47,91,-1,91,47,49,-1,91,49,92,-1,92,49,51,-1,92,51,93,-1,93,51,53,-1,93,53,94,-1,94,53,55,-1,94,55,95,-1,95,55,57,-1,95,57,96,-1,96,57,22,-1,96,22,97,-1,97,22,25,-1,97,25,98,-1,98,25,27,-1,98,27,99,-1,99,27,29,-1,99,29,100,-1,100,29,31,-1,100,31,101,-1,101,31,33,-1,101,33,102,-1,102,33,35,-1,102,35,103,-1,103,35,37,-1,103,37,104,-1,104,37,39,-1,104,39,105,-1,105,39,75,-1,105,75,106,-1,106,75,77,-1,106,77,107,-1,107,77,79,-1,107,79,108,-1,108,79,81,-1,108,81,109,-1,109,81,83,-1,109,83,110,-1,110,83,85,-1,110,85,111,-1,111,85,87,-1,111,87,112,-1,112,87,58,-1,112,58,113,-1,113,58,61,-1,113,61,114,-1,114,61,63,-1,114,63,115,-1,115,63,65,-1,115,65,116,-1,116,65,67,-1,116,67,117,-1,117,67,69,-1,117,69,118,-1,118,69,71,-1,118,71,119,-1,119,71,73,-1,119,73,88,-1,96,120,121,-1,96,121,95,-1,95,121,122,-1,95,122,94,-1,94,122,123,-1,94,123,93,-1,93,123,124,-1,93,124,92,-1,92,124,125,-1,92,125,91,-1,91,125,126,-1,91,126,90,-1,90,126,127,-1,90,127,89,-1,89,127,128,-1,89,128,88,-1,88,128,129,-1,88,129,119,-1,119,129,130,-1,119,130,118,-1,118,130,131,-1,118,131,117,-1,117,131,132,-1,117,132,116,-1,116,132,133,-1,116,133,115,-1,115,133,134,-1,115,134,114,-1,114,134,135,-1,114,135,113,-1,113,135,136,-1,113,136,112,-1,112,136,137,-1,112,137,111,-1,111,137,138,-1,111,138,110,-1,110,138,139,-1,110,139,109,-1,109,139,140,-1,109,140,108,-1,108,140,141,-1,108,141,107,-1,107,141,142,-1,107,142,106,-1,106,142,143,-1,106,143,105,-1,105,143,144,-1,105,144,104,-1,104,144,145,-1,104,145,103,-1,103,145,146,-1,103,146,102,-1,102,146,147,-1,102,147,101,-1,101,147,148,-1,101,148,100,-1,100,148,149,-1,100,149,99,-1,99,149,150,-1,99,150,98,-1,98,150,151,-1,98,151,97,-1,97,151,120,-1,97,120,96,-1,152,153,154,-1,154,153,155,-1,153,156,155,-1,155,156,157,-1,158,159,160,-1,158,160,161,-1,161,160,162,-1,161,162,163,-1,163,162,157,-1,163,157,156,-1,158,164,159,-1,159,164,165,-1,166,167,168,-1,166,168,169,-1,169,168,170,-1,169,170,171,-1,171,170,165,-1,171,165,164,-1,166,172,167,-1,167,172,173,-1,172,152,173,-1,173,152,154,-1,153,152,156,-1,156,152,172,-1,172,166,156,-1,156,166,169,-1,156,169,163,-1,163,169,171,-1,163,171,161,-1,161,171,164,-1,161,164,158,-1,
        ]
    }
}
Shape{
    appearance Appearance {
        material  Material 	{
            diffuseColor 0.4392156862745098 0.4392156862745098 0.4392156862745098
            specularColor 0.2196078431372549 0.2196078431372549 0.2196078431372549
            ambientIntensity 0.2
            transparency 0
            shininess 0.5
        }
    }
    geometry IndexedFaceSet {
        ccw TRUE
        solid FALSE
        coord DEF co Coordinate {
            point [
                0.1527 -0.4022 1.5945, 0.1761 -0.3142 1.5945, -0.0012 -0.5246 1.5945, -0.1739 -0.3517 1.5945, -0.19 -0.2523 1.5945, 0.1885 -0.1863 1.5945, -0.1947 -0.1417 1.5945, 0.1894 -0.1353 1.5945, -0.1935 -0.0798 1.5945, 0.1845 -0.0162 1.5945, -0.1799 0.0518 1.5945, 0.0384 -0.52 1.5945, 0.0691 -0.5081 1.5945, -0.1487 -0.424 1.5945, -0.1233 -0.4656 1.5945, -0.0949 -0.4941 1.5945, 0.0975 -0.4883 1.5945, 0.1252 -0.4563 1.5945, 0.1684 0.0898 1.5945, 0.1448 0.1621 1.5945, -0.1555 0.1422 1.5945, 0.1195 0.2069 1.5945, 0.0928 0.2358 1.5945, 0.0671 0.2528 1.5945, 0.038 0.2636 1.5945, 0.0026 0.2676 1.5945, -0.0657 -0.5117 1.5945, -0.0307 -0.5222 1.5945, -0.0385 0.2626 1.5945, -0.0698 0.2505 1.5945, -0.0982 0.2306 1.5945, -0.126 0.1987 1.5945, -0.126 0.1987 1.5945
            ]
        }
        coordIndex [
            0,1,2,-1,3,1,4,-1,4,1,5,-1,4,5,6,-1,6,5,7,-1,6,7,8,-1,8,7,9,-1,8,9,10,-1,2,11,12,-1,3,13,1,-1,1,13,14,-1,1,14,15,-1,12,16,2,-1,2,16,17,-1,2,17,0,-1,9,18,10,-1,10,18,19,-1,10,19,20,-1,20,19,21,-1,20,21,22,-1,22,23,20,-1,20,23,24,-1,20,24,25,-1,15,26,1,-1,1,26,27,-1,1,27,2,-1,25,28,29,-1,29,30,25,-1,25,30,31,-1,25,31,20,-1,
        ]
    }
}
Shape{
    appearance Appearance {
        material  Material 	{
            diffuseColor 0.8509803921568627 0.8509803921568627 0.8509803921568627
            specularColor 0.4235294117647059 0.4235294117647059 0.4235294117647059
            ambientIntensity 0.2
            transparency 0
            shininess 0.5
        }
    }
    geometry IndexedFaceSet {
        ccw TRUE
        solid FALSE
        coord DEF co Coordinate {
            point [
                -1.5698 -0.5906 1.5945, -1.5698 -0.5906 1.6142, -2.0669 -0.5906 1.5945, -2.0787 -0.5906 1.6142, -2.0669 -0.5906 0.0197, -2.0787 -0.5906 0.0, -1.5698 -0.5906 0.0197, -1.5698 -0.5906 0.0, -1.6291 -0.3985 1.6142, -1.6291 -0.3985 1.5945, -1.6651 -0.2007 1.6142, -1.6651 -0.2007 1.5945, -1.6772 -0.0 1.6142, -1.6772 -0.0 1.5945, -1.6651 0.2007 1.6142, -1.6651 0.2007 1.5945, -1.6291 0.3985 1.6142, -1.6291 0.3985 1.5945, -1.5698 0.5906 1.6142, -1.5698 0.5906 1.5945, -1.5698 0.5906 0.0197, -1.5698 0.5906 0.0, -2.0669 0.5906 0.0197, -2.0787 0.5906 0.0, -2.0669 0.5906 0.4575, -2.0787 0.5906 0.4575, -2.0787 0.5906 1.6142, -2.0787 0.5906 0.8512, -2.0787 1.4341 0.4575, -2.0787 1.4341 0.8512, -1.6291 -0.3985 0.0197, -1.6291 -0.3985 0.0, -1.6635 -0.2096 0.0197, -1.6651 -0.2007 0.0, -1.6291 0.3985 0.0, -1.6291 0.3985 0.0197, -1.6651 0.2007 0.0, -1.6651 0.2007 0.0197, -1.6772 -0.0 0.0, -1.6772 -0.0 0.0197, -1.6651 -0.2007 0.0197, -2.0669 1.4341 0.8512, -2.0782 1.4391 0.8512, -2.0669 1.437 0.8512, -2.0768 1.4439 0.8512, -2.0629 1.4438 0.8512, -2.0712 1.4522 0.8512, -2.0645 1.4419 0.8512, -2.0744 1.4483 0.8512, -2.0657 1.4398 0.8512, -2.0665 1.4374 0.8512, -2.0665 1.4374 0.4575, -2.0657 1.4398 0.4575, -2.0645 1.4419 0.4575, -2.0629 1.4438 0.4575, -2.0712 1.4522 0.4575, -2.0744 1.4483 0.4575, -2.0768 1.4439 0.4575, -2.0669 1.4341 0.4575, -2.0669 1.437 0.4575, -2.0782 1.4391 0.4575, -1.6913 1.8321 0.8512, -1.683 1.8237 0.8512, -1.6913 1.8321 0.8357, -1.683 1.8237 0.8362, -2.0669 0.5906 0.8512, -1.683 1.8237 0.4575, -1.6913 1.8321 0.4575, -1.5118 1.9921 0.6543, -1.5142 1.9897 0.6283, -1.5187 1.9941 0.6291, -1.5225 1.998 0.6775, -1.5183 1.9938 0.6796, -2.023 1.5226 0.5357, -2.047 1.4872 0.568, -2.0612 1.5015 0.5757, -1.7371 1.7863 0.4626, -1.7684 1.755 0.4596, -1.7919 1.7787 0.4642, -1.7975 1.7259 0.4579, -1.8234 1.7 0.4597, -1.847 1.7236 0.4642, -1.8463 1.6771 0.4612, -1.8773 1.6461 0.4674, -1.8997 1.6683 0.4717, -1.9516 1.5719 0.4924, -1.9734 1.55 0.5051, -1.9895 1.5657 0.5082, -2.0632 1.4602 0.6994, -2.0599 1.4636 0.7074, -2.068 1.4711 0.7036, -2.0219 1.5015 0.766, -2.0117 1.5117 0.7752, -2.0214 1.521 0.7734, -1.9992 1.5243 0.7865, -1.9735 1.5499 0.8039, -1.9875 1.5637 0.801, -1.904 1.6194 0.8349, -1.8773 1.6461 0.8413, -1.8972 1.6658 0.8377, -2.0628 1.444 0.6583, -2.0615 1.4424 0.6543, -2.0626 1.4441 0.6616, -2.0629 1.4438 0.6557, -2.0624 1.4443 0.665, -2.0629 1.4438 0.6557, -2.0629 1.4438 0.6552, -2.0629 1.4438 0.654, -2.0629 1.4438 0.6546, -2.0629 1.4438 0.6535, -2.0629 1.4438 0.6532, -2.0629 1.4439 0.6529, -2.0629 1.4439 0.6518, -2.0628 1.4439 0.6507, -2.0628 1.4439 0.6504, -1.6913 1.8321 0.4729, -1.7145 1.8089 0.4677, -1.7367 1.8313 0.4719, -2.0624 1.4443 0.6658, -1.5549 1.9768 0.7404, -1.541 1.9629 0.7426, -1.5227 1.9813 0.709, -1.7061 1.8006 0.8416, -1.7047 1.7993 0.8422, -1.654 1.8499 0.8267, -1.6811 1.877 0.8224, -1.7145 1.8089 0.8409, -1.7982 1.7085 0.851, -1.8137 1.6903 0.8502, -1.7586 1.7453 0.8501, -1.7221 1.7847 0.8454, -1.7497 1.757 0.8492, -1.76 1.7467 0.8496, -1.919 1.5878 0.8274, -1.9184 1.5855 0.8271, -1.8943 1.6124 0.8358, -1.8677 1.6363 0.8424, -1.815 1.6917 0.8495, -1.8468 1.6599 0.8466, -1.869 1.6378 0.8416, -1.9198 1.5869 0.827, -1.9576 1.5491 0.8092, -1.9638 1.5401 0.8048, -2.033 1.4737 0.7429, -2.0318 1.4721 0.7432, -2.0155 1.4912 0.7648, -2.0022 1.5018 0.7765, -1.9651 1.5417 0.8043, -1.9917 1.515 0.7865, -2.0033 1.5034 0.7759, -2.0514 1.4553 0.7091, -2.0505 1.4535 0.7096, -2.0444 1.4623 0.7252, -2.036 1.4707 0.7391, -2.0555 1.4512 0.6997, -2.0581 1.4486 0.691, -2.059 1.4449 0.6808, -2.0599 1.4468 0.6805, -1.6834 1.8793 0.487, -1.654 1.8499 0.4819, -1.683 1.8237 0.4724, -1.7047 1.7993 0.4664, -1.7062 1.8006 0.4673, -1.7306 1.7762 0.4618, -1.7586 1.7453 0.4585, -1.76 1.7467 0.4592, -1.7792 1.7276 0.4576, -1.8137 1.6903 0.4584, -1.8151 1.6917 0.459, -1.8276 1.6791 0.4595, -1.8677 1.6363 0.4662, -1.855 1.6517 0.4634, -1.9184 1.5855 0.4815, -1.8962 1.6106 0.4733, -1.869 1.6377 0.4668, -1.9652 1.5416 0.504, -1.9624 1.5443 0.5022, -1.9638 1.5401 0.5038, -1.9351 1.5716 0.488, -1.9197 1.5871 0.4822, -1.9913 1.5154 0.5218, -2.0022 1.5018 0.5321, -2.0033 1.5034 0.5327, -2.0142 1.4925 0.5425, -2.0318 1.4721 0.5654, -2.0329 1.4738 0.5649, -2.0505 1.4535 0.5991, -2.0453 1.4614 0.585, -2.0332 1.4735 0.5654, -2.0601 1.4466 0.628, -2.0589 1.4478 0.6209, -2.059 1.4449 0.6278, -2.0555 1.4512 0.6091, -2.0514 1.4553 0.5995, -2.0624 1.4443 0.6436, -2.0622 1.4445 0.6406, -1.7684 1.755 0.8489, -1.7388 1.7846 0.8463, -1.7342 1.8288 0.8375, -1.8234 1.7 0.8491, -1.7874 1.736 0.8506, -1.7894 1.7761 0.8452, -1.8629 1.6605 0.8448, -1.8358 1.6877 0.8486, -1.8445 1.721 0.8453, -1.928 1.5954 0.8259, -1.9703 1.5531 0.8061, -1.9429 1.5805 0.8203, -1.9455 1.6127 0.8228, -2.0406 1.4828 0.7436, -2.053 1.4704 0.7235, -2.0415 1.4819 0.7421, -2.0458 1.4861 0.741, -2.0666 1.4568 0.6877, -2.0686 1.4549 0.6748, -2.0671 1.4563 0.6843, -2.0759 1.479 0.6962, -2.0743 1.4602 0.6696, -2.0702 1.4533 0.6643, -2.0688 1.4547 0.6735, -2.0776 1.4635 0.6578, -2.0705 1.4529 0.6562, -2.0704 1.4531 0.66, -2.0745 1.4604 0.6394, -2.0695 1.4539 0.642, -2.0701 1.4534 0.648, -2.0683 1.4551 0.6292, -2.0687 1.4547 0.6333, -2.0715 1.4574 0.6346, -2.0689 1.4545 0.6354, -2.0765 1.4795 0.6131, -2.0585 1.465 0.5973, -2.0599 1.4636 0.6012, -2.0687 1.4717 0.6055, -2.0662 1.4572 0.6195, -2.0681 1.4554 0.628, -2.0412 1.4822 0.567, -2.0511 1.4723 0.5817, -2.0574 1.4661 0.5941, -1.9863 1.5372 0.5126, -2.0118 1.5117 0.5333, -2.016 1.5074 0.5367, -2.0337 1.4897 0.556, -1.8934 1.63 0.4706, -1.928 1.5954 0.4827, -1.9478 1.615 0.4866, -1.9379 1.5855 0.4861, -1.784 1.7394 0.4581, -2.0425 1.5421 0.5463, -2.0738 1.514 0.588, -2.0827 1.4858 0.6232, -2.0766 1.4625 0.6451, -2.0705 1.4529 0.6527, -2.0136 1.5898 0.5213, -2.0597 1.5593 0.5632, -2.0838 1.5241 0.6042, -2.0871 1.4901 0.6351, -2.0776 1.4635 0.6513, -2.0706 1.4529 0.6536, -1.9755 1.6426 0.5016, -2.0348 1.611 0.5421, -2.0736 1.5731 0.5855, -2.0908 1.5311 0.6234, -2.0893 1.4923 0.6481, -1.9298 1.6984 0.488, -1.9998 1.667 0.5255, -2.0518 1.628 0.5696, -2.0832 1.5828 0.6118, -2.0943 1.5346 0.6444, -2.0892 1.4922 0.6615, -2.0764 1.4624 0.664, -2.0703 1.4532 0.6637, -1.8784 1.755 0.4811, -1.9563 1.7249 0.5141, -2.0193 1.6865 0.557, -2.0636 1.6399 0.602, -2.088 1.5876 0.6407, -2.0942 1.5344 0.6659, -2.0868 1.4898 0.6745, -1.8233 1.81 0.4812, -1.906 1.7826 0.5083, -1.9776 1.7462 0.5484, -2.0329 1.7001 0.5942, -2.0696 1.6458 0.6375, -2.0878 1.5874 0.6703, -2.0904 1.5306 0.6868, -2.0823 1.4853 0.6863, -2.0712 1.4571 0.6744, -1.7668 1.8614 0.4882, -1.8509 1.8376 0.5083, -1.9281 1.8047 0.544, -1.9924 1.761 0.5889, -2.0398 1.7069 0.635, -2.0693 1.6456 0.674, -2.0826 1.5822 0.699, -2.0831 1.5234 0.7058, -1.6087 1.8952 0.5043, -1.6342 1.9208 0.5087, -1.711 1.9069 0.5019, -1.7932 1.8878 0.5142, -1.873 1.8597 0.544, -1.9436 1.8201 0.5862, -1.9998 1.7685 0.6333, -2.0395 1.7067 0.6769, -2.0629 1.6391 0.7093, -2.0726 1.5722 0.725, -2.0729 1.5131 0.7217, -1.5705 1.9334 0.5327, -1.5912 1.9541 0.5363, -1.6583 1.9448 0.5217, -1.7353 1.9312 0.5258, -1.8144 1.909 0.5485, -1.8884 1.8752 0.5862, -1.9513 1.8279 0.6324, -1.9995 1.7681 0.6789, -2.0321 1.6992 0.7175, -2.0506 1.6269 0.7414, -2.0585 1.5581 0.7469, -2.0602 1.5004 0.7337, -2.0559 1.4675 0.7166, -1.541 1.9629 0.566, -1.556 1.9779 0.5686, -1.6107 1.9736 0.5468, -1.6794 1.9659 0.5425, -1.7548 1.9507 0.5572, -1.8292 1.9238 0.589, -1.8962 1.8829 0.6324, -1.951 1.8276 0.6799, -1.9915 1.7601 0.7231, -2.018 1.6852 0.7543, -2.0332 1.6095 0.7684, -2.0411 1.5407 0.7634, -1.5227 1.9813 0.5996, -1.532 1.9906 0.6012, -1.5702 1.9921 0.5763, -1.6278 1.9907 0.5637, -1.6963 1.9829 0.5698, -1.7683 1.9642 0.5944, -1.8367 1.9313 0.6333, -1.8959 1.8826 0.6799, -1.9426 1.8192 0.7259, -1.9761 1.7447 0.7632, -1.9981 1.6652 0.7853, -2.0118 1.588 0.7887, -1.5312 1.9899 0.7076, -1.5262 2.0017 0.674, -1.5401 1.9987 0.7031, -1.5142 1.9897 0.6803, -1.5292 2.0047 0.6693, -1.5479 2.0065 0.6958, -1.5691 1.991 0.7331, -1.5896 1.9525 0.7728, -1.5705 1.9334 0.7759, -1.5313 2.0068 0.6638, -1.5542 2.0128 0.686, -1.5817 2.0036 0.7212, -1.6092 1.9721 0.7629, -1.6323 1.9188 0.8006, -1.6087 1.8952 0.8043, -1.5324 2.0079 0.6577, -1.5586 2.0173 0.6743, -1.5919 2.0138 0.7054, -1.6266 1.9895 0.7465, -1.6565 1.943 0.7882, -1.5325 2.008 0.6514, -1.561 2.0196 0.6615, -1.5991 2.021 0.6866, -1.6406 2.0035 0.7247, -1.6779 1.9644 0.768, -1.7089 1.9048 0.8082, -1.5315 2.0069 0.6453, -1.5611 2.0197 0.6482, -1.6029 2.0248 0.6658, -1.6505 2.0134 0.6988, -1.6952 1.9817 0.7411, -1.7335 1.9294 0.785, -1.7645 1.8591 0.8221, -1.5294 2.0049 0.6397, -1.5589 2.0175 0.6353, -1.603 2.0249 0.6444, -1.6557 2.0187 0.6702, -1.7074 1.994 0.7091, -1.7534 1.9493 0.7541, -1.7913 1.8859 0.7968, -1.821 1.8077 0.8291, -1.5265 2.0019 0.6349, -1.5546 2.0132 0.6235, -1.5995 2.0214 0.6236, -1.6559 2.0189 0.6407, -1.7138 2.0004 0.6739, -1.7675 1.9634 0.7173, -1.813 1.9076 0.7631, -1.8489 1.8356 0.8028, -1.8761 1.7526 0.8292, -1.5228 1.9983 0.6313, -1.5484 2.0071 0.6135, -1.5926 2.0145 0.6046, -1.6511 2.014 0.612, -1.7141 2.0006 0.6375, -1.7749 1.9708 0.6768, -1.8283 1.9229 0.723, -1.8715 1.8582 0.7677, -1.904 1.7806 0.8028, -1.9276 1.6962 0.8223, -1.9734 1.6406 0.8086, -1.9544 1.723 0.7969, -1.9266 1.8032 0.7677, -1.8875 1.8742 0.7259, -1.8364 1.931 0.6789, -1.7752 1.9711 0.635, -1.7081 1.9947 0.6021, -1.6415 2.0045 0.5858, -1.5826 2.0045 0.5885, -1.5407 1.9994 0.606, 1.5698 0.5906 1.6142, 1.5698 0.5906 1.5945, 1.6291 0.3985 1.6142, 1.6291 0.3985 1.5945, 1.6651 0.2007 1.6142, 1.6651 0.2007 1.5945, 1.6772 0.0 1.6142, 1.6772 0.0 1.5945, 1.6651 -0.2007 1.6142, 1.6651 -0.2007 1.5945, 1.6291 -0.3985 1.6142, 1.6291 -0.3985 1.5945, 1.5698 -0.5906 1.6142, 1.5698 -0.5906 1.5945, 2.0669 0.5906 1.5945, 2.0787 0.5906 1.6142, 2.0669 0.5906 0.0197, 2.0787 0.5906 0.0, 1.5698 0.5906 0.0197, 1.5698 0.5906 0.0, 1.5698 -0.5906 0.0197, 1.5698 -0.5906 0.0, 2.0669 -0.5906 0.0197, 2.0787 -0.5906 0.0, 2.0669 -0.5906 0.4575, 2.0787 -0.5906 0.4575, 2.0787 -0.5906 1.6142, 2.0787 -0.5906 0.8512, 2.0787 -1.4341 0.4575, 2.0787 -1.4341 0.8512, 1.6291 0.3985 0.0197, 1.6291 0.3985 0.0, 1.6651 0.2007 0.0197, 1.6651 0.2007 0.0, 1.6772 0.0 0.0197, 1.6772 0.0 0.0, 1.6651 -0.2007 0.0197, 1.6651 -0.2007 0.0, 1.6635 -0.2096 0.0197, 1.6291 -0.3985 0.0, 1.6291 -0.3985 0.0197, 1.6913 -1.8321 0.8512, 1.683 -1.8238 0.8512, 1.6913 -1.8321 0.8357, 1.683 -1.8238 0.8362, 2.0669 -1.4452 0.8512, 2.0656 -1.4465 0.8512, 2.0712 -1.4522 0.8512, 2.0744 -1.4483 0.8512, 2.0768 -1.4439 0.8512, 2.0669 -1.4341 0.8512, 2.0782 -1.4391 0.8512, 2.0712 -1.4522 0.4575, 2.0656 -1.4465 0.4575, 2.0744 -1.4483 0.4575, 2.0669 -1.4452 0.4575, 2.0768 -1.4439 0.4575, 2.0669 -1.4341 0.4575, 2.0782 -1.4391 0.4575, 1.6913 -1.8321 0.4575, 1.683 -1.8238 0.4575, 2.0669 -0.5906 0.8512, 1.5121 -1.9924 0.6546, 1.5121 -1.9924 0.6546, 1.5216 -2.0002 0.6631, 1.5121 -1.9924 0.654, 1.5121 -1.9924 0.6538, 1.5197 -1.9983 0.6426, 1.6164 -1.8894 0.5003, 1.6369 -1.8693 0.4906, 1.6608 -1.8936 0.4938, 2.0683 -1.4551 0.6292, 2.0688 -1.4546 0.6349, 2.0736 -1.4641 0.6265, 1.9992 -1.5243 0.7865, 1.9979 -1.5256 0.7874, 2.0097 -1.5374 0.7847, 1.6436 -1.8627 0.8219, 1.6621 -1.8949 0.8144, 1.6941 -1.8293 0.8363, 1.7138 -1.849 0.8322, 1.7388 -1.7846 0.8463, 1.7685 -1.7979 0.8429, 1.8239 -1.7435 0.8459, 1.7874 -1.736 0.8506, 1.747 -1.7764 0.847, 1.8629 -1.6605 0.8448, 1.8566 -1.6669 0.8457, 1.8778 -1.688 0.8413, 1.8358 -1.6877 0.8486, 1.8019 -1.7215 0.85, 1.904 -1.6194 0.8349, 1.928 -1.6338 0.8292, 1.9088 -1.6146 0.8331, 1.9429 -1.5805 0.8203, 1.9726 -1.5829 0.8101, 1.9565 -1.5669 0.8133, 1.9703 -1.5531 0.8061, 2.0219 -1.5015 0.766, 2.0379 -1.4991 0.754, 2.0308 -1.4926 0.7553, 2.0565 -1.4669 0.7152, 2.0547 -1.4687 0.7195, 2.0559 -1.4695 0.7194, 2.053 -1.4704 0.7235, 2.0406 -1.4828 0.7436, 2.0632 -1.4602 0.6994, 2.0668 -1.4804 0.7138, 2.0664 -1.457 0.6882, 2.0685 -1.4591 0.6869, 2.0666 -1.4568 0.6877, 2.0672 -1.4563 0.6839, 2.0677 -1.4557 0.6263, 2.0564 -1.467 0.5922, 2.0574 -1.4661 0.5941, 2.0663 -1.4799 0.5945, 2.0683 -1.4588 0.6216, 2.0662 -1.4572 0.6195, 2.0664 -1.457 0.6204, 2.0548 -1.4686 0.589, 2.0554 -1.469 0.5891, 2.0511 -1.4723 0.5817, 2.0371 -1.4983 0.5543, 2.0337 -1.4897 0.556, 2.031 -1.4924 0.553, 2.016 -1.5074 0.5367, 2.0087 -1.5364 0.5236, 1.9976 -1.5258 0.5218, 1.9267 -1.6325 0.479, 1.9087 -1.6147 0.476, 1.9714 -1.5817 0.4982, 1.9379 -1.5855 0.4861, 1.9516 -1.5719 0.4924, 1.9565 -1.5669 0.4953, 1.9863 -1.5372 0.5126, 1.7975 -1.7259 0.4579, 1.8019 -1.7215 0.4582, 1.8224 -1.742 0.4622, 1.8463 -1.6771 0.4612, 1.8764 -1.6866 0.4668, 1.8565 -1.6669 0.4633, 1.8934 -1.63 0.4706, 1.7125 -1.8477 0.476, 1.7371 -1.7863 0.4626, 1.767 -1.7964 0.4653, 1.747 -1.7764 0.4616, 1.784 -1.7394 0.4581, 1.6554 -1.851 0.4819, 1.683 -1.8238 0.4724, 1.6913 -1.8321 0.4729, 1.6941 -1.8293 0.4723, 1.6107 -1.8951 0.5037, 1.6143 -1.9326 0.5181, 1.5939 -1.9117 0.5154, 1.5746 -1.9628 0.5478, 1.5587 -1.9464 0.5457, 1.5797 -1.9257 0.5254, 1.5258 -1.9788 0.5931, 1.533 -1.9718 0.5806, 1.5435 -1.9832 0.5819, 1.5405 -1.9643 0.5674, 1.5538 -1.9512 0.5504, 1.5217 -1.9829 0.6029, 1.525 -1.9921 0.6124, 1.5192 -1.9853 0.6117, 1.5121 -1.9923 0.6511, 1.5122 -1.9922 0.6483, 1.515 -1.9936 0.6393, 1.5133 -1.9912 0.639, 1.5145 -1.9899 0.6282, 1.5175 -1.9961 0.6406, 1.5121 -1.9923 0.6535, 1.5121 -1.9923 0.6534, 1.5121 -1.9924 0.6548, 1.5121 -1.9923 0.6565, 1.5121 -1.9923 0.6553, 1.5176 -1.9962 0.668, 1.5127 -1.9917 0.6679, 1.5121 -1.9923 0.6578, 1.5151 -1.9937 0.6693, 1.5196 -1.985 0.6997, 1.5188 -1.9857 0.6972, 1.5253 -1.9924 0.6961, 1.5161 -1.9884 0.6877, 1.513 -1.9914 0.6696, 1.5299 -1.9748 0.7238, 1.5441 -1.9838 0.7266, 1.5327 -1.972 0.7283, 1.5418 -1.9631 0.743, 1.5754 -1.9636 0.7605, 1.5586 -1.9465 0.7632, 1.5605 -1.9446 0.7656, 1.6153 -1.9336 0.7902, 1.585 -1.9204 0.7875, 1.6368 -1.8694 0.8184, 1.6141 -1.8917 0.807, 1.5938 -1.9118 0.7934, 2.0545 -1.5157 0.7454, 2.0314 -1.5591 0.7734, 1.9985 -1.6088 0.7966, 1.9571 -1.6629 0.8141, 1.9089 -1.7192 0.8252, 1.8558 -1.7754 0.8294, 1.7998 -1.8292 0.8266, 1.7434 -1.8786 0.8168, 1.6887 -1.9215 0.8006, 1.6379 -1.9562 0.7784, 1.5931 -1.9813 0.7513, 1.5561 -1.9958 0.7203, 1.5323 -1.9994 0.6925, 2.0688 -1.4546 0.6732, 2.0738 -1.4643 0.6818, 2.0763 -1.4899 0.7046, 2.0691 -1.5303 0.7314, 2.0505 -1.5782 0.755, 2.0214 -1.6316 0.7746, 1.9828 -1.6885 0.7894, 1.9363 -1.7466 0.7988, 1.8839 -1.8035 0.8024, 1.8275 -1.8569 0.8, 1.7695 -1.9047 0.7917, 1.7122 -1.945 0.778, 1.6579 -1.9761 0.7593, 1.6087 -1.9969 0.7364, 1.5667 -2.0064 0.7101, 1.5384 -2.0055 0.6866, 1.5198 -1.9984 0.6659, 2.0703 -1.4532 0.6637, 2.078 -1.4685 0.6752, 2.084 -1.4976 0.6924, 2.0809 -1.5421 0.7127, 2.0659 -1.5936 0.7306, 2.0398 -1.65 0.7455, 2.0034 -1.7092 0.7567, 1.9584 -1.7687 0.7638, 1.9065 -1.8261 0.7665, 1.8498 -1.8792 0.7647, 1.7905 -1.9257 0.7585, 1.7311 -1.9639 0.7481, 1.6739 -1.9922 0.7339, 1.6212 -2.0094 0.7165, 1.5752 -2.0149 0.6966, 1.5434 -2.0104 0.6788, 1.5121 -1.9923 0.6551, 2.0704 -1.453 0.6598, 2.0809 -1.4714 0.6673, 2.0894 -1.503 0.678, 2.0891 -1.5503 0.6906, 2.0767 -1.6043 0.7017, 2.0526 -1.6629 0.7109, 2.0179 -1.7236 0.7179, 1.9739 -1.7841 0.7223, 1.9223 -1.8419 0.724, 1.8653 -1.8947 0.7229, 1.8052 -1.9404 0.719, 1.7443 -1.9771 0.7125, 1.6851 -2.0034 0.7037, 1.63 -2.0182 0.6929, 1.5812 -2.0209 0.6806, 1.5468 -2.0139 0.6695, 1.5228 -2.0014 0.6597, 1.5121 -1.9924 0.6545, 2.0705 -1.4529 0.656, 2.0824 -1.4729 0.6586, 2.0921 -1.5057 0.6621, 2.0933 -1.5545 0.6663, 2.0822 -1.6098 0.6699, 2.0592 -1.6694 0.673, 2.0252 -1.731 0.6753, 1.9817 -1.792 0.6767, 1.9304 -1.85 0.6773, 1.8733 -1.9027 0.6769, 1.8127 -1.9479 0.6756, 1.751 -1.9838 0.6735, 1.6908 -2.0091 0.6706, 1.6345 -2.0227 0.667, 1.5842 -2.0239 0.663, 1.5486 -2.0156 0.6593, 1.5235 -2.0021 0.6561, 1.5121 -1.9924 0.6544, 2.0706 -1.4529 0.6536, 2.0824 -1.4729 0.6496, 2.0921 -1.5057 0.6458, 2.0932 -1.5544 0.6413, 2.082 -1.6097 0.6373, 2.059 -1.6693 0.6339, 2.0251 -1.7308 0.6314, 1.9815 -1.7918 0.6298, 1.9302 -1.8498 0.6292, 1.8731 -1.9025 0.6296, 1.8125 -1.9477 0.631, 1.7509 -1.9837 0.6334, 1.6907 -2.009 0.6365, 1.6344 -2.0226 0.6404, 1.5842 -2.0239 0.6449, 1.5485 -2.0156 0.6488, 1.5234 -2.002 0.6524, 1.5121 -1.9924 0.6542, 2.07 -1.4534 0.6476, 2.0808 -1.4713 0.641, 2.0892 -1.5028 0.63, 2.0888 -1.55 0.617, 2.0763 -1.604 0.6056, 2.0522 -1.6625 0.5961, 2.0174 -1.7231 0.5889, 1.9733 -1.7836 0.5844, 1.9218 -1.8414 0.5827, 1.8648 -1.8942 0.5838, 1.8047 -1.9399 0.5878, 1.7439 -1.9767 0.5945, 1.6847 -2.003 0.6035, 1.6297 -2.0179 0.6146, 1.581 -2.0207 0.6273, 1.5467 -2.0137 0.6387, 1.5228 -2.0014 0.6487, 1.5121 -1.9924 0.6541, 2.0695 -1.454 0.6415, 2.0778 -1.4683 0.6331, 2.0837 -1.4973 0.6156, 2.0804 -1.5416 0.595, 2.0653 -1.593 0.5768, 2.0391 -1.6493 0.5617, 2.0027 -1.7084 0.5503, 1.9576 -1.7678 0.5431, 1.9057 -1.8253 0.5404, 1.8489 -1.8783 0.5422, 1.7897 -1.9249 0.5486, 1.7304 -1.9632 0.5591, 1.6733 -1.9916 0.5735, 1.6208 -2.0089 0.5912, 1.5749 -2.0146 0.6114, 1.5432 -2.0102 0.6295, 1.5215 -2.0001 0.6454, 1.5121 -1.9924 0.654, 2.0759 -1.4895 0.6036, 2.0685 -1.5297 0.5765, 2.0498 -1.5774 0.5527, 2.0205 -1.6307 0.5329, 1.9818 -1.6875 0.5179, 1.9352 -1.7455 0.5085, 1.8827 -1.8023 0.5049, 1.8264 -1.8558 0.5073, 1.7685 -1.9037 0.5156, 1.7112 -1.944 0.5295, 1.6571 -1.9753 0.5484, 1.6081 -1.9963 0.5715, 1.5663 -2.006 0.598, 1.5382 -2.0052 0.6217, 2.0538 -1.515 0.5627, 2.0305 -1.5582 0.5346, 1.9974 -1.6077 0.5112, 1.9559 -1.6617 0.4937, 1.9076 -1.7179 0.4825, 1.8544 -1.774 0.4783, 1.7985 -1.8279 0.4811, 1.7422 -1.8774 0.4909, 1.6876 -1.9204 0.5073, 1.637 -1.9553 0.5295, 1.5924 -1.9806 0.5568, 1.5556 -1.9953 0.5879, 1.532 -1.9991 0.6159, 1.532 -1.9991 0.6159
            ]
        }
        coordIndex [
            0,1,2,-1,2,1,3,-1,2,3,4,-1,4,3,5,-1,4,5,6,-1,6,5,7,-1,1,0,8,-1,8,0,9,-1,8,9,10,-1,10,9,11,-1,10,11,12,-1,12,11,13,-1,12,13,14,-1,14,13,15,-1,14,15,16,-1,16,15,17,-1,16,17,18,-1,18,17,19,-1,20,21,22,-1,22,21,23,-1,22,23,24,-1,24,23,25,-1,3,26,5,-1,5,26,27,-1,23,5,25,-1,25,5,27,-1,25,27,28,-1,28,27,29,-1,6,7,30,-1,30,7,31,-1,30,31,32,-1,32,31,33,-1,21,20,34,-1,34,20,35,-1,34,35,36,-1,36,35,37,-1,36,37,38,-1,38,37,39,-1,38,39,33,-1,33,39,40,-1,33,40,32,-1,16,18,26,-1,3,1,8,-1,8,10,3,-1,3,10,12,-1,3,12,26,-1,26,12,14,-1,26,14,16,-1,7,5,31,-1,31,5,33,-1,21,34,23,-1,23,34,36,-1,23,36,5,-1,5,36,38,-1,5,38,33,-1,29,41,42,-1,42,41,43,-1,42,43,44,-1,45,46,47,-1,47,46,48,-1,47,48,49,-1,49,48,44,-1,49,44,50,-1,50,44,43,-1,50,51,49,-1,49,51,52,-1,49,52,47,-1,47,52,53,-1,47,53,45,-1,45,53,54,-1,55,54,56,-1,56,54,53,-1,56,53,57,-1,58,28,59,-1,59,28,60,-1,59,60,51,-1,51,60,57,-1,51,57,52,-1,52,57,53,-1,61,62,63,-1,63,62,64,-1,29,27,41,-1,41,27,65,-1,24,25,58,-1,58,25,28,-1,46,55,56,-1,46,56,48,-1,48,56,57,-1,48,57,44,-1,44,57,60,-1,44,60,42,-1,42,60,28,-1,42,28,29,-1,61,46,62,-1,62,46,45,-1,54,55,66,-1,66,55,67,-1,68,69,70,-1,68,71,72,-1,73,74,75,-1,76,77,78,-1,79,80,81,-1,82,83,84,-1,85,86,87,-1,88,89,90,-1,91,92,93,-1,94,95,96,-1,97,98,99,-1,100,101,102,-1,101,100,103,-1,104,102,101,-1,105,106,101,-1,107,101,108,-1,101,107,109,-1,106,108,101,-1,110,111,101,-1,101,111,112,-1,113,114,101,-1,115,116,117,-1,118,104,101,-1,119,120,121,-1,122,123,64,-1,64,123,124,-1,64,124,63,-1,63,124,125,-1,63,125,126,-1,127,128,129,-1,122,130,123,-1,123,130,131,-1,123,131,129,-1,129,131,132,-1,129,132,127,-1,133,134,135,-1,135,134,136,-1,127,137,128,-1,128,137,138,-1,128,138,136,-1,136,138,139,-1,136,139,135,-1,133,140,134,-1,134,140,141,-1,134,141,142,-1,143,144,145,-1,145,144,146,-1,141,147,142,-1,142,147,148,-1,142,148,146,-1,146,148,149,-1,146,149,145,-1,150,151,152,-1,152,151,144,-1,152,144,153,-1,153,144,143,-1,150,154,151,-1,151,154,155,-1,151,155,156,-1,155,157,156,-1,156,157,118,-1,156,118,101,-1,158,159,160,-1,160,159,161,-1,160,161,162,-1,162,161,163,-1,163,161,164,-1,163,164,165,-1,165,164,166,-1,166,164,167,-1,166,167,168,-1,168,167,169,-1,169,167,170,-1,169,170,171,-1,172,173,170,-1,170,173,174,-1,170,174,171,-1,175,176,177,-1,177,176,178,-1,177,178,172,-1,172,178,179,-1,172,179,173,-1,175,177,180,-1,180,177,181,-1,180,181,182,-1,182,181,183,-1,183,181,184,-1,183,184,185,-1,186,187,184,-1,184,187,188,-1,184,188,185,-1,189,190,191,-1,191,190,192,-1,191,192,186,-1,186,192,193,-1,186,193,187,-1,101,194,195,-1,189,191,195,-1,195,191,101,-1,114,194,101,-1,112,113,101,-1,109,110,101,-1,103,105,101,-1,196,197,198,-1,199,200,201,-1,202,203,204,-1,97,99,205,-1,206,207,208,-1,91,93,209,-1,210,211,212,-1,88,90,213,-1,214,215,216,-1,217,218,219,-1,220,221,222,-1,223,224,225,-1,226,227,228,-1,228,227,229,-1,228,229,224,-1,224,223,228,-1,228,223,230,-1,228,230,226,-1,231,232,233,-1,233,232,234,-1,233,234,235,-1,74,236,237,-1,237,238,74,-1,74,238,231,-1,74,231,75,-1,75,231,233,-1,75,233,230,-1,230,233,235,-1,230,235,226,-1,239,240,73,-1,73,240,241,-1,73,241,74,-1,74,241,242,-1,74,242,236,-1,243,244,245,-1,245,244,246,-1,79,81,247,-1,86,239,87,-1,87,239,73,-1,87,73,248,-1,248,73,75,-1,248,75,249,-1,249,75,230,-1,249,230,250,-1,250,230,223,-1,250,223,251,-1,251,223,225,-1,251,225,252,-1,246,85,245,-1,245,85,87,-1,245,87,253,-1,253,87,248,-1,253,248,254,-1,254,248,249,-1,254,249,255,-1,255,249,250,-1,255,250,256,-1,256,250,251,-1,256,251,257,-1,257,251,252,-1,257,252,258,-1,83,243,84,-1,84,243,245,-1,84,245,259,-1,259,245,253,-1,259,253,260,-1,260,253,254,-1,260,254,261,-1,261,254,255,-1,261,255,262,-1,262,255,256,-1,262,256,263,-1,263,256,257,-1,263,257,220,-1,220,257,258,-1,220,258,221,-1,80,82,81,-1,81,82,84,-1,81,84,264,-1,264,84,259,-1,264,259,265,-1,265,259,260,-1,265,260,266,-1,266,260,261,-1,266,261,267,-1,267,261,262,-1,267,262,268,-1,268,262,263,-1,268,263,269,-1,269,263,220,-1,269,220,270,-1,270,220,222,-1,270,222,271,-1,77,247,78,-1,78,247,81,-1,78,81,272,-1,272,81,264,-1,272,264,273,-1,273,264,265,-1,273,265,274,-1,274,265,266,-1,274,266,275,-1,275,266,267,-1,275,267,276,-1,276,267,268,-1,276,268,277,-1,277,268,269,-1,277,269,278,-1,278,269,270,-1,278,270,217,-1,217,270,271,-1,217,271,218,-1,116,76,117,-1,117,76,78,-1,117,78,279,-1,279,78,272,-1,279,272,280,-1,280,272,273,-1,280,273,281,-1,281,273,274,-1,281,274,282,-1,282,274,275,-1,282,275,283,-1,283,275,276,-1,283,276,284,-1,284,276,277,-1,284,277,285,-1,285,277,278,-1,285,278,286,-1,286,278,217,-1,286,217,287,-1,287,217,219,-1,160,115,158,-1,158,115,117,-1,158,117,288,-1,288,117,279,-1,288,279,289,-1,289,279,280,-1,289,280,290,-1,290,280,281,-1,290,281,291,-1,291,281,282,-1,291,282,292,-1,292,282,283,-1,292,283,293,-1,293,283,284,-1,293,284,294,-1,294,284,285,-1,294,285,295,-1,295,285,286,-1,295,286,216,-1,216,286,287,-1,216,287,214,-1,214,287,219,-1,296,159,297,-1,297,159,158,-1,297,158,298,-1,298,158,288,-1,298,288,299,-1,299,288,289,-1,299,289,300,-1,300,289,290,-1,300,290,301,-1,301,290,291,-1,301,291,302,-1,302,291,292,-1,302,292,303,-1,303,292,293,-1,303,293,304,-1,304,293,294,-1,304,294,305,-1,305,294,295,-1,305,295,306,-1,306,295,216,-1,306,216,90,-1,90,216,215,-1,90,215,213,-1,307,296,308,-1,308,296,297,-1,308,297,309,-1,309,297,298,-1,309,298,310,-1,310,298,299,-1,310,299,311,-1,311,299,300,-1,311,300,312,-1,312,300,301,-1,312,301,313,-1,313,301,302,-1,313,302,314,-1,314,302,303,-1,314,303,315,-1,315,303,304,-1,315,304,316,-1,316,304,305,-1,316,305,317,-1,317,305,306,-1,317,306,318,-1,318,306,90,-1,318,90,319,-1,319,90,89,-1,320,307,321,-1,321,307,308,-1,321,308,322,-1,322,308,309,-1,322,309,323,-1,323,309,310,-1,323,310,324,-1,324,310,311,-1,324,311,325,-1,325,311,312,-1,325,312,326,-1,326,312,313,-1,326,313,327,-1,327,313,314,-1,327,314,328,-1,328,314,315,-1,328,315,329,-1,329,315,316,-1,329,316,330,-1,330,316,317,-1,330,317,331,-1,331,317,318,-1,331,318,212,-1,212,318,319,-1,212,319,210,-1,332,320,333,-1,333,320,321,-1,333,321,334,-1,334,321,322,-1,334,322,335,-1,335,322,323,-1,335,323,336,-1,336,323,324,-1,336,324,337,-1,337,324,325,-1,337,325,338,-1,338,325,326,-1,338,326,339,-1,339,326,327,-1,339,327,340,-1,340,327,328,-1,340,328,341,-1,341,328,329,-1,341,329,342,-1,342,329,330,-1,342,330,343,-1,343,330,331,-1,343,331,93,-1,93,331,212,-1,93,212,209,-1,209,212,211,-1,72,71,344,-1,68,345,71,-1,71,345,346,-1,71,346,344,-1,344,346,119,-1,119,121,344,-1,344,121,347,-1,344,347,72,-1,72,347,68,-1,68,348,345,-1,345,348,349,-1,345,349,346,-1,346,349,350,-1,346,350,119,-1,119,350,351,-1,119,351,120,-1,120,351,352,-1,68,353,348,-1,348,353,354,-1,348,354,349,-1,349,354,355,-1,349,355,350,-1,350,355,356,-1,350,356,351,-1,351,356,357,-1,351,357,352,-1,352,357,358,-1,68,359,353,-1,353,359,360,-1,353,360,354,-1,354,360,361,-1,354,361,355,-1,355,361,362,-1,355,362,356,-1,356,362,363,-1,356,363,357,-1,357,363,125,-1,357,125,358,-1,358,125,124,-1,68,364,359,-1,359,364,365,-1,359,365,360,-1,360,365,366,-1,360,366,361,-1,361,366,367,-1,361,367,362,-1,362,367,368,-1,362,368,363,-1,363,368,369,-1,363,369,125,-1,125,369,198,-1,125,198,126,-1,126,198,197,-1,68,370,364,-1,364,370,371,-1,364,371,365,-1,365,371,372,-1,365,372,366,-1,366,372,373,-1,366,373,367,-1,367,373,374,-1,367,374,368,-1,368,374,375,-1,368,375,369,-1,369,375,376,-1,369,376,198,-1,198,376,201,-1,198,201,196,-1,196,201,200,-1,68,377,370,-1,370,377,378,-1,370,378,371,-1,371,378,379,-1,371,379,372,-1,372,379,380,-1,372,380,373,-1,373,380,381,-1,373,381,374,-1,374,381,382,-1,374,382,375,-1,375,382,383,-1,375,383,376,-1,376,383,384,-1,376,384,201,-1,201,384,204,-1,201,204,199,-1,199,204,203,-1,68,385,377,-1,377,385,386,-1,377,386,378,-1,378,386,387,-1,378,387,379,-1,379,387,388,-1,379,388,380,-1,380,388,389,-1,380,389,381,-1,381,389,390,-1,381,390,382,-1,382,390,391,-1,382,391,383,-1,383,391,392,-1,383,392,384,-1,384,392,393,-1,384,393,204,-1,204,393,99,-1,204,99,202,-1,202,99,98,-1,68,394,385,-1,385,394,395,-1,385,395,386,-1,386,395,396,-1,386,396,387,-1,387,396,397,-1,387,397,388,-1,388,397,398,-1,388,398,389,-1,389,398,399,-1,389,399,390,-1,390,399,400,-1,390,400,391,-1,391,400,401,-1,391,401,392,-1,392,401,402,-1,392,402,393,-1,393,402,403,-1,393,403,99,-1,99,403,208,-1,99,208,205,-1,205,208,207,-1,95,206,96,-1,96,206,208,-1,96,208,404,-1,404,208,403,-1,404,403,405,-1,405,403,402,-1,405,402,406,-1,406,402,401,-1,406,401,407,-1,407,401,400,-1,407,400,408,-1,408,400,399,-1,408,399,409,-1,409,399,398,-1,409,398,410,-1,410,398,397,-1,410,397,411,-1,411,397,396,-1,411,396,412,-1,412,396,395,-1,412,395,413,-1,413,395,394,-1,413,394,70,-1,70,394,68,-1,69,332,70,-1,70,332,333,-1,70,333,413,-1,413,333,334,-1,413,334,412,-1,412,334,335,-1,412,335,411,-1,411,335,336,-1,411,336,410,-1,410,336,337,-1,410,337,409,-1,409,337,338,-1,409,338,408,-1,408,338,339,-1,408,339,407,-1,407,339,340,-1,407,340,406,-1,406,340,341,-1,406,341,405,-1,405,341,342,-1,405,342,404,-1,404,342,343,-1,404,343,96,-1,96,343,93,-1,96,93,94,-1,94,93,92,-1,414,415,416,-1,416,415,417,-1,416,417,418,-1,418,417,419,-1,418,419,420,-1,420,419,421,-1,420,421,422,-1,422,421,423,-1,422,423,424,-1,424,423,425,-1,424,425,426,-1,426,425,427,-1,415,414,428,-1,428,414,429,-1,428,429,430,-1,430,429,431,-1,430,431,432,-1,432,431,433,-1,434,435,436,-1,436,435,437,-1,436,437,438,-1,438,437,439,-1,429,440,431,-1,431,440,441,-1,437,431,439,-1,439,431,441,-1,439,441,442,-1,442,441,443,-1,432,433,444,-1,444,433,445,-1,444,445,446,-1,446,445,447,-1,446,447,448,-1,448,447,449,-1,448,449,450,-1,450,449,451,-1,450,451,452,-1,452,451,453,-1,435,434,453,-1,453,434,454,-1,453,454,452,-1,424,426,440,-1,429,414,416,-1,416,418,429,-1,429,418,420,-1,429,420,440,-1,440,420,422,-1,440,422,424,-1,445,433,431,-1,445,431,447,-1,435,453,437,-1,437,453,451,-1,437,451,431,-1,431,451,449,-1,431,449,447,-1,455,456,457,-1,457,456,458,-1,459,460,461,-1,461,462,459,-1,459,462,463,-1,459,463,464,-1,464,463,465,-1,464,465,443,-1,466,467,468,-1,468,467,469,-1,468,469,470,-1,470,469,471,-1,470,471,472,-1,472,471,442,-1,455,461,456,-1,456,461,460,-1,466,473,467,-1,467,473,474,-1,443,441,464,-1,464,441,475,-1,438,439,471,-1,471,439,442,-1,461,466,468,-1,461,468,462,-1,462,468,470,-1,462,470,463,-1,463,470,472,-1,463,472,465,-1,465,472,442,-1,465,442,443,-1,476,477,478,-1,479,480,481,-1,482,483,484,-1,485,486,487,-1,488,489,490,-1,458,491,457,-1,457,491,492,-1,457,492,493,-1,493,492,494,-1,493,494,495,-1,495,494,496,-1,497,498,496,-1,496,498,499,-1,496,499,495,-1,500,501,502,-1,502,501,503,-1,502,503,497,-1,497,503,504,-1,497,504,498,-1,500,502,505,-1,505,502,506,-1,505,506,507,-1,507,506,508,-1,508,506,509,-1,508,509,510,-1,490,489,509,-1,509,489,511,-1,509,511,510,-1,488,490,512,-1,512,490,513,-1,512,513,514,-1,515,516,517,-1,517,516,518,-1,517,518,513,-1,513,518,519,-1,513,519,514,-1,520,521,522,-1,522,521,523,-1,522,523,524,-1,524,523,525,-1,485,487,526,-1,527,528,529,-1,529,528,530,-1,530,528,531,-1,530,531,532,-1,533,534,535,-1,535,534,536,-1,535,536,537,-1,537,536,538,-1,538,536,539,-1,539,536,540,-1,539,540,541,-1,542,543,544,-1,544,543,545,-1,545,546,544,-1,544,546,547,-1,544,547,540,-1,540,547,548,-1,540,548,541,-1,549,550,551,-1,551,550,552,-1,551,552,553,-1,553,552,554,-1,553,554,542,-1,542,554,555,-1,542,555,543,-1,556,557,558,-1,558,557,559,-1,558,559,551,-1,551,559,560,-1,551,560,549,-1,561,562,563,-1,483,561,484,-1,484,561,563,-1,484,563,556,-1,556,563,564,-1,556,564,557,-1,482,484,565,-1,565,484,566,-1,565,566,567,-1,568,569,566,-1,566,569,570,-1,566,570,567,-1,571,572,573,-1,573,572,574,-1,573,574,568,-1,568,574,575,-1,568,575,569,-1,571,573,576,-1,576,573,577,-1,576,577,578,-1,579,580,581,-1,581,580,582,-1,581,582,577,-1,577,582,583,-1,577,583,578,-1,584,585,586,-1,476,478,587,-1,588,589,590,-1,591,592,593,-1,594,595,596,-1,596,595,597,-1,596,597,593,-1,593,597,598,-1,593,598,591,-1,594,596,599,-1,599,596,600,-1,599,600,601,-1,601,600,602,-1,602,600,603,-1,602,603,604,-1,604,603,605,-1,605,603,606,-1,605,606,607,-1,491,608,492,-1,492,608,609,-1,492,609,606,-1,606,609,610,-1,606,610,607,-1,520,515,521,-1,521,515,517,-1,521,517,611,-1,611,517,513,-1,611,513,612,-1,612,513,490,-1,612,490,613,-1,613,490,509,-1,613,509,614,-1,614,509,506,-1,614,506,615,-1,615,506,502,-1,615,502,616,-1,616,502,497,-1,616,497,617,-1,617,497,496,-1,617,496,618,-1,618,496,494,-1,618,494,619,-1,619,494,492,-1,619,492,620,-1,620,492,606,-1,620,606,621,-1,621,606,603,-1,621,603,622,-1,622,603,600,-1,622,600,623,-1,623,600,596,-1,623,596,590,-1,590,596,593,-1,590,593,588,-1,588,593,592,-1,624,525,625,-1,625,525,523,-1,625,523,626,-1,626,523,521,-1,626,521,627,-1,627,521,611,-1,627,611,628,-1,628,611,612,-1,628,612,629,-1,629,612,613,-1,629,613,630,-1,630,613,614,-1,630,614,631,-1,631,614,615,-1,631,615,632,-1,632,615,616,-1,632,616,633,-1,633,616,617,-1,633,617,634,-1,634,617,618,-1,634,618,635,-1,635,618,619,-1,635,619,636,-1,636,619,620,-1,636,620,637,-1,637,620,621,-1,637,621,638,-1,638,621,622,-1,638,622,639,-1,639,622,623,-1,639,623,640,-1,640,623,590,-1,641,624,642,-1,642,624,625,-1,642,625,643,-1,643,625,626,-1,643,626,644,-1,644,626,627,-1,644,627,645,-1,645,627,628,-1,645,628,646,-1,646,628,629,-1,646,629,647,-1,647,629,630,-1,647,630,648,-1,648,630,631,-1,648,631,649,-1,649,631,632,-1,649,632,650,-1,650,632,633,-1,650,633,651,-1,651,633,634,-1,651,634,652,-1,652,634,635,-1,652,635,653,-1,653,635,636,-1,653,636,654,-1,654,636,637,-1,654,637,655,-1,655,637,638,-1,655,638,656,-1,656,638,639,-1,656,639,478,-1,478,639,640,-1,478,640,587,-1,587,640,590,-1,587,590,657,-1,657,590,589,-1,658,641,659,-1,659,641,642,-1,659,642,660,-1,660,642,643,-1,660,643,661,-1,661,643,644,-1,661,644,662,-1,662,644,645,-1,662,645,663,-1,663,645,646,-1,663,646,664,-1,664,646,647,-1,664,647,665,-1,665,647,648,-1,665,648,666,-1,666,648,649,-1,666,649,667,-1,667,649,650,-1,667,650,668,-1,668,650,651,-1,668,651,669,-1,669,651,652,-1,669,652,670,-1,670,652,653,-1,670,653,671,-1,671,653,654,-1,671,654,672,-1,672,654,655,-1,672,655,673,-1,673,655,656,-1,673,656,674,-1,674,656,478,-1,674,478,675,-1,675,478,477,-1,676,658,677,-1,677,658,659,-1,677,659,678,-1,678,659,660,-1,678,660,679,-1,679,660,661,-1,679,661,680,-1,680,661,662,-1,680,662,681,-1,681,662,663,-1,681,663,682,-1,682,663,664,-1,682,664,683,-1,683,664,665,-1,683,665,684,-1,684,665,666,-1,684,666,685,-1,685,666,667,-1,685,667,686,-1,686,667,668,-1,686,668,687,-1,687,668,669,-1,687,669,688,-1,688,669,670,-1,688,670,689,-1,689,670,671,-1,689,671,690,-1,690,671,672,-1,690,672,691,-1,691,672,673,-1,691,673,692,-1,692,673,674,-1,692,674,693,-1,693,674,675,-1,694,676,695,-1,695,676,677,-1,695,677,696,-1,696,677,678,-1,696,678,697,-1,697,678,679,-1,697,679,698,-1,698,679,680,-1,698,680,699,-1,699,680,681,-1,699,681,700,-1,700,681,682,-1,700,682,701,-1,701,682,683,-1,701,683,702,-1,702,683,684,-1,702,684,703,-1,703,684,685,-1,703,685,704,-1,704,685,686,-1,704,686,705,-1,705,686,687,-1,705,687,706,-1,706,687,688,-1,706,688,707,-1,707,688,689,-1,707,689,708,-1,708,689,690,-1,708,690,709,-1,709,690,691,-1,709,691,710,-1,710,691,692,-1,710,692,711,-1,711,692,693,-1,712,694,713,-1,713,694,695,-1,713,695,714,-1,714,695,696,-1,714,696,715,-1,715,696,697,-1,715,697,716,-1,716,697,698,-1,716,698,717,-1,717,698,699,-1,717,699,718,-1,718,699,700,-1,718,700,719,-1,719,700,701,-1,719,701,720,-1,720,701,702,-1,720,702,721,-1,721,702,703,-1,721,703,722,-1,722,703,704,-1,722,704,723,-1,723,704,705,-1,723,705,724,-1,724,705,706,-1,724,706,725,-1,725,706,707,-1,725,707,726,-1,726,707,708,-1,726,708,727,-1,727,708,709,-1,727,709,728,-1,728,709,710,-1,728,710,729,-1,729,710,711,-1,730,712,731,-1,731,712,713,-1,731,713,732,-1,732,713,714,-1,732,714,733,-1,733,714,715,-1,733,715,734,-1,734,715,716,-1,734,716,735,-1,735,716,717,-1,735,717,736,-1,736,717,718,-1,736,718,737,-1,737,718,719,-1,737,719,738,-1,738,719,720,-1,738,720,739,-1,739,720,721,-1,739,721,740,-1,740,721,722,-1,740,722,741,-1,741,722,723,-1,741,723,742,-1,742,723,724,-1,742,724,743,-1,743,724,725,-1,743,725,744,-1,744,725,726,-1,744,726,745,-1,745,726,727,-1,745,727,746,-1,746,727,728,-1,746,728,747,-1,747,728,729,-1,486,730,487,-1,487,730,731,-1,487,731,748,-1,748,731,732,-1,748,732,749,-1,749,732,733,-1,749,733,750,-1,750,733,734,-1,750,734,751,-1,751,734,735,-1,751,735,752,-1,752,735,736,-1,752,736,753,-1,753,736,737,-1,753,737,754,-1,754,737,738,-1,754,738,755,-1,755,738,739,-1,755,739,756,-1,756,739,740,-1,756,740,757,-1,757,740,741,-1,757,741,758,-1,758,741,742,-1,758,742,759,-1,759,742,743,-1,759,743,760,-1,760,743,744,-1,760,744,761,-1,761,744,745,-1,761,745,481,-1,481,745,746,-1,481,746,479,-1,479,746,747,-1,532,526,530,-1,530,526,487,-1,530,487,529,-1,529,487,748,-1,529,748,762,-1,762,748,749,-1,762,749,763,-1,763,749,750,-1,763,750,764,-1,764,750,751,-1,764,751,765,-1,765,751,752,-1,765,752,766,-1,766,752,753,-1,766,753,767,-1,767,753,754,-1,767,754,768,-1,768,754,755,-1,768,755,769,-1,769,755,756,-1,769,756,770,-1,770,756,757,-1,770,757,771,-1,771,757,758,-1,771,758,772,-1,772,758,759,-1,772,759,773,-1,773,759,760,-1,773,760,774,-1,774,760,761,-1,774,761,584,-1,584,761,481,-1,584,481,585,-1,585,481,480,-1,533,527,534,-1,534,527,529,-1,534,529,536,-1,536,529,762,-1,536,762,540,-1,540,762,763,-1,540,763,544,-1,544,763,764,-1,544,764,542,-1,542,764,765,-1,542,765,553,-1,553,765,766,-1,553,766,551,-1,551,766,767,-1,551,767,558,-1,558,767,768,-1,558,768,556,-1,556,768,769,-1,556,769,484,-1,484,769,770,-1,484,770,566,-1,566,770,771,-1,566,771,568,-1,568,771,772,-1,568,772,573,-1,573,772,773,-1,573,773,577,-1,577,773,774,-1,577,774,581,-1,581,774,584,-1,581,584,579,-1,579,584,586,-1,
        ]
    }
}
Shape{
    appearance Appearance {
        material  Material 	{
            diffuseColor 1.0 1.0 1.0
            specularColor 0.8784313725490196 0.8784313725490196 0.8784313725490196
            ambientIntensity 0.2
            transparency 0
            shininess 0.5
        }
    }
    geometry IndexedFaceSet {
        ccw TRUE
        solid FALSE
        coord DEF co Coordinate {
            point [
                -0.6674 0.1865 0.0236, -0.821 -0.2072 0.0236, -0.6674 0.1865 0.0197, -0.821 -0.2072 0.0197, -0.7634 -0.2072 0.0236, -0.7634 -0.2072 0.0197, -0.7236 -0.0968 0.0236, -0.7236 -0.0968 0.0197, -0.5609 -0.0968 0.0236, -0.5609 -0.0968 0.0197, -0.5233 -0.2072 0.0236, -0.5233 -0.2072 0.0197, -0.4657 -0.2072 0.0236, -0.4657 -0.2072 0.0197, -0.6146 0.1865 0.0236, -0.6146 0.1865 0.0197, -0.5742 -0.0536 0.0236, -0.7059 -0.0536 0.0236, -0.6329 0.1109 0.0236, -0.6367 0.1245 0.0236, -0.6392 0.1385 0.0236, -0.6405 0.1385 0.0236, -0.6431 0.1246 0.0236, -0.6466 0.1109 0.0236, -0.5742 -0.0536 0.0197, -0.7059 -0.0536 0.0197, -0.6329 0.1109 0.0197, -0.6367 0.1245 0.0197, -0.6392 0.1385 0.0197, -0.6405 0.1385 0.0197, -0.6431 0.1246 0.0197, -0.6466 0.1109 0.0197, -0.2271 -0.2072 0.0236, -0.12 -0.2072 0.0236, -0.2271 -0.2072 0.0197, -0.12 -0.2072 0.0197, -0.12 0.1865 0.0236, -0.12 0.1865 0.0197, -0.2311 0.1865 0.0236, -0.2311 0.1865 0.0197, -0.4369 -0.0054 0.0236, -0.4369 -0.0054 0.0197, -0.4341 0.0316 0.0197, -0.4341 0.0316 0.0236, -0.4235 0.0704 0.0197, -0.4235 0.0704 0.0236, -0.4052 0.1043 0.0197, -0.4052 0.1043 0.0236, -0.3773 0.1352 0.0197, -0.3773 0.1352 0.0236, -0.3769 0.1355 0.0197, -0.3769 0.1355 0.0236, -0.3341 0.1642 0.0197, -0.3341 0.1642 0.0236, -0.288 0.1804 0.0197, -0.288 0.1804 0.0236, -0.2758 -0.2029 0.0197, -0.2758 -0.2029 0.0236, -0.3212 -0.1894 0.0197, -0.3212 -0.1894 0.0236, -0.3623 -0.1655 0.0197, -0.3623 -0.1655 0.0236, -0.3947 -0.1345 0.0197, -0.3947 -0.1345 0.0236, -0.4173 -0.0993 0.0197, -0.4173 -0.0993 0.0236, -0.4314 -0.0581 0.0197, -0.4314 -0.0581 0.0236, -0.3579 0.0881 0.0236, -0.3388 0.1084 0.0236, -0.31 0.127 0.0236, -0.2775 0.1383 0.0236, -0.2309 0.1433 0.0236, -0.1728 0.1433 0.0236, -0.1728 -0.164 0.0236, -0.2287 -0.164 0.0236, -0.2703 -0.1601 0.0236, -0.3034 -0.1498 0.0236, -0.3302 -0.1338 0.0236, -0.3523 -0.112 0.0236, -0.3689 -0.0849 0.0236, -0.3805 -0.0479 0.0236, -0.3841 -0.0065 0.0236, -0.3808 0.0327 0.0236, -0.3716 0.0638 0.0236, -0.2309 0.1433 0.0197, -0.1728 0.1433 0.0197, -0.2775 0.1383 0.0197, -0.31 0.127 0.0197, -0.3388 0.1084 0.0197, -0.3579 0.0881 0.0197, -0.3716 0.0638 0.0197, -0.3808 0.0327 0.0197, -0.3841 -0.0065 0.0197, -0.3805 -0.0479 0.0197, -0.3689 -0.0849 0.0197, -0.3523 -0.112 0.0197, -0.3302 -0.1338 0.0197, -0.3034 -0.1498 0.0197, -0.2703 -0.1601 0.0197, -0.2287 -0.164 0.0197, -0.1728 -0.164 0.0197, -0.0432 -0.164 0.0236, -0.0432 -0.2072 0.0236, -0.0432 -0.164 0.0197, -0.0432 -0.2072 0.0197, 0.168 -0.2072 0.0236, 0.168 -0.2072 0.0197, 0.168 0.1865 0.0236, 0.168 0.1865 0.0197, -0.0336 0.1865 0.0236, -0.0336 0.1865 0.0197, -0.0336 0.1433 0.0236, -0.0336 0.1433 0.0197, 0.1152 0.1433 0.0236, 0.1152 0.1433 0.0197, 0.1152 0.0137 0.0236, 0.1152 0.0137 0.0197, -0.024 0.0137 0.0236, -0.024 0.0137 0.0197, -0.024 -0.0296 0.0236, -0.024 -0.0296 0.0197, 0.1152 -0.0296 0.0236, 0.1152 -0.0296 0.0197, 0.1152 -0.164 0.0236, 0.1152 -0.164 0.0197, 0.2449 -0.1436 0.0236, 0.2449 -0.1868 0.0236, 0.2449 -0.1436 0.0197, 0.2449 -0.1868 0.0197, 0.2868 -0.204 0.0236, 0.3532 -0.212 0.0236, 0.3532 -0.212 0.0197, 0.3424 -0.2118 0.0197, 0.3424 -0.2118 0.0236, 0.3266 -0.2096 0.0197, 0.2868 -0.204 0.0197, 0.3763 -0.2096 0.0197, 0.4017 -0.207 0.0236, 0.4017 -0.207 0.0197, 0.4399 -0.1938 0.0236, 0.4399 -0.1938 0.0197, 0.4715 -0.1736 0.0236, 0.4715 -0.1736 0.0197, 0.5011 -0.1425 0.0236, 0.5011 -0.1425 0.0197, 0.5221 -0.105 0.0236, 0.5221 -0.105 0.0197, 0.5339 -0.0634 0.0236, 0.5339 -0.0634 0.0197, 0.5377 -0.0178 0.0236, 0.5377 -0.0178 0.0197, 0.3375 0.1913 0.0236, 0.3375 0.1913 0.0197, 0.3771 0.1881 0.0197, 0.3771 0.1881 0.0236, 0.4209 0.1753 0.0197, 0.4209 0.1753 0.0236, 0.4583 0.1538 0.0197, 0.4583 0.1538 0.0236, 0.4939 0.1196 0.0197, 0.4939 0.1196 0.0236, 0.517 0.0828 0.0197, 0.517 0.0828 0.0236, 0.5321 0.0382 0.0197, 0.5321 0.0382 0.0236, 0.2449 0.1757 0.0236, 0.2449 0.1757 0.0197, 0.2904 0.1881 0.0197, 0.2904 0.1881 0.0236, 0.2449 0.1229 0.0236, 0.2449 0.1229 0.0197, 0.3371 0.1481 0.0236, 0.3371 0.1481 0.0197, 0.2892 0.1419 0.0197, 0.2892 0.1419 0.0236, 0.4849 -0.0145 0.0236, 0.4849 -0.0145 0.0197, 0.483 0.0161 0.0197, 0.483 0.0161 0.0236, 0.4726 0.0582 0.0197, 0.4726 0.0582 0.0236, 0.4563 0.0886 0.0197, 0.4563 0.0886 0.0236, 0.4325 0.1149 0.0197, 0.4325 0.1149 0.0236, 0.4053 0.1331 0.0197, 0.4053 0.1331 0.0236, 0.3758 0.1437 0.0197, 0.3758 0.1437 0.0236, 0.3459 -0.1688 0.0236, 0.3459 -0.1688 0.0197, 0.3826 -0.1647 0.0197, 0.3826 -0.1647 0.0236, 0.4113 -0.1541 0.0197, 0.4113 -0.1541 0.0236, 0.4355 -0.1378 0.0197, 0.4355 -0.1378 0.0236, 0.454 -0.1183 0.0197, 0.454 -0.1183 0.0236, 0.4702 -0.091 0.0197, 0.4702 -0.091 0.0236, 0.4809 -0.0572 0.0197, 0.4809 -0.0572 0.0236, 0.2519 -0.1475 0.0197, 0.2519 -0.1475 0.0236, 0.2937 -0.163 0.0197, 0.2937 -0.163 0.0236, 0.5713 -0.164 0.0236, 0.5713 -0.2072 0.0236, 0.5713 -0.164 0.0197, 0.5713 -0.2072 0.0197, 0.773 -0.2072 0.0236, 0.773 -0.2072 0.0197, 0.773 0.1865 0.0236, 0.773 0.1865 0.0197, 0.7202 0.1865 0.0236, 0.7202 0.1865 0.0197, 0.7202 -0.164 0.0236, 0.7202 -0.164 0.0197, 0.7202 -0.164 0.0197
            ]
        }
        coordIndex [
            0,1,2,-1,2,1,3,-1,1,4,3,-1,3,4,5,-1,4,6,5,-1,5,6,7,-1,6,8,7,-1,7,8,9,-1,8,10,9,-1,9,10,11,-1,10,12,11,-1,11,12,13,-1,12,14,13,-1,13,14,15,-1,14,0,15,-1,15,0,2,-1,16,8,17,-1,17,8,6,-1,18,14,16,-1,16,14,12,-1,16,12,8,-1,8,12,10,-1,18,19,14,-1,14,19,20,-1,14,20,0,-1,0,20,21,-1,0,21,22,-1,22,23,0,-1,0,23,17,-1,0,17,1,-1,1,17,6,-1,1,6,4,-1,16,17,24,-1,24,17,25,-1,18,16,26,-1,26,16,24,-1,18,26,27,-1,18,27,19,-1,19,27,28,-1,19,28,20,-1,21,20,29,-1,29,20,28,-1,21,29,30,-1,21,30,22,-1,22,30,31,-1,22,31,23,-1,17,23,25,-1,25,23,31,-1,32,33,34,-1,34,33,35,-1,33,36,35,-1,35,36,37,-1,36,38,37,-1,37,38,39,-1,40,41,42,-1,40,42,43,-1,43,42,44,-1,43,44,45,-1,45,44,46,-1,45,46,47,-1,47,46,48,-1,47,48,49,-1,49,48,50,-1,49,50,51,-1,51,50,52,-1,51,52,53,-1,53,52,54,-1,53,54,55,-1,55,54,39,-1,55,39,38,-1,32,34,56,-1,32,56,57,-1,57,56,58,-1,57,58,59,-1,59,58,60,-1,59,60,61,-1,61,60,62,-1,61,62,63,-1,63,62,64,-1,63,64,65,-1,65,64,66,-1,65,66,67,-1,67,66,41,-1,67,41,40,-1,45,47,68,-1,68,47,49,-1,68,49,69,-1,69,49,51,-1,69,51,70,-1,70,51,53,-1,70,53,71,-1,71,53,55,-1,71,55,72,-1,72,55,38,-1,72,38,73,-1,73,38,36,-1,73,36,74,-1,74,36,33,-1,74,33,75,-1,75,33,32,-1,75,32,76,-1,76,32,57,-1,76,57,77,-1,77,57,59,-1,77,59,78,-1,78,59,61,-1,78,61,79,-1,79,61,63,-1,79,63,80,-1,80,63,65,-1,80,65,81,-1,81,65,67,-1,81,67,82,-1,82,67,40,-1,82,40,83,-1,83,40,43,-1,83,43,84,-1,84,43,45,-1,84,45,68,-1,72,73,85,-1,85,73,86,-1,72,85,87,-1,72,87,71,-1,71,87,88,-1,71,88,70,-1,70,88,89,-1,70,89,69,-1,69,89,90,-1,69,90,68,-1,68,90,91,-1,68,91,84,-1,84,91,92,-1,84,92,83,-1,83,92,93,-1,83,93,82,-1,82,93,94,-1,82,94,81,-1,81,94,95,-1,81,95,80,-1,80,95,96,-1,80,96,79,-1,79,96,97,-1,79,97,78,-1,78,97,98,-1,78,98,77,-1,77,98,99,-1,77,99,76,-1,76,99,100,-1,76,100,75,-1,74,75,101,-1,101,75,100,-1,73,74,86,-1,86,74,101,-1,102,103,104,-1,104,103,105,-1,103,106,105,-1,105,106,107,-1,106,108,107,-1,107,108,109,-1,108,110,109,-1,109,110,111,-1,110,112,111,-1,111,112,113,-1,112,114,113,-1,113,114,115,-1,114,116,115,-1,115,116,117,-1,116,118,117,-1,117,118,119,-1,118,120,119,-1,119,120,121,-1,120,122,121,-1,121,122,123,-1,122,124,123,-1,123,124,125,-1,124,102,125,-1,125,102,104,-1,106,103,102,-1,102,124,106,-1,106,124,122,-1,106,122,108,-1,112,110,114,-1,114,110,108,-1,114,108,116,-1,116,108,122,-1,116,122,118,-1,118,122,120,-1,126,127,128,-1,128,127,129,-1,129,127,130,-1,131,132,133,-1,131,133,134,-1,134,133,135,-1,134,135,130,-1,130,135,136,-1,130,136,129,-1,132,131,137,-1,137,131,138,-1,137,138,139,-1,139,138,140,-1,139,140,141,-1,141,140,142,-1,141,142,143,-1,143,142,144,-1,143,144,145,-1,145,144,146,-1,145,146,147,-1,147,146,148,-1,147,148,149,-1,149,148,150,-1,149,150,151,-1,152,153,154,-1,152,154,155,-1,155,154,156,-1,155,156,157,-1,157,156,158,-1,157,158,159,-1,159,158,160,-1,159,160,161,-1,161,160,162,-1,161,162,163,-1,163,162,164,-1,163,164,165,-1,165,164,151,-1,165,151,150,-1,166,167,168,-1,166,168,169,-1,169,168,153,-1,169,153,152,-1,166,170,167,-1,167,170,171,-1,172,173,174,-1,172,174,175,-1,175,174,171,-1,175,171,170,-1,176,177,178,-1,176,178,179,-1,179,178,180,-1,179,180,181,-1,181,180,182,-1,181,182,183,-1,183,182,184,-1,183,184,185,-1,185,184,186,-1,185,186,187,-1,187,186,188,-1,187,188,189,-1,189,188,173,-1,189,173,172,-1,190,191,192,-1,190,192,193,-1,193,192,194,-1,193,194,195,-1,195,194,196,-1,195,196,197,-1,197,196,198,-1,197,198,199,-1,199,198,200,-1,199,200,201,-1,201,200,202,-1,201,202,203,-1,203,202,177,-1,203,177,176,-1,126,128,204,-1,126,204,205,-1,205,204,206,-1,205,206,207,-1,207,206,191,-1,207,191,190,-1,193,131,190,-1,190,131,134,-1,190,134,207,-1,207,134,130,-1,207,130,205,-1,205,130,127,-1,205,127,126,-1,170,166,175,-1,175,166,169,-1,175,169,172,-1,172,169,152,-1,172,152,189,-1,189,152,155,-1,189,155,187,-1,187,155,157,-1,187,157,185,-1,185,157,159,-1,185,159,183,-1,183,159,161,-1,183,161,181,-1,181,161,163,-1,181,163,179,-1,179,163,165,-1,179,165,176,-1,176,165,150,-1,176,150,203,-1,203,150,148,-1,203,148,201,-1,201,148,146,-1,201,146,199,-1,199,146,144,-1,199,144,197,-1,197,144,142,-1,197,142,195,-1,195,142,140,-1,195,140,193,-1,193,140,138,-1,193,138,131,-1,208,209,210,-1,210,209,211,-1,209,212,211,-1,211,212,213,-1,212,214,213,-1,213,214,215,-1,214,216,215,-1,215,216,217,-1,216,218,217,-1,217,218,219,-1,218,208,219,-1,219,208,210,-1,216,214,218,-1,218,214,212,-1,218,212,208,-1,208,212,209,-1,
        ]
    }
}
Shape{
    appearance Appearance {
        material  Material 	{
            diffuseColor 0.2235294117647059 0.2235294117647059 0.2235294117647059
            specularColor 0.1803921568627451 0.1803921568627451 0.1803921568627451
            ambientIntensity 0.2
            transparency 0
            shininess 0.5
        }
    }
    geometry IndexedFaceSet {
        ccw TRUE
        solid FALSE
        coord DEF co Coordinate {
            point [
                -0.5742 -0.0536 0.0197, -0.7059 -0.0536 0.0197, -0.6329 0.1109 0.0197, -0.6466 0.1109 0.0197, -0.6367 0.1245 0.0197, -0.6431 0.1246 0.0197, -0.6392 0.1385 0.0197, -0.6405 0.1385 0.0197, -0.1728 0.1433 0.0197, -0.1728 -0.164 0.0197, -0.2309 0.1433 0.0197, -0.2287 -0.164 0.0197, -0.2703 -0.1601 0.0197, -0.3841 -0.0065 0.0197, -0.3808 0.0327 0.0197, -0.3716 0.0638 0.0197, -0.2775 0.1383 0.0197, -0.3034 -0.1498 0.0197, -0.3302 -0.1338 0.0197, -0.3523 -0.112 0.0197, -0.3689 -0.0849 0.0197, -0.3805 -0.0479 0.0197, -0.3579 0.0881 0.0197, -0.3388 0.1084 0.0197, -0.31 0.127 0.0197, -0.31 0.127 0.0197
            ]
        }
        coordIndex [
            0,1,2,-1,2,1,3,-1,2,3,4,-1,4,3,5,-1,4,5,6,-1,6,5,7,-1,8,9,10,-1,10,9,11,-1,10,11,12,-1,13,14,10,-1,10,14,15,-1,10,15,16,-1,12,17,10,-1,10,17,18,-1,10,18,19,-1,19,20,10,-1,10,20,21,-1,10,21,13,-1,22,23,15,-1,15,23,24,-1,15,24,16,-1,
        ]
    }
}