#VRML V2.0 utf8
# 3D model generated by easyeda2kicad.py (https://github.com/uPesy/easyeda2kicad.py)

Shape{
    appearance Appearance {
        material  Material 	{
            diffuseColor 0.25098039215686274 0.25098039215686274 0.25098039215686274
            specularColor 0.12549019607843137 0.12549019607843137 0.12549019607843137
            ambientIntensity 0.2
            transparency 0
            shininess 0.5
        }
    }
    geometry IndexedFaceSet {
        ccw TRUE
        solid FALSE
        coord DEF co Coordinate {
            point [
                -1.2235 -0.5315 -0.1575, -1.2235 -0.1052 -0.1575, -0.0756 -0.1052 -0.1575, 0.0877 -0.0938 -0.1575, 0.0493 -0.104 -0.1575, 0.0877 -0.0722 -0.1575, 0.0493 0.0929 -0.1575, 0.1852 -0.0973 -0.1575, 0.2509 -0.104 -0.1575, 0.1661 -0.1039 -0.1575, 0.1534 -0.1052 -0.1575, -0.0516 0.0929 -0.1575, -0.0756 0.6526 -0.1575, 0.2237 0.041 -0.1575, 0.2122 0.0594 -0.1575, 0.3253 0.0929 -0.1575, -0.0516 0.0713 -0.1575, -0.0564 -0.0824 -0.1575, -0.0564 -0.104 -0.1575, 0.1531 0.0715 -0.1575, 0.1679 0.0662 -0.1575, 0.0912 -0.0741 -0.1575, 0.1815 0.057 -0.1575, 0.1934 0.0439 -0.1575, 0.2077 -0.0077 -0.1575, 0.2057 -0.029 -0.1575, 0.2004 -0.0459 -0.1575, 0.1565 -0.0827 -0.1575, 0.1382 -0.0848 -0.1575, 0.1709 -0.0774 -0.1575, 0.183 -0.0693 -0.1575, 0.1922 -0.0596 -0.1575, 0.1121 -0.0819 -0.1575, 1.1629 0.6364 -0.1575, 1.188 0.6171 -0.1575, 0.3517 -0.104 -0.1575, 1.2073 0.5921 -0.1575, 0.2015 0.0287 -0.1575, 0.2068 0.0077 -0.1575, 0.1944 0.0765 -0.1575, 0.3517 0.0929 -0.1575, 1.1024 0.6526 -0.1575, 1.1337 0.6485 -0.1575, 0.0228 -0.0152 -0.1575, 0.0228 -0.0824 -0.1575, -0.0468 -0.0152 -0.1575, -0.0468 0.0064 -0.1575, 0.0228 0.0064 -0.1575, 0.0228 0.0713 -0.1575, 1.2194 0.5628 -0.1575, 1.2235 0.5315 -0.1575, 1.2235 -0.1052 -0.1575, 0.201 -0.0872 -0.1575, 0.2158 -0.0716 -0.1575, 0.2509 -0.0824 -0.1575, 0.2263 -0.0529 -0.1575, 0.3253 -0.0824 -0.1575, 0.2322 -0.0321 -0.1575, 0.2341 -0.0093 -0.1575, 0.2313 0.0187 -0.1575, 0.1757 0.0873 -0.1575, 0.1538 0.0936 -0.1575, 0.134 0.0953 -0.1575, 0.1104 0.0936 -0.1575, 0.0877 0.0875 -0.1575, 0.0877 0.0611 -0.1575, 0.1098 0.0705 -0.1575, 0.1338 0.0737 -0.1575, -0.2676 -0.104 -0.1575, -0.2434 -0.05 -0.1575, -0.2321 -0.0676 -0.1575, -0.342 0.0929 -0.1575, -1.1024 0.6526 -0.1575, -0.3685 0.0929 -0.1575, -0.2159 -0.0832 -0.1575, -0.1954 -0.0951 -0.1575, -0.1727 -0.1019 -0.1575, -0.1483 -0.104 -0.1575, -0.0948 -0.104 -0.1575, -0.0948 0.0929 -0.1575, -0.1503 0.0929 -0.1575, -0.2234 0.0672 -0.1575, -0.2374 0.0518 -0.1575, -0.2465 0.0348 -0.1575, -0.4165 -0.104 -0.1575, -0.4453 -0.104 -0.1575, -1.2235 0.5315 -0.1575, -0.1788 0.0898 -0.1575, -0.2018 0.0817 -0.1575, -0.2232 0.0674 -0.1575, -0.2964 -0.104 -0.1575, -0.3152 -0.0488 -0.1575, -0.3966 -0.0488 -0.1575, -0.2518 0.0154 -0.1575, -0.2532 -0.0031 -0.1575, -0.2505 -0.0294 -0.1575, -1.2194 0.5628 -0.1575, -1.2073 0.5921 -0.1575, -1.188 0.6171 -0.1575, -1.1629 0.6364 -0.1575, -1.1337 0.6485 -0.1575, -1.1337 -0.6485 -0.1575, -1.1629 -0.6364 -0.1575, -1.188 -0.6171 -0.1575, -1.2073 -0.5921 -0.1575, -1.2194 -0.5628 -0.1575, 0.1086 -0.1024 -0.1575, 0.1285 -0.1052 -0.1575, -0.0756 -0.6526 -0.1575, -1.1024 -0.6526 -0.1575, 0.1364 -0.1063 -0.1575, 0.1418 -0.1064 -0.1575, 1.2235 -0.5315 -0.1575, 1.1024 -0.6526 -0.1575, 1.2194 -0.5628 -0.1575, 1.2073 -0.5921 -0.1575, 1.188 -0.6171 -0.1575, 1.1629 -0.6364 -0.1575, 1.1337 -0.6485 -0.1575, 0.5906 0.6826 -0.0276, 0.5906 0.689 0.0, 1.1024 0.689 0.0, -0.5906 0.6826 -0.0276, -0.5906 0.689 0.0, -1.1024 0.689 0.0, -0.5906 0.6717 0.0748, -1.1024 0.594 0.4114, 0.5906 0.6717 0.0748, 1.1024 0.594 0.4114, 1.1024 -0.689 0.0, 1.0433 -0.689 0.0, -1.0433 -0.689 0.0, -1.1024 -0.689 0.0, -1.0433 -0.6826 -0.0276, 1.0433 -0.6826 -0.0276, 0.7677 -0.6826 -0.0276, -0.1378 -0.689 0.0, -0.7677 -0.689 0.0, -0.1378 -0.6826 -0.0276, -0.7677 -0.6826 -0.0276, 0.7677 -0.689 0.0, 0.1378 -0.689 0.0, 0.1378 -0.6826 -0.0276, -0.7677 -0.6717 0.0748, 0.1378 -0.6717 0.0748, 0.7677 -0.6717 0.0748, -0.1378 -0.6717 0.0748, -1.1024 -0.594 0.4114, -1.0433 -0.6717 0.0748, 1.0433 -0.6717 0.0748, 1.1024 -0.594 0.4114, 1.2598 -0.5315 0.0, 1.2564 -0.5577 0.0, 1.2545 -0.5723 0.0, 1.2453 -0.5945 0.0, 1.2387 -0.6102 0.0, 1.2255 -0.6275 0.0, 1.2137 -0.6429 0.0, 1.1983 -0.6546 0.0, 1.1811 -0.6679 0.0, 1.1654 -0.6744 0.0, 1.1286 -0.6855 0.0, 1.1431 -0.6836 0.0, -1.1286 -0.6855 0.0, -1.1431 -0.6836 0.0, -1.1654 -0.6744 0.0, -1.1811 -0.6679 0.0, -1.1983 -0.6546 0.0, -1.2137 -0.6429 0.0, -1.2255 -0.6275 0.0, -1.2387 -0.6102 0.0, -1.2453 -0.5945 0.0, -1.2598 -0.5315 0.0, -1.2564 -0.5577 0.0, -1.2545 -0.5723 0.0, -1.2598 0.5315 0.0, -1.2564 0.5577 0.0, -1.2545 0.5723 0.0, -1.2453 0.5945 0.0, -1.2387 0.6102 0.0, -1.2255 0.6275 0.0, -1.2137 0.6429 0.0, -1.1983 0.6546 0.0, -1.1811 0.6679 0.0, -1.1654 0.6744 0.0, -1.1286 0.6855 0.0, -1.1431 0.6836 0.0, 1.1286 0.6855 0.0, 1.1431 0.6836 0.0, 1.1654 0.6744 0.0, 1.1811 0.6679 0.0, 1.1983 0.6546 0.0, 1.2137 0.6429 0.0, 1.2255 0.6275 0.0, 1.2387 0.6102 0.0, 1.2453 0.5945 0.0, 1.2598 0.5315 0.0, 1.2564 0.5577 0.0, 1.2545 0.5723 0.0, 1.1128 -0.5929 0.411, 1.1145 -0.5927 0.4109, 1.1276 -0.5886 0.4106, 1.1261 -0.5891 0.4106, 1.1169 -0.5924 0.4108, 1.1409 -0.5809 0.4104, 1.137 -0.5834 0.4105, 1.1301 -0.5877 0.4105, 1.1508 -0.5712 0.4104, 1.1464 -0.5756 0.4104, 1.1414 -0.5806 0.4104, 1.1514 -0.5706 0.4104, 1.1518 -0.57 0.4104, 1.1543 -0.5661 0.4105, 1.1576 -0.5609 0.4105, 1.1586 -0.5592 0.4105, 1.1637 -0.5419 0.411, 1.1635 -0.5436 0.4109, 1.1631 -0.5469 0.4108, 1.1621 -0.5495 0.4108, 1.16 -0.5553 0.4106, 1.1595 -0.5567 0.4106, 1.1642 -0.5375 0.4112, 1.1649 -0.5315 0.4114, 1.1649 0.5315 0.4114, 1.1637 0.5419 0.411, 1.1635 0.5436 0.4109, 1.1595 0.5567 0.4106, 1.16 0.5553 0.4106, 1.1633 0.5461 0.4108, 1.1464 0.5756 0.4104, 1.1514 0.5706 0.4104, 1.1518 0.57 0.4104, 1.1543 0.5661 0.4105, 1.1586 0.5592 0.4105, 1.1301 0.5877 0.4105, 1.1317 0.5867 0.4105, 1.137 0.5834 0.4105, 1.1409 0.5809 0.4104, 1.1414 0.5806 0.4104, 1.142 0.58 0.4104, 1.1128 0.5928 0.411, 1.1145 0.5926 0.4109, 1.1177 0.5922 0.4108, 1.1204 0.5913 0.4108, 1.1261 0.5892 0.4106, 1.1276 0.5886 0.4106, 1.1084 0.5933 0.4112, -1.1128 0.5929 0.411, -1.1145 0.5927 0.4109, -1.1276 0.5886 0.4106, -1.1261 0.5891 0.4106, -1.1169 0.5924 0.4108, -1.1409 0.5809 0.4104, -1.137 0.5834 0.4105, -1.1301 0.5877 0.4105, -1.1508 0.5712 0.4104, -1.1464 0.5756 0.4104, -1.1414 0.5806 0.4104, -1.1514 0.5706 0.4104, -1.1518 0.57 0.4104, -1.1543 0.5661 0.4105, -1.1576 0.5609 0.4105, -1.1586 0.5592 0.4105, -1.1637 0.5419 0.411, -1.1635 0.5436 0.4109, -1.1631 0.5469 0.4108, -1.1621 0.5495 0.4108, -1.16 0.5553 0.4106, -1.1595 0.5567 0.4106, -1.1642 0.5375 0.4112, -1.1649 0.5315 0.4114, -1.1649 -0.5315 0.4114, -1.1637 -0.5419 0.411, -1.1635 -0.5436 0.4109, -1.1595 -0.5567 0.4106, -1.16 -0.5553 0.4106, -1.1633 -0.5461 0.4108, -1.1518 -0.57 0.4104, -1.1543 -0.5661 0.4105, -1.1586 -0.5592 0.4105, -1.142 -0.58 0.4104, -1.1464 -0.5756 0.4104, -1.1514 -0.5706 0.4104, -1.1414 -0.5806 0.4104, -1.1409 -0.5809 0.4104, -1.137 -0.5834 0.4105, -1.1317 -0.5867 0.4105, -1.1301 -0.5877 0.4105, -1.1128 -0.5928 0.411, -1.1145 -0.5926 0.4109, -1.1177 -0.5922 0.4108, -1.1204 -0.5913 0.4108, -1.1261 -0.5892 0.4106, -1.1276 -0.5886 0.4106, -1.1084 -0.5933 0.4112, -0.8398 -0.3764 0.4724, 1.0881 -0.5173 0.4724, -0.8261 -0.3584 0.4724, -0.8174 -0.3375 0.4724, -0.9625 -0.2537 0.4724, -0.9446 -0.2399 0.4724, -1.0881 0.5173 0.4724, -0.9236 -0.2313 0.4724, -0.8578 -0.3902 0.4724, -0.8787 -0.3989 0.4724, -1.0881 -0.5173 0.4724, -0.9012 -0.4018 0.4724, -0.9236 -0.3989 0.4724, -0.9446 -0.3902 0.4724, -0.985 -0.3375 0.4724, -0.9879 -0.3151 0.4724, -0.985 -0.2926 0.4724, -0.9763 -0.2717 0.4724, -0.8398 -0.2537 0.4724, -0.8261 -0.2717 0.4724, 1.0881 0.5173 0.4724, -0.8174 -0.2926 0.4724, -0.8144 -0.3151 0.4724, -0.9625 -0.3764 0.4724, -0.9763 -0.3584 0.4724, -0.9012 -0.2283 0.4724, -0.8787 -0.2313 0.4724, -0.8578 -0.2399 0.4724, 1.1453 0.5745 0.4168, 1.1186 0.5874 0.4236, 1.1241 0.5854 0.4235, 1.1022 0.5932 0.4145, 1.1015 0.5895 0.4238, 1.1074 0.5897 0.4239, 1.125 0.5297 0.4628, 1.1359 0.5335 0.4555, 1.133 0.5404 0.4556, 1.162 0.543 0.4174, 1.148 0.5614 0.4295, 1.1508 0.5634 0.4233, 1.1433 0.5725 0.4232, 1.153 0.5651 0.4169, 1.1586 0.5544 0.4171, 1.1597 0.5422 0.4238, 1.1563 0.5532 0.4235, 1.1568 0.5412 0.4299, 1.1534 0.5517 0.4297, 1.1534 0.54 0.4357, 1.1501 0.5498 0.4356, 1.1496 0.5386 0.4413, 1.1626 0.5311 0.4176, 1.1604 0.5307 0.4238, 1.1601 0.5306 0.4247, 1.1587 0.5303 0.4286, 1.1422 0.5455 0.4464, 1.1408 0.5353 0.4512, 1.1454 0.537 0.4464, 1.1482 0.5284 0.4446, 1.1504 0.5288 0.4413, 1.1237 0.5528 0.4555, 1.1374 0.5534 0.4463, 1.1506 0.5288 0.4409, 1.1543 0.5295 0.4354, 1.1579 0.5302 0.4299, 1.1013 0.5197 0.4711, 1.1 0.5233 0.4714, 1.1021 0.5199 0.471, 1.0975 0.5266 0.4714, 1.0907 0.5313 0.4709, 1.0906 0.5304 0.471, 1.1045 0.5203 0.4707, 1.114 0.522 0.4676, 1.1133 0.5257 0.4681, 1.0941 0.5496 0.4655, 1.1006 0.5542 0.4628, 1.0941 0.5498 0.4654, 1.0951 0.5551 0.4622, 1.1113 0.5621 0.4556, 1.1044 0.565 0.4555, 1.0969 0.5648 0.4565, 1.1227 0.5349 0.4629, 1.1153 0.5444 0.4629, 1.1178 0.558 0.4555, 1.1058 0.5518 0.4629, 1.0965 0.5424 0.4681, 1.0929 0.5431 0.4677, 1.0914 0.5348 0.4705, 1.1065 0.5356 0.4682, 1.1001 0.5407 0.4681, 1.1116 0.5292 0.4681, 1.1206 0.5233 0.4654, 1.1015 0.5892 0.4246, 1.101 0.5869 0.4305, 1.1057 0.5835 0.4357, 1.1131 0.5888 0.4238, 1.1004 0.5835 0.4354, 1.0997 0.5795 0.4413, 1.1035 0.5755 0.4464, 1.0991 0.5764 0.4457, 1.0972 0.5662 0.4552, 1.1108 0.5826 0.4357, 1.1079 0.5746 0.4464, 1.1163 0.5714 0.4464, 1.1158 0.5811 0.4357, 1.1008 0.5659 0.4554, 1.1293 0.5829 0.4234, 1.139 0.5764 0.4232, 1.1343 0.5799 0.4233, 1.1448 0.559 0.4354, 1.138 0.5671 0.4353, 1.1313 0.5605 0.4462, 1.1298 0.574 0.4354, 1.1242 0.5665 0.4463, 1.1254 0.5768 0.4355, 1.1207 0.5792 0.4356, 1.121 0.5233 0.4653, 1.1259 0.5243 0.4622, 1.1372 0.5264 0.4553, 1.1419 0.5272 0.4507, 1.1466 0.5281 0.4461, -1.0941 0.5496 0.465, -1.0929 0.543 0.4675, -1.0906 0.5304 0.4709, -1.0907 0.5312 0.4707, -1.0916 0.5358 0.4702, -1.095 0.5542 0.4632, -1.0972 0.566 0.4549, -1.0952 0.5552 0.4625, -1.0989 0.5754 0.4459, -1.0981 0.5711 0.4509, -1.0979 0.57 0.4521, -1.0972 0.566 0.4549, 1.0972 0.5662 0.4552, -1.101 0.5866 0.4297, -1.1004 0.5836 0.4356, -1.0997 0.5798 0.4409, -1.0997 0.5795 0.4412, -1.1003 0.5827 0.4375, -1.102 0.5921 0.4178, -1.1019 0.5915 0.42, -1.1015 0.5896 0.4238, -1.1015 0.5892 0.4246, 1.1586 -0.5303 0.4288, 1.1601 -0.5306 0.4247, 1.1604 -0.5307 0.4238, 1.1466 -0.5281 0.4461, 1.148 -0.5284 0.4448, 1.1503 -0.5288 0.4413, 1.1542 -0.5295 0.4354, 1.1369 -0.5263 0.455, 1.1369 -0.5263 0.455, 1.1339 -0.5257 0.4578, 1.1259 -0.5243 0.4621, 1.1204 -0.5233 0.465, 1.1021 -0.5199 0.4707, 1.114 -0.5221 0.4677, 1.1169 -0.5226 0.467, 1.0978 -0.5191 0.4718, 1.1012 -0.5197 0.471, -1.1453 0.5745 0.4168, -1.1582 0.5478 0.4236, -1.1563 0.5532 0.4235, -1.1641 0.5314 0.4145, -1.1604 0.5307 0.4238, -1.1605 0.5365 0.4239, -1.1006 0.5542 0.4628, -1.1044 0.565 0.4555, -1.1113 0.5621 0.4556, -1.112 0.5859 0.4299, -1.1108 0.5826 0.4357, -1.1322 0.5771 0.4295, -1.1343 0.5799 0.4233, -1.1433 0.5725 0.4232, -1.1359 0.5821 0.4169, -1.1253 0.5877 0.4171, -1.1139 0.5911 0.4174, -1.1131 0.5888 0.4238, -1.1241 0.5854 0.4235, -1.1225 0.5825 0.4297, -1.1207 0.5792 0.4356, -1.1094 0.5788 0.4413, -1.1163 0.5714 0.4464, -1.1062 0.57 0.4512, -1.1079 0.5746 0.4464, -1.1237 0.5528 0.4555, -1.1242 0.5665 0.4463, -1.0942 0.5292 0.4714, -1.0975 0.5266 0.4714, -1.1021 0.5198 0.4709, -1.1013 0.5197 0.471, -1.0965 0.5424 0.4681, -1.1001 0.5407 0.4681, -1.1204 0.5232 0.4655, -1.125 0.5297 0.4628, -1.1206 0.5233 0.4654, -1.1259 0.5243 0.4622, -1.133 0.5404 0.4556, -1.1359 0.5335 0.4555, -1.1357 0.5261 0.4565, -1.1058 0.5518 0.4629, -1.1153 0.5444 0.4629, -1.1288 0.5469 0.4555, -1.1227 0.5349 0.4629, -1.1133 0.5257 0.4681, -1.114 0.522 0.4677, -1.1056 0.5205 0.4705, -1.1065 0.5356 0.4682, -1.1116 0.5292 0.4681, -1.1601 0.5306 0.4246, -1.1577 0.5302 0.4305, -1.1544 0.5348 0.4357, -1.1597 0.5422 0.4238, -1.1543 0.5295 0.4354, -1.1503 0.5288 0.4413, -1.1463 0.5326 0.4464, -1.1472 0.5282 0.4457, -1.137 0.5263 0.4552, -1.1534 0.54 0.4357, -1.1454 0.537 0.4464, -1.1422 0.5455 0.4464, -1.152 0.545 0.4357, -1.1367 0.53 0.4554, -1.1538 0.5584 0.4234, -1.1473 0.5681 0.4232, -1.1508 0.5634 0.4233, -1.1298 0.574 0.4354, -1.138 0.5671 0.4353, -1.1313 0.5605 0.4462, -1.1448 0.559 0.4354, -1.1374 0.5534 0.4463, -1.1477 0.5545 0.4355, -1.1501 0.5498 0.4356, 1.0975 -0.5266 0.4714, 1.0942 -0.5292 0.4714, 1.0906 -0.5304 0.4711, 1.1453 -0.5745 0.4168, 1.1463 -0.5326 0.4464, 1.1582 -0.5478 0.4236, 1.1563 -0.5532 0.4235, 1.1139 -0.5911 0.4174, 1.1322 -0.5771 0.4295, 1.1343 -0.5799 0.4233, 1.1433 -0.5725 0.4232, 1.1359 -0.5821 0.4169, 1.1253 -0.5877 0.4171, 1.1131 -0.5888 0.4238, 1.1241 -0.5854 0.4235, 1.112 -0.5859 0.4299, 1.1225 -0.5825 0.4297, 1.1108 -0.5826 0.4357, 1.1207 -0.5792 0.4356, 1.1094 -0.5788 0.4413, 1.1019 -0.5918 0.4176, 1.1015 -0.5895 0.4238, 1.1015 -0.5893 0.4247, 1.1012 -0.5878 0.4286, 1.1113 -0.5621 0.4556, 1.1044 -0.565 0.4555, 1.1163 -0.5714 0.4464, 1.1062 -0.57 0.4512, 1.1079 -0.5746 0.4464, 1.0993 -0.5774 0.4446, 1.0997 -0.5795 0.4413, 1.1237 -0.5528 0.4555, 1.1242 -0.5665 0.4463, 1.0997 -0.5798 0.4409, 1.1004 -0.5834 0.4354, 1.1011 -0.587 0.4299, 1.1153 -0.5444 0.4629, 1.1001 -0.5407 0.4681, 1.1058 -0.5518 0.4629, 1.0965 -0.5424 0.4681, 1.1006 -0.5542 0.4628, 1.0907 -0.5313 0.471, 1.0911 -0.5336 0.4707, 1.0929 -0.5431 0.4676, 1.125 -0.5297 0.4628, 1.1133 -0.5257 0.4681, 1.133 -0.5404 0.4556, 1.1359 -0.5335 0.4555, 1.1288 -0.5469 0.4555, 1.1227 -0.5349 0.4629, 1.1116 -0.5292 0.4681, 1.1065 -0.5356 0.4682, 1.0941 -0.5498 0.4654, 1.1605 -0.5365 0.4239, 1.1597 -0.5422 0.4238, 1.1544 -0.5348 0.4357, 1.1534 -0.54 0.4357, 1.1454 -0.537 0.4464, 1.1422 -0.5455 0.4464, 1.152 -0.545 0.4357, 1.1367 -0.53 0.4554, 1.1538 -0.5584 0.4234, 1.1473 -0.5681 0.4232, 1.1508 -0.5634 0.4233, 1.1298 -0.574 0.4354, 1.138 -0.5671 0.4353, 1.1313 -0.5605 0.4462, 1.1448 -0.559 0.4354, 1.1374 -0.5534 0.4463, 1.1477 -0.5545 0.4355, 1.1501 -0.5498 0.4356, 1.0942 -0.5501 0.4653, 1.0951 -0.5551 0.4622, 1.0972 -0.5663 0.4553, 1.0981 -0.571 0.4507, 1.099 -0.5758 0.4461, -1.1013 -0.5197 0.4709, -1.1021 -0.5199 0.4707, -1.1067 -0.5207 0.4702, -1.1139 -0.522 0.4675, -1.1205 -0.5233 0.465, -1.1251 -0.5241 0.4632, -1.1261 -0.5243 0.4625, -1.142 -0.5273 0.4509, -1.1463 -0.5281 0.4459, -1.1503 -0.5288 0.4412, -1.1409 -0.5271 0.4521, -1.1369 -0.5263 0.4549, -1.1369 -0.5263 0.4549, -1.137 0.5263 0.4552, -1.1575 -0.5301 0.4297, -1.1545 -0.5296 0.4356, -1.1506 -0.5289 0.4409, -1.1535 -0.5294 0.4375, -1.163 -0.5312 0.4178, -1.1604 -0.5307 0.4238, -1.16 -0.5306 0.4246, -1.1623 -0.531 0.42, -1.1015 -0.5895 0.4238, -1.1015 -0.5892 0.4247, -1.0997 -0.5795 0.4413, -1.1004 -0.5834 0.4354, -1.1012 -0.5877 0.4288, -1.0992 -0.5772 0.4448, -1.099 -0.5757 0.4461, -1.0972 -0.566 0.455, -1.0972 -0.566 0.455, -1.0907 -0.5312 0.4707, -1.0929 -0.5432 0.4677, -1.0935 -0.546 0.467, -1.0941 -0.5496 0.465, -1.0951 -0.555 0.4621, -1.0966 -0.563 0.4578, -1.0899 -0.5269 0.4718, -1.0906 -0.5304 0.471, -1.0975 -0.5266 0.4714, -1.1453 -0.5745 0.4168, -1.1035 -0.5755 0.4464, -1.1186 -0.5874 0.4236, -1.1241 -0.5854 0.4235, -1.1568 -0.5412 0.4299, -1.1534 -0.54 0.4357, -1.148 -0.5614 0.4295, -1.1508 -0.5634 0.4233, -1.1433 -0.5725 0.4232, -1.153 -0.5651 0.4169, -1.1586 -0.5544 0.4171, -1.162 -0.543 0.4174, -1.1597 -0.5422 0.4238, -1.1563 -0.5532 0.4235, -1.1534 -0.5517 0.4297, -1.1501 -0.5498 0.4356, -1.1496 -0.5386 0.4413, -1.133 -0.5404 0.4556, -1.1359 -0.5335 0.4555, -1.1422 -0.5455 0.4464, -1.1408 -0.5353 0.4512, -1.1454 -0.537 0.4464, -1.1237 -0.5528 0.4555, -1.1374 -0.5534 0.4463, -1.1 -0.5233 0.4714, -1.1116 -0.5292 0.4681, -1.1133 -0.5257 0.4681, -1.125 -0.5297 0.4628, -1.1006 -0.5542 0.4628, -1.0965 -0.5424 0.4681, -1.1113 -0.5621 0.4556, -1.1044 -0.565 0.4555, -1.1058 -0.5518 0.4629, -1.1178 -0.558 0.4555, -1.1153 -0.5444 0.4629, -1.1227 -0.5349 0.4629, -1.1001 -0.5407 0.4681, -1.1065 -0.5356 0.4682, -1.1074 -0.5897 0.4239, -1.1131 -0.5888 0.4238, -1.1057 -0.5835 0.4357, -1.1108 -0.5826 0.4357, -1.1079 -0.5746 0.4464, -1.1163 -0.5714 0.4464, -1.1158 -0.5811 0.4357, -1.1008 -0.5659 0.4554, -1.1293 -0.5829 0.4234, -1.139 -0.5764 0.4232, -1.1343 -0.5799 0.4233, -1.1448 -0.559 0.4354, -1.138 -0.5671 0.4353, -1.1313 -0.5605 0.4462, -1.1298 -0.574 0.4354, -1.1242 -0.5665 0.4463, -1.1254 -0.5768 0.4355, -1.1207 -0.5792 0.4356, -1.1207 -0.5792 0.4356
            ]
        }
        coordIndex [
            0,1,2,-1,3,4,5,-1,5,4,6,-1,7,8,9,-1,9,8,10,-1,6,11,12,-1,13,14,15,-1,11,16,12,-1,12,16,17,-1,12,17,2,-1,2,17,18,-1,2,18,4,-1,19,20,21,-1,21,20,22,-1,21,22,23,-1,24,25,21,-1,21,25,26,-1,27,28,29,-1,29,28,30,-1,26,31,21,-1,21,31,30,-1,21,30,32,-1,32,30,28,-1,33,34,35,-1,35,34,36,-1,23,37,21,-1,21,37,38,-1,21,38,24,-1,14,39,15,-1,15,39,12,-1,15,12,40,-1,40,12,41,-1,40,41,35,-1,35,41,42,-1,35,42,33,-1,43,44,45,-1,45,44,17,-1,45,17,46,-1,46,17,16,-1,46,16,47,-1,47,16,48,-1,36,49,35,-1,35,49,50,-1,35,50,51,-1,7,52,8,-1,8,52,53,-1,8,53,54,-1,54,53,55,-1,54,55,56,-1,55,57,56,-1,56,57,58,-1,56,58,15,-1,15,58,59,-1,15,59,13,-1,39,60,12,-1,12,60,61,-1,12,61,62,-1,62,63,12,-1,12,63,64,-1,12,64,6,-1,6,64,65,-1,6,65,5,-1,5,65,66,-1,5,66,21,-1,21,66,67,-1,21,67,19,-1,68,69,70,-1,12,71,72,-1,72,71,73,-1,70,74,68,-1,68,74,75,-1,68,75,76,-1,77,78,2,-1,2,78,79,-1,2,79,12,-1,12,79,80,-1,81,82,71,-1,71,82,83,-1,84,2,85,-1,85,2,1,-1,85,1,73,-1,73,1,86,-1,80,87,12,-1,12,87,88,-1,12,88,71,-1,71,88,89,-1,71,89,81,-1,76,77,68,-1,68,77,2,-1,68,2,90,-1,90,2,84,-1,90,84,91,-1,91,84,92,-1,83,93,71,-1,71,93,94,-1,71,94,68,-1,68,94,95,-1,68,95,69,-1,86,96,73,-1,73,96,97,-1,73,97,98,-1,98,99,73,-1,73,99,100,-1,73,100,72,-1,101,102,103,-1,103,104,101,-1,101,104,105,-1,101,105,0,-1,3,106,4,-1,4,106,107,-1,4,107,2,-1,2,107,108,-1,2,108,0,-1,0,108,109,-1,0,109,101,-1,107,110,108,-1,108,110,111,-1,108,111,10,-1,8,35,10,-1,10,35,51,-1,10,51,108,-1,108,51,112,-1,108,112,113,-1,113,112,114,-1,113,114,115,-1,116,117,115,-1,115,117,118,-1,115,118,113,-1,119,120,121,-1,121,41,119,-1,119,41,12,-1,119,12,122,-1,122,12,72,-1,122,72,123,-1,123,72,124,-1,123,124,125,-1,125,124,126,-1,125,126,127,-1,127,126,128,-1,127,128,120,-1,120,128,121,-1,113,129,130,-1,131,132,133,-1,133,132,109,-1,130,134,113,-1,113,134,135,-1,113,135,108,-1,136,137,138,-1,138,137,139,-1,140,141,135,-1,135,141,142,-1,135,142,108,-1,108,142,138,-1,108,138,109,-1,109,138,139,-1,109,139,133,-1,143,137,136,-1,141,140,144,-1,144,140,145,-1,136,146,143,-1,143,146,147,-1,143,147,148,-1,148,147,132,-1,148,132,131,-1,130,129,149,-1,149,129,150,-1,149,150,145,-1,145,150,147,-1,145,147,144,-1,144,147,146,-1,151,152,112,-1,112,152,114,-1,152,153,114,-1,114,153,154,-1,114,154,115,-1,154,155,115,-1,115,155,156,-1,115,156,116,-1,156,157,116,-1,116,157,158,-1,116,158,117,-1,158,159,117,-1,117,159,160,-1,117,160,118,-1,129,113,161,-1,161,113,118,-1,161,118,162,-1,162,118,160,-1,132,163,109,-1,109,163,101,-1,163,164,101,-1,101,164,165,-1,101,165,102,-1,165,166,102,-1,102,166,167,-1,102,167,103,-1,167,168,103,-1,103,168,169,-1,103,169,104,-1,169,170,104,-1,104,170,171,-1,104,171,105,-1,172,0,173,-1,173,0,105,-1,173,105,174,-1,174,105,171,-1,175,86,172,-1,172,86,1,-1,172,1,0,-1,175,176,86,-1,86,176,96,-1,176,177,96,-1,96,177,178,-1,96,178,97,-1,178,179,97,-1,97,179,180,-1,97,180,98,-1,180,181,98,-1,98,181,182,-1,98,182,99,-1,182,183,99,-1,99,183,184,-1,99,184,100,-1,124,72,185,-1,185,72,100,-1,185,100,186,-1,186,100,184,-1,121,187,41,-1,41,187,42,-1,187,188,42,-1,42,188,189,-1,42,189,33,-1,189,190,33,-1,33,190,191,-1,33,191,34,-1,191,192,34,-1,34,192,193,-1,34,193,36,-1,193,194,36,-1,36,194,195,-1,36,195,49,-1,196,50,197,-1,197,50,49,-1,197,49,198,-1,198,49,195,-1,50,196,51,-1,51,196,151,-1,51,151,112,-1,150,129,199,-1,199,129,161,-1,199,161,200,-1,160,201,162,-1,162,201,202,-1,162,202,161,-1,161,202,203,-1,161,203,200,-1,158,204,159,-1,159,204,205,-1,159,205,160,-1,160,205,206,-1,160,206,201,-1,207,208,158,-1,158,208,209,-1,158,209,204,-1,207,158,210,-1,210,158,157,-1,210,157,211,-1,211,157,156,-1,211,156,212,-1,212,156,155,-1,212,155,213,-1,213,155,154,-1,213,154,214,-1,215,216,152,-1,152,216,217,-1,152,217,153,-1,217,218,153,-1,153,218,219,-1,153,219,154,-1,154,219,220,-1,154,220,214,-1,215,152,221,-1,221,152,151,-1,221,151,222,-1,222,151,223,-1,223,151,196,-1,223,196,224,-1,224,196,197,-1,224,197,225,-1,195,226,198,-1,198,226,227,-1,198,227,197,-1,197,227,228,-1,197,228,225,-1,229,230,193,-1,193,230,231,-1,193,231,194,-1,194,231,232,-1,194,232,195,-1,195,232,233,-1,195,233,226,-1,190,189,234,-1,234,235,190,-1,190,235,236,-1,190,236,191,-1,191,236,237,-1,191,237,192,-1,192,237,238,-1,192,238,193,-1,193,238,239,-1,193,239,229,-1,240,241,187,-1,187,241,242,-1,187,242,188,-1,242,243,188,-1,188,243,244,-1,188,244,189,-1,189,244,245,-1,189,245,234,-1,240,187,246,-1,246,187,121,-1,246,121,128,-1,126,124,247,-1,247,124,185,-1,247,185,248,-1,184,249,186,-1,186,249,250,-1,186,250,185,-1,185,250,251,-1,185,251,248,-1,182,252,183,-1,183,252,253,-1,183,253,184,-1,184,253,254,-1,184,254,249,-1,255,256,182,-1,182,256,257,-1,182,257,252,-1,255,182,258,-1,258,182,181,-1,258,181,259,-1,259,181,180,-1,259,180,260,-1,260,180,179,-1,260,179,261,-1,261,179,178,-1,261,178,262,-1,263,264,176,-1,176,264,265,-1,176,265,177,-1,265,266,177,-1,177,266,267,-1,177,267,178,-1,178,267,268,-1,178,268,262,-1,263,176,269,-1,269,176,175,-1,269,175,270,-1,270,175,271,-1,271,175,172,-1,271,172,272,-1,272,172,173,-1,272,173,273,-1,171,274,174,-1,174,274,275,-1,174,275,173,-1,173,275,276,-1,173,276,273,-1,169,277,170,-1,170,277,278,-1,170,278,171,-1,171,278,279,-1,171,279,274,-1,280,281,169,-1,169,281,282,-1,169,282,277,-1,280,169,283,-1,283,169,168,-1,283,168,284,-1,284,168,167,-1,284,167,285,-1,285,167,166,-1,285,166,286,-1,286,166,165,-1,286,165,287,-1,288,289,163,-1,163,289,290,-1,163,290,164,-1,290,291,164,-1,164,291,292,-1,164,292,165,-1,165,292,293,-1,165,293,287,-1,288,163,294,-1,294,163,132,-1,294,132,147,-1,295,296,297,-1,297,296,298,-1,299,300,301,-1,301,300,302,-1,295,303,296,-1,296,303,304,-1,296,304,305,-1,304,306,305,-1,305,306,307,-1,305,307,308,-1,309,310,305,-1,305,310,311,-1,305,311,301,-1,301,311,312,-1,301,312,299,-1,313,314,315,-1,315,314,316,-1,315,316,296,-1,296,316,317,-1,296,317,298,-1,308,318,305,-1,305,318,319,-1,305,319,309,-1,302,320,301,-1,301,320,321,-1,301,321,315,-1,315,321,322,-1,315,322,313,-1,323,229,239,-1,324,325,244,-1,326,327,328,-1,329,330,331,-1,224,225,332,-1,333,334,335,-1,229,323,230,-1,233,232,336,-1,336,232,231,-1,228,227,337,-1,337,227,226,-1,231,230,336,-1,336,230,323,-1,336,323,334,-1,225,228,332,-1,332,228,337,-1,332,337,338,-1,338,337,339,-1,338,339,340,-1,340,339,341,-1,340,341,342,-1,342,341,343,-1,342,343,344,-1,223,224,345,-1,345,224,332,-1,345,332,346,-1,346,332,338,-1,346,338,347,-1,347,338,340,-1,347,340,348,-1,331,330,349,-1,349,330,350,-1,349,350,351,-1,351,352,353,-1,354,331,355,-1,355,331,349,-1,355,349,343,-1,343,349,351,-1,343,351,344,-1,351,353,344,-1,344,353,356,-1,344,356,342,-1,342,356,357,-1,342,357,340,-1,340,357,358,-1,340,358,348,-1,315,359,360,-1,360,359,361,-1,362,315,360,-1,363,364,362,-1,362,364,315,-1,361,365,360,-1,360,365,366,-1,360,366,367,-1,368,369,370,-1,370,369,371,-1,372,373,369,-1,369,373,374,-1,369,374,371,-1,329,331,375,-1,375,331,354,-1,375,354,376,-1,376,354,377,-1,376,377,378,-1,377,372,378,-1,378,372,369,-1,378,369,379,-1,379,369,368,-1,379,368,380,-1,381,382,383,-1,367,384,360,-1,360,384,382,-1,360,382,362,-1,362,382,381,-1,362,381,363,-1,380,381,379,-1,379,381,383,-1,379,383,378,-1,378,383,382,-1,378,382,376,-1,376,382,384,-1,376,384,375,-1,375,384,367,-1,375,367,329,-1,329,367,366,-1,329,366,385,-1,386,387,388,-1,128,326,246,-1,246,326,328,-1,246,328,240,-1,240,328,389,-1,244,243,324,-1,324,243,242,-1,324,242,389,-1,389,242,241,-1,389,241,240,-1,390,391,392,-1,392,391,393,-1,392,393,394,-1,387,390,388,-1,388,390,392,-1,388,392,395,-1,396,397,398,-1,394,399,392,-1,392,399,396,-1,392,396,395,-1,395,396,398,-1,400,234,325,-1,325,234,245,-1,325,245,244,-1,401,237,402,-1,402,237,236,-1,402,236,400,-1,400,236,235,-1,400,235,234,-1,334,323,335,-1,335,323,239,-1,335,239,401,-1,401,239,238,-1,401,238,237,-1,403,404,405,-1,405,404,406,-1,405,406,407,-1,407,406,408,-1,407,408,397,-1,397,408,409,-1,397,409,398,-1,327,386,328,-1,328,386,388,-1,328,388,389,-1,389,388,395,-1,389,395,324,-1,324,395,398,-1,324,398,325,-1,325,398,409,-1,325,409,400,-1,400,409,408,-1,400,408,402,-1,402,408,406,-1,402,406,401,-1,401,406,404,-1,401,404,335,-1,335,404,403,-1,335,403,333,-1,385,410,329,-1,329,410,411,-1,329,411,330,-1,330,411,412,-1,330,412,350,-1,350,412,413,-1,350,413,351,-1,351,413,414,-1,351,414,352,-1,226,233,337,-1,337,233,336,-1,337,336,339,-1,339,336,334,-1,339,334,341,-1,341,334,333,-1,341,333,343,-1,343,333,403,-1,343,403,355,-1,355,403,405,-1,355,405,354,-1,354,405,407,-1,354,407,377,-1,377,407,397,-1,377,397,372,-1,372,397,396,-1,372,396,373,-1,373,396,399,-1,373,399,374,-1,374,399,394,-1,380,415,381,-1,381,415,416,-1,381,416,363,-1,301,315,417,-1,417,315,364,-1,417,364,418,-1,418,364,363,-1,418,363,419,-1,419,363,416,-1,380,368,415,-1,415,368,370,-1,415,370,420,-1,420,370,371,-1,374,421,371,-1,371,421,422,-1,371,422,420,-1,423,424,391,-1,424,425,391,-1,391,425,426,-1,391,426,393,-1,393,426,421,-1,393,421,427,-1,427,421,374,-1,428,429,386,-1,390,430,391,-1,391,430,431,-1,391,431,423,-1,429,432,386,-1,386,432,430,-1,386,430,387,-1,387,430,390,-1,433,434,435,-1,327,435,386,-1,386,435,436,-1,386,436,428,-1,126,433,128,-1,128,433,435,-1,128,435,326,-1,326,435,327,-1,437,438,356,-1,439,222,223,-1,348,358,438,-1,438,358,357,-1,438,357,356,-1,223,345,439,-1,439,345,346,-1,439,346,438,-1,438,346,347,-1,438,347,348,-1,440,353,352,-1,440,441,353,-1,353,441,442,-1,353,442,356,-1,356,442,443,-1,356,443,437,-1,352,414,440,-1,440,414,413,-1,440,413,444,-1,444,413,412,-1,444,412,445,-1,445,412,411,-1,445,411,446,-1,446,411,447,-1,447,411,410,-1,447,410,448,-1,448,410,385,-1,448,385,366,-1,361,449,365,-1,365,449,450,-1,365,450,366,-1,366,450,451,-1,366,451,448,-1,315,296,359,-1,359,296,452,-1,359,452,361,-1,361,452,453,-1,361,453,449,-1,454,256,255,-1,455,456,267,-1,457,458,459,-1,460,461,462,-1,463,464,429,-1,465,466,467,-1,256,454,257,-1,254,253,468,-1,468,253,252,-1,251,250,469,-1,469,250,249,-1,252,257,468,-1,468,257,454,-1,468,454,466,-1,248,470,247,-1,247,470,433,-1,247,433,126,-1,248,251,470,-1,470,251,469,-1,470,469,471,-1,471,469,472,-1,471,472,463,-1,463,472,473,-1,463,473,464,-1,464,473,474,-1,464,474,475,-1,475,430,464,-1,464,430,432,-1,464,432,429,-1,462,461,476,-1,476,461,477,-1,476,477,478,-1,477,424,478,-1,478,424,423,-1,478,423,431,-1,479,462,480,-1,480,462,476,-1,480,476,474,-1,474,476,478,-1,474,478,475,-1,475,478,431,-1,475,431,430,-1,429,428,463,-1,463,428,436,-1,463,436,471,-1,471,436,435,-1,471,435,470,-1,470,435,434,-1,470,434,433,-1,301,417,481,-1,481,417,418,-1,482,301,481,-1,483,484,482,-1,482,484,301,-1,416,485,419,-1,419,485,486,-1,419,486,418,-1,415,420,460,-1,487,488,489,-1,489,488,490,-1,491,492,488,-1,488,492,493,-1,488,493,490,-1,460,462,494,-1,494,462,479,-1,494,479,495,-1,495,479,496,-1,495,496,497,-1,496,491,497,-1,497,491,488,-1,497,488,498,-1,498,488,487,-1,498,487,499,-1,500,501,502,-1,418,486,481,-1,481,486,501,-1,481,501,482,-1,482,501,500,-1,482,500,483,-1,499,500,498,-1,498,500,502,-1,498,502,497,-1,497,502,501,-1,497,501,495,-1,495,501,486,-1,495,486,494,-1,494,486,485,-1,494,485,460,-1,460,485,416,-1,460,416,415,-1,503,504,505,-1,270,457,269,-1,269,457,459,-1,269,459,263,-1,263,459,506,-1,267,266,455,-1,455,266,265,-1,455,265,506,-1,506,265,264,-1,506,264,263,-1,507,508,509,-1,509,508,510,-1,509,510,511,-1,504,507,505,-1,505,507,509,-1,505,509,512,-1,513,514,515,-1,511,516,509,-1,509,516,513,-1,509,513,512,-1,512,513,515,-1,517,262,456,-1,456,262,268,-1,456,268,267,-1,518,259,519,-1,519,259,260,-1,519,260,517,-1,517,260,261,-1,517,261,262,-1,466,454,467,-1,467,454,255,-1,467,255,518,-1,518,255,258,-1,518,258,259,-1,520,521,522,-1,522,521,523,-1,522,523,524,-1,524,523,525,-1,524,525,514,-1,514,525,526,-1,514,526,515,-1,458,503,459,-1,459,503,505,-1,459,505,506,-1,506,505,512,-1,506,512,455,-1,455,512,515,-1,455,515,456,-1,456,515,526,-1,456,526,517,-1,517,526,525,-1,517,525,519,-1,519,525,523,-1,519,523,518,-1,518,523,521,-1,518,521,467,-1,467,521,520,-1,467,520,465,-1,420,422,460,-1,460,422,421,-1,460,421,461,-1,461,421,426,-1,461,426,477,-1,477,426,425,-1,477,425,424,-1,249,254,469,-1,469,254,468,-1,469,468,472,-1,472,468,466,-1,472,466,473,-1,473,466,465,-1,473,465,474,-1,474,465,520,-1,474,520,480,-1,480,520,522,-1,480,522,479,-1,479,522,524,-1,479,524,496,-1,496,524,514,-1,496,514,491,-1,491,514,513,-1,491,513,492,-1,492,513,516,-1,492,516,493,-1,493,516,511,-1,452,296,527,-1,528,296,529,-1,530,208,207,-1,531,440,444,-1,532,533,219,-1,199,200,534,-1,535,536,537,-1,208,530,209,-1,206,205,538,-1,538,205,204,-1,203,202,539,-1,539,202,201,-1,204,209,538,-1,538,209,530,-1,538,530,536,-1,200,203,534,-1,534,203,539,-1,534,539,540,-1,540,539,541,-1,540,541,542,-1,542,541,543,-1,542,543,544,-1,544,543,545,-1,544,545,546,-1,150,199,547,-1,547,199,534,-1,547,534,548,-1,548,534,540,-1,548,540,549,-1,549,540,542,-1,549,542,550,-1,551,552,553,-1,553,552,554,-1,553,554,555,-1,555,556,557,-1,558,551,559,-1,559,551,553,-1,559,553,545,-1,545,553,555,-1,545,555,546,-1,555,557,546,-1,546,557,560,-1,546,560,544,-1,544,560,561,-1,544,561,542,-1,542,561,562,-1,542,562,550,-1,563,564,565,-1,565,564,566,-1,565,566,567,-1,529,568,528,-1,528,568,569,-1,528,569,570,-1,571,447,448,-1,571,448,572,-1,573,574,571,-1,571,574,446,-1,571,446,447,-1,575,563,558,-1,558,563,565,-1,558,565,551,-1,551,565,567,-1,551,567,552,-1,448,451,572,-1,572,451,450,-1,572,450,449,-1,576,577,578,-1,578,577,527,-1,578,527,528,-1,528,527,296,-1,579,567,570,-1,570,567,566,-1,570,566,528,-1,528,566,564,-1,528,564,578,-1,578,564,563,-1,578,563,576,-1,576,563,575,-1,576,575,573,-1,580,439,438,-1,222,439,221,-1,221,439,580,-1,221,580,215,-1,215,580,581,-1,219,218,532,-1,532,218,217,-1,532,217,581,-1,581,217,216,-1,581,216,215,-1,443,442,531,-1,531,442,441,-1,531,441,440,-1,437,443,582,-1,582,443,531,-1,582,531,583,-1,584,585,586,-1,586,583,584,-1,584,583,531,-1,584,531,587,-1,587,531,444,-1,587,444,445,-1,588,214,533,-1,533,214,220,-1,533,220,219,-1,589,211,590,-1,590,211,212,-1,590,212,588,-1,588,212,213,-1,588,213,214,-1,536,530,537,-1,537,530,207,-1,537,207,589,-1,589,207,210,-1,589,210,211,-1,591,592,593,-1,593,592,594,-1,593,594,595,-1,595,594,596,-1,595,596,585,-1,585,596,597,-1,585,597,586,-1,438,437,580,-1,580,437,582,-1,580,582,581,-1,581,582,583,-1,581,583,532,-1,532,583,586,-1,532,586,533,-1,533,586,597,-1,533,597,588,-1,588,597,596,-1,588,596,590,-1,590,596,594,-1,590,594,589,-1,589,594,592,-1,589,592,537,-1,537,592,591,-1,537,591,535,-1,579,598,567,-1,567,598,599,-1,567,599,552,-1,552,599,600,-1,552,600,554,-1,554,600,601,-1,554,601,555,-1,555,601,602,-1,555,602,556,-1,573,571,576,-1,576,571,572,-1,576,572,577,-1,577,572,449,-1,577,449,527,-1,527,449,453,-1,527,453,452,-1,201,206,539,-1,539,206,538,-1,539,538,541,-1,541,538,536,-1,541,536,543,-1,543,536,535,-1,543,535,545,-1,545,535,591,-1,545,591,559,-1,559,591,593,-1,559,593,558,-1,558,593,595,-1,558,595,575,-1,575,595,585,-1,575,585,573,-1,573,585,584,-1,573,584,574,-1,574,584,587,-1,574,587,446,-1,446,587,445,-1,305,301,603,-1,603,301,484,-1,603,484,604,-1,604,484,483,-1,604,483,605,-1,605,483,500,-1,605,500,606,-1,606,500,499,-1,606,499,607,-1,499,487,607,-1,607,487,489,-1,607,489,608,-1,608,489,490,-1,608,490,609,-1,610,508,611,-1,611,508,612,-1,610,613,508,-1,508,613,614,-1,508,614,510,-1,510,614,615,-1,510,615,616,-1,616,615,609,-1,616,609,493,-1,493,609,490,-1,503,617,618,-1,612,508,619,-1,619,508,507,-1,619,507,620,-1,620,507,618,-1,618,507,504,-1,618,504,503,-1,270,271,621,-1,458,622,503,-1,503,622,623,-1,503,623,617,-1,621,624,270,-1,270,624,622,-1,270,622,457,-1,457,622,458,-1,150,547,147,-1,147,547,548,-1,147,548,625,-1,625,548,549,-1,625,549,626,-1,627,628,561,-1,628,629,561,-1,561,629,626,-1,561,626,562,-1,562,626,549,-1,562,549,550,-1,561,560,627,-1,627,560,557,-1,627,557,630,-1,630,557,631,-1,599,632,600,-1,600,632,633,-1,600,633,601,-1,601,633,631,-1,601,631,602,-1,602,631,557,-1,602,557,556,-1,634,635,579,-1,579,570,634,-1,634,570,569,-1,634,569,568,-1,635,636,579,-1,579,636,637,-1,579,637,598,-1,598,637,638,-1,598,638,599,-1,599,638,639,-1,599,639,632,-1,296,305,529,-1,529,305,640,-1,529,640,568,-1,568,640,641,-1,568,641,634,-1,640,305,642,-1,643,281,280,-1,644,631,633,-1,645,646,292,-1,647,648,618,-1,649,650,651,-1,281,643,282,-1,279,278,652,-1,652,278,277,-1,276,275,653,-1,653,275,274,-1,277,282,652,-1,652,282,643,-1,652,643,650,-1,273,654,272,-1,272,654,621,-1,272,621,271,-1,273,276,654,-1,654,276,653,-1,654,653,655,-1,655,653,656,-1,655,656,647,-1,647,656,657,-1,647,657,648,-1,648,657,658,-1,648,658,659,-1,659,619,648,-1,648,619,620,-1,648,620,618,-1,660,661,662,-1,662,661,663,-1,662,663,664,-1,663,610,664,-1,664,610,611,-1,664,611,612,-1,665,660,666,-1,666,660,662,-1,666,662,658,-1,658,662,664,-1,658,664,659,-1,659,664,612,-1,659,612,619,-1,618,617,647,-1,647,617,623,-1,647,623,655,-1,655,623,622,-1,655,622,654,-1,654,622,624,-1,654,624,621,-1,305,603,667,-1,667,603,604,-1,642,305,667,-1,668,605,669,-1,669,605,606,-1,607,608,670,-1,607,670,606,-1,671,638,637,-1,671,637,672,-1,673,674,671,-1,671,674,639,-1,671,639,638,-1,673,675,676,-1,676,675,677,-1,676,677,665,-1,665,677,678,-1,665,678,660,-1,660,678,670,-1,660,670,661,-1,637,636,672,-1,672,636,635,-1,672,635,634,-1,679,642,680,-1,680,642,667,-1,680,667,668,-1,668,667,604,-1,668,604,605,-1,606,670,669,-1,669,670,678,-1,669,678,668,-1,668,678,677,-1,668,677,680,-1,680,677,675,-1,680,675,679,-1,681,625,626,-1,147,625,294,-1,294,625,681,-1,294,681,288,-1,288,681,682,-1,292,291,645,-1,645,291,290,-1,645,290,682,-1,682,290,289,-1,682,289,288,-1,628,627,644,-1,644,627,630,-1,644,630,631,-1,629,628,683,-1,683,628,644,-1,683,644,684,-1,685,686,687,-1,687,684,685,-1,685,684,644,-1,685,644,688,-1,688,644,633,-1,688,633,632,-1,689,287,646,-1,646,287,293,-1,646,293,292,-1,690,284,691,-1,691,284,285,-1,691,285,689,-1,689,285,286,-1,689,286,287,-1,650,643,651,-1,651,643,280,-1,651,280,690,-1,690,280,283,-1,690,283,284,-1,692,693,694,-1,694,693,695,-1,694,695,696,-1,696,695,697,-1,696,697,686,-1,686,697,698,-1,686,698,687,-1,626,629,681,-1,681,629,683,-1,681,683,682,-1,682,683,684,-1,682,684,645,-1,645,684,687,-1,645,687,646,-1,646,687,698,-1,646,698,689,-1,689,698,697,-1,689,697,691,-1,691,697,695,-1,691,695,690,-1,690,695,693,-1,690,693,651,-1,651,693,692,-1,651,692,649,-1,608,609,670,-1,670,609,615,-1,670,615,661,-1,661,615,614,-1,661,614,663,-1,663,614,613,-1,663,613,610,-1,673,671,675,-1,675,671,672,-1,675,672,679,-1,679,672,634,-1,679,634,642,-1,642,634,641,-1,642,641,640,-1,274,279,653,-1,653,279,652,-1,653,652,656,-1,656,652,650,-1,656,650,657,-1,657,650,649,-1,657,649,658,-1,658,649,692,-1,658,692,666,-1,666,692,694,-1,666,694,665,-1,665,694,696,-1,665,696,676,-1,676,696,686,-1,676,686,673,-1,673,686,685,-1,673,685,674,-1,674,685,688,-1,674,688,639,-1,639,688,632,-1,
        ]
    }
}
Shape{
    appearance Appearance {
        material  Material 	{
            diffuseColor 1.0 1.0 1.0
            specularColor 0.5019607843137255 0.5019607843137255 0.5019607843137255
            ambientIntensity 0.2
            transparency 0
            shininess 0.5
        }
    }
    geometry IndexedFaceSet {
        ccw TRUE
        solid FALSE
        coord DEF co Coordinate {
            point [
                -0.1378 -0.6717 0.0748, -0.1378 -0.9367 0.0748, 0.1378 -0.6717 0.0748, 0.1378 -0.9367 0.0748, 0.1378 -1.378 -0.0827, 0.1378 -1.0795 -0.0827, -0.1378 -1.378 -0.0827, -0.1378 -1.0795 -0.0827, 0.1378 -1.378 -0.185, -0.1378 -1.378 -0.185, 0.1378 -1.0767 -0.185, -0.1378 -1.0767 -0.185, -0.1378 -1.0529 -0.1821, 0.1378 -1.0529 -0.1821, -0.1378 -1.0305 -0.1735, 0.1378 -1.0305 -0.1735, -0.1378 -1.0109 -0.1598, 0.1378 -1.0109 -0.1598, -0.1378 -0.9951 -0.1417, 0.1378 -0.9951 -0.1417, -0.1378 -0.9843 -0.1203, 0.1378 -0.9843 -0.1203, 0.1378 -0.9552 -0.0405, -0.1378 -0.9552 -0.0405, 0.1378 -0.953 -0.0362, -0.1378 -0.953 -0.0362, 0.1378 -0.9499 -0.0326, -0.1378 -0.9499 -0.0326, 0.1378 -0.946 -0.0299, -0.1378 -0.946 -0.0299, 0.1378 -0.9415 -0.0281, -0.1378 -0.9415 -0.0281, 0.1378 -0.9367 -0.0276, -0.1378 -0.9367 -0.0276, 0.1378 -0.6826 -0.0276, -0.1378 -0.6826 -0.0276, -0.1378 -0.9662 0.0712, 0.1378 -0.9662 0.0712, -0.1378 -0.994 0.0605, 0.1378 -0.994 0.0605, -0.1378 -1.0184 0.0435, 0.1378 -1.0184 0.0435, -0.1378 -1.0379 0.021, 0.1378 -1.0379 0.021, -0.1378 -1.0514 -0.0055, 0.1378 -1.0514 -0.0055, 0.1378 -0.689 0.0, -0.1378 -0.689 0.0, 1.0433 -1.378 -0.0827, 1.0433 -1.0795 -0.0827, 0.7677 -1.378 -0.0827, 0.7677 -1.0795 -0.0827, 1.0433 -1.378 -0.185, 0.7677 -1.378 -0.185, 1.0433 -1.0767 -0.185, 0.7677 -1.0767 -0.185, 0.7677 -1.0529 -0.1821, 1.0433 -1.0529 -0.1821, 0.7677 -1.0305 -0.1735, 1.0433 -1.0305 -0.1735, 0.7677 -1.0109 -0.1598, 1.0433 -1.0109 -0.1598, 0.7677 -0.9951 -0.1417, 1.0433 -0.9951 -0.1417, 0.7677 -0.9843 -0.1203, 1.0433 -0.9843 -0.1203, 1.0433 -0.9552 -0.0405, 0.7677 -0.9552 -0.0405, 1.0433 -0.953 -0.0362, 0.7677 -0.953 -0.0362, 1.0433 -0.9499 -0.0326, 0.7677 -0.9499 -0.0326, 1.0433 -0.946 -0.0299, 0.7677 -0.946 -0.0299, 1.0433 -0.9415 -0.0281, 0.7677 -0.9415 -0.0281, 1.0433 -0.9367 -0.0276, 0.7677 -0.9367 -0.0276, 1.0433 -0.6826 -0.0276, 0.7677 -0.6826 -0.0276, 0.7677 -0.6717 0.0748, 0.7677 -0.9367 0.0748, 1.0433 -0.6717 0.0748, 1.0433 -0.9367 0.0748, 0.7677 -0.9662 0.0712, 1.0433 -0.9662 0.0712, 0.7677 -0.994 0.0605, 1.0433 -0.994 0.0605, 0.7677 -1.0184 0.0435, 1.0433 -1.0184 0.0435, 0.7677 -1.0379 0.021, 1.0433 -1.0379 0.021, 0.7677 -1.0514 -0.0055, 1.0433 -1.0514 -0.0055, 1.0433 -0.689 0.0, 0.7677 -0.689 0.0, -1.0433 -1.0795 -0.0827, -1.0433 -1.378 -0.0827, -0.7677 -1.0795 -0.0827, -0.7677 -1.378 -0.0827, -1.0433 -1.378 -0.185, -0.7677 -1.378 -0.185, -1.0433 -1.0767 -0.185, -0.7677 -1.0767 -0.185, -1.0433 -0.9843 -0.1203, -0.7677 -0.9843 -0.1203, -0.7677 -0.9951 -0.1417, -1.0433 -0.9951 -0.1417, -0.7677 -1.0109 -0.1598, -1.0433 -1.0109 -0.1598, -0.7677 -1.0305 -0.1735, -1.0433 -1.0305 -0.1735, -0.7677 -1.0529 -0.1821, -1.0433 -1.0529 -0.1821, -1.0433 -0.9552 -0.0405, -0.7677 -0.9552 -0.0405, -1.0433 -0.9367 -0.0276, -0.7677 -0.9367 -0.0276, -1.0433 -0.9415 -0.0281, -0.7677 -0.9415 -0.0281, -1.0433 -0.946 -0.0299, -0.7677 -0.946 -0.0299, -1.0433 -0.9499 -0.0326, -0.7677 -0.9499 -0.0326, -1.0433 -0.953 -0.0362, -0.7677 -0.953 -0.0362, -1.0433 -0.6826 -0.0276, -0.7677 -0.6826 -0.0276, -0.7677 -0.9367 0.0748, -0.7677 -0.6717 0.0748, -1.0433 -0.9367 0.0748, -1.0433 -0.6717 0.0748, -1.0433 -1.0514 -0.0055, -0.7677 -1.0514 -0.0055, -0.7677 -1.0379 0.021, -1.0433 -1.0379 0.021, -0.7677 -1.0184 0.0435, -1.0433 -1.0184 0.0435, -0.7677 -0.994 0.0605, -1.0433 -0.994 0.0605, -0.7677 -0.9662 0.0712, -1.0433 -0.9662 0.0712, -1.0433 -0.689 0.0, -0.7677 -0.689 0.0, 0.5906 0.9367 -0.0276, -0.5906 0.9367 -0.0276, 0.5906 0.9415 -0.0281, -0.5906 0.9415 -0.0281, 0.5906 0.946 -0.0299, -0.5906 0.946 -0.0299, 0.5906 0.9499 -0.0326, -0.5906 0.9499 -0.0326, 0.5906 0.953 -0.0362, -0.5906 0.953 -0.0362, 0.5906 0.9552 -0.0405, -0.5906 0.9552 -0.0405, 0.5906 0.9843 -0.1203, -0.5906 0.9843 -0.1203, -0.5906 0.9951 -0.1417, 0.5906 0.9951 -0.1417, -0.5906 1.0109 -0.1598, 0.5906 1.0109 -0.1598, -0.5906 1.0305 -0.1735, 0.5906 1.0305 -0.1735, -0.5906 1.0529 -0.1821, 0.5906 1.0529 -0.1821, -0.5906 1.0767 -0.185, 0.5906 1.0767 -0.185, 0.5906 1.378 -0.185, -0.5906 1.378 -0.185, 0.5906 1.378 -0.0827, -0.5906 1.378 -0.0827, 0.5906 1.0795 -0.0827, -0.5906 1.0795 -0.0827, 0.5906 1.0514 -0.0055, -0.5906 1.0514 -0.0055, -0.5906 1.0379 0.021, 0.5906 1.0379 0.021, -0.5906 1.0184 0.0435, 0.5906 1.0184 0.0435, -0.5906 0.994 0.0605, 0.5906 0.994 0.0605, -0.5906 0.9662 0.0712, 0.5906 0.9662 0.0712, -0.5906 0.9367 0.0748, 0.5906 0.9367 0.0748, 0.5906 0.6717 0.0748, -0.5906 0.6717 0.0748, 0.5906 0.6826 -0.0276, -0.5906 0.6826 -0.0276, 0.5906 0.689 0.0, -0.5906 0.689 0.0, -0.5906 0.689 0.0
            ]
        }
        coordIndex [
            0,1,2,-1,2,1,3,-1,4,5,6,-1,6,5,7,-1,8,4,9,-1,9,4,6,-1,10,8,11,-1,11,8,9,-1,10,11,12,-1,10,12,13,-1,13,12,14,-1,13,14,15,-1,15,14,16,-1,15,16,17,-1,17,16,18,-1,17,18,19,-1,19,18,20,-1,19,20,21,-1,22,21,23,-1,23,21,20,-1,22,23,24,-1,24,23,25,-1,24,25,26,-1,26,25,27,-1,26,27,28,-1,28,27,29,-1,28,29,30,-1,30,29,31,-1,30,31,32,-1,32,31,33,-1,34,32,35,-1,35,32,33,-1,3,1,36,-1,3,36,37,-1,37,36,38,-1,37,38,39,-1,39,38,40,-1,39,40,41,-1,41,40,42,-1,41,42,43,-1,43,42,44,-1,43,44,45,-1,5,45,7,-1,7,45,44,-1,4,8,5,-1,5,8,10,-1,10,13,5,-1,5,13,15,-1,5,15,17,-1,24,26,45,-1,45,26,28,-1,41,3,39,-1,39,3,37,-1,46,2,45,-1,45,2,3,-1,45,3,43,-1,43,3,41,-1,17,19,5,-1,5,19,21,-1,5,21,45,-1,45,21,22,-1,45,22,24,-1,34,46,32,-1,32,46,45,-1,32,45,30,-1,30,45,28,-1,1,0,47,-1,18,16,7,-1,7,16,14,-1,9,6,11,-1,11,6,7,-1,11,7,12,-1,12,7,14,-1,36,1,38,-1,38,1,40,-1,33,31,44,-1,44,31,29,-1,44,29,27,-1,27,25,44,-1,44,25,23,-1,44,23,7,-1,7,23,20,-1,7,20,18,-1,35,33,47,-1,47,33,44,-1,47,44,1,-1,1,44,42,-1,1,42,40,-1,48,49,50,-1,50,49,51,-1,52,48,53,-1,53,48,50,-1,54,52,55,-1,55,52,53,-1,54,55,56,-1,54,56,57,-1,57,56,58,-1,57,58,59,-1,59,58,60,-1,59,60,61,-1,61,60,62,-1,61,62,63,-1,63,62,64,-1,63,64,65,-1,66,65,67,-1,67,65,64,-1,66,67,68,-1,68,67,69,-1,68,69,70,-1,70,69,71,-1,70,71,72,-1,72,71,73,-1,72,73,74,-1,74,73,75,-1,74,75,76,-1,76,75,77,-1,78,76,79,-1,79,76,77,-1,80,81,82,-1,82,81,83,-1,83,81,84,-1,83,84,85,-1,85,84,86,-1,85,86,87,-1,87,86,88,-1,87,88,89,-1,89,88,90,-1,89,90,91,-1,91,90,92,-1,91,92,93,-1,48,52,49,-1,49,52,54,-1,54,57,49,-1,49,57,59,-1,49,59,61,-1,68,70,93,-1,93,70,72,-1,89,83,87,-1,87,83,85,-1,94,82,93,-1,93,82,83,-1,93,83,91,-1,91,83,89,-1,61,63,49,-1,49,63,65,-1,49,65,93,-1,93,65,66,-1,93,66,68,-1,78,94,76,-1,76,94,93,-1,76,93,74,-1,74,93,72,-1,49,93,51,-1,51,93,92,-1,81,80,95,-1,62,60,51,-1,51,60,58,-1,53,50,55,-1,55,50,51,-1,55,51,56,-1,56,51,58,-1,84,81,86,-1,86,81,88,-1,77,75,92,-1,92,75,73,-1,92,73,71,-1,71,69,92,-1,92,69,67,-1,92,67,51,-1,51,67,64,-1,51,64,62,-1,79,77,95,-1,95,77,92,-1,95,92,81,-1,81,92,90,-1,81,90,88,-1,96,97,98,-1,98,97,99,-1,97,100,99,-1,99,100,101,-1,100,102,101,-1,101,102,103,-1,104,105,106,-1,104,106,107,-1,107,106,108,-1,107,108,109,-1,109,108,110,-1,109,110,111,-1,111,110,112,-1,111,112,113,-1,113,112,103,-1,113,103,102,-1,104,114,105,-1,105,114,115,-1,116,117,118,-1,118,117,119,-1,118,119,120,-1,120,119,121,-1,120,121,122,-1,122,121,123,-1,122,123,124,-1,124,123,125,-1,124,125,114,-1,114,125,115,-1,116,126,117,-1,117,126,127,-1,128,129,130,-1,130,129,131,-1,132,133,134,-1,132,134,135,-1,135,134,136,-1,135,136,137,-1,137,136,138,-1,137,138,139,-1,139,138,140,-1,139,140,141,-1,141,140,128,-1,141,128,130,-1,130,131,142,-1,107,109,96,-1,96,109,111,-1,100,97,102,-1,102,97,96,-1,102,96,113,-1,113,96,111,-1,116,118,132,-1,132,118,120,-1,132,120,122,-1,122,124,132,-1,132,124,114,-1,132,114,96,-1,96,114,104,-1,96,104,107,-1,126,116,142,-1,142,116,132,-1,142,132,130,-1,130,132,135,-1,130,135,141,-1,141,135,137,-1,141,137,139,-1,132,96,133,-1,133,96,98,-1,99,101,98,-1,98,101,103,-1,103,112,98,-1,98,112,110,-1,98,110,108,-1,125,123,133,-1,133,123,121,-1,108,106,98,-1,98,106,105,-1,98,105,133,-1,133,105,115,-1,133,115,125,-1,143,129,133,-1,133,129,128,-1,133,128,134,-1,134,128,140,-1,134,140,136,-1,136,140,138,-1,127,143,117,-1,117,143,133,-1,117,133,119,-1,119,133,121,-1,144,145,146,-1,146,145,147,-1,146,147,148,-1,148,147,149,-1,148,149,150,-1,150,149,151,-1,150,151,152,-1,152,151,153,-1,152,153,154,-1,154,153,155,-1,156,154,157,-1,157,154,155,-1,156,157,158,-1,156,158,159,-1,159,158,160,-1,159,160,161,-1,161,160,162,-1,161,162,163,-1,163,162,164,-1,163,164,165,-1,165,164,166,-1,165,166,167,-1,168,167,169,-1,169,167,166,-1,170,168,171,-1,171,168,169,-1,172,170,173,-1,173,170,171,-1,174,172,175,-1,175,172,173,-1,174,175,176,-1,174,176,177,-1,177,176,178,-1,177,178,179,-1,179,178,180,-1,179,180,181,-1,181,180,182,-1,181,182,183,-1,183,182,184,-1,183,184,185,-1,186,185,187,-1,187,185,184,-1,144,188,145,-1,145,188,189,-1,185,186,190,-1,159,161,172,-1,172,161,163,-1,168,170,167,-1,167,170,172,-1,167,172,165,-1,165,172,163,-1,177,179,181,-1,144,146,174,-1,174,146,148,-1,174,148,150,-1,150,152,174,-1,174,152,154,-1,174,154,172,-1,172,154,156,-1,172,156,159,-1,181,183,177,-1,177,183,185,-1,177,185,174,-1,174,185,190,-1,174,190,144,-1,144,190,188,-1,171,169,173,-1,173,169,166,-1,180,178,176,-1,166,164,173,-1,173,164,162,-1,173,162,160,-1,149,175,151,-1,151,175,153,-1,160,158,173,-1,173,158,157,-1,173,157,175,-1,175,157,155,-1,175,155,153,-1,191,187,175,-1,175,187,184,-1,175,184,176,-1,176,184,182,-1,176,182,180,-1,189,191,145,-1,145,191,175,-1,145,175,147,-1,147,175,149,-1,
        ]
    }
}
Shape{
    appearance Appearance {
        material  Material 	{
            diffuseColor 0.0 0.0 0.0
            specularColor 0.0 0.0 0.0
            ambientIntensity 0.2
            transparency 0
            shininess 0.5
        }
    }
    geometry IndexedFaceSet {
        ccw TRUE
        solid FALSE
        coord DEF co Coordinate {
            point [
                -0.8144 -0.3151 0.472, -0.8144 -0.3151 0.4724, -0.8174 -0.2926 0.472, -0.8174 -0.2926 0.4724, -0.8261 -0.2717 0.472, -0.8261 -0.2717 0.4724, -0.8398 -0.2537 0.472, -0.8398 -0.2537 0.4724, -0.8578 -0.2399 0.472, -0.8578 -0.2399 0.4724, -0.8787 -0.2313 0.472, -0.8787 -0.2313 0.4724, -0.9012 -0.2283 0.472, -0.9012 -0.2283 0.4724, -0.9236 -0.2313 0.472, -0.9236 -0.2313 0.4724, -0.9446 -0.2399 0.472, -0.9446 -0.2399 0.4724, -0.9625 -0.2537 0.472, -0.9625 -0.2537 0.4724, -0.9763 -0.2717 0.472, -0.9763 -0.2717 0.4724, -0.985 -0.2926 0.472, -0.985 -0.2926 0.4724, -0.9879 -0.3151 0.472, -0.9879 -0.3151 0.4724, -0.985 -0.3375 0.472, -0.985 -0.3375 0.4724, -0.9763 -0.3584 0.472, -0.9763 -0.3584 0.4724, -0.9625 -0.3764 0.472, -0.9625 -0.3764 0.4724, -0.9446 -0.3902 0.472, -0.9446 -0.3902 0.4724, -0.9236 -0.3989 0.472, -0.9236 -0.3989 0.4724, -0.9012 -0.4018 0.472, -0.9012 -0.4018 0.4724, -0.8787 -0.3989 0.472, -0.8787 -0.3989 0.4724, -0.8578 -0.3902 0.472, -0.8578 -0.3902 0.4724, -0.8398 -0.3764 0.472, -0.8398 -0.3764 0.4724, -0.8261 -0.3584 0.472, -0.8261 -0.3584 0.4724, -0.8174 -0.3375 0.472, -0.8174 -0.3375 0.4724, -0.9012 -0.3151 0.472, -0.3685 0.0929 -0.1571, -0.4453 -0.104 -0.1571, -0.3685 0.0929 -0.1575, -0.4453 -0.104 -0.1575, -0.4165 -0.104 -0.1571, -0.4165 -0.104 -0.1575, -0.3966 -0.0488 -0.1571, -0.3966 -0.0488 -0.1575, -0.3152 -0.0488 -0.1571, -0.3152 -0.0488 -0.1575, -0.2964 -0.104 -0.1571, -0.2964 -0.104 -0.1575, -0.2676 -0.104 -0.1571, -0.2676 -0.104 -0.1575, -0.342 0.0929 -0.1571, -0.342 0.0929 -0.1575, -0.3219 -0.0272 -0.1571, -0.3877 -0.0272 -0.1571, -0.3512 0.0551 -0.1571, -0.3531 0.0619 -0.1571, -0.3544 0.0689 -0.1571, -0.355 0.0689 -0.1571, -0.3563 0.0619 -0.1571, -0.3581 0.0551 -0.1571, -0.3219 -0.0272 -0.1575, -0.3877 -0.0272 -0.1575, -0.3512 0.0551 -0.1575, -0.3531 0.0619 -0.1575, -0.3544 0.0689 -0.1575, -0.355 0.0689 -0.1575, -0.3563 0.0619 -0.1575, -0.3581 0.0551 -0.1575, -0.1483 -0.104 -0.1571, -0.0948 -0.104 -0.1571, -0.1483 -0.104 -0.1575, -0.0948 -0.104 -0.1575, -0.0948 0.0929 -0.1571, -0.0948 0.0929 -0.1575, -0.1503 0.0929 -0.1571, -0.1503 0.0929 -0.1575, -0.2532 -0.0031 -0.1571, -0.2532 -0.0031 -0.1575, -0.2518 0.0154 -0.1575, -0.2518 0.0154 -0.1571, -0.2465 0.0348 -0.1575, -0.2465 0.0348 -0.1571, -0.2374 0.0518 -0.1575, -0.2374 0.0518 -0.1571, -0.2234 0.0672 -0.1575, -0.2234 0.0672 -0.1571, -0.2232 0.0674 -0.1575, -0.2232 0.0674 -0.1571, -0.2018 0.0817 -0.1575, -0.2018 0.0817 -0.1571, -0.1788 0.0898 -0.1575, -0.1788 0.0898 -0.1571, -0.1727 -0.1019 -0.1575, -0.1727 -0.1019 -0.1571, -0.1954 -0.0951 -0.1575, -0.1954 -0.0951 -0.1571, -0.2159 -0.0832 -0.1575, -0.2159 -0.0832 -0.1571, -0.2321 -0.0676 -0.1575, -0.2321 -0.0676 -0.1571, -0.2434 -0.05 -0.1575, -0.2434 -0.05 -0.1571, -0.2505 -0.0294 -0.1575, -0.2505 -0.0294 -0.1571, -0.2137 0.0437 -0.1571, -0.2042 0.0538 -0.1571, -0.1898 0.0631 -0.1571, -0.1735 0.0688 -0.1571, -0.1502 0.0713 -0.1571, -0.1212 0.0713 -0.1571, -0.1212 -0.0824 -0.1571, -0.1491 -0.0824 -0.1571, -0.1699 -0.0804 -0.1571, -0.1865 -0.0753 -0.1571, -0.1999 -0.0673 -0.1571, -0.2109 -0.0564 -0.1571, -0.2192 -0.0428 -0.1571, -0.225 -0.0243 -0.1571, -0.2268 -0.0036 -0.1571, -0.2251 0.0159 -0.1571, -0.2206 0.0315 -0.1571, -0.1502 0.0713 -0.1575, -0.1212 0.0713 -0.1575, -0.1735 0.0688 -0.1575, -0.1898 0.0631 -0.1575, -0.2042 0.0538 -0.1575, -0.2137 0.0437 -0.1575, -0.2206 0.0315 -0.1575, -0.2251 0.0159 -0.1575, -0.2268 -0.0036 -0.1575, -0.225 -0.0243 -0.1575, -0.2192 -0.0428 -0.1575, -0.2109 -0.0564 -0.1575, -0.1999 -0.0673 -0.1575, -0.1865 -0.0753 -0.1575, -0.1699 -0.0804 -0.1575, -0.1491 -0.0824 -0.1575, -0.1212 -0.0824 -0.1575, -0.0564 -0.0824 -0.1571, -0.0564 -0.104 -0.1571, -0.0564 -0.0824 -0.1575, -0.0564 -0.104 -0.1575, 0.0493 -0.104 -0.1571, 0.0493 -0.104 -0.1575, 0.0493 0.0929 -0.1571, 0.0493 0.0929 -0.1575, -0.0516 0.0929 -0.1571, -0.0516 0.0929 -0.1575, -0.0516 0.0713 -0.1571, -0.0516 0.0713 -0.1575, 0.0228 0.0713 -0.1571, 0.0228 0.0713 -0.1575, 0.0228 0.0064 -0.1571, 0.0228 0.0064 -0.1575, -0.0468 0.0064 -0.1571, -0.0468 0.0064 -0.1575, -0.0468 -0.0152 -0.1571, -0.0468 -0.0152 -0.1575, 0.0228 -0.0152 -0.1571, 0.0228 -0.0152 -0.1575, 0.0228 -0.0824 -0.1571, 0.0228 -0.0824 -0.1575, 0.0877 -0.0722 -0.1571, 0.0877 -0.0938 -0.1571, 0.0877 -0.0722 -0.1575, 0.0877 -0.0938 -0.1575, 0.1086 -0.1024 -0.1571, 0.1418 -0.1064 -0.1571, 0.1418 -0.1064 -0.1575, 0.1364 -0.1063 -0.1575, 0.1364 -0.1063 -0.1571, 0.1285 -0.1052 -0.1575, 0.1086 -0.1024 -0.1575, 0.1534 -0.1052 -0.1575, 0.1661 -0.1039 -0.1571, 0.1661 -0.1039 -0.1575, 0.1852 -0.0973 -0.1571, 0.1852 -0.0973 -0.1575, 0.201 -0.0872 -0.1571, 0.201 -0.0872 -0.1575, 0.2158 -0.0716 -0.1571, 0.2158 -0.0716 -0.1575, 0.2263 -0.0529 -0.1571, 0.2263 -0.0529 -0.1575, 0.2322 -0.0321 -0.1571, 0.2322 -0.0321 -0.1575, 0.2341 -0.0093 -0.1571, 0.2341 -0.0093 -0.1575, 0.134 0.0953 -0.1571, 0.134 0.0953 -0.1575, 0.1538 0.0936 -0.1575, 0.1538 0.0936 -0.1571, 0.1757 0.0873 -0.1575, 0.1757 0.0873 -0.1571, 0.1944 0.0765 -0.1575, 0.1944 0.0765 -0.1571, 0.2122 0.0594 -0.1575, 0.2122 0.0594 -0.1571, 0.2237 0.041 -0.1575, 0.2237 0.041 -0.1571, 0.2313 0.0187 -0.1575, 0.2313 0.0187 -0.1571, 0.0877 0.0875 -0.1571, 0.0877 0.0875 -0.1575, 0.1104 0.0936 -0.1575, 0.1104 0.0936 -0.1571, 0.0877 0.0611 -0.1571, 0.0877 0.0611 -0.1575, 0.1338 0.0737 -0.1571, 0.1338 0.0737 -0.1575, 0.1098 0.0705 -0.1575, 0.1098 0.0705 -0.1571, 0.2077 -0.0077 -0.1571, 0.2077 -0.0077 -0.1575, 0.2068 0.0077 -0.1575, 0.2068 0.0077 -0.1571, 0.2015 0.0287 -0.1575, 0.2015 0.0287 -0.1571, 0.1934 0.0439 -0.1575, 0.1934 0.0439 -0.1571, 0.1815 0.057 -0.1575, 0.1815 0.057 -0.1571, 0.1679 0.0662 -0.1575, 0.1679 0.0662 -0.1571, 0.1531 0.0715 -0.1575, 0.1531 0.0715 -0.1571, 0.1382 -0.0848 -0.1571, 0.1382 -0.0848 -0.1575, 0.1565 -0.0827 -0.1575, 0.1565 -0.0827 -0.1571, 0.1709 -0.0774 -0.1575, 0.1709 -0.0774 -0.1571, 0.183 -0.0693 -0.1575, 0.183 -0.0693 -0.1571, 0.1922 -0.0596 -0.1575, 0.1922 -0.0596 -0.1571, 0.2004 -0.0459 -0.1575, 0.2004 -0.0459 -0.1571, 0.2057 -0.029 -0.1575, 0.2057 -0.029 -0.1571, 0.0912 -0.0741 -0.1575, 0.0912 -0.0741 -0.1571, 0.1121 -0.0819 -0.1575, 0.1121 -0.0819 -0.1571, 0.2509 -0.0824 -0.1571, 0.2509 -0.104 -0.1571, 0.2509 -0.0824 -0.1575, 0.2509 -0.104 -0.1575, 0.3517 -0.104 -0.1571, 0.3517 -0.104 -0.1575, 0.3517 0.0929 -0.1571, 0.3517 0.0929 -0.1575, 0.3253 0.0929 -0.1571, 0.3253 0.0929 -0.1575, 0.3253 -0.0824 -0.1571, 0.3253 -0.0824 -0.1575, 0.3253 -0.0824 -0.1575
            ]
        }
        coordIndex [
            0,1,2,-1,2,1,3,-1,2,3,4,-1,4,3,5,-1,4,5,6,-1,6,5,7,-1,6,7,8,-1,8,7,9,-1,8,9,10,-1,10,9,11,-1,10,11,12,-1,12,11,13,-1,12,13,14,-1,14,13,15,-1,14,15,16,-1,16,15,17,-1,16,17,18,-1,18,17,19,-1,18,19,20,-1,20,19,21,-1,20,21,22,-1,22,21,23,-1,22,23,24,-1,24,23,25,-1,24,25,26,-1,26,25,27,-1,26,27,28,-1,28,27,29,-1,28,29,30,-1,30,29,31,-1,30,31,32,-1,32,31,33,-1,32,33,34,-1,34,33,35,-1,34,35,36,-1,36,35,37,-1,36,37,38,-1,38,37,39,-1,38,39,40,-1,40,39,41,-1,40,41,42,-1,42,41,43,-1,42,43,44,-1,44,43,45,-1,44,45,46,-1,46,45,47,-1,46,47,0,-1,0,47,1,-1,44,46,48,-1,48,46,0,-1,48,0,2,-1,38,40,48,-1,48,40,42,-1,48,42,44,-1,32,34,48,-1,48,34,36,-1,48,36,38,-1,26,28,48,-1,48,28,30,-1,48,30,32,-1,20,22,48,-1,48,22,24,-1,48,24,26,-1,14,16,48,-1,48,16,18,-1,48,18,20,-1,8,10,48,-1,48,10,12,-1,48,12,14,-1,2,4,48,-1,48,4,6,-1,48,6,8,-1,49,50,51,-1,51,50,52,-1,50,53,52,-1,52,53,54,-1,53,55,54,-1,54,55,56,-1,55,57,56,-1,56,57,58,-1,57,59,58,-1,58,59,60,-1,59,61,60,-1,60,61,62,-1,61,63,62,-1,62,63,64,-1,63,49,64,-1,64,49,51,-1,65,57,66,-1,66,57,55,-1,67,63,65,-1,65,63,61,-1,65,61,57,-1,57,61,59,-1,67,68,63,-1,63,68,69,-1,63,69,49,-1,49,69,70,-1,49,70,71,-1,71,72,49,-1,49,72,66,-1,49,66,50,-1,50,66,55,-1,50,55,53,-1,65,66,73,-1,73,66,74,-1,67,65,75,-1,75,65,73,-1,67,75,76,-1,67,76,68,-1,68,76,77,-1,68,77,69,-1,70,69,78,-1,78,69,77,-1,70,78,79,-1,70,79,71,-1,71,79,80,-1,71,80,72,-1,66,72,74,-1,74,72,80,-1,81,82,83,-1,83,82,84,-1,82,85,84,-1,84,85,86,-1,85,87,86,-1,86,87,88,-1,89,90,91,-1,89,91,92,-1,92,91,93,-1,92,93,94,-1,94,93,95,-1,94,95,96,-1,96,95,97,-1,96,97,98,-1,98,97,99,-1,98,99,100,-1,100,99,101,-1,100,101,102,-1,102,101,103,-1,102,103,104,-1,104,103,88,-1,104,88,87,-1,81,83,105,-1,81,105,106,-1,106,105,107,-1,106,107,108,-1,108,107,109,-1,108,109,110,-1,110,109,111,-1,110,111,112,-1,112,111,113,-1,112,113,114,-1,114,113,115,-1,114,115,116,-1,116,115,90,-1,116,90,89,-1,94,96,117,-1,117,96,98,-1,117,98,118,-1,118,98,100,-1,118,100,119,-1,119,100,102,-1,119,102,120,-1,120,102,104,-1,120,104,121,-1,121,104,87,-1,121,87,122,-1,122,87,85,-1,122,85,123,-1,123,85,82,-1,123,82,124,-1,124,82,81,-1,124,81,125,-1,125,81,106,-1,125,106,126,-1,126,106,108,-1,126,108,127,-1,127,108,110,-1,127,110,128,-1,128,110,112,-1,128,112,129,-1,129,112,114,-1,129,114,130,-1,130,114,116,-1,130,116,131,-1,131,116,89,-1,131,89,132,-1,132,89,92,-1,132,92,133,-1,133,92,94,-1,133,94,117,-1,121,122,134,-1,134,122,135,-1,121,134,136,-1,121,136,120,-1,120,136,137,-1,120,137,119,-1,119,137,138,-1,119,138,118,-1,118,138,139,-1,118,139,117,-1,117,139,140,-1,117,140,133,-1,133,140,141,-1,133,141,132,-1,132,141,142,-1,132,142,131,-1,131,142,143,-1,131,143,130,-1,130,143,144,-1,130,144,129,-1,129,144,145,-1,129,145,128,-1,128,145,146,-1,128,146,127,-1,127,146,147,-1,127,147,126,-1,126,147,148,-1,126,148,125,-1,125,148,149,-1,125,149,124,-1,123,124,150,-1,150,124,149,-1,122,123,135,-1,135,123,150,-1,151,152,153,-1,153,152,154,-1,152,155,154,-1,154,155,156,-1,155,157,156,-1,156,157,158,-1,157,159,158,-1,158,159,160,-1,159,161,160,-1,160,161,162,-1,161,163,162,-1,162,163,164,-1,163,165,164,-1,164,165,166,-1,165,167,166,-1,166,167,168,-1,167,169,168,-1,168,169,170,-1,169,171,170,-1,170,171,172,-1,171,173,172,-1,172,173,174,-1,173,151,174,-1,174,151,153,-1,155,152,151,-1,151,173,155,-1,155,173,171,-1,155,171,157,-1,161,159,163,-1,163,159,157,-1,163,157,165,-1,165,157,171,-1,165,171,167,-1,167,171,169,-1,175,176,177,-1,177,176,178,-1,178,176,179,-1,180,181,182,-1,180,182,183,-1,183,182,184,-1,183,184,179,-1,179,184,185,-1,179,185,178,-1,181,180,186,-1,186,180,187,-1,186,187,188,-1,188,187,189,-1,188,189,190,-1,190,189,191,-1,190,191,192,-1,192,191,193,-1,192,193,194,-1,194,193,195,-1,194,195,196,-1,196,195,197,-1,196,197,198,-1,198,197,199,-1,198,199,200,-1,201,202,203,-1,201,203,204,-1,204,203,205,-1,204,205,206,-1,206,205,207,-1,206,207,208,-1,208,207,209,-1,208,209,210,-1,210,209,211,-1,210,211,212,-1,212,211,213,-1,212,213,214,-1,214,213,200,-1,214,200,199,-1,215,216,217,-1,215,217,218,-1,218,217,202,-1,218,202,201,-1,215,219,216,-1,216,219,220,-1,221,222,223,-1,221,223,224,-1,224,223,220,-1,224,220,219,-1,225,226,227,-1,225,227,228,-1,228,227,229,-1,228,229,230,-1,230,229,231,-1,230,231,232,-1,232,231,233,-1,232,233,234,-1,234,233,235,-1,234,235,236,-1,236,235,237,-1,236,237,238,-1,238,237,222,-1,238,222,221,-1,239,240,241,-1,239,241,242,-1,242,241,243,-1,242,243,244,-1,244,243,245,-1,244,245,246,-1,246,245,247,-1,246,247,248,-1,248,247,249,-1,248,249,250,-1,250,249,251,-1,250,251,252,-1,252,251,226,-1,252,226,225,-1,175,177,253,-1,175,253,254,-1,254,253,255,-1,254,255,256,-1,256,255,240,-1,256,240,239,-1,242,180,239,-1,239,180,183,-1,239,183,256,-1,256,183,179,-1,256,179,254,-1,254,179,176,-1,254,176,175,-1,219,215,224,-1,224,215,218,-1,224,218,221,-1,221,218,201,-1,221,201,238,-1,238,201,204,-1,238,204,236,-1,236,204,206,-1,236,206,234,-1,234,206,208,-1,234,208,232,-1,232,208,210,-1,232,210,230,-1,230,210,212,-1,230,212,228,-1,228,212,214,-1,228,214,225,-1,225,214,199,-1,225,199,252,-1,252,199,197,-1,252,197,250,-1,250,197,195,-1,250,195,248,-1,248,195,193,-1,248,193,246,-1,246,193,191,-1,246,191,244,-1,244,191,189,-1,244,189,242,-1,242,189,187,-1,242,187,180,-1,257,258,259,-1,259,258,260,-1,258,261,260,-1,260,261,262,-1,261,263,262,-1,262,263,264,-1,263,265,264,-1,264,265,266,-1,265,267,266,-1,266,267,268,-1,267,257,268,-1,268,257,259,-1,265,263,267,-1,267,263,261,-1,267,261,257,-1,257,261,258,-1,
        ]
    }
}
Shape{
    appearance Appearance {
        material  Material 	{
            diffuseColor 0.25098039215686274 0.25098039215686274 0.25098039215686274
            specularColor 0.12549019607843137 0.12549019607843137 0.12549019607843137
            ambientIntensity 0.2
            transparency 0
            shininess 0.5
        }
    }
    geometry IndexedFaceSet {
        ccw TRUE
        solid FALSE
        coord DEF co Coordinate {
            point [
                -0.3219 -0.0272 -0.1575, -0.3877 -0.0272 -0.1575, -0.3512 0.0551 -0.1575, -0.3581 0.0551 -0.1575, -0.3531 0.0619 -0.1575, -0.3563 0.0619 -0.1575, -0.3544 0.0689 -0.1575, -0.355 0.0689 -0.1575, -0.1212 0.0713 -0.1575, -0.1212 -0.0824 -0.1575, -0.1502 0.0713 -0.1575, -0.1491 -0.0824 -0.1575, -0.1699 -0.0804 -0.1575, -0.2268 -0.0036 -0.1575, -0.2251 0.0159 -0.1575, -0.2206 0.0315 -0.1575, -0.1735 0.0688 -0.1575, -0.1865 -0.0753 -0.1575, -0.1999 -0.0673 -0.1575, -0.2109 -0.0564 -0.1575, -0.2192 -0.0428 -0.1575, -0.225 -0.0243 -0.1575, -0.2137 0.0437 -0.1575, -0.2042 0.0538 -0.1575, -0.1898 0.0631 -0.1575, -0.1898 0.0631 -0.1575
            ]
        }
        coordIndex [
            0,1,2,-1,2,1,3,-1,2,3,4,-1,4,3,5,-1,4,5,6,-1,6,5,7,-1,8,9,10,-1,10,9,11,-1,10,11,12,-1,13,14,10,-1,10,14,15,-1,10,15,16,-1,12,17,10,-1,10,17,18,-1,10,18,19,-1,19,20,10,-1,10,20,21,-1,10,21,13,-1,22,23,15,-1,15,23,24,-1,15,24,16,-1,
        ]
    }
}