#VRML V2.0 utf8
# 3D model generated by easyeda2kicad.py (https://github.com/uPesy/easyeda2kicad.py)

Shape{
    appearance Appearance {
        material  Material 	{
            diffuseColor 1.0 1.0 1.0
            specularColor 0.5019607843137255 0.5019607843137255 0.5019607843137255
            ambientIntensity 0.2
            transparency 0
            shininess 0.5
        }
    }
    geometry IndexedFaceSet {
        ccw TRUE
        solid FALSE
        coord DEF co Coordinate {
            point [
                -0.3346 0.3937 -0.2756, -0.1772 0.3937 -0.2756, -0.3346 0.3937 -0.315, -0.1772 0.3937 -0.315, -0.1772 0.374 -0.315, -0.1772 0.2854 -0.2756, -0.1772 0.374 -0.3543, -0.1772 0.2854 -0.3543, -0.3937 0.2461 -0.2756, -0.3937 0.2461 -0.315, -0.374 0.2461 -0.315, -0.374 0.2461 -0.3543, -0.2165 0.2461 -0.3543, -0.2165 0.2461 -0.2756, -0.3937 0.3346 -0.2756, -0.3937 0.3346 -0.315, -0.374 0.3346 -0.315, -0.3346 0.3346 -0.2756, -0.374 0.3346 -0.3543, -0.3346 0.3346 -0.3543, -0.3346 0.374 -0.3543, -0.3346 0.374 -0.315, 0.1772 0.3937 -0.2756, 0.1772 0.3937 -0.315, 0.1772 0.374 -0.315, 0.1772 0.374 -0.3543, 0.1772 0.2461 -0.3543, 0.1772 0.2461 -0.2756, 0.3346 0.3937 -0.2756, 0.3346 0.3937 -0.315, 0.3346 0.374 -0.315, 0.3346 0.3346 -0.2756, 0.3346 0.374 -0.3543, 0.3346 0.3346 -0.3543, 0.374 0.3346 -0.3543, 0.374 0.3346 -0.315, 0.3937 0.3346 -0.315, 0.3937 0.3346 -0.2756, 0.3937 0.2461 -0.2756, 0.3937 0.2461 -0.315, 0.374 0.2461 -0.315, 0.374 0.2461 -0.3543, -0.3937 -0.3346 -0.2756, -0.3937 -0.2461 -0.2756, -0.3937 -0.3346 -0.315, -0.3937 -0.2461 -0.315, -0.374 -0.2461 -0.315, -0.1969 -0.2461 -0.2756, -0.374 -0.2461 -0.3543, -0.1969 -0.2461 -0.3543, -0.1969 -0.3937 -0.2756, -0.1969 -0.3937 -0.315, -0.1969 -0.374 -0.315, -0.1969 -0.374 -0.3543, -0.3346 -0.3937 -0.2756, -0.3346 -0.3937 -0.315, -0.3346 -0.374 -0.315, -0.3346 -0.3346 -0.2756, -0.3346 -0.374 -0.3543, -0.3346 -0.3346 -0.3543, -0.374 -0.3346 -0.3543, -0.374 -0.3346 -0.315, 0.3937 -0.2461 -0.2756, 0.3937 -0.2461 -0.315, 0.374 -0.2461 -0.315, 0.374 -0.2461 -0.3543, 0.1969 -0.2461 -0.3543, 0.1969 -0.2461 -0.2756, 0.3937 -0.3346 -0.2756, 0.3937 -0.3346 -0.315, 0.374 -0.3346 -0.315, 0.3346 -0.3346 -0.2756, 0.374 -0.3346 -0.3543, 0.3346 -0.3346 -0.3543, 0.3346 -0.374 -0.3543, 0.3346 -0.374 -0.315, 0.3346 -0.3937 -0.315, 0.3346 -0.3937 -0.2756, 0.1969 -0.3937 -0.2756, 0.1969 -0.3937 -0.315, 0.1969 -0.374 -0.315, 0.1969 -0.374 -0.3543, -0.3937 0.0541 -0.2756, -0.3937 0.1427 -0.2756, -0.3937 0.0541 -0.315, -0.3937 0.1427 -0.315, -0.374 0.1427 -0.315, -0.2362 0.1427 -0.2756, -0.374 0.1427 -0.3543, -0.2362 0.1427 -0.3543, -0.374 0.0541 -0.315, -0.374 0.0541 -0.3543, -0.2362 0.0541 -0.3543, -0.2362 0.0541 -0.2756, -0.3937 -0.1427 -0.2756, -0.3937 -0.1427 -0.315, -0.374 -0.1427 -0.315, -0.374 -0.1427 -0.3543, -0.2362 -0.1427 -0.3543, -0.2362 -0.1427 -0.2756, -0.3937 -0.0541 -0.2756, -0.3937 -0.0541 -0.315, -0.374 -0.0541 -0.315, -0.2362 -0.0541 -0.2756, -0.374 -0.0541 -0.3543, -0.2362 -0.0541 -0.3543, 0.3937 -0.0541 -0.2756, 0.3937 -0.1427 -0.2756, 0.3937 -0.0541 -0.315, 0.3937 -0.1427 -0.315, 0.374 -0.1427 -0.315, 0.2362 -0.1427 -0.2756, 0.374 -0.1427 -0.3543, 0.2362 -0.1427 -0.3543, 0.374 -0.0541 -0.315, 0.374 -0.0541 -0.3543, 0.2362 -0.0541 -0.3543, 0.2362 -0.0541 -0.2756, 0.3937 0.1427 -0.2756, 0.3937 0.1427 -0.315, 0.374 0.1427 -0.315, 0.374 0.1427 -0.3543, 0.2362 0.1427 -0.3543, 0.2362 0.1427 -0.2756, 0.3937 0.0541 -0.2756, 0.3937 0.0541 -0.315, 0.374 0.0541 -0.315, 0.2362 0.0541 -0.2756, 0.374 0.0541 -0.3543, 0.2362 0.0541 -0.3543, -0.0689 0.3937 -0.2756, -0.0689 0.3937 -0.315, -0.0689 0.374 -0.315, -0.0689 0.374 -0.3543, -0.0689 -0.0394 -0.3543, -0.0689 -0.0394 -0.2756, 0.0689 0.3937 -0.2756, 0.0689 0.3937 -0.315, 0.0689 0.374 -0.315, 0.0689 -0.0394 -0.2756, 0.0689 0.374 -0.3543, 0.0689 -0.0394 -0.3543, 0.0689 -0.0394 -0.3543
            ]
        }
        coordIndex [
            0,1,2,-1,2,1,3,-1,3,1,4,-1,4,1,5,-1,4,5,6,-1,6,5,7,-1,8,9,10,-1,11,12,10,-1,10,12,13,-1,10,13,8,-1,8,14,9,-1,9,14,15,-1,15,14,16,-1,16,14,17,-1,16,17,18,-1,18,17,19,-1,20,19,21,-1,21,19,17,-1,21,17,2,-1,2,17,0,-1,11,18,12,-1,12,18,19,-1,12,19,7,-1,7,19,20,-1,7,20,6,-1,13,12,5,-1,5,12,7,-1,17,14,8,-1,1,0,5,-1,5,0,17,-1,5,17,13,-1,13,17,8,-1,20,21,6,-1,6,21,4,-1,21,2,4,-1,4,2,3,-1,15,16,9,-1,9,16,10,-1,16,18,10,-1,10,18,11,-1,22,23,24,-1,25,26,24,-1,24,26,27,-1,24,27,22,-1,22,28,23,-1,23,28,29,-1,29,28,30,-1,30,28,31,-1,30,31,32,-1,32,31,33,-1,34,33,35,-1,35,33,31,-1,35,31,36,-1,36,31,37,-1,37,38,36,-1,36,38,39,-1,39,38,40,-1,40,38,27,-1,40,27,41,-1,41,27,26,-1,34,41,33,-1,33,41,26,-1,33,26,32,-1,32,26,25,-1,28,22,31,-1,31,22,27,-1,31,27,37,-1,37,27,38,-1,30,32,24,-1,24,32,25,-1,29,30,23,-1,23,30,24,-1,39,40,36,-1,36,40,35,-1,40,41,35,-1,35,41,34,-1,42,43,44,-1,44,43,45,-1,45,43,46,-1,46,43,47,-1,46,47,48,-1,48,47,49,-1,50,51,52,-1,53,49,52,-1,52,49,47,-1,52,47,50,-1,50,54,51,-1,51,54,55,-1,55,54,56,-1,56,54,57,-1,56,57,58,-1,58,57,59,-1,60,59,61,-1,61,59,57,-1,61,57,44,-1,44,57,42,-1,60,48,59,-1,59,48,49,-1,59,49,58,-1,58,49,53,-1,54,50,57,-1,57,50,47,-1,57,47,42,-1,42,47,43,-1,56,58,52,-1,52,58,53,-1,55,56,51,-1,51,56,52,-1,61,44,46,-1,46,44,45,-1,60,61,48,-1,48,61,46,-1,62,63,64,-1,65,66,64,-1,64,66,67,-1,64,67,62,-1,62,68,63,-1,63,68,69,-1,69,68,70,-1,70,68,71,-1,70,71,72,-1,72,71,73,-1,74,73,75,-1,75,73,71,-1,75,71,76,-1,76,71,77,-1,77,78,76,-1,76,78,79,-1,79,78,80,-1,80,78,67,-1,80,67,81,-1,81,67,66,-1,74,81,73,-1,73,81,66,-1,73,66,72,-1,72,66,65,-1,68,62,71,-1,71,62,67,-1,71,67,77,-1,77,67,78,-1,70,72,64,-1,64,72,65,-1,69,70,63,-1,63,70,64,-1,79,80,76,-1,76,80,75,-1,80,81,75,-1,75,81,74,-1,82,83,84,-1,84,83,85,-1,85,83,86,-1,86,83,87,-1,86,87,88,-1,88,87,89,-1,82,84,90,-1,91,92,90,-1,90,92,93,-1,90,93,82,-1,89,92,88,-1,88,92,91,-1,93,92,87,-1,87,92,89,-1,93,87,82,-1,82,87,83,-1,90,84,86,-1,86,84,85,-1,91,90,88,-1,88,90,86,-1,94,95,96,-1,97,98,96,-1,96,98,99,-1,96,99,94,-1,94,100,95,-1,95,100,101,-1,101,100,102,-1,102,100,103,-1,102,103,104,-1,104,103,105,-1,105,98,104,-1,104,98,97,-1,99,98,103,-1,103,98,105,-1,103,100,99,-1,99,100,94,-1,101,102,95,-1,95,102,96,-1,102,104,96,-1,96,104,97,-1,106,107,108,-1,108,107,109,-1,109,107,110,-1,110,107,111,-1,110,111,112,-1,112,111,113,-1,106,108,114,-1,115,116,114,-1,114,116,117,-1,114,117,106,-1,113,116,112,-1,112,116,115,-1,117,116,111,-1,111,116,113,-1,117,111,106,-1,106,111,107,-1,114,108,110,-1,110,108,109,-1,115,114,112,-1,112,114,110,-1,118,119,120,-1,121,122,120,-1,120,122,123,-1,120,123,118,-1,118,124,119,-1,119,124,125,-1,125,124,126,-1,126,124,127,-1,126,127,128,-1,128,127,129,-1,129,122,128,-1,128,122,121,-1,123,122,127,-1,127,122,129,-1,127,124,123,-1,123,124,118,-1,125,126,119,-1,119,126,120,-1,126,128,120,-1,120,128,121,-1,130,131,132,-1,133,134,132,-1,132,134,135,-1,132,135,130,-1,130,136,131,-1,131,136,137,-1,137,136,138,-1,138,136,139,-1,138,139,140,-1,140,139,141,-1,141,134,140,-1,140,134,133,-1,135,134,139,-1,139,134,141,-1,139,136,135,-1,135,136,130,-1,137,138,131,-1,131,138,132,-1,138,140,132,-1,132,140,133,-1,
        ]
    }
}
Shape{
    appearance Appearance {
        material  Material 	{
            diffuseColor 0.25098039215686274 0.25098039215686274 0.25098039215686274
            specularColor 0.12549019607843137 0.12549019607843137 0.12549019607843137
            ambientIntensity 0.2
            transparency 0
            shininess 0.5
        }
    }
    geometry IndexedFaceSet {
        ccw TRUE
        solid FALSE
        coord DEF co Coordinate {
            point [
                -0.1969 -0.2461 -0.3346, -0.374 -0.2461 -0.3346, -0.374 -0.2012 -0.3346, 0.0058 -0.1725 -0.3346, 0.0089 -0.1729 -0.3346, -0.001 -0.1962 -0.3346, 0.2362 -0.0541 -0.3346, 0.2362 -0.1427 -0.3346, 0.0689 -0.0394 -0.3346, 0.005 -0.2012 -0.3346, -0.0046 -0.2012 -0.3346, 0.0018 -0.2007 -0.3346, -0.0016 -0.1993 -0.3346, 0.0689 0.374 -0.3346, 0.1772 0.374 -0.3346, 0.1772 0.2461 -0.3346, 0.0407 -0.201 -0.3346, 0.009 -0.2012 -0.3346, 0.0246 -0.201 -0.3346, 0.011 -0.2009 -0.3346, 0.014 -0.1999 -0.3346, 0.374 0.2461 -0.3346, 0.374 0.1427 -0.3346, 0.2362 0.1427 -0.3346, 0.2362 0.0541 -0.3346, 0.374 0.0541 -0.3346, 0.374 -0.0541 -0.3346, 0.0113 -0.1737 -0.3346, 0.0134 -0.1752 -0.3346, 0.0153 -0.1773 -0.3346, 0.0176 -0.1856 -0.3346, 0.0173 -0.189 -0.3346, 0.0165 -0.1917 -0.3346, 0.0095 -0.1976 -0.3346, 0.0065 -0.1979 -0.3346, 0.0117 -0.1967 -0.3346, 0.0137 -0.1954 -0.3346, 0.0152 -0.1939 -0.3346, 0.0023 -0.1974 -0.3346, 0.002 -0.173 -0.3346, -0.0016 -0.1959 -0.3346, -0.0016 -0.1746 -0.3346, -0.0046 -0.0394 -0.3346, -0.0016 -0.1703 -0.3346, 0.0166 -0.1797 -0.3346, 0.0175 -0.1831 -0.3346, 0.0202 -0.1778 -0.3346, 0.0184 -0.1748 -0.3346, 0.0365 -0.1695 -0.3346, 0.0407 -0.1695 -0.3346, 0.0166 -0.1983 -0.3346, 0.0189 -0.1958 -0.3346, 0.0246 -0.1975 -0.3346, 0.0206 -0.1928 -0.3346, 0.0365 -0.1975 -0.3346, 0.0155 -0.1721 -0.3346, 0.0125 -0.1704 -0.3346, 0.009 -0.1693 -0.3346, 0.0216 -0.1895 -0.3346, 0.0219 -0.1858 -0.3346, 0.0214 -0.1813 -0.3346, 0.0058 -0.1691 -0.3346, 0.0021 -0.1693 -0.3346, 0.374 -0.2012 -0.3346, 0.374 -0.2461 -0.3346, 0.1969 -0.2461 -0.3346, 0.0062 -0.2013 -0.3346, -0.0046 -0.374 -0.3346, 0.0071 -0.2013 -0.3346, 0.374 -0.1427 -0.3346, 0.1969 -0.374 -0.3346, -0.1969 -0.374 -0.3346, -0.0246 -0.1975 -0.3346, -0.0246 -0.201 -0.3346, -0.0308 -0.201 -0.3346, -0.0077 -0.201 -0.3346, -0.0077 -0.1695 -0.3346, -0.1772 0.2854 -0.3346, -0.1772 0.374 -0.3346, -0.0689 0.374 -0.3346, -0.079 -0.1921 -0.3346, -0.066 -0.1921 -0.3346, -0.063 -0.201 -0.3346, -0.0584 -0.201 -0.3346, -0.0545 -0.1923 -0.3346, -0.0527 -0.1951 -0.3346, -0.0868 -0.201 -0.3346, -0.374 -0.1427 -0.3346, -0.0238 -0.1729 -0.3346, -0.0119 -0.1729 -0.3346, -0.0119 -0.1833 -0.3346, -0.374 0.1427 -0.3346, -0.374 0.2461 -0.3346, -0.2362 0.1427 -0.3346, -0.2165 0.2461 -0.3346, -0.0689 -0.0394 -0.3346, -0.2362 0.0541 -0.3346, -0.374 -0.0541 -0.3346, -0.374 0.0541 -0.3346, -0.2362 -0.0541 -0.3346, -0.0308 -0.1695 -0.3346, -0.0231 -0.1833 -0.3346, -0.0231 -0.1868 -0.3346, -0.0119 -0.1868 -0.3346, -0.0119 -0.1975 -0.3346, -0.0501 -0.1976 -0.3346, -0.0468 -0.1995 -0.3346, -0.0432 -0.2006 -0.3346, -0.0238 -0.1695 -0.3346, -0.0822 -0.201 -0.3346, -0.0393 -0.201 -0.3346, -0.0396 -0.1695 -0.3346, -0.0442 -0.17 -0.3346, -0.0479 -0.1712 -0.3346, -0.0513 -0.1735 -0.3346, -0.0703 -0.1695 -0.3346, -0.0536 -0.176 -0.3346, -0.055 -0.1788 -0.3346, -0.0513 -0.1736 -0.3346, -0.0559 -0.1819 -0.3346, -0.0561 -0.1848 -0.3346, -0.0557 -0.189 -0.3346, -0.2362 -0.1427 -0.3346, -0.0745 -0.1695 -0.3346, -0.374 -0.3346 -0.3346, -0.3346 -0.3346 -0.3346, -0.374 -0.374 -0.3346, -0.3346 -0.374 -0.3346, 0.3346 -0.374 -0.3346, 0.3346 -0.3346 -0.3346, 0.374 -0.374 -0.3346, 0.374 -0.3346 -0.3346, -0.374 0.374 -0.3346, -0.3346 0.374 -0.3346, -0.374 0.3346 -0.3346, -0.3346 0.3346 -0.3346, 0.3937 -0.2461 -0.2756, 0.3937 -0.2461 -0.315, 0.3937 -0.1427 -0.315, 0.3937 -0.1427 -0.2756, 0.3937 -0.3937 0.0, 0.3937 -0.3346 -0.2756, 0.3937 -0.3937 -0.315, 0.3937 -0.3346 -0.315, 0.3937 -0.0541 -0.315, 0.3937 0.0541 -0.315, 0.3937 -0.0541 -0.2756, 0.3937 0.0541 -0.2756, 0.3937 0.3937 0.0, 0.3937 0.1427 -0.2756, 0.3937 0.3346 -0.315, 0.3937 0.3937 -0.315, 0.3937 0.3346 -0.2756, 0.3937 0.2461 -0.2756, 0.3937 0.2461 -0.315, 0.3937 0.1427 -0.315, -0.3937 -0.3937 -0.315, -0.3346 -0.3937 -0.315, -0.3346 -0.3937 -0.2756, -0.1969 -0.3937 -0.2756, -0.3937 -0.3937 0.0, 0.3346 -0.3937 -0.315, 0.3346 -0.3937 -0.2756, 0.1969 -0.3937 -0.2756, 0.1969 -0.3937 -0.315, -0.1969 -0.3937 -0.315, -0.3937 -0.1427 -0.2756, -0.3937 -0.1427 -0.315, -0.3937 -0.2461 -0.315, -0.3937 0.3937 -0.315, -0.3937 0.3346 -0.315, -0.3937 0.3346 -0.2756, -0.3937 0.2461 -0.2756, -0.3937 0.2461 -0.315, -0.3937 0.1427 -0.315, -0.3937 -0.3346 -0.315, -0.3937 -0.3346 -0.2756, -0.3937 -0.2461 -0.2756, -0.3937 0.1427 -0.2756, -0.3937 0.0541 -0.2756, -0.3937 0.3937 0.0, -0.3937 -0.0541 -0.2756, -0.3937 -0.0541 -0.315, -0.3937 0.0541 -0.315, 0.3346 0.3937 -0.315, 0.3346 0.3937 -0.2756, 0.1772 0.3937 -0.2756, 0.1772 0.3937 -0.315, 0.0689 0.3937 -0.315, 0.0689 0.3937 -0.2756, -0.0689 0.3937 -0.2756, -0.3346 0.3937 -0.315, -0.3346 0.3937 -0.2756, -0.1772 0.3937 -0.2756, -0.1772 0.3937 -0.315, -0.0689 0.3937 -0.315, 0.374 0.3346 -0.3346, 0.3346 0.3346 -0.3346, 0.374 0.374 -0.3346, 0.3346 0.374 -0.3346, 0.3346 0.374 -0.3346
            ]
        }
        coordIndex [
            0,1,2,-1,3,4,5,-1,6,7,8,-1,9,10,11,-1,11,10,12,-1,13,14,8,-1,8,14,15,-1,16,17,18,-1,18,17,19,-1,18,19,20,-1,21,22,15,-1,15,22,23,-1,15,23,8,-1,8,23,24,-1,8,24,6,-1,6,24,25,-1,6,25,26,-1,4,27,5,-1,5,27,28,-1,5,28,29,-1,30,31,5,-1,5,31,32,-1,33,34,35,-1,35,34,36,-1,32,37,5,-1,5,37,36,-1,5,36,38,-1,38,36,34,-1,3,5,39,-1,39,5,40,-1,39,40,41,-1,41,40,42,-1,41,42,43,-1,29,44,5,-1,5,44,45,-1,5,45,30,-1,46,47,48,-1,48,47,42,-1,48,42,49,-1,49,42,8,-1,49,8,16,-1,16,8,7,-1,20,50,18,-1,18,50,51,-1,18,51,52,-1,52,51,53,-1,52,53,54,-1,47,55,42,-1,42,55,56,-1,42,56,57,-1,53,58,54,-1,54,58,59,-1,54,59,48,-1,48,59,60,-1,48,60,46,-1,57,61,42,-1,42,61,62,-1,42,62,43,-1,63,64,65,-1,9,66,67,-1,67,66,68,-1,7,69,16,-1,16,69,63,-1,16,63,17,-1,17,63,65,-1,17,65,68,-1,68,65,70,-1,68,70,67,-1,9,67,10,-1,10,67,71,-1,10,71,0,-1,72,73,74,-1,10,75,76,-1,77,78,79,-1,80,81,82,-1,83,84,85,-1,86,2,87,-1,88,89,90,-1,91,92,93,-1,93,92,94,-1,95,96,79,-1,79,96,93,-1,79,93,77,-1,77,93,94,-1,97,98,99,-1,99,98,96,-1,100,101,102,-1,103,104,102,-1,102,104,72,-1,102,72,100,-1,100,72,74,-1,85,105,83,-1,83,105,106,-1,83,106,107,-1,88,96,108,-1,108,96,95,-1,108,95,76,-1,76,95,42,-1,76,42,10,-1,10,42,40,-1,10,40,12,-1,0,2,10,-1,10,2,86,-1,10,86,109,-1,110,74,10,-1,10,74,73,-1,10,73,75,-1,90,101,88,-1,88,101,100,-1,88,100,96,-1,96,100,111,-1,111,112,96,-1,96,112,113,-1,96,113,114,-1,115,116,117,-1,116,115,118,-1,117,119,115,-1,115,119,120,-1,115,120,83,-1,83,120,121,-1,83,121,84,-1,107,110,83,-1,83,110,10,-1,83,10,82,-1,82,10,109,-1,82,109,80,-1,87,122,86,-1,86,122,99,-1,86,99,123,-1,123,99,96,-1,123,96,115,-1,115,96,114,-1,115,114,118,-1,124,125,126,-1,126,125,127,-1,128,129,130,-1,130,129,131,-1,132,133,134,-1,134,133,135,-1,136,137,138,-1,138,139,136,-1,136,139,140,-1,136,140,141,-1,141,140,142,-1,141,142,143,-1,144,145,146,-1,146,145,147,-1,139,146,140,-1,140,146,147,-1,140,147,148,-1,148,147,149,-1,150,151,152,-1,152,151,148,-1,152,148,153,-1,153,148,149,-1,153,149,154,-1,154,149,155,-1,156,157,158,-1,159,140,158,-1,158,140,160,-1,158,160,156,-1,161,142,162,-1,162,142,140,-1,162,140,163,-1,163,140,159,-1,163,159,164,-1,164,159,165,-1,166,167,168,-1,169,170,171,-1,172,173,174,-1,175,156,176,-1,176,156,160,-1,176,160,177,-1,178,179,160,-1,174,178,172,-1,172,178,160,-1,172,160,171,-1,171,160,180,-1,171,180,169,-1,168,177,166,-1,166,177,160,-1,166,160,181,-1,181,160,179,-1,181,179,182,-1,182,179,183,-1,151,184,185,-1,186,187,188,-1,189,190,180,-1,188,189,186,-1,186,189,180,-1,186,180,185,-1,185,180,148,-1,185,148,151,-1,191,169,192,-1,192,169,180,-1,192,180,193,-1,193,180,190,-1,193,190,194,-1,194,190,195,-1,196,197,198,-1,198,197,199,-1,
        ]
    }
}
Shape{
    appearance Appearance {
        material  Material 	{
            diffuseColor 1.0 1.0 1.0
            specularColor 0.5019607843137255 0.5019607843137255 0.5019607843137255
            ambientIntensity 0.2
            transparency 0
            shininess 0.5
        }
    }
    geometry IndexedFaceSet {
        ccw TRUE
        solid FALSE
        coord DEF co Coordinate {
            point [
                -0.3346 0.3937 -0.315, -0.3346 0.3937 -0.2756, -0.3346 0.374 -0.315, -0.3346 0.3346 -0.2756, -0.3346 0.374 -0.3346, -0.3346 0.3346 -0.3346, -0.374 0.3346 -0.3346, -0.374 0.3346 -0.315, -0.3937 0.3346 -0.315, -0.3937 0.3346 -0.2756, -0.3937 0.2461 -0.315, -0.3937 0.2461 -0.2756, -0.374 0.2461 -0.315, -0.2165 0.2461 -0.2756, -0.374 0.2461 -0.3346, -0.2165 0.2461 -0.3346, -0.1772 0.374 -0.3346, -0.1772 0.2854 -0.3346, -0.1772 0.374 -0.315, -0.1772 0.2854 -0.2756, -0.1772 0.3937 -0.315, -0.1772 0.3937 -0.2756, -0.1772 0.3937 -0.2756
            ]
        }
        coordIndex [
            0,1,2,-1,2,1,3,-1,2,3,4,-1,4,3,5,-1,6,5,7,-1,7,5,3,-1,7,3,8,-1,8,3,9,-1,10,11,12,-1,12,11,13,-1,12,13,14,-1,14,13,15,-1,16,17,18,-1,18,17,19,-1,18,19,20,-1,20,19,21,-1,
        ]
    }
}
Shape{
    appearance Appearance {
        material  Material 	{
            diffuseColor 0.792156862745098 0.8196078431372549 0.9333333333333333
            specularColor 0.396078431372549 0.4117647058823529 0.4666666666666667
            ambientIntensity 0.2
            transparency 0
            shininess 0.5
        }
    }
    geometry IndexedFaceSet {
        ccw TRUE
        solid FALSE
        coord DEF co Coordinate {
            point [
                -0.0689 0.3937 -0.315, -0.0689 0.3937 -0.2756, -0.0689 0.374 -0.315, -0.0689 -0.0394 -0.2756, -0.0689 0.374 -0.3346, -0.0689 -0.0394 -0.3346, 0.0689 0.3937 -0.2756, 0.0689 0.3937 -0.315, 0.0689 0.374 -0.315, 0.0689 0.374 -0.3346, 0.0689 -0.0394 -0.3346, 0.0689 -0.0394 -0.2756, 0.3937 0.1427 -0.315, 0.3937 0.1427 -0.2756, 0.374 0.1427 -0.315, 0.2362 0.1427 -0.2756, 0.374 0.1427 -0.3346, 0.2362 0.1427 -0.3346, 0.3937 0.0541 -0.2756, 0.3937 0.0541 -0.315, 0.374 0.0541 -0.315, 0.374 0.0541 -0.3346, 0.2362 0.0541 -0.3346, 0.2362 0.0541 -0.2756, 0.3937 -0.0541 -0.315, 0.3937 -0.0541 -0.2756, 0.374 -0.0541 -0.315, 0.2362 -0.0541 -0.2756, 0.374 -0.0541 -0.3346, 0.2362 -0.0541 -0.3346, 0.3937 -0.1427 -0.2756, 0.3937 -0.1427 -0.315, 0.374 -0.1427 -0.315, 0.374 -0.1427 -0.3346, 0.2362 -0.1427 -0.3346, 0.2362 -0.1427 -0.2756, -0.3937 -0.1427 -0.315, -0.3937 -0.1427 -0.2756, -0.374 -0.1427 -0.315, -0.2362 -0.1427 -0.2756, -0.374 -0.1427 -0.3346, -0.2362 -0.1427 -0.3346, -0.3937 -0.0541 -0.2756, -0.3937 -0.0541 -0.315, -0.374 -0.0541 -0.315, -0.374 -0.0541 -0.3346, -0.2362 -0.0541 -0.3346, -0.2362 -0.0541 -0.2756, 0.1772 0.3937 -0.315, 0.1772 0.3937 -0.2756, 0.1772 0.374 -0.315, 0.1772 0.2461 -0.2756, 0.1772 0.374 -0.3346, 0.1772 0.2461 -0.3346, 0.3937 0.2461 -0.2756, 0.3937 0.2461 -0.315, 0.374 0.2461 -0.315, 0.374 0.2461 -0.3346, 0.3937 0.3346 -0.315, 0.3937 0.3346 -0.2756, 0.374 0.3346 -0.315, 0.3346 0.3346 -0.2756, 0.374 0.3346 -0.3346, 0.3346 0.3346 -0.3346, 0.3346 0.374 -0.3346, 0.3346 0.374 -0.315, 0.3346 0.3937 -0.315, 0.3346 0.3937 -0.2756, -0.3937 -0.3346 -0.315, -0.3937 -0.3346 -0.2756, -0.374 -0.3346 -0.315, -0.3346 -0.3346 -0.2756, -0.374 -0.3346 -0.3346, -0.3346 -0.3346 -0.3346, -0.3346 -0.374 -0.3346, -0.3346 -0.374 -0.315, -0.3346 -0.3937 -0.315, -0.3346 -0.3937 -0.2756, -0.1969 -0.3937 -0.315, -0.1969 -0.3937 -0.2756, -0.1969 -0.374 -0.315, -0.1969 -0.2461 -0.2756, -0.1969 -0.374 -0.3346, -0.1969 -0.2461 -0.3346, -0.3937 -0.2461 -0.2756, -0.3937 -0.2461 -0.315, -0.374 -0.2461 -0.315, -0.374 -0.2461 -0.3346, 0.3937 -0.2461 -0.315, 0.3937 -0.2461 -0.2756, 0.374 -0.2461 -0.315, 0.1969 -0.2461 -0.2756, 0.374 -0.2461 -0.3346, 0.1969 -0.2461 -0.3346, 0.1969 -0.3937 -0.2756, 0.1969 -0.3937 -0.315, 0.1969 -0.374 -0.315, 0.1969 -0.374 -0.3346, 0.3346 -0.3937 -0.315, 0.3346 -0.3937 -0.2756, 0.3346 -0.374 -0.315, 0.3346 -0.3346 -0.2756, 0.3346 -0.374 -0.3346, 0.3346 -0.3346 -0.3346, 0.374 -0.3346 -0.3346, 0.374 -0.3346 -0.315, 0.3937 -0.3346 -0.315, 0.3937 -0.3346 -0.2756, -0.3937 0.0541 -0.315, -0.3937 0.0541 -0.2756, -0.374 0.0541 -0.315, -0.2362 0.0541 -0.2756, -0.374 0.0541 -0.3346, -0.2362 0.0541 -0.3346, -0.3937 0.1427 -0.2756, -0.3937 0.1427 -0.315, -0.374 0.1427 -0.315, -0.374 0.1427 -0.3346, -0.2362 0.1427 -0.3346, -0.2362 0.1427 -0.2756, -0.2362 0.1427 -0.2756
            ]
        }
        coordIndex [
            0,1,2,-1,2,1,3,-1,2,3,4,-1,4,3,5,-1,6,7,8,-1,9,10,8,-1,8,10,11,-1,8,11,6,-1,12,13,14,-1,14,13,15,-1,14,15,16,-1,16,15,17,-1,18,19,20,-1,21,22,20,-1,20,22,23,-1,20,23,18,-1,24,25,26,-1,26,25,27,-1,26,27,28,-1,28,27,29,-1,30,31,32,-1,33,34,32,-1,32,34,35,-1,32,35,30,-1,36,37,38,-1,38,37,39,-1,38,39,40,-1,40,39,41,-1,42,43,44,-1,45,46,44,-1,44,46,47,-1,44,47,42,-1,48,49,50,-1,50,49,51,-1,50,51,52,-1,52,51,53,-1,54,55,56,-1,57,53,56,-1,56,53,51,-1,56,51,54,-1,58,59,60,-1,60,59,61,-1,60,61,62,-1,62,61,63,-1,64,63,65,-1,65,63,61,-1,65,61,66,-1,66,61,67,-1,68,69,70,-1,70,69,71,-1,70,71,72,-1,72,71,73,-1,74,73,75,-1,75,73,71,-1,75,71,76,-1,76,71,77,-1,78,79,80,-1,80,79,81,-1,80,81,82,-1,82,81,83,-1,84,85,86,-1,87,83,86,-1,86,83,81,-1,86,81,84,-1,88,89,90,-1,90,89,91,-1,90,91,92,-1,92,91,93,-1,94,95,96,-1,97,93,96,-1,96,93,91,-1,96,91,94,-1,98,99,100,-1,100,99,101,-1,100,101,102,-1,102,101,103,-1,104,103,105,-1,105,103,101,-1,105,101,106,-1,106,101,107,-1,108,109,110,-1,110,109,111,-1,110,111,112,-1,112,111,113,-1,114,115,116,-1,117,118,116,-1,116,118,119,-1,116,119,114,-1,
        ]
    }
}
Shape{
    appearance Appearance {
        material  Material 	{
            diffuseColor 0.25098039215686274 0.25098039215686274 0.25098039215686274
            specularColor 0.12549019607843137 0.12549019607843137 0.12549019607843137
            ambientIntensity 0.2
            transparency 0
            shininess 0.5
        }
    }
    geometry IndexedFaceSet {
        ccw TRUE
        solid FALSE
        coord DEF co Coordinate {
            point [
                -0.2998 0.2605 0.0, -0.3114 0.262 0.0, -0.3937 -0.3937 0.0, -0.3222 0.2665 0.0, -0.3315 0.2736 0.0, -0.2609 0.2829 0.0, 0.3937 -0.3937 0.0, -0.2564 0.2938 0.0, 0.3937 0.3937 0.0, -0.2549 0.3054 0.0, -0.268 0.2736 0.0, -0.2773 0.2665 0.0, -0.2881 0.262 0.0, -0.3937 0.3937 0.0, -0.3431 0.317 0.0, -0.3387 0.3278 0.0, -0.3315 0.3371 0.0, -0.3222 0.3443 0.0, -0.3114 0.3488 0.0, -0.268 0.3371 0.0, -0.2609 0.3278 0.0, -0.2564 0.317 0.0, -0.3387 0.2829 0.0, -0.3431 0.2938 0.0, -0.3447 0.3054 0.0, -0.2998 0.3503 0.0, -0.2881 0.3488 0.0, -0.2773 0.3443 0.0, -0.2773 0.3443 0.0
            ]
        }
        coordIndex [
            0,1,2,-1,2,1,3,-1,2,3,4,-1,5,6,7,-1,7,6,8,-1,7,8,9,-1,5,10,6,-1,6,10,11,-1,6,11,2,-1,2,11,12,-1,2,12,0,-1,13,14,15,-1,15,16,13,-1,13,16,17,-1,13,17,18,-1,19,20,8,-1,8,20,21,-1,8,21,9,-1,4,22,2,-1,2,22,23,-1,2,23,13,-1,13,23,24,-1,13,24,14,-1,18,25,13,-1,13,25,26,-1,13,26,8,-1,8,26,27,-1,8,27,19,-1,
        ]
    }
}
Shape{
    appearance Appearance {
        material  Material 	{
            diffuseColor 0.792156862745098 0.8196078431372549 0.9333333333333333
            specularColor 0.396078431372549 0.4117647058823529 0.4666666666666667
            ambientIntensity 0.2
            transparency 0
            shininess 0.5
        }
    }
    geometry IndexedFaceSet {
        ccw TRUE
        solid FALSE
        coord DEF co Coordinate {
            point [
                -0.2165 0.2461 -0.2756, -0.1772 0.2854 -0.2756, -0.2165 0.2461 -0.3346, -0.1772 0.2854 -0.3346, -0.3937 0.2461 -0.2756, -0.3937 0.3346 -0.2756, -0.3346 0.3346 -0.2756, -0.3346 0.3937 -0.2756, -0.1772 0.3937 -0.2756, 0.0689 -0.0394 -0.2756, 0.0689 -0.0394 -0.3346, -0.0689 -0.0394 -0.2756, -0.0046 -0.0394 -0.3346, -0.0689 -0.0394 -0.3346, 0.0689 0.3937 -0.2756, -0.0689 0.3937 -0.2756, 0.2362 0.1427 -0.2756, 0.2362 0.0541 -0.2756, 0.2362 0.1427 -0.3346, 0.2362 0.0541 -0.3346, 0.3937 0.0541 -0.2756, 0.3937 0.1427 -0.2756, 0.2362 -0.0541 -0.2756, 0.2362 -0.1427 -0.2756, 0.2362 -0.0541 -0.3346, 0.2362 -0.1427 -0.3346, 0.3937 -0.1427 -0.2756, 0.3937 -0.0541 -0.2756, -0.2362 -0.1427 -0.2756, -0.2362 -0.0541 -0.2756, -0.2362 -0.1427 -0.3346, -0.2362 -0.0541 -0.3346, -0.3937 -0.0541 -0.2756, -0.3937 -0.1427 -0.2756, 0.3937 0.3346 -0.2756, 0.3937 0.2461 -0.2756, 0.3346 0.3346 -0.2756, 0.1772 0.2461 -0.2756, 0.3346 0.3937 -0.2756, 0.1772 0.3937 -0.2756, -0.3937 -0.3346 -0.2756, -0.3937 -0.2461 -0.2756, -0.3346 -0.3346 -0.2756, -0.1969 -0.2461 -0.2756, -0.3346 -0.3937 -0.2756, -0.1969 -0.3937 -0.2756, 0.3346 -0.3937 -0.2756, 0.1969 -0.3937 -0.2756, 0.3346 -0.3346 -0.2756, 0.1969 -0.2461 -0.2756, 0.3937 -0.3346 -0.2756, 0.3937 -0.2461 -0.2756, -0.2362 0.0541 -0.2756, -0.2362 0.1427 -0.2756, -0.2362 0.0541 -0.3346, -0.2362 0.1427 -0.3346, -0.3937 0.1427 -0.2756, -0.3937 0.0541 -0.2756, -0.3937 0.0541 -0.2756
            ]
        }
        coordIndex [
            0,1,2,-1,2,1,3,-1,4,5,0,-1,0,5,6,-1,0,6,1,-1,1,6,7,-1,1,7,8,-1,9,10,11,-1,11,10,12,-1,11,12,13,-1,14,9,15,-1,15,9,11,-1,16,17,18,-1,18,17,19,-1,20,17,21,-1,21,17,16,-1,22,23,24,-1,24,23,25,-1,23,22,26,-1,26,22,27,-1,28,29,30,-1,30,29,31,-1,32,29,33,-1,33,29,28,-1,34,35,36,-1,36,35,37,-1,36,37,38,-1,38,37,39,-1,40,41,42,-1,42,41,43,-1,42,43,44,-1,44,43,45,-1,46,47,48,-1,48,47,49,-1,48,49,50,-1,50,49,51,-1,52,53,54,-1,54,53,55,-1,53,52,56,-1,56,52,57,-1,
        ]
    }
}
Shape{
    appearance Appearance {
        material  Material 	{
            diffuseColor 0.25098039215686274 0.25098039215686274 0.25098039215686274
            specularColor 0.12549019607843137 0.12549019607843137 0.12549019607843137
            ambientIntensity 0.2
            transparency 0
            shininess 0.5
        }
    }
    geometry IndexedFaceSet {
        ccw TRUE
        solid FALSE
        coord DEF co Coordinate {
            point [
                -0.374 0.1427 -0.3346, -0.374 0.1427 -0.315, -0.374 0.2461 -0.3346, -0.374 0.2461 -0.315, -0.3937 0.1427 -0.315, -0.3937 0.2461 -0.315, -0.374 0.0541 -0.315, -0.374 0.0541 -0.3346, -0.374 -0.0541 -0.315, -0.374 -0.0541 -0.3346, -0.3937 0.0541 -0.315, -0.3937 -0.0541 -0.315, 0.374 -0.374 -0.315, 0.374 -0.374 -0.3346, 0.374 -0.3346 -0.315, 0.374 -0.3346 -0.3346, 0.3937 -0.3346 -0.315, 0.3937 -0.3937 -0.315, 0.3346 -0.374 -0.315, 0.3346 -0.3937 -0.315, 0.3346 -0.374 -0.3346, 0.1969 -0.374 -0.3346, 0.1969 -0.374 -0.315, -0.0046 -0.374 -0.3346, -0.1969 -0.374 -0.315, -0.1969 -0.374 -0.3346, 0.1969 -0.3937 -0.315, -0.1969 -0.3937 -0.315, 0.374 -0.1427 -0.3346, 0.374 -0.1427 -0.315, 0.374 -0.2012 -0.3346, 0.374 -0.2461 -0.315, 0.374 -0.2461 -0.3346, 0.3937 -0.2461 -0.315, 0.3937 -0.1427 -0.315, -0.374 -0.1427 -0.315, -0.374 -0.1427 -0.3346, -0.374 -0.2461 -0.315, -0.374 -0.2012 -0.3346, -0.374 -0.2461 -0.3346, -0.3937 -0.2461 -0.315, -0.3937 -0.1427 -0.315, -0.374 -0.374 -0.315, -0.374 -0.374 -0.3346, -0.3346 -0.374 -0.315, -0.3346 -0.374 -0.3346, -0.3346 -0.3937 -0.315, -0.3937 -0.3937 -0.315, -0.374 -0.3346 -0.315, -0.3937 -0.3346 -0.315, -0.374 -0.3346 -0.3346, 0.374 0.374 -0.315, 0.374 0.374 -0.3346, 0.3346 0.374 -0.315, 0.3346 0.374 -0.3346, 0.3346 0.3937 -0.315, 0.3937 0.3937 -0.315, 0.374 0.3346 -0.315, 0.3937 0.3346 -0.315, 0.374 0.3346 -0.3346, 0.374 0.2461 -0.3346, 0.374 0.2461 -0.315, 0.374 0.1427 -0.3346, 0.374 0.1427 -0.315, 0.3937 0.2461 -0.315, 0.3937 0.1427 -0.315, 0.1772 0.374 -0.315, 0.1772 0.374 -0.3346, 0.0689 0.374 -0.315, 0.0689 0.374 -0.3346, 0.1772 0.3937 -0.315, 0.0689 0.3937 -0.315, 0.374 -0.0541 -0.315, 0.374 -0.0541 -0.3346, 0.374 0.0541 -0.315, 0.374 0.0541 -0.3346, 0.3937 -0.0541 -0.315, 0.3937 0.0541 -0.315, -0.0689 0.374 -0.315, -0.0689 0.374 -0.3346, -0.1772 0.374 -0.315, -0.1772 0.374 -0.3346, -0.0689 0.3937 -0.315, -0.1772 0.3937 -0.315, -0.3346 0.374 -0.315, -0.3346 0.374 -0.3346, -0.374 0.374 -0.315, -0.374 0.374 -0.3346, -0.374 0.3346 -0.315, -0.3937 0.3346 -0.315, -0.3937 0.3937 -0.315, -0.3346 0.3937 -0.315, -0.374 0.3346 -0.3346, -0.374 0.3346 -0.3346
            ]
        }
        coordIndex [
            0,1,2,-1,2,1,3,-1,1,4,3,-1,3,4,5,-1,6,7,8,-1,8,7,9,-1,10,6,11,-1,11,6,8,-1,12,13,14,-1,14,13,15,-1,14,16,12,-1,12,16,17,-1,12,17,18,-1,18,17,19,-1,18,20,12,-1,12,20,13,-1,21,22,23,-1,23,22,24,-1,23,24,25,-1,22,26,24,-1,24,26,27,-1,28,29,30,-1,30,29,31,-1,30,31,32,-1,33,31,34,-1,34,31,29,-1,35,36,37,-1,37,36,38,-1,37,38,39,-1,37,40,35,-1,35,40,41,-1,42,43,44,-1,44,43,45,-1,44,46,42,-1,42,46,47,-1,42,47,48,-1,48,47,49,-1,48,50,42,-1,42,50,43,-1,51,52,53,-1,53,52,54,-1,53,55,51,-1,51,55,56,-1,51,56,57,-1,57,56,58,-1,57,59,51,-1,51,59,52,-1,60,61,62,-1,62,61,63,-1,61,64,63,-1,63,64,65,-1,66,67,68,-1,68,67,69,-1,70,66,71,-1,71,66,68,-1,72,73,74,-1,74,73,75,-1,76,72,77,-1,77,72,74,-1,78,79,80,-1,80,79,81,-1,82,78,83,-1,83,78,80,-1,84,85,86,-1,86,85,87,-1,88,89,86,-1,86,89,90,-1,86,90,84,-1,84,90,91,-1,86,87,88,-1,88,87,92,-1,
        ]
    }
}
Shape{
    appearance Appearance {
        material  Material 	{
            diffuseColor 0.7529411764705882 0.7529411764705882 0.7529411764705882
            specularColor 0.3764705882352941 0.3764705882352941 0.3764705882352941
            ambientIntensity 0.2
            transparency 0
            shininess 0.5
        }
    }
    geometry IndexedFaceSet {
        ccw TRUE
        solid FALSE
        coord DEF co Coordinate {
            point [
                -0.2549 0.3054 -0.0039, -0.2549 0.3054 0.0, -0.2564 0.317 -0.0039, -0.2564 0.317 0.0, -0.2609 0.3278 -0.0039, -0.2609 0.3278 0.0, -0.268 0.3371 -0.0039, -0.268 0.3371 0.0, -0.2773 0.3443 -0.0039, -0.2773 0.3443 0.0, -0.2881 0.3488 -0.0039, -0.2881 0.3488 0.0, -0.2998 0.3503 -0.0039, -0.2998 0.3503 0.0, -0.3114 0.3488 -0.0039, -0.3114 0.3488 0.0, -0.3222 0.3443 -0.0039, -0.3222 0.3443 0.0, -0.3315 0.3371 -0.0039, -0.3315 0.3371 0.0, -0.3387 0.3278 -0.0039, -0.3387 0.3278 0.0, -0.3431 0.317 -0.0039, -0.3431 0.317 0.0, -0.3447 0.3054 -0.0039, -0.3447 0.3054 0.0, -0.3431 0.2938 -0.0039, -0.3431 0.2938 0.0, -0.3387 0.2829 -0.0039, -0.3387 0.2829 0.0, -0.3315 0.2736 -0.0039, -0.3315 0.2736 0.0, -0.3222 0.2665 -0.0039, -0.3222 0.2665 0.0, -0.3114 0.262 -0.0039, -0.3114 0.262 0.0, -0.2998 0.2605 -0.0039, -0.2998 0.2605 0.0, -0.2881 0.262 -0.0039, -0.2881 0.262 0.0, -0.2773 0.2665 -0.0039, -0.2773 0.2665 0.0, -0.268 0.2736 -0.0039, -0.268 0.2736 0.0, -0.2609 0.2829 -0.0039, -0.2609 0.2829 0.0, -0.2564 0.2938 -0.0039, -0.2564 0.2938 0.0, -0.2998 0.3054 -0.0039, -0.2998 0.3054 -0.0039
            ]
        }
        coordIndex [
            0,1,2,-1,2,1,3,-1,2,3,4,-1,4,3,5,-1,4,5,6,-1,6,5,7,-1,6,7,8,-1,8,7,9,-1,8,9,10,-1,10,9,11,-1,10,11,12,-1,12,11,13,-1,12,13,14,-1,14,13,15,-1,14,15,16,-1,16,15,17,-1,16,17,18,-1,18,17,19,-1,18,19,20,-1,20,19,21,-1,20,21,22,-1,22,21,23,-1,22,23,24,-1,24,23,25,-1,24,25,26,-1,26,25,27,-1,26,27,28,-1,28,27,29,-1,28,29,30,-1,30,29,31,-1,30,31,32,-1,32,31,33,-1,32,33,34,-1,34,33,35,-1,34,35,36,-1,36,35,37,-1,36,37,38,-1,38,37,39,-1,38,39,40,-1,40,39,41,-1,40,41,42,-1,42,41,43,-1,42,43,44,-1,44,43,45,-1,44,45,46,-1,46,45,47,-1,46,47,0,-1,0,47,1,-1,44,46,48,-1,48,46,0,-1,48,0,2,-1,38,40,48,-1,48,40,42,-1,48,42,44,-1,32,34,48,-1,48,34,36,-1,48,36,38,-1,26,28,48,-1,48,28,30,-1,48,30,32,-1,20,22,48,-1,48,22,24,-1,48,24,26,-1,14,16,48,-1,48,16,18,-1,48,18,20,-1,8,10,48,-1,48,10,12,-1,48,12,14,-1,2,4,48,-1,48,4,6,-1,48,6,8,-1,
        ]
    }
}
Shape{
    appearance Appearance {
        material  Material 	{
            diffuseColor 0.5019607843137255 0.5019607843137255 0.5019607843137255
            specularColor 0.25098039215686274 0.25098039215686274 0.25098039215686274
            ambientIntensity 0.2
            transparency 0
            shininess 0.5
        }
    }
    geometry IndexedFaceSet {
        ccw TRUE
        solid FALSE
        coord DEF co Coordinate {
            point [
                -0.0745 -0.1695 -0.3307, -0.0868 -0.201 -0.3307, -0.0745 -0.1695 -0.3346, -0.0868 -0.201 -0.3346, -0.0822 -0.201 -0.3307, -0.0822 -0.201 -0.3346, -0.079 -0.1921 -0.3307, -0.079 -0.1921 -0.3346, -0.066 -0.1921 -0.3307, -0.066 -0.1921 -0.3346, -0.063 -0.201 -0.3307, -0.063 -0.201 -0.3346, -0.0584 -0.201 -0.3307, -0.0584 -0.201 -0.3346, -0.0703 -0.1695 -0.3307, -0.0703 -0.1695 -0.3346, -0.0671 -0.1887 -0.3307, -0.0776 -0.1887 -0.3307, -0.0718 -0.1755 -0.3307, -0.0721 -0.1744 -0.3307, -0.0723 -0.1733 -0.3307, -0.0724 -0.1733 -0.3307, -0.0726 -0.1744 -0.3307, -0.0729 -0.1755 -0.3307, -0.0671 -0.1887 -0.3346, -0.0776 -0.1887 -0.3346, -0.0718 -0.1755 -0.3346, -0.0721 -0.1744 -0.3346, -0.0723 -0.1733 -0.3346, -0.0724 -0.1733 -0.3346, -0.0726 -0.1744 -0.3346, -0.0729 -0.1755 -0.3346, -0.0393 -0.201 -0.3307, -0.0308 -0.201 -0.3307, -0.0393 -0.201 -0.3346, -0.0308 -0.201 -0.3346, -0.0308 -0.1695 -0.3307, -0.0308 -0.1695 -0.3346, -0.0396 -0.1695 -0.3307, -0.0396 -0.1695 -0.3346, -0.0561 -0.1848 -0.3307, -0.0561 -0.1848 -0.3346, -0.0559 -0.1819 -0.3346, -0.0559 -0.1819 -0.3307, -0.055 -0.1788 -0.3346, -0.055 -0.1788 -0.3307, -0.0536 -0.176 -0.3346, -0.0536 -0.176 -0.3307, -0.0513 -0.1736 -0.3346, -0.0513 -0.1736 -0.3307, -0.0513 -0.1735 -0.3346, -0.0513 -0.1735 -0.3307, -0.0479 -0.1712 -0.3346, -0.0479 -0.1712 -0.3307, -0.0442 -0.17 -0.3346, -0.0442 -0.17 -0.3307, -0.0432 -0.2006 -0.3346, -0.0432 -0.2006 -0.3307, -0.0468 -0.1995 -0.3346, -0.0468 -0.1995 -0.3307, -0.0501 -0.1976 -0.3346, -0.0501 -0.1976 -0.3307, -0.0527 -0.1951 -0.3346, -0.0527 -0.1951 -0.3307, -0.0545 -0.1923 -0.3346, -0.0545 -0.1923 -0.3307, -0.0557 -0.189 -0.3346, -0.0557 -0.189 -0.3307, -0.0498 -0.1773 -0.3307, -0.0483 -0.1757 -0.3307, -0.046 -0.1742 -0.3307, -0.0434 -0.1733 -0.3307, -0.0396 -0.1729 -0.3307, -0.035 -0.1729 -0.3307, -0.035 -0.1975 -0.3307, -0.0395 -0.1975 -0.3307, -0.0428 -0.1972 -0.3307, -0.0454 -0.1964 -0.3307, -0.0476 -0.1951 -0.3307, -0.0493 -0.1934 -0.3307, -0.0507 -0.1912 -0.3307, -0.0516 -0.1882 -0.3307, -0.0519 -0.1849 -0.3307, -0.0516 -0.1818 -0.3307, -0.0509 -0.1793 -0.3307, -0.0396 -0.1729 -0.3346, -0.035 -0.1729 -0.3346, -0.0434 -0.1733 -0.3346, -0.046 -0.1742 -0.3346, -0.0483 -0.1757 -0.3346, -0.0498 -0.1773 -0.3346, -0.0509 -0.1793 -0.3346, -0.0516 -0.1818 -0.3346, -0.0519 -0.1849 -0.3346, -0.0516 -0.1882 -0.3346, -0.0507 -0.1912 -0.3346, -0.0493 -0.1934 -0.3346, -0.0476 -0.1951 -0.3346, -0.0454 -0.1964 -0.3346, -0.0428 -0.1972 -0.3346, -0.0395 -0.1975 -0.3346, -0.035 -0.1975 -0.3346, -0.0246 -0.1975 -0.3307, -0.0246 -0.201 -0.3307, -0.0246 -0.1975 -0.3346, -0.0246 -0.201 -0.3346, -0.0077 -0.201 -0.3307, -0.0077 -0.201 -0.3346, -0.0077 -0.1695 -0.3307, -0.0077 -0.1695 -0.3346, -0.0238 -0.1695 -0.3307, -0.0238 -0.1695 -0.3346, -0.0238 -0.1729 -0.3307, -0.0238 -0.1729 -0.3346, -0.0119 -0.1729 -0.3307, -0.0119 -0.1729 -0.3346, -0.0119 -0.1833 -0.3307, -0.0119 -0.1833 -0.3346, -0.0231 -0.1833 -0.3307, -0.0231 -0.1833 -0.3346, -0.0231 -0.1868 -0.3307, -0.0231 -0.1868 -0.3346, -0.0119 -0.1868 -0.3307, -0.0119 -0.1868 -0.3346, -0.0119 -0.1975 -0.3307, -0.0119 -0.1975 -0.3346, -0.0016 -0.1959 -0.3307, -0.0016 -0.1993 -0.3307, -0.0016 -0.1959 -0.3346, -0.0016 -0.1993 -0.3346, 0.0018 -0.2007 -0.3307, 0.0071 -0.2013 -0.3307, 0.0071 -0.2013 -0.3346, 0.0062 -0.2013 -0.3346, 0.0062 -0.2013 -0.3307, 0.005 -0.2012 -0.3346, 0.0018 -0.2007 -0.3346, 0.009 -0.2012 -0.3346, 0.011 -0.2009 -0.3307, 0.011 -0.2009 -0.3346, 0.014 -0.1999 -0.3307, 0.014 -0.1999 -0.3346, 0.0166 -0.1983 -0.3307, 0.0166 -0.1983 -0.3346, 0.0189 -0.1958 -0.3307, 0.0189 -0.1958 -0.3346, 0.0206 -0.1928 -0.3307, 0.0206 -0.1928 -0.3346, 0.0216 -0.1895 -0.3307, 0.0216 -0.1895 -0.3346, 0.0219 -0.1858 -0.3307, 0.0219 -0.1858 -0.3346, 0.0058 -0.1691 -0.3307, 0.0058 -0.1691 -0.3346, 0.009 -0.1693 -0.3346, 0.009 -0.1693 -0.3307, 0.0125 -0.1704 -0.3346, 0.0125 -0.1704 -0.3307, 0.0155 -0.1721 -0.3346, 0.0155 -0.1721 -0.3307, 0.0184 -0.1748 -0.3346, 0.0184 -0.1748 -0.3307, 0.0202 -0.1778 -0.3346, 0.0202 -0.1778 -0.3307, 0.0214 -0.1813 -0.3346, 0.0214 -0.1813 -0.3307, -0.0016 -0.1703 -0.3307, -0.0016 -0.1703 -0.3346, 0.0021 -0.1693 -0.3346, 0.0021 -0.1693 -0.3307, -0.0016 -0.1746 -0.3307, -0.0016 -0.1746 -0.3346, 0.0058 -0.1725 -0.3307, 0.0058 -0.1725 -0.3346, 0.002 -0.173 -0.3346, 0.002 -0.173 -0.3307, 0.0176 -0.1856 -0.3307, 0.0176 -0.1856 -0.3346, 0.0175 -0.1831 -0.3346, 0.0175 -0.1831 -0.3307, 0.0166 -0.1797 -0.3346, 0.0166 -0.1797 -0.3307, 0.0153 -0.1773 -0.3346, 0.0153 -0.1773 -0.3307, 0.0134 -0.1752 -0.3346, 0.0134 -0.1752 -0.3307, 0.0113 -0.1737 -0.3346, 0.0113 -0.1737 -0.3307, 0.0089 -0.1729 -0.3346, 0.0089 -0.1729 -0.3307, 0.0065 -0.1979 -0.3307, 0.0065 -0.1979 -0.3346, 0.0095 -0.1976 -0.3346, 0.0095 -0.1976 -0.3307, 0.0117 -0.1967 -0.3346, 0.0117 -0.1967 -0.3307, 0.0137 -0.1954 -0.3346, 0.0137 -0.1954 -0.3307, 0.0152 -0.1939 -0.3346, 0.0152 -0.1939 -0.3307, 0.0165 -0.1917 -0.3346, 0.0165 -0.1917 -0.3307, 0.0173 -0.189 -0.3346, 0.0173 -0.189 -0.3307, -0.001 -0.1962 -0.3346, -0.001 -0.1962 -0.3307, 0.0023 -0.1974 -0.3346, 0.0023 -0.1974 -0.3307, 0.0246 -0.1975 -0.3307, 0.0246 -0.201 -0.3307, 0.0246 -0.1975 -0.3346, 0.0246 -0.201 -0.3346, 0.0407 -0.201 -0.3307, 0.0407 -0.201 -0.3346, 0.0407 -0.1695 -0.3307, 0.0407 -0.1695 -0.3346, 0.0365 -0.1695 -0.3307, 0.0365 -0.1695 -0.3346, 0.0365 -0.1975 -0.3307, 0.0365 -0.1975 -0.3346, 0.0365 -0.1975 -0.3346
            ]
        }
        coordIndex [
            0,1,2,-1,2,1,3,-1,1,4,3,-1,3,4,5,-1,4,6,5,-1,5,6,7,-1,6,8,7,-1,7,8,9,-1,8,10,9,-1,9,10,11,-1,10,12,11,-1,11,12,13,-1,12,14,13,-1,13,14,15,-1,14,0,15,-1,15,0,2,-1,16,8,17,-1,17,8,6,-1,18,14,16,-1,16,14,12,-1,16,12,8,-1,8,12,10,-1,18,19,14,-1,14,19,20,-1,14,20,0,-1,0,20,21,-1,0,21,22,-1,22,23,0,-1,0,23,17,-1,0,17,1,-1,1,17,6,-1,1,6,4,-1,16,17,24,-1,24,17,25,-1,18,16,26,-1,26,16,24,-1,18,26,27,-1,18,27,19,-1,19,27,28,-1,19,28,20,-1,21,20,29,-1,29,20,28,-1,21,29,30,-1,21,30,22,-1,22,30,31,-1,22,31,23,-1,17,23,25,-1,25,23,31,-1,32,33,34,-1,34,33,35,-1,33,36,35,-1,35,36,37,-1,36,38,37,-1,37,38,39,-1,40,41,42,-1,40,42,43,-1,43,42,44,-1,43,44,45,-1,45,44,46,-1,45,46,47,-1,47,46,48,-1,47,48,49,-1,49,48,50,-1,49,50,51,-1,51,50,52,-1,51,52,53,-1,53,52,54,-1,53,54,55,-1,55,54,39,-1,55,39,38,-1,32,34,56,-1,32,56,57,-1,57,56,58,-1,57,58,59,-1,59,58,60,-1,59,60,61,-1,61,60,62,-1,61,62,63,-1,63,62,64,-1,63,64,65,-1,65,64,66,-1,65,66,67,-1,67,66,41,-1,67,41,40,-1,45,47,68,-1,68,47,49,-1,68,49,69,-1,69,49,51,-1,69,51,70,-1,70,51,53,-1,70,53,71,-1,71,53,55,-1,71,55,72,-1,72,55,38,-1,72,38,73,-1,73,38,36,-1,73,36,74,-1,74,36,33,-1,74,33,75,-1,75,33,32,-1,75,32,76,-1,76,32,57,-1,76,57,77,-1,77,57,59,-1,77,59,78,-1,78,59,61,-1,78,61,79,-1,79,61,63,-1,79,63,80,-1,80,63,65,-1,80,65,81,-1,81,65,67,-1,81,67,82,-1,82,67,40,-1,82,40,83,-1,83,40,43,-1,83,43,84,-1,84,43,45,-1,84,45,68,-1,72,73,85,-1,85,73,86,-1,72,85,87,-1,72,87,71,-1,71,87,88,-1,71,88,70,-1,70,88,89,-1,70,89,69,-1,69,89,90,-1,69,90,68,-1,68,90,91,-1,68,91,84,-1,84,91,92,-1,84,92,83,-1,83,92,93,-1,83,93,82,-1,82,93,94,-1,82,94,81,-1,81,94,95,-1,81,95,80,-1,80,95,96,-1,80,96,79,-1,79,96,97,-1,79,97,78,-1,78,97,98,-1,78,98,77,-1,77,98,99,-1,77,99,76,-1,76,99,100,-1,76,100,75,-1,74,75,101,-1,101,75,100,-1,73,74,86,-1,86,74,101,-1,102,103,104,-1,104,103,105,-1,103,106,105,-1,105,106,107,-1,106,108,107,-1,107,108,109,-1,108,110,109,-1,109,110,111,-1,110,112,111,-1,111,112,113,-1,112,114,113,-1,113,114,115,-1,114,116,115,-1,115,116,117,-1,116,118,117,-1,117,118,119,-1,118,120,119,-1,119,120,121,-1,120,122,121,-1,121,122,123,-1,122,124,123,-1,123,124,125,-1,124,102,125,-1,125,102,104,-1,106,103,102,-1,102,124,106,-1,106,124,122,-1,106,122,108,-1,112,110,114,-1,114,110,108,-1,114,108,116,-1,116,108,122,-1,116,122,118,-1,118,122,120,-1,126,127,128,-1,128,127,129,-1,129,127,130,-1,131,132,133,-1,131,133,134,-1,134,133,135,-1,134,135,130,-1,130,135,136,-1,130,136,129,-1,132,131,137,-1,137,131,138,-1,137,138,139,-1,139,138,140,-1,139,140,141,-1,141,140,142,-1,141,142,143,-1,143,142,144,-1,143,144,145,-1,145,144,146,-1,145,146,147,-1,147,146,148,-1,147,148,149,-1,149,148,150,-1,149,150,151,-1,152,153,154,-1,152,154,155,-1,155,154,156,-1,155,156,157,-1,157,156,158,-1,157,158,159,-1,159,158,160,-1,159,160,161,-1,161,160,162,-1,161,162,163,-1,163,162,164,-1,163,164,165,-1,165,164,151,-1,165,151,150,-1,166,167,168,-1,166,168,169,-1,169,168,153,-1,169,153,152,-1,166,170,167,-1,167,170,171,-1,172,173,174,-1,172,174,175,-1,175,174,171,-1,175,171,170,-1,176,177,178,-1,176,178,179,-1,179,178,180,-1,179,180,181,-1,181,180,182,-1,181,182,183,-1,183,182,184,-1,183,184,185,-1,185,184,186,-1,185,186,187,-1,187,186,188,-1,187,188,189,-1,189,188,173,-1,189,173,172,-1,190,191,192,-1,190,192,193,-1,193,192,194,-1,193,194,195,-1,195,194,196,-1,195,196,197,-1,197,196,198,-1,197,198,199,-1,199,198,200,-1,199,200,201,-1,201,200,202,-1,201,202,203,-1,203,202,177,-1,203,177,176,-1,126,128,204,-1,126,204,205,-1,205,204,206,-1,205,206,207,-1,207,206,191,-1,207,191,190,-1,193,131,190,-1,190,131,134,-1,190,134,207,-1,207,134,130,-1,207,130,205,-1,205,130,127,-1,205,127,126,-1,170,166,175,-1,175,166,169,-1,175,169,172,-1,172,169,152,-1,172,152,189,-1,189,152,155,-1,189,155,187,-1,187,155,157,-1,187,157,185,-1,185,157,159,-1,185,159,183,-1,183,159,161,-1,183,161,181,-1,181,161,163,-1,181,163,179,-1,179,163,165,-1,179,165,176,-1,176,165,150,-1,176,150,203,-1,203,150,148,-1,203,148,201,-1,201,148,146,-1,201,146,199,-1,199,146,144,-1,199,144,197,-1,197,144,142,-1,197,142,195,-1,195,142,140,-1,195,140,193,-1,193,140,138,-1,193,138,131,-1,208,209,210,-1,210,209,211,-1,209,212,211,-1,211,212,213,-1,212,214,213,-1,213,214,215,-1,214,216,215,-1,215,216,217,-1,216,218,217,-1,217,218,219,-1,218,208,219,-1,219,208,210,-1,216,214,218,-1,218,214,212,-1,218,212,208,-1,208,212,209,-1,
        ]
    }
}
Shape{
    appearance Appearance {
        material  Material 	{
            diffuseColor 0.25098039215686274 0.25098039215686274 0.25098039215686274
            specularColor 0.12549019607843137 0.12549019607843137 0.12549019607843137
            ambientIntensity 0.2
            transparency 0
            shininess 0.5
        }
    }
    geometry IndexedFaceSet {
        ccw TRUE
        solid FALSE
        coord DEF co Coordinate {
            point [
                -0.0671 -0.1887 -0.3346, -0.0776 -0.1887 -0.3346, -0.0718 -0.1755 -0.3346, -0.0729 -0.1755 -0.3346, -0.0721 -0.1744 -0.3346, -0.0726 -0.1744 -0.3346, -0.0723 -0.1733 -0.3346, -0.0724 -0.1733 -0.3346, -0.035 -0.1729 -0.3346, -0.035 -0.1975 -0.3346, -0.0396 -0.1729 -0.3346, -0.0395 -0.1975 -0.3346, -0.0428 -0.1972 -0.3346, -0.0519 -0.1849 -0.3346, -0.0516 -0.1818 -0.3346, -0.0509 -0.1793 -0.3346, -0.0434 -0.1733 -0.3346, -0.0454 -0.1964 -0.3346, -0.0476 -0.1951 -0.3346, -0.0493 -0.1934 -0.3346, -0.0507 -0.1912 -0.3346, -0.0516 -0.1882 -0.3346, -0.0498 -0.1773 -0.3346, -0.0483 -0.1757 -0.3346, -0.046 -0.1742 -0.3346, -0.046 -0.1742 -0.3346
            ]
        }
        coordIndex [
            0,1,2,-1,2,1,3,-1,2,3,4,-1,4,3,5,-1,4,5,6,-1,6,5,7,-1,8,9,10,-1,10,9,11,-1,10,11,12,-1,13,14,10,-1,10,14,15,-1,10,15,16,-1,12,17,10,-1,10,17,18,-1,10,18,19,-1,19,20,10,-1,10,20,21,-1,10,21,13,-1,22,23,15,-1,15,23,24,-1,15,24,16,-1,
        ]
    }
}